<svg width="66" height="66" viewBox="0 0 66 66" fill="none" xmlns="http://www.w3.org/2000/svg">
<circle cx="33" cy="33" r="33" fill="#6E4AFA"/>
<path fill-rule="evenodd" clip-rule="evenodd" d="M44.3061 36.3751C45.3616 37.4404 46.4755 38.4427 47.4221 39.6155C47.8402 40.1366 48.2361 40.6744 48.539 41.2792C48.9681 42.139 48.5794 43.0851 47.8338 43.1365L43.1986 43.1343C42.0031 43.2369 41.0494 42.7393 40.2475 41.8942C39.6057 41.2184 39.0114 40.4991 38.3943 39.8005C38.1414 39.515 37.8766 39.2463 37.5602 39.0339C36.9275 38.6093 36.3782 38.7393 36.0166 39.4216C35.6483 40.1156 35.5648 40.884 35.5287 41.6574C35.479 42.7859 35.1491 43.0825 34.0527 43.1342C31.7096 43.2484 29.4859 42.8819 27.4201 41.6599C25.5989 40.5826 24.1865 39.0617 22.9573 37.3399C20.5639 33.9872 18.7311 30.3031 17.0838 26.5159C16.713 25.6626 16.9841 25.2046 17.8948 25.1883C19.4069 25.158 20.9188 25.1601 22.4327 25.1862C23.0473 25.1955 23.4542 25.5599 23.6915 26.1602C24.5096 28.2399 25.5106 30.2186 26.7672 32.0527C27.1018 32.541 27.443 33.0293 27.9289 33.373C28.4664 33.7535 28.8757 33.6274 29.1286 33.0083C29.289 32.6158 29.3593 32.193 29.3954 31.7726C29.5152 30.3262 29.531 28.8822 29.3209 27.4409C29.1919 26.5414 28.7018 25.959 27.8337 25.7888C27.3906 25.702 27.4566 25.5316 27.6711 25.2702C28.0437 24.8193 28.3941 24.5386 29.0926 24.5386H34.3311C35.1558 24.7069 35.3389 25.0899 35.4518 25.9478L35.4563 31.9638C35.4473 32.2959 35.6168 33.2815 36.1954 33.5013C36.6585 33.6578 36.9637 33.2748 37.2416 32.9712C38.4958 31.5949 39.391 29.9684 40.1907 28.2842C40.5456 27.5437 40.8508 26.7746 41.1465 26.0062C41.3656 25.4359 41.7094 25.1554 42.3307 25.1678L47.3724 25.1725C47.5219 25.1725 47.6732 25.1747 47.818 25.2003C48.6675 25.35 48.9004 25.7279 48.638 26.5856C48.2245 27.9313 47.4201 29.0527 46.6336 30.1793C45.7928 31.3821 44.8935 32.5437 44.0597 33.7536C43.2937 34.8585 43.3545 35.4155 44.3061 36.3751Z" fill="white"/>
</svg>
