<svg width="66" height="66" viewBox="0 0 66 66" fill="none" xmlns="http://www.w3.org/2000/svg">
<circle cx="33" cy="33" r="33" fill="#6E4AFA"/>
<path d="M48.6014 22.4141C47.3798 20.9179 45.1243 20.3076 40.8167 20.3076H25.1804C20.7743 20.3076 18.4806 20.9573 17.2635 22.5502C16.0769 24.1032 16.0769 26.3916 16.0769 29.5587V35.5951C16.0769 41.7308 17.4848 44.8461 25.1804 44.8461H40.8168C44.5523 44.8461 46.6222 44.3075 47.9613 42.9872C49.3346 41.6332 49.9206 39.4225 49.9206 35.5951V29.5587C49.9206 26.2187 49.8287 23.9169 48.6014 22.4141ZM37.8046 33.4103L30.7043 37.2335C30.5455 37.319 30.3719 37.3614 30.1986 37.3614C30.0023 37.3614 29.8064 37.3069 29.6329 37.1987C29.3063 36.9948 29.1068 36.63 29.1068 36.2366V28.6148C29.1068 28.222 29.3058 27.8576 29.6317 27.6535C29.9578 27.4495 30.3634 27.4356 30.7017 27.6167L37.8021 31.4152C38.1634 31.6084 38.3903 31.9926 38.3908 32.4118C38.3912 32.8314 38.1654 33.2162 37.8046 33.4103Z" fill="white"/>
</svg>
