<svg width="66" height="66" viewBox="0 0 66 66" fill="none" xmlns="http://www.w3.org/2000/svg">
<circle cx="33" cy="33" r="33" fill="#6E4AFA"/>
<g clip-path="url(#clip0)">
<path d="M39.4451 18.6155H26.5544C22.1768 18.6155 18.6154 22.1771 18.6154 26.5547V39.4453C18.6154 43.8231 22.1768 47.3845 26.5544 47.3845H39.4451C43.823 47.3845 47.3844 43.8229 47.3844 39.4453V26.5547C47.3846 22.1771 43.823 18.6155 39.4451 18.6155ZM44.8321 39.4453C44.8321 42.4156 42.4155 44.832 39.4452 44.832H26.5544C23.5843 44.8322 21.1679 42.4156 21.1679 39.4453V26.5547C21.1679 23.5846 23.5843 21.168 26.5544 21.168H39.4451C42.4153 21.168 44.8319 23.5846 44.8319 26.5547V39.4453H44.8321Z" fill="white"/>
<path d="M33.0002 25.5872C28.9126 25.5872 25.5872 28.9126 25.5872 33.0002C25.5872 37.0877 28.9126 40.4129 33.0002 40.4129C37.0878 40.4129 40.4133 37.0877 40.4133 33.0002C40.4133 28.9126 37.0878 25.5872 33.0002 25.5872ZM33.0002 37.8602C30.3202 37.8602 28.1397 35.68 28.1397 33C28.1397 30.3199 30.3201 28.1395 33.0002 28.1395C35.6804 28.1395 37.8607 30.3199 37.8607 33C37.8607 35.68 35.6802 37.8602 33.0002 37.8602Z" fill="white"/>
<path d="M40.7242 23.4229C40.2324 23.4229 39.7493 23.6219 39.402 23.9708C39.0529 24.3179 38.8523 24.8012 38.8523 25.2947C38.8523 25.7867 39.0531 26.2698 39.402 26.6186C39.7491 26.9658 40.2324 27.1666 40.7242 27.1666C41.2177 27.1666 41.6992 26.9658 42.0481 26.6186C42.3969 26.2698 42.596 25.7865 42.596 25.2947C42.596 24.8012 42.3969 24.3179 42.0481 23.9708C41.7009 23.6219 41.2177 23.4229 40.7242 23.4229Z" fill="white"/>
</g>
<defs>
<clipPath id="clip0">
<rect width="28.7692" height="28.7692" fill="white" transform="translate(18.6154 18.6155)"/>
</clipPath>
</defs>
</svg>
