<svg width="17" height="17" viewBox="0 0 17 17" fill="none" xmlns="http://www.w3.org/2000/svg">
<path d="M8.49776 0C10.8431 0 12.9666 0.953706 14.5081 2.48902C16.0434 4.03092 16.9971 6.15443 16.9971 8.49979C16.9971 10.8452 16.0434 12.9687 14.5081 14.5106C12.9662 16.0459 10.8431 16.9996 8.49776 16.9996C6.15239 16.9996 4.02929 16.0459 2.49398 14.5106C0.952079 12.9687 0.00454712 10.8456 0.00454712 8.49979C0.00454712 6.15443 0.951667 4.03092 2.49357 2.48902C4.02929 0.953706 6.15239 0 8.49776 0ZM12.8296 8.03591C13.0844 8.03591 13.2869 8.24501 13.2869 8.49979C13.2869 8.75458 13.0844 8.96368 12.8296 8.96368H8.51093H8.49776C8.32776 8.96368 8.17752 8.86572 8.09931 8.72865L8.09273 8.72206L8.08614 8.70889V8.70231L8.07956 8.68914L8.07297 8.67596V8.66938L8.06639 8.65621L8.0598 8.64962V8.63645L8.05321 8.62328V8.61669L8.04663 8.60352V8.59035V8.58376V8.57718L8.04004 8.57059V8.55742V8.54425V8.53272V8.52614V8.51297V8.49979V2.96608C8.04004 2.71129 8.24256 2.50878 8.49734 2.50878C8.75213 2.50878 8.96123 2.71129 8.96123 2.96608V8.03591H12.8296ZM13.8549 3.14266C12.483 1.77076 10.5883 0.927774 8.49776 0.927774C6.40718 0.927774 4.51252 1.77034 3.14062 3.14266C1.7753 4.51456 0.925735 6.40922 0.925735 8.49979C0.925735 10.5904 1.77489 12.485 3.14062 13.8573C4.51252 15.2292 6.40718 16.0722 8.49776 16.0722C10.5883 16.0722 12.483 15.2292 13.8549 13.8573C15.2268 12.4854 16.0764 10.5908 16.0764 8.49979C16.0764 6.40922 15.2272 4.51456 13.8549 3.14266Z" fill="#6B6C7C"/>
</svg>
