<svg width="155" height="155" viewBox="0 0 155 155" fill="none" xmlns="http://www.w3.org/2000/svg">
<g filter="url(#filter0_d)">
<rect x="20" y="10" width="114.154" height="115" rx="20" fill="white"/>
</g>
<rect x="36.0656" y="42.1323" width="73.5662" height="59.1912" rx="29.5956" fill="#D0D7F3"/>
<path d="M70.3395 62.785C69.5467 62.785 68.9033 62.1416 68.9033 61.3529C68.9033 60.5643 69.5467 59.921 70.3395 59.921C71.1322 59.921 71.7756 60.5643 71.7756 61.3529C71.7756 62.1416 71.1322 62.785 70.3395 62.785ZM89.8238 68.8242L80.7452 59.7446C79.9503 58.9456 78.4136 58.3334 77.2534 58.3334C77.1995 58.3334 77.1455 58.3334 77.0926 58.3334L69.9617 58.7069C68.785 58.7692 67.7723 59.7861 67.711 60.9587L67.3396 68.0875C67.2783 69.2704 67.9092 70.9099 68.7435 71.7401L77.821 80.8197C78.2371 81.2347 78.7861 81.4423 79.335 81.4423C79.8839 81.4423 80.4329 81.2347 80.85 80.8197L89.8238 71.8438C90.656 71.0137 90.656 69.6543 89.8238 68.8242Z" fill="#FFFFF7"/>
<path d="M71.3756 62.3739C70.8187 62.9339 69.9186 62.9339 69.3627 62.3739C68.8069 61.8243 68.8069 60.9221 69.3627 60.3621L68.418 59.4185C68.0105 59.8229 67.7419 60.3726 67.7108 60.9637L67.3395 68.0878C67.2784 69.27 67.9099 70.9085 68.7426 71.7485L77.8205 80.8223C78.2364 81.2371 78.786 81.4445 79.3346 81.4445C79.8831 81.4445 80.4327 81.2371 80.8496 80.8223L85.3367 76.332L71.3756 62.3739Z" fill="#FBFAB7"/>
<path d="M71.3762 62.3792C70.82 62.9291 69.9194 62.9291 69.3633 62.3792C68.8072 61.819 68.8072 60.9163 69.3644 60.3664C69.9184 59.8061 70.82 59.8061 71.3762 60.3664C71.9323 60.9163 71.9323 61.819 71.3762 62.3792ZM89.1669 69.4761L80.0894 60.3976C79.2936 59.5987 77.8328 58.9139 76.7662 58.8205C76.7153 58.8205 76.6666 58.8204 76.6178 58.8101L70.0948 58.5819C69.0178 58.5404 68.1691 59.3911 68.2085 60.4598L68.4441 66.986C68.4835 68.065 69.1963 69.6213 70.0284 70.4617L79.1069 79.5402C79.5229 79.9552 80.0448 80.1938 80.549 80.2353C81.0543 80.2768 81.542 80.1316 81.8906 79.7788L89.4117 72.2567C90.11 71.5615 90 70.3061 89.1669 69.4761Z" fill="#A7B4E4"/>
<path d="M81.2967 74.8334C81.1717 74.8334 81.0539 74.7817 80.9671 74.6991L79.2541 72.984L77.5422 74.6991C77.4544 74.7817 77.3355 74.8334 77.2116 74.8334C77.0886 74.8334 76.9698 74.7817 76.882 74.6991L74.8084 72.6224C74.6266 72.4364 74.6266 72.1472 74.8084 71.9612L76.5204 70.2461L74.8084 68.5413C74.6266 68.3554 74.6266 68.0558 74.8084 67.8802L76.8809 65.8034C76.9719 65.7105 77.0917 65.6692 77.2105 65.6692C77.3304 65.6692 77.4502 65.7105 77.5401 65.8034L79.2541 67.5186L80.9661 65.8034C81.057 65.7105 81.1758 65.6692 81.2957 65.6692C81.4145 65.6692 81.5343 65.7105 81.6253 65.8034L83.6978 67.8802C83.8807 68.0558 83.8807 68.3554 83.6978 68.5413L81.9869 70.2461L83.6988 71.9612C83.8807 72.1472 83.8807 72.4364 83.6988 72.6224L81.6253 74.6991C81.5385 74.7817 81.4207 74.8334 81.2967 74.8334Z" fill="#F3658C"/>
<path d="M77.2114 65.2032C76.9726 65.2032 76.7339 65.2962 76.552 65.4718L74.4789 67.5491C74.1151 67.9109 74.1151 68.4999 74.4789 68.8719L75.8617 70.2464L74.4789 71.6313C74.1151 71.993 74.1151 72.5924 74.4789 72.9541L76.5531 75.021C76.7277 75.1967 76.9654 75.3 77.2124 75.3C77.4594 75.3 77.6971 75.1967 77.8717 75.021L79.2545 73.6465L80.6373 75.021C80.8119 75.1967 81.0496 75.3 81.2966 75.3C81.5436 75.3 81.7803 75.1967 81.956 75.021L84.028 72.9541C84.3928 72.5924 84.3928 71.993 84.028 71.6313L82.6463 70.2464L84.028 68.8719C84.3928 68.4999 84.3928 67.9109 84.028 67.5491L81.9549 65.4718C81.773 65.2962 81.5343 65.2032 81.2956 65.2032C81.0568 65.2032 80.8181 65.2962 80.6373 65.4718L79.2545 66.8567L77.8707 65.4718C77.6878 65.2962 77.4501 65.2032 77.2114 65.2032ZM81.2956 66.1333L83.3687 68.2105L81.3276 70.2464L83.3697 72.2926L81.2966 74.3699L79.2545 72.3237L77.2124 74.3699L75.1383 72.2926L77.1804 70.2464L75.1383 68.2105L77.2114 66.1333L79.2545 68.1795L81.2956 66.1333Z" fill="#212649"/>
<path d="M70.1851 61.7959C70.2444 61.8271 70.3069 61.8376 70.3683 61.8376C70.5494 61.8376 70.7212 61.7335 70.7972 61.5565C70.8992 61.3171 70.7899 61.0464 70.5536 60.9423C70.3131 60.8382 70.0571 60.7237 69.7937 60.6092C69.9592 60.4843 70.158 60.4115 70.3693 60.4115C70.6254 60.4115 70.8659 60.5156 71.046 60.6926C71.226 60.8695 71.326 61.1089 71.326 61.3692C71.326 61.6294 71.226 61.8688 71.046 62.0458C70.6847 62.4101 70.0539 62.4101 69.6917 62.0458C69.5293 61.8792 69.4429 61.6814 69.4221 61.4628C69.7979 61.6293 70.0706 61.7543 70.1851 61.7959ZM89.8224 71.8513L80.8495 80.8243C80.4332 81.2406 79.8835 81.4488 79.3339 81.4488C78.7853 81.4488 78.2368 81.2406 77.8204 80.8243L68.7424 71.7473C67.9096 70.9145 67.2788 69.2699 67.3392 68.0936L67.7108 60.9632C67.715 60.8799 67.7347 60.7966 67.7493 60.7133C68.0147 60.8278 68.2708 60.9528 68.5102 61.0569C68.4134 61.6398 68.5862 62.2539 69.0328 62.7015C69.3898 63.0659 69.8645 63.2636 70.3693 63.2636C70.8742 63.2636 71.3478 63.0659 71.7049 62.7015C72.4429 61.9729 72.4419 60.7653 71.7049 60.0367C71.3478 59.6723 70.8742 59.485 70.3693 59.485C69.8645 59.485 69.3898 59.6723 69.0328 60.0367C68.9797 60.0887 68.9381 60.1512 68.8923 60.2033C68.6268 60.0888 68.3572 59.9639 68.0876 59.839C68.4967 59.204 69.19 58.746 69.9613 58.7148L77.0917 58.34C77.1448 58.34 77.199 58.34 77.2531 58.34C78.4137 58.34 79.9491 58.9437 80.7454 59.7452L89.8224 68.8223C90.6562 69.655 90.6562 71.0186 89.8224 71.8513ZM63.5262 57.3928C63.1442 57.0076 62.9329 56.4976 62.9329 55.9563C62.9329 55.415 63.1431 54.9153 63.5262 54.5302C63.9093 54.145 64.4183 53.9368 64.9606 53.9368C65.5019 53.9368 66.0109 54.145 66.394 54.5302C66.5835 54.7175 67.0592 55.3837 68.1636 57.6634C67.5411 58.0173 67.0206 58.5378 66.6646 59.1623C65.1709 58.4441 63.8843 57.7571 63.5262 57.3928ZM90.9217 67.7189L81.8447 58.6419C80.7642 57.5593 78.8343 56.7786 77.2531 56.7786C77.174 56.7786 77.0969 56.7786 77.021 56.789L69.8801 57.1637C69.5866 57.1741 69.3013 57.2262 69.0255 57.3095C67.6567 54.4781 67.208 54.0201 67.054 53.8639C66.495 53.3122 65.7517 53 64.9606 53C64.1705 53 63.4263 53.3122 62.8663 53.8639C62.3073 54.426 62.0002 55.1652 62.0002 55.9563C62.0002 56.7474 62.3073 57.4968 62.8673 58.0589C63.3336 58.5169 64.8003 59.2977 66.3045 60.0263C66.2264 60.297 66.1733 60.5884 66.1587 60.8799L65.7871 68.0103C65.7028 69.6238 66.5012 71.7056 67.6431 72.8402L76.7212 81.9173C77.4176 82.6147 78.3461 82.9999 79.3339 82.9999C80.3239 82.9999 81.2513 82.6147 81.9477 81.9173L90.9227 72.9443C91.6181 72.2469 92.0022 71.3205 92.0022 70.3316C92.0022 69.3427 91.6181 68.4163 90.9217 67.7189Z" fill="#212649"/>
<rect x="41.2938" y="38.9044" width="71.5662" height="57.1912" rx="28.5956" stroke="#212649" stroke-width="2"/>
<defs>
<filter id="filter0_d" x="0" y="0" width="154.154" height="155" filterUnits="userSpaceOnUse" color-interpolation-filters="sRGB">
<feFlood flood-opacity="0" result="BackgroundImageFix"/>
<feColorMatrix in="SourceAlpha" type="matrix" values="0 0 0 0 0 0 0 0 0 0 0 0 0 0 0 0 0 0 127 0"/>
<feOffset dy="10"/>
<feGaussianBlur stdDeviation="10"/>
<feColorMatrix type="matrix" values="0 0 0 0 0.270833 0 0 0 0 0.270833 0 0 0 0 0.270833 0 0 0 0.1 0"/>
<feBlend mode="normal" in2="BackgroundImageFix" result="effect1_dropShadow"/>
<feBlend mode="normal" in="SourceGraphic" in2="effect1_dropShadow" result="shape"/>
</filter>
</defs>
</svg>
