<svg width="16" height="16" viewBox="0 0 16 16" fill="none" xmlns="http://www.w3.org/2000/svg">
<g opacity="0.5">
<path d="M11.6069 0H4.71519C2.4722 0 0.647461 1.82474 0.647461 4.06773V10.9596C0.647461 13.2025 2.4722 15.0272 4.71519 15.0272H11.607C13.8499 15.0272 15.6747 13.2025 15.6747 10.9596V4.06773C15.6747 1.82474 13.8499 0 11.6069 0V0ZM8.16106 11.6225C5.89538 11.6225 4.05217 9.77928 4.05217 7.5136C4.05217 5.24792 5.89538 3.40471 8.16106 3.40471C10.4267 3.40471 12.2699 5.24792 12.2699 7.5136C12.2699 9.77928 10.4267 11.6225 8.16106 11.6225ZM12.3682 4.37372C11.6986 4.37372 11.1541 3.82914 11.1541 3.1596C11.1541 2.49005 11.6986 1.94535 12.3682 1.94535C13.0377 1.94535 13.5824 2.49005 13.5824 3.1596C13.5824 3.82914 13.0377 4.37372 12.3682 4.37372Z" fill="#7880C8"/>
<path d="M8.16054 4.28564C6.38074 4.28564 4.93262 5.73365 4.93262 7.51357C4.93262 9.29337 6.38074 10.7415 8.16054 10.7415C9.94046 10.7415 11.3885 9.29337 11.3885 7.51357C11.3885 5.73365 9.94046 4.28564 8.16054 4.28564Z" fill="#7880C8"/>
</g>
</svg>
