<svg width="155" height="156" viewBox="0 0 155 156" fill="none" xmlns="http://www.w3.org/2000/svg">
<g filter="url(#filter0_d)">
<rect x="20" y="10" width="115" height="115.852" rx="20" fill="white"/>
</g>
<rect x="36.1846" y="42.3705" width="74.1111" height="59.6296" rx="29.8148" fill="#D0D7F3"/>
<path d="M80.8006 62.5736C79.6561 63.7134 78.2115 64.5566 78.2115 64.5566C78.2115 64.5566 76.5629 63.5157 75.6225 62.5736C73.5481 63.2249 71.8111 64.6322 70.741 66.4874C72.2333 69.0636 75.0183 70.7966 78.2115 70.7966C81.4042 70.7966 84.1898 69.0636 85.682 66.4874C84.6114 64.6322 82.8743 63.2249 80.8006 62.5736Z" fill="white"/>
<path d="M74.8736 53.6901C74.8736 54.6007 74.8736 55.5171 74.8736 56.4278V58.4605C74.8736 60.3052 76.3687 61.7975 78.2129 61.7975C80.0576 61.7975 81.5528 60.3052 81.5528 58.4605V56.4278C81.5528 55.5171 81.5528 54.6007 81.5528 53.6901C79.4002 52.8734 77.0261 52.8734 74.8736 53.6901Z" fill="white"/>
<path d="M78.7889 53.3307C73.8152 53.3307 74.8733 54.1058 74.8733 58.4571C74.8733 60.3009 76.6262 61.7983 78.7889 61.7983V53.3307Z" fill="#FBFAB7"/>
<path d="M76.8652 53.3308V58.4571C76.8652 60.0485 77.6532 61.3345 78.625 61.3345C79.5969 61.3345 80.3849 60.0485 80.3849 58.4571V53.3308H76.8652Z" fill="#A7B4E4"/>
<path d="M78.2115 64.5566C78.2115 64.5566 76.5629 63.5157 75.6225 62.5736C73.5481 63.2249 71.8111 64.6322 70.741 66.4874C72.2333 69.0636 75.0183 70.7966 78.2115 70.7966V64.5566Z" fill="#FBFAB7"/>
<path d="M80.7376 62.8021C79.8475 63.8079 78.5312 64.8137 78.5312 64.8137C78.5312 64.8137 76.9888 63.6335 76.2573 62.8021C74.6457 63.3777 73.4247 64.5928 72.5933 66.2266C73.6079 68.5929 76.0492 70.3138 78.5312 70.3138C81.0132 70.3138 83.1784 68.7847 84.3383 66.5114C83.5069 64.8835 82.3499 63.3777 80.7376 62.8021Z" fill="#A7B4E4"/>
<path d="M82.4307 67.9181H79.639V66.2149H82.4307V67.9181Z" fill="#F3658C"/>
<path d="M82.1398 67.631H79.9294V66.5064H80.7451V66.576C80.7451 66.7325 80.8743 66.8658 81.0343 66.8658C81.1949 66.8658 81.3248 66.7325 81.3248 66.576V66.5064H82.1398V67.631ZM82.4297 65.9267H81.3248V65.8571C81.3248 65.7006 81.1949 65.5673 81.0343 65.5673C80.8743 65.5673 80.7451 65.7006 80.7451 65.8571V65.9267H79.6384C79.479 65.9267 79.3491 66.0542 79.3491 66.2165V67.9208C79.3491 68.0832 79.479 68.2107 79.6384 68.2107H82.4297C82.5903 68.2107 82.7201 68.0832 82.7201 67.9208V66.2165C82.7201 66.0542 82.5903 65.9267 82.4297 65.9267Z" fill="#5C2D56"/>
<path d="M81.0357 65.343C81.1122 65.343 81.1859 65.314 81.2416 65.256C81.2962 65.2038 81.3252 65.1283 81.3252 65.0529C81.3252 64.9775 81.2962 64.9021 81.2399 64.8498C81.132 64.7396 80.9411 64.7396 80.8303 64.8498C80.7763 64.9021 80.745 64.9775 80.745 65.0529C80.745 65.1283 80.7763 65.2038 80.8303 65.256C80.8842 65.314 80.9596 65.343 81.0357 65.343Z" fill="#5C2D56"/>
<path d="M84.7382 67.0359C84.6364 66.8032 84.5299 66.5763 84.4182 66.361C83.9993 65.5464 83.5181 64.8307 82.9915 64.2139C83.8323 64.8248 84.5584 65.5871 85.1193 66.4831C85.0006 66.6752 84.8715 66.8555 84.7382 67.0359ZM78.503 70.306V67.1057C78.503 66.9486 78.3732 66.8148 78.2132 66.8148C78.0532 66.8148 77.9234 66.9486 77.9234 67.1057V70.306C75.6757 70.2245 73.57 69.2063 72.1019 67.5421C72.2451 67.2047 72.3963 66.873 72.5598 66.5588C73.3582 65.0285 74.3706 63.859 75.5111 63.1316C76.4222 63.9695 77.7035 64.8016 77.9234 64.9412V65.814C77.9234 65.9711 78.0532 66.1049 78.2132 66.1049C78.3732 66.1049 78.503 65.9711 78.503 65.814V64.9471C78.745 64.8016 79.8907 64.0975 80.9165 63.1316C82.075 63.8706 83.0997 65.0634 83.9021 66.6286C84.0528 66.9195 84.1924 67.2279 84.3245 67.5421C82.8559 69.2063 80.7507 70.2245 78.503 70.306ZM71.6882 67.0359C71.555 66.8555 71.4264 66.6752 71.3071 66.4831C71.8674 65.5871 72.5942 64.8248 73.435 64.2139C72.9241 64.8132 72.4557 65.5056 72.0461 66.2911C71.9204 66.5297 71.8028 66.7799 71.6882 67.0359ZM86.1021 66.2446C84.9564 64.2605 83.1259 62.7942 80.9468 62.1134C80.7752 62.0552 80.5878 62.1017 80.4604 62.2298C80.4214 62.2705 80.3812 62.3054 80.3417 62.3403L80.3097 62.3752C79.5335 63.1142 78.645 63.7135 78.2208 63.9811C77.7663 63.6844 76.7935 63.0095 76.1127 62.3694L76.0871 62.3461C76.0469 62.3054 76.0039 62.2705 75.9655 62.2298C75.8386 62.1017 75.6501 62.0552 75.479 62.1134C73.3006 62.7942 71.4694 64.2605 70.3243 66.2446C70.2376 66.3901 70.2376 66.5763 70.3243 66.7275C71.9501 69.5379 74.9728 71.2777 78.2132 71.2777C81.4536 71.2777 84.4764 69.5379 86.1021 66.7275C86.1888 66.5763 86.1888 66.3901 86.1021 66.2446Z" fill="#212649"/>
<path d="M75.3555 57.0648H81.0676V58.4576C81.0676 60.0384 79.7865 61.3137 78.2115 61.3137C76.6366 61.3137 75.3555 60.0384 75.3555 58.4576V57.0648ZM75.3555 54.0266C77.1984 53.4096 79.2247 53.4096 81.0676 54.0266V56.483H75.3555V54.0266ZM78.2115 62.2833C80.3189 62.2833 82.0343 60.5673 82.0343 58.4576V53.6857C82.0343 53.4859 81.9097 53.3038 81.7217 53.2333C80.5957 52.8101 79.4151 52.5927 78.2115 52.5927C77.008 52.5927 75.8274 52.8101 74.7008 53.2333C74.5134 53.3038 74.3888 53.4859 74.3888 53.6857V58.4576C74.3888 60.5673 76.1036 62.2833 78.2115 62.2833Z" fill="#212649"/>
<path d="M78.9089 54.752H78.5022V54.3413C78.5022 54.1829 78.3725 54.0537 78.2124 54.0537C78.0528 54.0537 77.9225 54.1829 77.9225 54.3413V54.752H77.5153C77.3557 54.752 77.2254 54.8811 77.2254 55.0395C77.2254 55.2038 77.3557 55.327 77.5153 55.327H77.9225V55.7378C77.9225 55.8962 78.0528 56.0253 78.2124 56.0253C78.3725 56.0253 78.5022 55.8962 78.5022 55.7378V55.327H78.9089C79.069 55.327 79.1993 55.2038 79.1993 55.0395C79.1993 54.8811 79.069 54.752 78.9089 54.752Z" fill="#212649"/>
<path d="M67.2515 71.8775C66.0982 73.029 64.6426 73.8781 64.6426 73.8781C64.6426 73.8781 62.982 72.8254 62.0345 71.8775C59.9442 72.5346 58.194 73.9537 57.1162 75.8206C58.6192 78.4203 61.4259 80.165 64.6426 80.165C67.8598 80.165 70.666 78.4203 72.1694 75.8206C71.0911 73.9537 69.3411 72.5346 67.2515 71.8775Z" fill="white"/>
<path d="M68.0068 65.8143C68.0068 63.9582 66.5003 62.4486 64.6421 62.4486C62.784 62.4486 61.2779 63.9582 61.2779 65.8143V67.7291C61.2779 69.5911 62.784 71.1006 64.6421 71.1006C66.5003 71.1006 68.0068 69.5911 68.0068 67.7291V65.8143Z" fill="white"/>
<path d="M65.2544 62.4486C63.0576 62.4486 61.2779 63.9582 61.2779 65.8143V67.7291C61.2779 69.5911 63.0576 71.1006 65.2544 71.1006V62.4486Z" fill="#FBFAB7"/>
<path d="M66.8318 65.8973C66.8318 64.2946 66.0385 62.9914 65.0591 62.9914C64.0797 62.9914 63.286 64.2946 63.286 65.8973V67.6525C63.286 69.2551 64.0797 70.5583 65.0591 70.5583C66.0385 70.5583 66.8318 69.2551 66.8318 67.6525V65.8973Z" fill="#A7B4E4"/>
<path d="M64.6426 73.8781C64.6426 73.8781 62.982 72.8254 62.0345 71.8775C59.9442 72.5346 58.194 73.9537 57.1162 75.8206C58.6192 78.4203 61.4259 80.165 64.6426 80.165V73.8781Z" fill="#FBFAB7"/>
<path d="M67.1865 72.1058C66.2899 73.1234 64.963 74.1293 64.963 74.1293C64.963 74.1293 63.4099 72.9431 62.6726 72.1058C61.0484 72.6815 59.8185 73.9141 58.9805 75.5538C60.0034 77.9377 62.462 79.6704 64.963 79.6704C67.4638 79.6704 69.646 78.1296 70.8147 75.8445C69.9762 74.199 68.811 72.6815 67.1865 72.1058Z" fill="#A7B4E4"/>
<path d="M66.9318 77.9147C66.77 77.9147 66.6395 77.7871 66.6395 77.6247V77.0275H66.046C65.8847 77.0275 65.7538 76.8999 65.7538 76.7375V75.8387C65.7538 75.6764 65.8847 75.5488 66.046 75.5488H66.6395V74.9515C66.6395 74.8761 66.6703 74.8008 66.7248 74.7486C66.7799 74.6906 66.8535 74.6616 66.9318 74.6616H67.8312C67.9924 74.6616 68.1229 74.795 68.1229 74.9515V75.5488H68.7161C68.8779 75.5488 69.0083 75.6764 69.0083 75.8387V76.7375C69.0083 76.8999 68.8779 77.0275 68.7161 77.0275H68.1229V77.6247C68.1229 77.7871 67.9924 77.9147 67.8312 77.9147H66.9318Z" fill="#F3658C"/>
<path d="M71.2173 76.3749C71.1137 76.1421 71.0066 75.9151 70.8943 75.6998C70.4724 74.8793 69.9871 74.1578 69.4564 73.5352C70.3043 74.1462 71.0357 74.9201 71.6007 75.8221C71.4809 76.0141 71.3511 76.1945 71.2173 76.3749ZM64.9347 79.6743V76.4505C64.9347 76.2876 64.8039 76.1538 64.6425 76.1538C64.481 76.1538 64.3501 76.2876 64.3501 76.4505V79.6743C62.086 79.5928 59.9648 78.5628 58.4856 76.8869C58.6295 76.5436 58.7819 76.2119 58.947 75.8977C59.7505 74.3557 60.7707 73.1802 61.9207 72.447C62.8379 73.2908 64.1279 74.1287 64.3501 74.2684V75.147C64.3501 75.31 64.481 75.438 64.6425 75.438C64.8039 75.438 64.9347 75.31 64.9347 75.147V74.2684C65.1782 74.1287 66.3328 73.4188 67.3662 72.447C68.5335 73.1919 69.5658 74.3906 70.3747 75.9675C70.5265 76.2643 70.6668 76.5727 70.8 76.8869C69.3208 78.5628 67.1986 79.5928 64.9347 79.6743ZM58.0689 76.3749C57.9345 76.1945 57.8043 76.0141 57.6843 75.8221C58.2493 74.9201 58.9814 74.1462 59.829 73.5293C59.314 74.1345 58.8421 74.8328 58.4289 75.6242C58.3025 75.8686 58.1836 76.1188 58.0689 76.3749ZM72.5906 75.5776C71.4366 73.5817 69.592 72.1037 67.3971 71.417C67.2242 71.3589 67.0351 71.4054 66.9065 71.5334C66.8675 71.5742 66.8268 71.6091 66.7867 71.6498L66.7558 71.6789C65.9737 72.4237 65.0781 73.0289 64.6503 73.3024C64.1918 72.9998 63.2123 72.319 62.5266 71.6731L62.5006 71.6498C62.4603 71.6149 62.4165 71.5742 62.3782 71.5334C62.2503 71.4054 62.0609 71.3589 61.888 71.417C59.6923 72.1037 57.848 73.5817 56.6944 75.5776C56.6074 75.7289 56.6074 75.9152 56.6944 76.0665C58.3325 78.8945 61.3781 80.6519 64.6425 80.6519C67.9074 80.6519 70.9525 78.8945 72.5906 76.0665C72.6778 75.9152 72.6778 75.7289 72.5906 75.5776Z" fill="#212649"/>
<path d="M61.7655 65.8123C61.7655 64.2315 63.0565 62.9386 64.643 62.9386C66.23 62.9386 67.5204 64.2315 67.5204 65.8123V67.734C67.5204 69.3207 66.23 70.6136 64.643 70.6136C63.0565 70.6136 61.7655 69.3207 61.7655 67.734V65.8123ZM64.643 71.5833C66.767 71.5833 68.4947 69.8614 68.4947 67.734V65.8123C68.4947 63.6909 66.767 61.9631 64.643 61.9631C62.5195 61.9631 60.7918 63.6909 60.7918 65.8123V67.734C60.7918 69.8614 62.5195 71.5833 64.643 71.5833Z" fill="#212649"/>
<path d="M68.7148 76.7381H67.8297V77.6255H66.9306V76.7381H66.0447V75.839H66.9306V74.9573H67.8297V75.839H68.7148V76.7381ZM68.7148 75.2589H68.4138V74.9573C68.4138 74.6325 68.1528 74.3715 67.8302 74.3715H66.9306C66.7757 74.3715 66.6266 74.4353 66.517 74.5397C66.4075 74.6499 66.3459 74.8007 66.3459 74.9573V75.2589H66.0447C65.7218 75.2589 65.4605 75.5199 65.4605 75.839V76.7381C65.4605 77.0629 65.7218 77.324 66.0447 77.324H66.3459V77.6255C66.3459 77.9504 66.6075 78.2114 66.9306 78.2114H67.8297C68.1522 78.2114 68.4138 77.9504 68.4138 77.6255V77.324H68.7148C69.0379 77.324 69.2989 77.0629 69.2989 76.7381V75.839C69.2989 75.5199 69.0379 75.2589 68.7148 75.2589Z" fill="#5C2D56"/>
<path d="M94.5113 71.8777C93.358 73.0292 91.9023 73.8784 91.9023 73.8784C91.9023 73.8784 90.2419 72.8257 89.2945 71.8777C87.2043 72.5349 85.4543 73.9539 84.376 75.8208C85.8794 78.4205 88.6856 80.1653 91.9023 80.1653C95.1196 80.1653 97.9258 78.4205 99.4292 75.8208C98.3509 73.9539 96.6009 72.5349 94.5113 71.8777Z" fill="white"/>
<path d="M95.2672 65.8141C95.2672 63.9581 93.7612 62.4485 91.9022 62.4485C90.0443 62.4485 88.5383 63.9581 88.5383 65.8141V67.729C88.5383 69.591 90.0443 71.1005 91.9022 71.1005C93.7612 71.1005 95.2672 69.591 95.2672 67.729V65.8141Z" fill="white"/>
<path d="M92.5148 62.4485C90.318 62.4485 88.5383 63.9581 88.5383 65.8141V67.729C88.5383 69.591 90.318 71.1005 92.5148 71.1005V62.4485Z" fill="#FBFAB7"/>
<path d="M94.092 65.8968C94.092 64.2942 93.2983 62.9909 92.3185 62.9909C91.3393 62.9909 90.5457 64.2942 90.5457 65.8968V67.652C90.5457 69.2546 91.3393 70.5579 92.3185 70.5579C93.2983 70.5579 94.092 69.2546 94.092 67.652V65.8968Z" fill="#A7B4E4"/>
<path d="M91.9023 73.8784C91.9023 73.8784 90.2419 72.8257 89.2945 71.8777C87.2043 72.5349 85.4543 73.9539 84.376 75.8208C85.8794 78.4205 88.6856 80.1653 91.9023 80.1653V73.8784Z" fill="#FBFAB7"/>
<path d="M94.4457 72.1062C93.5497 73.1237 92.2229 74.1296 92.2229 74.1296C92.2229 74.1296 90.6698 72.9435 89.932 72.1062C88.308 72.6818 87.0782 73.9145 86.2404 75.5542C87.2631 77.9381 89.7221 79.6708 92.2229 79.6708C94.7236 79.6708 96.9058 78.13 98.0739 75.8449C97.2361 74.1994 96.0703 72.6818 94.4457 72.1062Z" fill="#A7B4E4"/>
<path d="M94.1912 77.9149C94.03 77.9149 93.8989 77.7873 93.8989 77.625V77.0277H93.3051C93.1439 77.0277 93.0129 76.9001 93.0129 76.7378V75.839C93.0129 75.6766 93.1439 75.549 93.3051 75.549H93.8989V74.9518C93.8989 74.8764 93.9297 74.801 93.9842 74.7488C94.0393 74.6908 94.1135 74.6618 94.1912 74.6618H95.0906C95.2518 74.6618 95.3823 74.7952 95.3823 74.9518V75.549H95.9761C96.1367 75.549 96.2677 75.6766 96.2677 75.839V76.7378C96.2677 76.9001 96.1367 77.0277 95.9761 77.0277H95.3823V77.625C95.3823 77.7873 95.2518 77.9149 95.0906 77.9149H94.1912Z" fill="#F3658C"/>
<path d="M87.8935 64.8756C87.8935 65.9146 88.7212 66.76 89.7415 66.76C90.7623 66.76 91.5907 65.9146 91.5907 64.8756C91.5907 63.8365 90.7623 62.9912 89.7415 62.9912C88.7212 62.9912 87.8935 63.8365 87.8935 64.8756Z" fill="#F3658C"/>
<path d="M98.4761 76.3749C98.3737 76.1421 98.266 75.9151 98.1537 75.6998C97.7318 74.8793 97.2465 74.1578 96.7158 73.5352C97.5637 74.1462 98.2951 74.9201 98.8602 75.8221C98.7403 76.0141 98.6105 76.1945 98.4761 76.3749ZM92.1939 79.6743V76.4505C92.1939 76.2876 92.0635 76.1538 91.9018 76.1538C91.7406 76.1538 91.6096 76.2876 91.6096 76.4505V79.6743C89.3455 79.5928 87.2244 78.5628 85.7452 76.8869C85.8889 76.5436 86.0414 76.2119 86.2067 75.8977C87.0103 74.3557 88.0304 73.1802 89.1802 72.447C90.0973 73.2908 91.3874 74.1287 91.6096 74.2684V75.147C91.6096 75.31 91.7406 75.438 91.9018 75.438C92.0635 75.438 92.1939 75.31 92.1939 75.147V74.2684C92.4377 74.1287 93.5928 73.4188 94.6262 72.447C95.7935 73.1919 96.8252 74.3906 97.6341 75.9675C97.7854 76.2643 97.9262 76.5727 98.0595 76.8869C96.5803 78.5628 94.4581 79.5928 92.1939 79.6743ZM85.3286 76.3749C85.1942 76.1945 85.0638 76.0141 84.9439 75.8221C85.509 74.9201 86.241 74.1462 87.0883 73.5293C86.5733 74.1345 86.1013 74.8328 85.6882 75.6242C85.5619 75.8686 85.4432 76.1188 85.3286 76.3749ZM99.85 75.5776C98.6961 73.5817 96.852 72.1037 94.6565 71.417C94.4837 71.3589 94.2945 71.4054 94.1659 71.5334C94.1269 71.5742 94.0862 71.6091 94.0461 71.6498L94.0152 71.6789C93.2332 72.4237 92.3376 73.0289 91.9099 73.3024C91.4519 72.9998 90.4714 72.319 89.786 71.6731L89.7604 71.6498C89.7196 71.6149 89.676 71.5742 89.6382 71.5334C89.5096 71.4054 89.3204 71.3589 89.1476 71.417C86.9515 72.1037 85.1075 73.5817 83.9541 75.5776C83.8668 75.7289 83.8668 75.9152 83.9541 76.0665C85.5922 78.8945 88.6373 80.6519 91.9018 80.6519C95.1668 80.6519 98.2119 78.8945 99.85 76.0665C99.9373 75.9152 99.9373 75.7289 99.85 75.5776Z" fill="#212649"/>
<path d="M95.9751 76.7382H95.0894V77.6257H94.1903V76.7382H93.3046V75.8391H94.1903V74.9574H95.0894V75.8391H95.9751V76.7382ZM95.9751 75.259H95.6741V74.9574C95.6741 74.6326 95.4125 74.3716 95.09 74.3716H94.1903C94.0354 74.3716 93.8864 74.4354 93.7767 74.5398C93.6671 74.65 93.6056 74.8008 93.6056 74.9574V75.259H93.3046C92.9821 75.259 92.7205 75.5201 92.7205 75.8391V76.7382C92.7205 77.063 92.9821 77.3241 93.3046 77.3241H93.6056V77.6257C93.6056 77.9505 93.8678 78.2115 94.1903 78.2115H95.0894C95.4125 78.2115 95.6741 77.9505 95.6741 77.6257V77.3241H95.9751C96.2977 77.3241 96.5593 77.063 96.5593 76.7382V75.8391C96.5593 75.5201 96.2977 75.259 95.9751 75.259Z" fill="#5C2D56"/>
<path d="M89.7423 63.2854C90.6009 63.2854 91.2985 63.9965 91.2985 64.8721C91.2985 65.7477 90.6009 66.4646 89.7423 66.4646C88.8843 66.4646 88.1862 65.7477 88.1862 64.8721C88.1862 63.9965 88.8843 63.2854 89.7423 63.2854ZM91.9026 62.9386C93.2378 62.9386 94.3596 63.8496 94.6834 65.0895H91.8726C91.8785 65.019 91.8826 64.9485 91.8826 64.8721C91.8826 64.8016 91.8785 64.7311 91.8726 64.6605H93.5222C93.6838 64.6605 93.8149 64.5313 93.8149 64.3667C93.8149 64.208 93.6838 64.0729 93.5222 64.0729H91.7316C91.5764 63.6791 91.3102 63.3383 90.9705 63.0973C91.2632 62.9915 91.5759 62.9386 91.9026 62.9386ZM94.7798 65.8123V67.734C94.7798 69.3207 93.4893 70.6136 91.9026 70.6136C90.3159 70.6136 89.0248 69.3207 89.0248 67.734V66.9231C89.2499 67.0053 89.4902 67.0523 89.7423 67.0523C90.6456 67.0523 91.4172 66.4764 91.7316 65.6713H94.7733C94.7751 65.7183 94.7798 65.7653 94.7798 65.8123ZM88.051 67.734C88.051 69.8614 89.7788 71.5833 91.9026 71.5833C94.0264 71.5833 95.7542 69.8614 95.7542 67.734V65.8123C95.7542 63.6909 94.0264 61.9631 91.9026 61.9631C91.0575 61.9631 90.2777 62.2393 89.6418 62.7036C88.5082 62.7565 87.602 63.7085 87.602 64.8721C87.602 65.3716 87.7707 65.8358 88.051 66.2002V67.734Z" fill="#212649"/>
<path d="M89.7423 65.4434C90.0531 65.4434 90.3046 65.1854 90.3046 64.8747C90.3046 64.5581 90.0531 64.3002 89.7423 64.3002C89.4328 64.3002 89.1807 64.5581 89.1807 64.8747C89.1807 65.1854 89.4328 65.4434 89.7423 65.4434Z" fill="#5C2D56"/>
<rect x="41.4437" y="39.1111" width="72.1111" height="57.6296" rx="28.8148" stroke="#212649" stroke-width="2"/>
<defs>
<filter id="filter0_d" x="0" y="0" width="155" height="155.852" filterUnits="userSpaceOnUse" color-interpolation-filters="sRGB">
<feFlood flood-opacity="0" result="BackgroundImageFix"/>
<feColorMatrix in="SourceAlpha" type="matrix" values="0 0 0 0 0 0 0 0 0 0 0 0 0 0 0 0 0 0 127 0"/>
<feOffset dy="10"/>
<feGaussianBlur stdDeviation="10"/>
<feColorMatrix type="matrix" values="0 0 0 0 0.270833 0 0 0 0 0.270833 0 0 0 0 0.270833 0 0 0 0.1 0"/>
<feBlend mode="normal" in2="BackgroundImageFix" result="effect1_dropShadow"/>
<feBlend mode="normal" in="SourceGraphic" in2="effect1_dropShadow" result="shape"/>
</filter>
</defs>
</svg>
