<svg width="152" height="153" viewBox="0 0 152 153" fill="none" xmlns="http://www.w3.org/2000/svg">
<g filter="url(#filter0_d)">
<rect x="20" y="10" width="112" height="112.83" rx="20" fill="white"/>
</g>
<rect x="35.762" y="41.5261" width="72.1778" height="58.0741" rx="29.037" fill="#D0D7F3"/>
<rect x="40.9097" y="38.3777" width="70.1778" height="56.0741" rx="28.037" stroke="#212649" stroke-width="2"/>
<path d="M89.7106 72.6503C89.7106 73.5723 88.9526 74.3318 88.0271 74.3318H62.3554C61.4299 74.3318 60.6724 73.5723 60.6724 72.6503V54.8488C60.6724 53.9222 61.4299 53.1673 62.3554 53.1673H88.0271C88.9526 53.1673 89.7106 53.9222 89.7106 54.8488V72.6503Z" fill="#F1F1FC"/>
<path d="M80.7919 79.7546H69.5917V75.1877H80.7919V79.7546Z" fill="#FFFFF7"/>
<path d="M72.5433 80.448H70.1348V75.4912H72.5433V80.448Z" fill="#FBFAB7"/>
<path d="M63.081 75.0256H60.6724V70.0688H63.081V75.0256Z" fill="#FBFAB7"/>
<path d="M88.421 75.0256H63.0825V70.0688H88.421V75.0256Z" fill="#A7B4E4"/>
<path d="M63.081 54.5497H60.6724V52.0743H63.081V54.5497Z" fill="#FBFAB7"/>
<path d="M88.421 54.5497H63.0825V52.0743H88.421V54.5497Z" fill="#A7B4E4"/>
<path d="M79.0474 79.7546H72.4906V74.7978H79.0474V79.7546Z" fill="#A7B4E4"/>
<path d="M74.0036 66.5193C73.7246 66.5193 73.4988 66.2965 73.4988 66.013V64.1796H71.6639C71.3849 64.1796 71.1591 63.9523 71.1591 63.6733V61.2992C71.1591 61.0207 71.3849 60.7929 71.6639 60.7929H73.4988V58.96C73.4988 58.6815 73.7246 58.4537 74.0036 58.4537H76.3782C76.6572 58.4537 76.883 58.6815 76.883 58.96V60.7929H78.7179C78.9964 60.7929 79.2227 61.0207 79.2227 61.2992V63.6733C79.2227 63.9523 78.9969 64.1796 78.7179 64.1796H76.883V66.013C76.883 66.2965 76.6572 66.5193 76.3782 66.5193H74.0036Z" fill="#F3658C"/>
<path d="M78.7196 63.6732H76.3799V66.0129H74.0053V63.6732H71.6656V61.2991H74.0053V58.9599H76.3799V61.2991H78.7196V63.6732ZM78.7196 60.2915H77.39V58.9599C77.39 58.403 76.9378 57.9523 76.3799 57.9523H74.0053C73.4473 57.9523 72.9957 58.403 72.9957 58.9599V60.2915H71.6656C71.1076 60.2915 70.656 60.7421 70.656 61.2991V63.6732C70.656 64.2357 71.1076 64.6858 71.6656 64.6858H72.9957V66.0129C72.9957 66.5744 73.4473 67.0255 74.0053 67.0255H76.3799C76.9378 67.0255 77.39 66.5744 77.39 66.0129V64.6858H78.7201C79.277 64.6858 79.7292 64.2301 79.7292 63.6732V61.2991C79.7292 60.7421 79.277 60.2915 78.7196 60.2915Z" fill="#212649"/>
<path d="M88.0286 74.3316H62.3569C61.4313 74.3316 60.6739 73.5721 60.6739 72.6501V70.5748H89.7121V72.6501C89.7121 73.5721 88.9541 74.3316 88.0286 74.3316ZM62.3569 53.1671H88.0286C88.788 53.1671 89.427 53.679 89.6346 54.3727H60.7508C60.9584 53.679 61.5974 53.1671 62.3569 53.1671ZM60.6739 55.3802H89.7121V69.5621H60.6739V55.3802ZM70.4341 78.9133V76.0278H79.9513V78.9133H70.4341ZM88.0286 51.4816H62.3569C60.5007 51.4816 58.9909 52.9904 58.9909 54.8486V72.6501C58.9909 74.5038 60.5007 76.0126 62.3569 76.0126H68.7511V78.9133H67.6357C67.1709 78.9133 66.7942 79.2884 66.7942 79.7542C66.7942 80.22 67.1709 80.5947 67.6357 80.5947H69.5926H80.7928H82.7502C83.2145 80.5947 83.5917 80.22 83.5917 79.7542C83.5917 79.2884 83.2145 78.9133 82.7502 78.9133H81.6343V76.0126H88.0286C89.8847 76.0126 91.3951 74.5038 91.3951 72.6501V54.8486C91.3951 52.9904 89.8847 51.4816 88.0286 51.4816Z" fill="#212649"/>
<path d="M75.1926 72.7871C74.9947 72.7871 74.8342 72.6255 74.8342 72.4281C74.8342 72.2306 74.9947 72.0681 75.1926 72.0681C75.3901 72.0681 75.5511 72.2306 75.5511 72.4281C75.5511 72.6255 75.3901 72.7871 75.1926 72.7871ZM75.1926 71.061C74.4377 71.061 73.8241 71.6737 73.8241 72.4281C73.8241 73.1825 74.4377 73.7997 75.1926 73.7997C75.947 73.7997 76.5612 73.1825 76.5612 72.4281C76.5612 71.6737 75.947 71.061 75.1926 71.061Z" fill="#212649"/>
<defs>
<filter id="filter0_d" x="0" y="0" width="152" height="152.83" filterUnits="userSpaceOnUse" color-interpolation-filters="sRGB">
<feFlood flood-opacity="0" result="BackgroundImageFix"/>
<feColorMatrix in="SourceAlpha" type="matrix" values="0 0 0 0 0 0 0 0 0 0 0 0 0 0 0 0 0 0 127 0"/>
<feOffset dy="10"/>
<feGaussianBlur stdDeviation="10"/>
<feColorMatrix type="matrix" values="0 0 0 0 0.270833 0 0 0 0 0.270833 0 0 0 0 0.270833 0 0 0 0.1 0"/>
<feBlend mode="normal" in2="BackgroundImageFix" result="effect1_dropShadow"/>
<feBlend mode="normal" in="SourceGraphic" in2="effect1_dropShadow" result="shape"/>
</filter>
</defs>
</svg>
