<svg width="21" height="20" viewBox="0 0 21 20" fill="none" xmlns="http://www.w3.org/2000/svg">
<g opacity="0.8">
<path d="M14.8957 0H6.10963C3.25013 0 0.923828 2.3263 0.923828 5.18581V13.972C0.923828 16.8314 3.25013 19.1577 6.10963 19.1577H14.8958C17.7552 19.1577 20.0815 16.8314 20.0815 13.972V5.18581C20.0815 2.3263 17.7552 0 14.8957 0V0ZM10.5027 14.8171C7.61422 14.8171 5.26438 12.4673 5.26438 9.57883C5.26438 6.69039 7.61422 4.34055 10.5027 4.34055C13.3911 4.34055 15.7409 6.69039 15.7409 9.57883C15.7409 12.4673 13.3911 14.8171 10.5027 14.8171ZM15.8662 5.57591C15.0126 5.57591 14.3183 4.88164 14.3183 4.02806C14.3183 3.17448 15.0126 2.48007 15.8662 2.48007C16.7198 2.48007 17.4142 3.17448 17.4142 4.02806C17.4142 4.88164 16.7198 5.57591 15.8662 5.57591Z" fill="#6E4AFA"/>
<path d="M10.5021 5.46362C8.2331 5.46362 6.38693 7.30964 6.38693 9.5788C6.38693 11.8478 8.2331 13.694 10.5021 13.694C12.7713 13.694 14.6173 11.8478 14.6173 9.5788C14.6173 7.30964 12.7713 5.46362 10.5021 5.46362Z" fill="#6E4AFA"/>
</g>
</svg>
