<svg width="27" height="20" viewBox="0 0 27 20" fill="none" xmlns="http://www.w3.org/2000/svg">
<g opacity="0.8">
<path d="M25.7645 1.64455C24.7998 0.476469 23.0187 0 19.6172 0H7.26976C3.79041 0 1.97914 0.507204 1.01807 1.7508C0.0810547 2.96331 0.0810547 4.74986 0.0810547 7.22248V11.9353C0.0810547 16.7255 1.19282 19.1577 7.26976 19.1577H19.6173C22.567 19.1577 24.2016 18.7372 25.259 17.7064C26.3434 16.6493 26.8061 14.9234 26.8061 11.9353V7.22248C26.8061 4.61489 26.7336 2.81781 25.7645 1.64455ZM17.2386 10.2295L11.6317 13.2143C11.5064 13.2811 11.3693 13.3142 11.2324 13.3142C11.0774 13.3142 10.9227 13.2717 10.7857 13.1872C10.5278 13.028 10.3703 12.7432 10.3703 12.4361V6.48555C10.3703 6.17891 10.5274 5.8944 10.7848 5.73511C11.0423 5.57582 11.3626 5.56493 11.6297 5.70631L17.2367 8.67191C17.5219 8.82277 17.7011 9.12273 17.7015 9.45001C17.7019 9.77755 17.5235 10.078 17.2386 10.2295Z" fill="#6E4AFA"/>
</g>
</svg>
