<svg width="29" height="17" viewBox="0 0 29 17" fill="none" xmlns="http://www.w3.org/2000/svg">
<g opacity="0.8">
<path fill-rule="evenodd" clip-rule="evenodd" d="M24.8934 10.7604C25.8529 11.7288 26.8656 12.64 27.7261 13.7061C28.1062 14.1799 28.4661 14.6688 28.7414 15.2186C29.1315 16.0002 28.7782 16.8603 28.1003 16.907L23.8866 16.905C22.7998 16.9983 21.9328 16.5459 21.2038 15.7777C20.6204 15.1633 20.0801 14.5094 19.5191 13.8743C19.2892 13.6148 19.0484 13.3705 18.7609 13.1774C18.1856 12.7914 17.6863 12.9096 17.3576 13.5299C17.0228 14.1608 16.9469 14.8593 16.914 15.5624C16.8689 16.5883 16.5689 16.858 15.5722 16.9049C13.4422 17.0088 11.4206 16.6756 9.54266 15.5647C7.887 14.5853 6.6031 13.2027 5.48561 11.6374C3.30982 8.58958 1.64361 5.24046 0.146077 1.79752C-0.191005 1.02182 0.0555108 0.605428 0.883344 0.590691C2.258 0.563082 3.63246 0.565047 5.00873 0.588726C5.56743 0.597176 5.9373 0.92848 6.15302 1.47417C6.89675 3.36483 7.80679 5.16363 8.94909 6.83096C9.25329 7.27487 9.56347 7.71877 10.0052 8.03121C10.4938 8.37715 10.8659 8.2625 11.0958 7.69971C11.2417 7.34286 11.3055 6.95849 11.3384 6.57629C11.4473 5.26139 11.4617 3.94874 11.2706 2.63846C11.1534 1.82071 10.7079 1.29132 9.91861 1.13658C9.51586 1.05768 9.57583 0.902739 9.77084 0.665068C10.1095 0.255161 10.4281 0 11.0631 0H15.8253C16.575 0.152978 16.7415 0.501183 16.8441 1.28111L16.8482 6.7501C16.8401 7.05203 16.9941 7.94799 17.5201 8.14783C17.9411 8.2901 18.2186 7.9419 18.4712 7.66591C19.6114 6.41477 20.4252 4.93618 21.1522 3.40512C21.4748 2.73189 21.7522 2.03273 22.0211 1.33416C22.2203 0.815786 22.5328 0.560723 23.0976 0.572022L27.681 0.576247C27.8169 0.576247 27.9544 0.578311 28.086 0.601597C28.8583 0.737675 29.07 1.08116 28.8314 1.86089C28.4556 3.08423 27.7243 4.10369 27.0093 5.12787C26.2449 6.22131 25.4274 7.27732 24.6695 8.37725C23.9731 9.38168 24.0284 9.88797 24.8934 10.7604Z" fill="#6E4AFA"/>
</g>
</svg>
