<svg width="18" height="16" viewBox="0 0 18 16" fill="none" xmlns="http://www.w3.org/2000/svg">
<path d="M9.2903 13.1927V3.78172C9.2903 3.60762 9.16035 3.46655 8.99998 3.46655C8.8396 3.46655 8.70966 3.60762 8.70966 3.78172V13.1927C8.70966 13.3668 8.8396 13.5079 8.99998 13.5079C9.16035 13.5079 9.2903 13.3668 9.2903 13.1927Z" fill="#6B6C7C"/>
<path d="M17.7097 1.41431C17.0959 1.41431 16.3311 1.12679 15.5213 0.822423C14.4958 0.436908 13.3334 0 12.1279 0C10.733 0 9.882 0.663578 9.41377 1.22025C9.23864 1.42851 9.10293 1.6372 9.00004 1.82231C8.89715 1.6372 8.76143 1.42851 8.58631 1.22025C8.11804 0.663578 7.26708 0 5.87218 0C4.66665 0 3.50427 0.436908 2.47877 0.822423C1.66893 1.12679 0.904103 1.41431 0.290323 1.41431C0.129948 1.41431 0 1.55538 0 1.72948V14.4242C0 14.5983 0.129948 14.7393 0.290323 14.7393C1.00181 14.7393 1.8115 14.435 2.66868 14.1127C3.65094 13.7435 4.76427 13.325 5.8721 13.325C6.82204 13.325 7.59093 13.6665 8.15744 14.3399C8.26552 14.4684 8.4492 14.4775 8.56761 14.3601C8.68603 14.2427 8.69431 14.0434 8.58619 13.9148C8.11792 13.3582 7.26697 12.6946 5.8721 12.6946C4.66657 12.6946 3.50419 13.1315 2.4787 13.5171C1.79218 13.7752 1.13791 14.0211 0.580645 14.09V2.02902C1.21901 1.963 1.926 1.69721 2.66868 1.41805C3.65094 1.04884 4.76427 0.630338 5.8721 0.630338C8.11266 0.630338 8.69888 2.56178 8.72245 2.64297C8.75992 2.77525 8.87249 2.8656 9 2.8656C9.12751 2.8656 9.24008 2.7753 9.27755 2.64297C9.2832 2.62284 9.87302 0.630338 12.1279 0.630338C13.2357 0.630338 14.3491 1.04884 15.3313 1.41805C16.074 1.69725 16.781 1.963 17.4194 2.02902V14.09C16.8621 14.0211 16.2078 13.7752 15.5213 13.5171C14.4958 13.1316 13.3334 12.6947 12.1279 12.6947C10.733 12.6947 9.88196 13.3583 9.41377 13.9149C9.30565 14.0435 9.31397 14.2428 9.43235 14.3602C9.5508 14.4776 9.73444 14.4685 9.84252 14.34C10.409 13.6665 11.1779 13.3251 12.1279 13.3251C13.2357 13.3251 14.3491 13.7436 15.3313 14.1128C16.1885 14.435 16.9982 14.7394 17.7097 14.7394C17.8701 14.7394 18 14.5983 18 14.4242V1.72948C18 1.55542 17.8701 1.41431 17.7097 1.41431Z" fill="#6B6C7C"/>
<path d="M17.7097 15.3696C17.0959 15.3696 16.3311 15.0821 15.5213 14.7777C14.4958 14.3922 13.3334 13.9553 12.1279 13.9553C10.8178 13.9553 9.9876 14.5406 9.50354 15.073L8.49643 15.0729C8.01236 14.5406 7.18208 13.9553 5.8721 13.9553C4.66657 13.9553 3.50419 14.3922 2.4787 14.7777C1.66893 15.0821 0.904103 15.3696 0.290323 15.3696C0.129948 15.3696 0 15.5107 0 15.6848C0 15.8589 0.129948 16 0.290323 16C1.00181 16 1.8115 15.6956 2.66868 15.3734C3.65094 15.0042 4.76427 14.5857 5.8721 14.5857C6.82204 14.5857 7.59093 14.9271 8.15745 15.6006C8.21245 15.666 8.29026 15.7032 8.37182 15.7032L9.6281 15.7032C9.70967 15.7032 9.78747 15.666 9.84248 15.6006C10.409 14.9271 11.1779 14.5857 12.1279 14.5857C13.2357 14.5857 14.349 15.0042 15.3313 15.3734C16.1885 15.6956 16.9982 16 17.7096 16C17.87 16 18 15.8589 18 15.6848C18 15.5107 17.8701 15.3696 17.7097 15.3696Z" fill="#6B6C7C"/>
</svg>
