<svg width="155" height="156" viewBox="0 0 155 156" fill="none" xmlns="http://www.w3.org/2000/svg">
<g filter="url(#filter0_d)">
<rect x="20" y="10" width="115" height="115.852" rx="20" fill="white"/>
</g>
<rect x="36.1848" y="42.3704" width="74.1111" height="59.6296" rx="29.8148" fill="#D0D7F3"/>
<path d="M81.9505 70.3406L79.3464 72.9442L88.0682 81.6681C88.3968 81.9845 88.8547 82.1743 89.3492 82.1743C90.3577 82.1743 91.1749 81.3562 91.1749 80.3482C91.1749 79.851 90.9918 79.3899 90.6723 79.0599L81.9505 70.3406Z" fill="#FBFAB7"/>
<path d="M82.59 70.3405L80.5229 71.7689L89.2446 80.4929C89.5737 80.8093 90.0311 80.9946 90.5256 80.9946C91.5341 80.9946 91.3067 80.85 91.3067 79.842C91.3067 79.3448 91.3587 79.1097 91.3587 79.1097L82.59 70.3405Z" fill="#A7B4E4"/>
<path d="M66.6603 71.7148C70.54 75.5931 76.8308 75.5931 80.7096 71.7148C84.5888 67.8364 84.5888 61.5443 80.7096 57.666C76.8308 53.7876 70.54 53.7876 66.6603 57.666C62.7811 61.5443 62.7811 67.8364 66.6603 71.7148Z" fill="#FFFFF7"/>
<path d="M73.6605 56.9613C71.6825 56.9703 69.7071 57.7297 68.2019 59.244C65.1924 62.2725 65.2077 67.1628 68.234 70.1737C69.7496 71.6789 71.7286 72.4292 73.7071 72.4202L73.6605 56.9613Z" fill="#FBFAB7"/>
<path d="M78.4621 59.2119C76.192 56.201 72.5261 56.2105 70.2746 59.2385C68.0222 62.263 68.0371 67.1584 70.3072 70.1688C72.5772 73.1793 76.2427 73.1703 78.4955 70.1417C80.7466 67.1177 80.7321 62.2223 78.4621 59.2119Z" fill="#A7B4E4"/>
<path d="M70.0284 69.7712C69.759 69.5769 69.5013 69.3599 69.2586 69.1158C66.8159 66.6704 66.8159 62.7107 69.2586 60.2652C69.4932 60.0297 69.7418 59.8223 70.0013 59.6324C68.1163 62.5389 68.1285 66.8738 70.0284 69.7712Z" fill="#F46970"/>
<path d="M73.6838 70.9509C72.4 70.9509 71.1163 70.5577 70.0278 69.7712C68.128 66.8737 68.1158 62.5388 70.0007 59.6323C71.095 58.8322 72.3892 58.4345 73.6838 58.4345C75.2853 58.4345 76.8868 59.0447 78.1086 60.2651C80.5522 62.7106 80.5522 66.6703 78.1086 69.1157C76.8868 70.3362 75.2853 70.9509 73.6838 70.9509Z" fill="#CA657D"/>
<path d="M89.3491 81.4195C89.0611 81.4195 88.7854 81.3111 88.6014 81.1303L80.4429 72.9758C80.7196 72.7452 80.9862 72.5057 81.2425 72.2476C81.5029 71.9904 81.7479 71.7146 81.978 71.4344L90.1311 79.5889C90.3146 79.7742 90.4195 80.0545 90.4195 80.3483C90.4195 80.9404 89.9394 81.4195 89.3491 81.4195ZM67.1933 71.1812C63.6146 67.6008 63.6146 61.7792 67.1933 58.1992C68.9272 56.4679 71.2321 55.5142 73.6843 55.5142C76.1361 55.5142 78.4414 56.4679 80.1753 58.1992C81.9088 59.9349 82.8635 62.2402 82.8635 64.6902C82.8635 67.1447 81.9088 69.45 80.1753 71.1812C78.4414 72.917 76.1361 73.8708 73.6843 73.8708C71.2321 73.8708 68.9268 72.917 67.1933 71.1812ZM91.206 78.5266L82.8599 70.1823C83.8466 68.5414 84.3732 66.6565 84.3732 64.6902C84.3732 61.8375 83.2617 59.1529 81.2425 57.1324C79.2238 55.1118 76.5397 53.9999 73.6843 53.9999C70.8293 53.9999 68.1444 55.1118 66.1256 57.1324C61.9584 61.3 61.9584 68.0804 66.1256 72.2476C68.1444 74.2681 70.8293 75.3805 73.6843 75.3805C75.656 75.3805 77.5455 74.8517 79.1913 73.8572L87.5414 82.2061C88.0192 82.6717 88.6611 82.9293 89.3491 82.9293C90.772 82.9293 91.9292 81.7721 91.9292 80.3483C91.9292 79.6612 91.6684 79.0012 91.206 78.5266Z" fill="#212649"/>
<path d="M78.8292 69.8386C77.4546 71.2128 75.6276 71.9677 73.6839 71.9677C71.7397 71.9677 69.9122 71.2128 68.5376 69.8386C65.7017 66.9999 65.7017 62.3847 68.5376 59.546C69.9122 58.1719 71.7397 57.4125 73.6839 57.4125C75.6276 57.4125 77.4546 58.1719 78.8292 59.546C81.6661 62.3847 81.6661 66.9999 78.8292 69.8386ZM79.4697 58.9042C77.9243 57.3582 75.8694 56.5084 73.6839 56.5084C71.4984 56.5084 69.4435 57.3582 67.8976 58.9042C64.7081 62.0954 64.7081 67.2847 67.8976 70.476C69.4435 72.0214 71.4984 72.8717 73.6839 72.8717C75.8694 72.8717 77.9243 72.0214 79.4697 70.476C82.6601 67.2892 82.6601 62.0954 79.4697 58.9042Z" fill="#212649"/>
<path d="M76.5483 60.4912L72.0611 64.9751C71.8844 65.1559 71.8844 65.4407 72.0611 65.617C72.1502 65.7074 72.2659 65.7526 72.3816 65.7526C72.4978 65.7526 72.6135 65.7074 72.7016 65.617L77.1888 61.1285C77.366 60.9523 77.366 60.6675 77.1888 60.4912C77.0121 60.3149 76.725 60.3149 76.5483 60.4912Z" fill="#212649"/>
<path d="M75.3044 64.5909L72.0611 67.8319C71.8844 68.0082 71.8844 68.2925 72.0611 68.4738C72.1502 68.5597 72.2659 68.6049 72.3816 68.6049C72.4978 68.6049 72.6135 68.5597 72.7016 68.4738L75.9449 65.2278C76.1221 65.052 76.1221 64.7672 75.9449 64.5909C75.7682 64.4101 75.4811 64.4101 75.3044 64.5909Z" fill="#212649"/>
<path d="M70.6584 66.3811L69.7227 67.3168C69.5455 67.4931 69.5455 67.7778 69.7227 67.9537C69.8108 68.0445 69.9265 68.0897 70.0427 68.0897C70.1584 68.0897 70.2746 68.0445 70.3632 67.9537L71.2989 67.0184C71.4756 66.8422 71.4756 66.5574 71.2989 66.3811C71.1217 66.2003 70.8347 66.2003 70.6584 66.3811Z" fill="#212649"/>
<rect x="41.4441" y="39.1111" width="72.1111" height="57.6296" rx="28.8148" stroke="#212649" stroke-width="2"/>
<defs>
<filter id="filter0_d" x="0" y="0" width="155" height="155.852" filterUnits="userSpaceOnUse" color-interpolation-filters="sRGB">
<feFlood flood-opacity="0" result="BackgroundImageFix"/>
<feColorMatrix in="SourceAlpha" type="matrix" values="0 0 0 0 0 0 0 0 0 0 0 0 0 0 0 0 0 0 127 0"/>
<feOffset dy="10"/>
<feGaussianBlur stdDeviation="10"/>
<feColorMatrix type="matrix" values="0 0 0 0 0.270833 0 0 0 0 0.270833 0 0 0 0 0.270833 0 0 0 0.1 0"/>
<feBlend mode="normal" in2="BackgroundImageFix" result="effect1_dropShadow"/>
<feBlend mode="normal" in="SourceGraphic" in2="effect1_dropShadow" result="shape"/>
</filter>
</defs>
</svg>
