<svg width="23" height="14" viewBox="0 0 23 14" fill="none" xmlns="http://www.w3.org/2000/svg">
<g opacity="0.5">
<path fill-rule="evenodd" clip-rule="evenodd" d="M19.491 8.4251C20.2422 9.18339 21.0351 9.89683 21.7089 10.7316C22.0065 11.1025 22.2883 11.4853 22.5039 11.9158C22.8093 12.5278 22.5327 13.2012 22.0019 13.2378L18.7026 13.2362C17.8517 13.3092 17.1729 12.9551 16.6021 12.3536C16.1453 11.8725 15.7223 11.3606 15.283 10.8633C15.103 10.66 14.9145 10.4688 14.6893 10.3176C14.2389 10.0154 13.848 10.1079 13.5906 10.5936C13.3285 11.0875 13.269 11.6345 13.2433 12.185C13.2079 12.9882 12.9731 13.1994 12.1927 13.2362C10.5249 13.3175 8.94207 13.0566 7.47168 12.1868C6.17533 11.4199 5.17007 10.3374 4.2951 9.11185C2.59151 6.72544 1.28691 4.10316 0.114375 1.40741C-0.149552 0.800061 0.0434636 0.474036 0.691638 0.462497C1.76796 0.44088 2.84413 0.442419 3.92172 0.460959C4.35917 0.467574 4.64876 0.726978 4.81767 1.15424C5.39999 2.63459 6.11253 4.043 7.00692 5.34848C7.24511 5.69605 7.48798 6.04361 7.83383 6.28825C8.21644 6.55911 8.50775 6.46934 8.68774 6.02869C8.80196 5.74928 8.85196 5.44834 8.87771 5.14908C8.96298 4.11954 8.97421 3.09177 8.82465 2.06585C8.73283 1.42557 8.384 1.01108 7.76604 0.889914C7.4507 0.82814 7.49765 0.706823 7.65034 0.520732C7.91553 0.199785 8.16495 0 8.66214 0H12.3908C12.9778 0.119778 13.1082 0.392415 13.1886 1.00308L13.1918 5.28517C13.1854 5.52157 13.306 6.22309 13.7178 6.37956C14.0475 6.49096 14.2647 6.21832 14.4625 6.00223C15.3553 5.02261 15.9924 3.86491 16.5617 2.66613C16.8143 2.13901 17.0315 1.59158 17.242 1.04462C17.3979 0.638741 17.6427 0.439033 18.0849 0.44788L21.6735 0.451188C21.7799 0.451188 21.8876 0.452804 21.9907 0.471036C22.5954 0.577583 22.7611 0.846526 22.5743 1.45703C22.28 2.41488 21.7075 3.21309 21.1476 4.015C20.5492 4.87114 19.9091 5.69797 19.3156 6.55919C18.7703 7.34564 18.8136 7.74205 19.491 8.4251Z" fill="#7880C8"/>
</g>
</svg>
