<svg width="22" height="15" viewBox="0 0 22 15" fill="none" xmlns="http://www.w3.org/2000/svg">
<g opacity="0.5">
<path d="M20.7843 1.28764C20.029 0.373064 18.6344 0 15.9711 0H6.30339C3.57914 0 2.16096 0.397129 1.40847 1.37084C0.674805 2.32021 0.674805 3.71903 0.674805 5.65503V9.34504C0.674805 13.0957 1.54529 15 6.30339 15H15.9712C18.2808 15 19.5606 14.6708 20.3886 13.8637C21.2376 13.036 21.5999 11.6846 21.5999 9.34504V5.65503C21.5999 3.61335 21.5431 2.20628 20.7843 1.28764ZM14.1088 8.00947L9.71871 10.3465C9.62056 10.3988 9.51323 10.4247 9.40604 10.4247C9.28468 10.4247 9.16358 10.3914 9.05632 10.3253C8.85436 10.2006 8.73104 9.97765 8.73104 9.73715V5.07804C8.73104 4.83794 8.85403 4.61518 9.05558 4.49046C9.25721 4.36573 9.50797 4.35721 9.71715 4.46791L14.1072 6.7899C14.3306 6.90802 14.4709 7.14289 14.4712 7.39914C14.4715 7.65559 14.3318 7.8908 14.1088 8.00947Z" fill="#7880C8"/>
</g>
</svg>
