<svg xmlns="http://www.w3.org/2000/svg" width="61" height="61" viewBox="0 0 61 61"><defs><mask id="x2rtb" width="2" height="2" x="-1" y="-1"><path fill="#fff" d="M19 14h23v23H19z"/><path d="M30.5 14C36.85 14 42 19.149 42 25.5S36.851 37 30.5 37 19 31.851 19 25.5 24.149 14 30.5 14z"/></mask><filter id="x2rta" width="91" height="96" x="-15" y="-20" filterUnits="userSpaceOnUse"><feOffset dy="5" in="SourceGraphic" result="FeOffset1111Out"/><feGaussianBlur in="FeOffset1111Out" result="FeGaussianBlur1112Out" stdDeviation="9.6 9.6"/></filter></defs><g><g><g filter="url(#x2rta)"><path fill="none" d="M30.5 14C36.85 14 42 19.149 42 25.5S36.851 37 30.5 37 19 31.851 19 25.5 24.149 14 30.5 14z" mask="url(&quot;#x2rtb&quot;)"/><path fill="#ff98b4" fill-opacity=".26" d="M30.5 14C36.85 14 42 19.149 42 25.5S36.851 37 30.5 37 19 31.851 19 25.5 24.149 14 30.5 14z"/></g><path fill="#ff98b4" d="M30.5 14C36.85 14 42 19.149 42 25.5S36.851 37 30.5 37 19 31.851 19 25.5 24.149 14 30.5 14z"/></g><g><path fill="#ff98b4" d="M26.409 21.409l8.182 8.182"/><path fill="none" stroke="#fff" stroke-linecap="round" stroke-linejoin="round" stroke-miterlimit="20" stroke-width="2" d="M26.409 21.409l8.182 8.182"/></g><g><path fill="#ff98b4" d="M34.59 21.409l-8.181 8.182"/><path fill="none" stroke="#fff" stroke-linecap="round" stroke-linejoin="round" stroke-miterlimit="20" stroke-width="2" d="M34.59 21.409l-8.181 8.182"/></g></g></svg>