<?xml version="1.0" standalone="no"?>
<!DOCTYPE svg PUBLIC "-//W3C//DTD SVG 20010904//EN"
 "http://www.w3.org/TR/2001/REC-SVG-20010904/DTD/svg10.dtd">
<svg version="1.0" xmlns="http://www.w3.org/2000/svg"
 width="700.000000pt" height="700.000000pt" viewBox="0 0 700.000000 700.000000"
 preserveAspectRatio="xMidYMid meet">
<metadata>
Created by potrace 1.11, written by Peter Selinger 2001-2013
</metadata>
<g transform="translate(0.000000,700.000000) scale(0.100000,-0.100000)"
fill="#000000" stroke="none">
<path d="M2 3522 l3 -2997 1048 0 1047 0 0 502 0 502 33 5 c27 5 122 16 257
31 77 9 146 17 170 20 14 2 52 7 85 10 33 3 71 7 85 9 14 3 68 10 120 16 52 6
106 13 120 15 14 2 50 6 80 10 30 3 102 13 160 21 58 9 119 17 135 19 29 4 93
14 125 20 8 2 38 6 65 9 28 4 61 9 75 11 14 2 48 6 75 10 28 4 61 8 75 10 98
14 279 38 300 40 14 1 50 5 80 9 30 3 89 9 130 12 41 3 91 7 110 9 57 6 234
16 383 20 l137 3 0 -678 0 -678 1050 0 1050 0 0 3018 0 3018 -1050 0 -1050 0
-2 -590 c-3 -557 -4 -591 -21 -594 -9 -1 -50 -5 -90 -9 -39 -3 -83 -8 -97 -10
-29 -5 -92 -12 -175 -20 -33 -3 -71 -8 -85 -10 -14 -2 -54 -6 -90 -10 -36 -4
-76 -8 -90 -10 -14 -2 -56 -7 -95 -10 -38 -4 -77 -9 -88 -10 -10 -2 -53 -7
-95 -10 -42 -4 -84 -8 -92 -10 -8 -2 -44 -7 -80 -10 -36 -4 -146 -20 -245 -36
-99 -16 -209 -34 -245 -39 -83 -12 -124 -18 -235 -35 -49 -8 -108 -16 -130
-19 -147 -20 -348 -46 -390 -51 -27 -3 -61 -8 -75 -10 -14 -2 -61 -7 -105 -10
-44 -4 -93 -9 -110 -11 -16 -2 -60 -6 -97 -9 l-68 -7 0 744 0 743 -57 1 c-32
1 -215 5 -408 8 -192 4 -417 9 -500 11 -146 4 -616 13 -963 20 l-172 3 2
-2996z"/>
</g>
</svg>
