<?xml version="1.0" encoding="utf-8"?>
<!-- Generator: Adobe Illustrator 21.1.0, SVG Export Plug-In . SVG Version: 6.00 Build 0)  -->
<svg version="1.1" id="Layer_1" xmlns="http://www.w3.org/2000/svg" xmlns:xlink="http://www.w3.org/1999/xlink" x="0px" y="0px"
	 viewBox="0 0 315.037 396.88" enable-background="new 0 0 315.037 396.88" xml:space="preserve">
<g>
	<path fill="#FFB288" d="M96.513,114.133c-17.445,7.511-25.683-6.178-45.552-0.969c3.392-17.748,23.335-40.818,24.318-41.146
		c4.072-1.697,23.747,3.974,36.014-6.332c1.274-3.312-0.353-20.097-0.242-21.957c0.121-2.036-33.645-15.014-36.95-0.708
		c-4.568,19.771-43.734,27.41-64.39,70.932c-5.991,12.624-10.358,15.628-9.631,18.717c0.727,3.089,6.724,9.086,9.631,12.175
		c2.908,3.089,13.629,7.269,25.623,10.176c11.994,2.908,33.255,12.175,58.878,4.18c25.623-7.996,32.244,10.903,32.244,10.903
		l24.09-56.516v-0.909C145.699,114.375,125.346,103.593,96.513,114.133z"/>
	<path fill="#0851A0" d="M121.854,109.451c-25.826-1.406-18.867,4.269-36.093,6.044c-8.813,0.909-6.087-6.069-32.003-3.078
		c1.718,13.897-14.73,40.642-21.15,41.914c12.827,4.539,47.429,19.648,73.718,11.289
		C121.854,135.697,121.854,109.451,121.854,109.451z"/>
	<linearGradient id="SVGID_1_" gradientUnits="userSpaceOnUse" x1="179.5467" y1="69.2232" x2="179.5467" y2="363.2817">
		<stop  offset="0" style="stop-color:#FFB288"/>
		<stop  offset="0.6676" style="stop-color:#FEB089"/>
		<stop  offset="0.9078" style="stop-color:#FBA98C"/>
		<stop  offset="1" style="stop-color:#F9A48E"/>
	</linearGradient>
	<path fill="url(#SVGID_1_)" d="M238.719,223.286c-20.593,38.285-36.046,50.155-17.296,71.235
		c18.75,21.08,17.54,64.453,17.54,64.453l-129.302-4.034c0,0,16.391-46.848,16.635-55.814c0.243-8.966,2.181-25.441,2.181-40.706
		c0-15.265-5.572-33.92-2.664-41.433c2.908-7.512-16.235-48.945-17.689-65.176c-1.109-12.375-0.022-39.125,37.682-45.252
		c0.207-0.036,1.301-0.218,1.512-0.251c-0.741-1.396-1.559-2.864-2.468-4.412c-1.33-1.817,0.123-5.935-2.421-6.782
		c-0.313-0.105-0.843-0.236-1.538-0.4c-1.661-0.392-4.26-0.978-7.003-1.846h-0.004c-4.096-1.29-8.519-3.206-10.653-6.037
		c-0.004-0.004-0.007-0.007-0.011-0.015c-0.651-0.861-1.083-1.81-1.228-2.853c-0.004-0.018-0.004-0.036-0.007-0.054
		c-0.015-0.102-0.026-0.203-0.033-0.305c-0.592-7.872,5.619-4.648,1.305-12.288c-0.069-0.12-0.142-0.243-0.214-0.371
		c-1.13-1.759,2.726-5.393,7.087-4.787c-2.119-2.181-6.418-5.997-3.816-7.389c2.606-1.396,3.089-2.424,2.788-3.514
		c-0.302-1.09-5.27-3.936-4.845-6.604c0.422-2.664,17.929-10.416,18.172-11.63c0.24-1.21-1.152-4.118,1.09-4.906
		c2.428-0.854,14.294-8.479,17.202-12.477c2.908-3.998,31.863-4.845,40.586,21.443c8.723,26.288-2.788,42.279-8.603,52.699
		c-1.123,2.01-1.559,4.274-1.53,6.626c0,0.004,0,0.004,0,0.007c0.025,2.388,0.531,4.866,1.283,7.243
		c0.313,0.051,0.625,0.102,0.941,0.153c4.125,0.672,38.053,4.507,47.502,21.708c8.723,15.883,17.035,49.726,2.057,84.951
		C241.711,217.402,240.304,220.342,238.719,223.286z"/>
	<g>
		<path fill="#E4EDF4" d="M63.202,61.383l-0.845-8.081c-0.441-4.218,2.155-8.05,5.987-8.839l52.236-9.628l3.406,32.572
			l-53.097,1.385C66.976,68.814,63.643,65.601,63.202,61.383z"/>
		<path fill="#3AABF2" d="M112.649,37.829l-44.035,7.941c-3.182,0.655-5.302,3.833-4.929,7.393l0.845,8.081
			c0.372,3.56,3.103,6.231,6.352,6.214l44.745-1.34C117.317,56.985,108.708,54.664,112.649,37.829z"/>
		<path fill="#3AABF2" d="M118.32,54.975c2.037-0.02,5.747,0.889,4.926,1.952c-0.822,1.063-4.181-1.219-4.808-1.788L118.32,54.975z"
			/>
		<path fill="none" stroke="#48ADF0" stroke-width="0.2224" stroke-miterlimit="10" d="M112.466,38.094"/>
		<path fill="#3AABF2" d="M102.153,66.734c4.18,0.015,16.173-1.832,22.534,1.408c5.406,2.935,2.31-4.952-1.575-5.936
			C111.511,59.268,105.015,65.961,102.153,66.734z"/>
		<path fill="#3AABF2" d="M107.204,58.98c9.041-3.544,14.856,0.57,9.631,1.33C111.611,61.07,107.204,58.98,107.204,58.98z"/>
		<g>
			<g>
				<path fill="#48ADF0" d="M115.478,65.685l-0.031,0.213l-0.001,0.005l-0.005,0c-3.735,0.236-7.471,0.431-11.209,0.588
					l-11.214,0.413l-11.218,0.26c-3.74,0.059-7.48,0.112-11.221,0.065l5.605-0.318l5.606-0.26l11.213-0.413l11.217-0.261
					c3.739-0.068,7.48-0.096,11.222-0.086l-0.006,0.005L115.478,65.685z"/>
			</g>
		</g>
	</g>
	<path fill="#ED9E7C" d="M189.963,62.285c-6.225,13.247-15.343,27.394-39.037,28.104c-17.311,0.516-25.321-3.34-28.934-6.426
		c0.145,1.043,0.578,1.992,1.228,2.853c0.004,0.007,0.007,0.011,0.011,0.015c2.133,2.831,6.557,4.747,10.653,6.037l5.568,1.507
		c16.22,3.893,31.426,8.935,46.736-17.001c3.689-5.808,2.065-7.151,3.244-10.489C189.866,65.586,190.299,63.771,189.963,62.285z"/>
	<path fill="#0851A0" d="M272.57,169.071c-4.307,1.123-8.693,2.224-13.357,3.213c-1.552,0.291-3.038,0.683-4.474,1.159
		c-3.631,1.196-6.92,2.929-10.02,4.979l-0.312,36.999v0.004l-0.004,0.003c-0.389,0.767-25.11,49.708-25.35,56.439
		c-0.243,6.785,11.205,29.028,12.659,36.199c-2.413,0.6-4.848,1.148-7.298,1.646c-46.47,9.526-97.937,2.268-102.502,0.196
		c2.948-19.386,5.372-51.714,2.948-67.168c-0.28-1.788-0.832-3.674-1.585-5.67c-5.75-15.265-23.191-37.017-19.979-71.086
		c0.109-1.137,0.215-2.261,0.324-3.362c3.5-36.232,6.705-53.481,18.234-53.172c11.881,0.32,18.263-2.155,24.085-3.104
		c-0.858,5.913-12.357,30.802,11.874,33.469c24.231,2.664,35.585-32.008,35.585-32.008s37.126-1.308,53.652,22.861l-0.425,8.712
		C252.999,142.074,264.607,144.716,272.57,169.071z"/>
	<path fill="#0070C4" d="M245.719,396.88c-6.704,0-13.371-0.27-20.71-0.27c-12.21,0-24.8-0.94-37.69-0.7
		c-1.3,0.02-2.61,0.05-3.92,0.08c-3.53,0.09-7.03,0.21-10.51,0.37l-1.27-16.48l-2.01,16.64c-2.08,0.11-4.146,0.36-6.21,0.36
		c-20.53,0-43.91-4.02-63.48,0c3.82-40.7,21.99-86.97,21.99-86.97s0.02,0,0.05,0.01c0.01,0,0.03,0,0.06,0.01
		c0.07,0.01,0.18,0.03,0.32,0.05c0.16,0.03,0.36,0.06,0.61,0.1c0.04,0,0.09,0.01,0.13,0.02c0.14,0.02,0.29,0.04,0.45,0.07
		c0.14,0.02,0.28,0.04,0.44,0.07c0.57,0.08,1.25,0.19,2.03,0.3c0.34,0.05,0.7,0.11,1.08,0.16c1.62,0.23,3.58,0.51,5.84,0.8
		c0.72,0.09,1.47,0.19,2.24,0.28c0.36,0.05,0.72,0.09,1.08,0.14c0.19,0.02,0.38,0.04,0.57,0.06c1.06,0.13,2.17,0.26,3.32,0.39
		c1.33,0.15,2.71,0.3,4.14,0.45c0.69,0.07,1.39,0.14,2.1,0.21c0.78,0.08,1.57,0.16,2.38,0.23c0.98,0.09,1.98,0.18,2.99,0.27
		c0.82,0.07,1.66,0.14,2.51,0.21c0.68,0.06,1.36,0.11,2.05,0.16c0.63,0.05,1.26,0.1,1.9,0.14c0.56,0.04,1.11,0.08,1.67,0.12
		c0.44,0.03,0.87,0.06,1.31,0.09c0.74,0.04,1.48,0.09,2.23,0.13c0.07,0.01,0.14,0.01,0.21,0.01h0.01
		c1.111-0.008,1.256,0.017,1.716,0.037c0.7,0.04,1.187-0.05,1.859,0.08c0.1,0.01,0.115,0.083,0.225,0.093h0.01
		c0.41,0.02,0.82,0.04,1.23,0.06c0.42,0.01,0.84,0.03,1.27,0.05c0.47,0.01,0.94,0.03,1.41,0.05c0.47,0.02,0.95,0.03,1.43,0.05
		c2.09,0.07,4.2,0.12,6.32,0.15c0.05-0.01,0.1,0,0.15,0c0.6,0,1.21,0.01,1.81,0.01c0.83,0.01,1.66,0.01,2.49,0.01h0.01
		c16.85-0.04,33.93-1.6,46.6-6.32h0.01c0.52-0.19,1.03-0.39,1.54-0.59c1.57,2.82,2.98,6.49,4.24,10.83
		C241.369,337.43,244.239,366.9,245.719,396.88z"/>
	<path fill="#0070C4" d="M187.319,396.88c-1.37-9.201-0.95-22.553-11.617-25.547c-4.98-1.398-11.013,3.657-11.373,8.747
		c-0.45,5.63-0.8,11.23-0.93,16.8h6.21l2.01-17l1.27,17H187.319"/>
	<path fill="#007CD8" d="M225.009,396.61l-37.69,0.27c-1.93-9.24-0.783-19.72-10.617-24.713c-4.612-2.342-12.013,2.823-12.373,7.913
		c-0.45,5.63-0.8,11.23-0.93,16.8h-63.48c3.82-40.7,21.99-86.97,21.99-86.97s0.02,0,0.05,0.01c0.01,0,0.03,0,0.06,0.01
		c0.07,0.01,0.18,0.03,0.32,0.05c0.16,0.02,0.36,0.06,0.61,0.1c0.04,0,0.09,0.01,0.13,0.02c0.14,0.02,0.29,0.04,0.45,0.07
		c0.14,0.02,0.28,0.04,0.44,0.07c0.57,0.08,1.25,0.19,2.03,0.3c0.34,0.05,0.7,0.11,1.08,0.16c1.62,0.23,3.58,0.51,5.84,0.8
		c0.17,0.21,0.35,0.41,0.54,0.61c5.33,5.95,13.09,9.2,21.42,9.46c2.99,0,5.99,0.02,8.99,0.1c2.01,0.06,4.02,0.14,6.01,0.28
		c0.37,0.02,0.73,0.05,1.1,0.08c3.16,0.24,6.31,0.6,9.41,1.15c0.94,0.18,1.88,0.36,2.82,0.57c0.81,0.18,1.62,0.37,2.42,0.59
		c4.04,1.05,7.98,2.5,11.77,4.5c0.4,0.21,0.79,0.42,1.17,0.64c1.16,0.66,2.25,1.36,3.3,2.12c8.96,6.41,14.07,16.15,17.22,26.75
		c1.3,4.37,2.27,8.88,3.03,13.37C223.549,380.05,224.189,388.39,225.009,396.61z"/>
	<path fill="#00438C" d="M259.425,177.125c0,0-15.018,38.456-15.018,38.3l-0.004,0.003c-0.389,0.767-25.11,49.708-25.35,56.439
		c-0.243,6.785,11.205,29.028,12.659,36.199c-2.413,0.6-4.848,1.148-7.298,1.646c-4.092-17.83-16.473-38.984-19.898-43.66
		c-11.448-15.628-53.589-35.617-81.241-28.981c-5.75-15.265-23.191-37.017-19.979-71.086c0.109-1.137,0.215-2.261,0.324-3.362
		c1.89-2.435,3.969-4.587,6.218-6.371c11.866-9.533,20.825-11.539,21.047-11.587c-0.2,0.36-19.69,15.441-7.013,43.59
		c13.43,29.822,99.876,36.898,100.814-2.241c0.72-29.999,20.742-19.237,30.053-12.572
		C257.582,175.475,259.425,177.125,259.425,177.125z"/>
	<path fill="#ED9E7C" d="M142.731,44.87c2.27-2.184,4.367-4.113,7.409-4.3c4.421,2.324,3.353,7.528,3.353,7.528
		S144.29,50.601,142.731,44.87z"/>
	<path fill="#ED9E7C" d="M127.401,52.071c0.747-0.13,3.606-0.877,4.256,2.696c0.65,3.573-4.418-2.599-4.418-2.599L127.401,52.071z"
		/>
	<g>
		<path fill="#DA7970" d="M137.188,54.664c0.053,0.002,0.105,0.2,0.113,0.507c0.013,0.306-0.038,0.729-0.217,1.141
			c-0.178,0.413-0.533,0.77-0.852,0.943c-0.318,0.176-0.559,0.223-0.572,0.227c-0.014,0.002-0.255,0.049-0.59,0.03
			c-0.336-0.012-0.756-0.097-1.146-0.23c-0.786-0.264-1.449-0.721-1.394-0.822c0.05-0.097,0.785,0.16,1.53,0.26
			c0.371,0.053,0.738,0.067,1,0.039c0.265-0.022,0.423-0.076,0.434-0.077c0.01-0.002,0.18-0.018,0.402-0.101
			c0.221-0.084,0.483-0.265,0.68-0.547C136.979,55.462,137.062,54.649,137.188,54.664z"/>
	</g>
	<path fill="#00438C" d="M275.387,161.38c-3.453-9.995-10.903-15.81-28.338-30.711c-16.526-24.169-53.652-22.861-53.652-22.861
		s-5.953,18.179-18.438,27.2c13.564,40.364,45.572,39.368,51.424,53.993c5.851,14.625,16.573,25.466,16.573,25.466
		s0.618,0.147,12.492,9.113c3.907-9.177,26.207-28.946,44.435-25.146C298.102,179.643,278.84,171.375,275.387,161.38z"/>
	<g>
		<g>
			<g>
				<path fill="none" stroke="#8D5341" stroke-width="0.3634" stroke-miterlimit="10" d="M172.26,70.429"/>
			</g>
		</g>
	</g>
	<g>
		<path fill="#DA7970" d="M131.055,66.976c-2.181,0.5-5.224,5.815-8.314,4.634c-3.089-1.181,2.59-7.224,6.36-5.497
			C130.712,67.091,131.055,66.976,131.055,66.976z"/>
		<path fill="#DA7970" d="M130.761,66.988l-2.75-1.183c-5.679-4.124-3.862-6.064-3.862-6.064s3.68-3.441,3.634-0.443
			c-0.045,2.998,3.271,7.678,3.271,7.678L130.761,66.988z"/>
	</g>
	
		<linearGradient id="SVGID_2_" gradientUnits="userSpaceOnUse" x1="-3.1626" y1="73.8334" x2="28.6993" y2="42.8195" gradientTransform="matrix(0.9536 -0.301 0.301 0.9536 65.4614 -19.0705)">
		<stop  offset="0" style="stop-color:#FFB288"/>
		<stop  offset="0.1205" style="stop-color:#FEAF87"/>
		<stop  offset="1" style="stop-color:#F9967C"/>
	</linearGradient>
	<path fill="url(#SVGID_2_)" d="M98.469,36.089c-0.602-0.096-3.672-3.938-8.671-1.36c-4.998,2.578-6.458,5.802-5.417,8.045
		c1.042,2.244,5.117,1.545,6.053,0.614c1.366-1.358,4.369-4.891,5.309-4.01c0.996,0.934,1.881,1.946,1.881,1.946l2.178-4.18
		L98.469,36.089z"/>
	
		<linearGradient id="SVGID_3_" gradientUnits="userSpaceOnUse" x1="-1.8619" y1="80.4478" x2="31.3047" y2="48.1638" gradientTransform="matrix(0.9536 -0.301 0.301 0.9536 65.4614 -19.0705)">
		<stop  offset="0" style="stop-color:#FFB288"/>
		<stop  offset="0.1205" style="stop-color:#FEAF87"/>
		<stop  offset="1" style="stop-color:#F9967C"/>
	</linearGradient>
	<path fill="url(#SVGID_3_)" d="M103.931,37.972c0.261,1.344-0.447,2.68-1.696,3.24c-3.966,1.779-9.586,2.54-10.231-0.175
		c-0.772-3.25,4.994-6.209,7.366-6.448C101.386,34.388,103.526,35.883,103.931,37.972L103.931,37.972z"/>
	
		<linearGradient id="SVGID_4_" gradientUnits="userSpaceOnUse" x1="-11.4385" y1="65.0214" x2="20.2775" y2="34.1495" gradientTransform="matrix(0.9536 -0.301 0.301 0.9536 65.4614 -19.0705)">
		<stop  offset="0" style="stop-color:#FFB288"/>
		<stop  offset="0.1205" style="stop-color:#FEAF87"/>
		<stop  offset="1" style="stop-color:#F9967C"/>
	</linearGradient>
	<path fill="url(#SVGID_4_)" d="M78.731,46.969c-0.252,1.31-1.133,2.445-2.389,2.895c-2.121,0.76-3.879-0.02-4.503-2.353
		c-0.958-3.577,0.718-10.136,3.53-11.055c2.648-0.865,4.632-0.318,4.506,2.707C79.792,41.182,79.149,44.791,78.731,46.969z"/>
	
		<linearGradient id="SVGID_5_" gradientUnits="userSpaceOnUse" x1="-8.6424" y1="68.2037" x2="23.2198" y2="37.1894" gradientTransform="matrix(0.9536 -0.301 0.301 0.9536 65.4614 -19.0705)">
		<stop  offset="0" style="stop-color:#FFB288"/>
		<stop  offset="0.1205" style="stop-color:#FEAF87"/>
		<stop  offset="1" style="stop-color:#F9967C"/>
	</linearGradient>
	<path fill="url(#SVGID_5_)" d="M88.143,35.823c-1.419-1.1-6.422-2.915-8.716,2.043c-2.294,4.958-2.881,8.758,0.072,9.21
		c2.953,0.452,4.592-1.385,5.228-5.173C85.362,38.116,88.143,35.823,88.143,35.823z"/>
	<path fill="#8D5341" d="M217.491,35.839c-8.908-22.021-34.377-24.498-48.633-23.241c1.436-1.522,3.14-2.389,3.14-2.389
		s-4.04-1.165-8.301,2.448c0.023-2.429,2.706-7.306,7.546-9.601c-5.442-4.441-15.477-0.697-17.667,5.194
		c-0.559-4.199,1.449-7.147,2.289-8.238c-1.505-0.488-14.813,13.188,9.793,28.564c7.38,4.611,11.252,13.261,9.523,21.79
		c-1.391,6.862-4.768,12.14-4.768,12.14s24.714-8.947,17.54,10.133c-7.174,19.08,2.891,26.471,2.891,26.471
		S232.635,73.274,217.491,35.839z"/>
	<g>
		<g>
			<path fill="#FFB288" d="M189.945,69.371c-1.803,4.478-6.364,8.192-13.88,5.833c-1.032-0.32-2.119-0.76-3.26-1.323l0.247-0.382
				l0.287-0.44l5.372-8.265c1.817-1.999,3.634-8.723,9.631-5.452C190.978,60.783,191.559,65.381,189.945,69.371z"/>
		</g>
	</g>
	<g>
		<path fill="none" stroke="#8D5341" stroke-width="0.3634" stroke-miterlimit="10" d="M172.805,73.881"/>
	</g>
	<path fill="#FFB288" d="M186.866,312.746l-15.016,5.576c0,0-3.681,12.064-5.122,12.467c-1.442,0.402-4.803,0.493-4.304-4.231
		c0.5-4.725,3.952-13.856,8.041-15.673c4.089-1.817,14.22-3.816,14.22-3.816L186.866,312.746z"/>
	<path fill="#FFB288" d="M187.589,306.207c0,0-8.42-2.915-12.708-0.078c-4.288,2.837-8.668,6.072-10.218,5.716
		c-1.55-0.356-3.829-2.605-2.159-4.599c1.67-1.993,10.19-10.057,17.661-10.111c7.471-0.054,15.226,2.102,15.226,2.102
		L187.589,306.207z"/>
	<g>
		<path fill="#E29479" d="M180.522,70.653c-0.031,0.009-0.145-0.098-0.173-0.393c-0.009-0.148,0.043-0.341,0.195-0.503
			c0.151-0.165,0.352-0.265,0.567-0.348c0.429-0.162,0.937-0.231,1.417-0.349c0.117-0.03,0.235-0.064,0.329-0.104
			c0.051-0.026,0.093-0.055,0.12-0.099c0.027-0.044,0.021-0.099,0.007-0.143c-0.006-0.016-0.051-0.15-0.1-0.252
			c-0.103-0.219-0.24-0.446-0.383-0.669c-0.074-0.112-0.148-0.224-0.221-0.334l-0.112-0.166c-0.061-0.094-0.121-0.188-0.181-0.281
			c-0.126-0.203-0.255-0.414-0.314-0.603c-0.053-0.192-0.05-0.33,0.008-0.485c0.049-0.099,0.062-0.097,0.092-0.134
			c0.016-0.025,0.075-0.068,0.129-0.109c0.021-0.021,0.084-0.037,0.124-0.056l0.067-0.027l0.034-0.013l0.049,0
			c0.124-0.002,0.275,0.011,0.357-0.013c0.048-0.008,0.096-0.016,0.144-0.023c0.04-0.008,0.035-0.016,0.055-0.023
			c0.028-0.013,0.055-0.029,0.081-0.047c0.052-0.032,0.099-0.069,0.137-0.106c0.078-0.073,0.131-0.143,0.153-0.194
			c0.053-0.104,0.027-0.119,0.034-0.123c0.005-0.008,0.066-0.01,0.181-0.031c0.112-0.019,0.266-0.056,0.436-0.081
			c0.17-0.025,0.326-0.025,0.441,0.014c0.113,0.037,0.193,0.117,0.182,0.197c-0.002,0.009-0.006,0.085-0.035,0.205
			c-0.031,0.118-0.088,0.283-0.195,0.447c-0.103,0.169-0.252,0.333-0.441,0.482c-0.094,0.075-0.199,0.145-0.317,0.207
			c-0.058,0.032-0.119,0.062-0.185,0.088l-0.088,0.036l-0.02,0.004c-0.035,0.008-0.057-0.012-0.099-0.013
			c-0.012,0.022-0.003,0.049,0.009,0.091l0.005,0.016c0.002,0.006-0.001,0.004,0.022,0.043l0.099,0.178
			c0.066,0.123,0.133,0.247,0.201,0.372c0.133,0.256,0.264,0.524,0.37,0.826c0.049,0.159,0.102,0.294,0.122,0.555
			c0.019,0.229-0.032,0.461-0.176,0.63c-0.139,0.171-0.344,0.276-0.549,0.336c-0.162,0.046-0.306,0.067-0.446,0.085
			c-0.553,0.062-1.029,0.058-1.408,0.13c-0.387,0.066-0.594,0.209-0.647,0.416C180.547,70.485,180.57,70.644,180.522,70.653z"/>
	</g>
	<path fill="#FFB288" d="M306.097,259.509c-4.601,8.239-48.338,54.153-83.712,64.936c-3.151,3.027-17.809,9.933-35.134,6.422
		c-15.385-8.723-6.298-33.437,4.485-32.59c10.78,0.847,16.475-2.788,16.838-5.452c0.363-2.664,0.847-13.811,6.298-12.964
		c5.452,0.85,0.607,12.964,0.363,14.781c-0.24,1.817,2.544,3.754,2.668,6.662c3.754-2.057,12.597-9.206,18.412-14.658
		c5.815-5.452,31.5-45.067,32.953-55.727c-5.001-3.057-9.435-5.731-13.367-8.294c4.939-9.519,26.364-27.865,43.984-24.191
		c4.38,7.396,8.585,17.354,12.513,31.758C319.425,254.181,310.702,251.274,306.097,259.509z"/>
	<path fill="#FFB288" d="M189.966,314.502c0,0-7.996,1.229-13.084,3.18c-4.725,1.814-6.611,14.102-6.855,15.853l-0.007,0.004
		c-0.007,0.051-0.015,0.102-0.018,0.153c0,0.033-0.004,0.051-0.004,0.051c-0.004,0.033-0.004,0.069-0.007,0.102
		c-0.236,4.202,5.51,5.266,6.709-0.988c0.225-1.388,0.661-2.595,1.25-3.645c0.011-0.018,0.018-0.033,0.025-0.047
		c3.097-5.466,10.238-6.666,12.146-6.891l0.658-0.374L189.966,314.502z"/>
	<path fill="#E29479" d="M193.398,107.809c0,0-5.953,18.179-18.438,27.2c-5.626-11.052-29.991-39.037-32.521-39.892
		c0.669,0.167,29.722,7.422,44.282-18.754c-4.623,16.326,4.122,22.748,4.122,22.748s0.105-0.098,0.305-0.284
		c-0.007,0.702,0,1.236,0.025,1.577c0,0.004,0,0.004,0,0.007C191.192,100.645,193.398,107.809,193.398,107.809z"/>
	<path fill="#8D5341" d="M158.345,42.2c-0.517-1.401-1.217-2.772-2.145-4.009c-0.924-1.241-2.071-2.341-3.343-3.241
		c-1.225-0.877-2.556-1.577-3.911-2.157c-1.562-0.732-3.176-1.633-3.869-2.404c-0.665-0.092-1.31,0.292-1.161,1.316
		c-0.79-0.412-0.512-1.459-0.309-1.785c-2.27-0.106-3.572,4.513,0.066,5.12c2.765,0.462,5.445,0.967,7.798,2.165
		c1.174,0.595,2.255,1.358,3.202,2.298c0.947,0.936,1.75,2.047,2.415,3.257l0.004,0.012c0.161,0.298,0.521,0.434,0.846,0.317
		C158.298,42.955,158.478,42.556,158.345,42.2z"/>
	
		<path fill="none" stroke="#8D5341" stroke-width="1.0903" stroke-linecap="round" stroke-linejoin="round" stroke-miterlimit="10" d="
		M145.184,44.079"/>
	<path fill="#8D5341" d="M142.775,44.766c1.374,1.482,3.057,2.343,4.873,2.782l0.686,0.161c0.234,0.035,0.471,0.055,0.705,0.096
		c0.467,0.109,0.954,0.072,1.437,0.148l1.479,0.056c0.499-0.004,1.002-0.011,1.526,0.032c0.033,0,0.06,0.027,0.059,0.06
		c0,0.022-0.016,0.043-0.034,0.054c-0.47,0.221-0.96,0.391-1.455,0.564c-0.505,0.116-1.017,0.241-1.538,0.308
		c-1.046,0.105-2.127,0.103-3.183-0.159c-1.046-0.264-2.072-0.711-2.913-1.409c-0.838-0.686-1.529-1.578-1.797-2.623
		c-0.012-0.047,0.016-0.094,0.062-0.106c0.032-0.008,0.064,0.003,0.085,0.025L142.775,44.766z"/>
	<path fill="#FFB288" d="M99.803,59.751c-1.594-3.406-0.322-7.354,4.312-7.833c4.634-0.479,8.541,8.842,7.178,13.767
		c-1.363,4.925-13.746,3.979-15.091,4.136c-1.345,0.157,2.461-3.156,4.733-4.136C103.206,64.705,99.803,59.751,99.803,59.751z"/>
	<g display="none">
		<linearGradient id="SVGID_6_" gradientUnits="userSpaceOnUse" x1="252.7507" y1="78.0411" x2="265.2712" y2="78.0411">
			<stop  offset="0" style="stop-color:#53C9F3"/>
			<stop  offset="0.2265" style="stop-color:#46C4F5"/>
			<stop  offset="0.6483" style="stop-color:#22B7FA"/>
			<stop  offset="1" style="stop-color:#00AAFF"/>
		</linearGradient>
		<path display="inline" fill="url(#SVGID_6_)" d="M265.271,78.039c0,2.304-1.243,4.314-3.093,5.405
			c-0.93,0.545-2.014,0.858-3.169,0.858c-2.192,0-4.121-1.127-5.241-2.835c-0.643-0.985-1.018-2.162-1.018-3.427
			c0-2.242,1.181-4.212,2.955-5.317c0.003,0,0.003,0,0.007-0.004c0.68-0.422,1.447-0.716,2.268-0.85
			c0.334-0.058,0.68-0.087,1.029-0.087c1.225,0,2.366,0.353,3.333,0.96C264.101,73.845,265.271,75.808,265.271,78.039z"/>
		<g display="inline" opacity="0.5">
			<path fill="#FFFFFF" d="M255.249,76.072c-0.047-1.056,1.49-3.831,4.057-3.801c2.566-0.031,4.104,2.745,4.057,3.801
				c0.047,1.119-1.49,0.106-4.057,0.137C256.74,76.178,255.202,77.191,255.249,76.072z"/>
		</g>
	</g>
	<g display="none">
		<linearGradient id="SVGID_7_" gradientUnits="userSpaceOnUse" x1="105.2352" y1="277.3419" x2="109.1725" y2="277.3419">
			<stop  offset="0" style="stop-color:#53C9F3"/>
			<stop  offset="0.2265" style="stop-color:#46C4F5"/>
			<stop  offset="0.6483" style="stop-color:#22B7FA"/>
			<stop  offset="1" style="stop-color:#00AAFF"/>
		</linearGradient>
		<path display="inline" fill="url(#SVGID_7_)" d="M109.173,277.341c0,0.725-0.391,1.357-0.973,1.7
			c-0.293,0.171-0.633,0.27-0.997,0.27c-0.689,0-1.296-0.354-1.648-0.891c-0.202-0.31-0.32-0.68-0.32-1.078
			c0-0.705,0.371-1.325,0.929-1.672c0.001,0,0.001,0,0.002-0.001c0.214-0.133,0.455-0.225,0.713-0.267
			c0.105-0.018,0.214-0.027,0.324-0.027c0.385,0,0.744,0.111,1.048,0.302C108.805,276.022,109.173,276.64,109.173,277.341z"/>
		<path display="inline" fill="#57DCFB" d="M108.573,276.752c0,0.379-0.107,0.734-0.294,1.034c-0.346,0.561-0.967,0.935-1.676,0.935
			c-0.385,0-0.745-0.111-1.048-0.302c-0.202-0.31-0.32-0.68-0.32-1.078c0-0.705,0.371-1.325,0.929-1.672
			c0.001,0,0.001,0,0.002-0.001c0.214-0.133,0.455-0.225,0.713-0.267c0.105-0.018,0.214-0.027,0.324-0.027
			c0.385,0,0.744,0.111,1.048,0.302C108.455,275.985,108.573,276.355,108.573,276.752z"/>
		<path display="inline" fill="#57DCFB" d="M109.173,277.341c0,0.725-0.391,1.357-0.973,1.7c0.047-0.345,0.09-0.795,0.079-1.255
			c-0.025-1.224-0.429-2.52-2.112-2.118c0.027-0.014,0.319-0.16,0.713-0.267c0.105-0.018,0.214-0.027,0.324-0.027
			c0.385,0,0.744,0.111,1.048,0.302C108.805,276.022,109.173,276.64,109.173,277.341z"/>
		<g display="inline" opacity="0.5">
			<path fill="#FFFFFF" d="M106.021,276.723c-0.015-0.332,0.469-1.205,1.276-1.195c0.807-0.01,1.291,0.863,1.276,1.195
				c0.015,0.352-0.469,0.033-1.276,0.043C106.49,276.756,106.006,277.075,106.021,276.723z"/>
		</g>
	</g>
	<g display="none">
		<linearGradient id="SVGID_8_" gradientUnits="userSpaceOnUse" x1="32.6072" y1="184.2932" x2="42.1703" y2="184.2932">
			<stop  offset="0" style="stop-color:#53C9F3"/>
			<stop  offset="0.2265" style="stop-color:#46C4F5"/>
			<stop  offset="0.6483" style="stop-color:#22B7FA"/>
			<stop  offset="1" style="stop-color:#00AAFF"/>
		</linearGradient>
		<path display="inline" fill="url(#SVGID_8_)" d="M42.17,184.292c0,1.76-0.949,3.295-2.362,4.128
			c-0.711,0.416-1.538,0.655-2.421,0.655c-1.674,0-3.148-0.861-4.003-2.165c-0.491-0.752-0.777-1.652-0.777-2.618
			c0-1.713,0.902-3.217,2.257-4.061c0.003,0,0.003,0,0.006-0.003c0.519-0.322,1.105-0.547,1.732-0.65
			c0.255-0.044,0.519-0.067,0.786-0.067c0.935,0,1.807,0.269,2.545,0.733C41.277,181.088,42.17,182.587,42.17,184.292z"/>
		<path display="inline" fill="#57DCFB" d="M40.713,182.859c0,0.922-0.261,1.782-0.713,2.512c-0.841,1.363-2.348,2.271-4.07,2.271
			c-0.936,0-1.81-0.269-2.546-0.733c-0.491-0.752-0.777-1.652-0.777-2.618c0-1.713,0.902-3.217,2.257-4.061
			c0.003,0,0.003,0,0.006-0.003c0.519-0.322,1.105-0.547,1.732-0.65c0.255-0.044,0.519-0.067,0.786-0.067
			c0.935,0,1.807,0.269,2.545,0.733C40.427,180.997,40.713,181.896,40.713,182.859z"/>
		<path display="inline" fill="#57DCFB" d="M42.17,184.292c0,1.76-0.949,3.295-2.362,4.128c0.114-0.838,0.219-1.932,0.192-3.048
			c-0.061-2.973-1.041-6.121-5.13-5.144c0.067-0.033,0.774-0.389,1.732-0.65c0.255-0.044,0.519-0.067,0.786-0.067
			c0.935,0,1.807,0.269,2.545,0.733C41.277,181.088,42.17,182.587,42.17,184.292z"/>
		<g display="inline" opacity="0.5">
			<path fill="#FFFFFF" d="M34.516,182.79c-0.036-0.806,1.138-2.926,3.099-2.903c1.96-0.024,3.134,2.096,3.099,2.903
				c0.036,0.854-1.138,0.081-3.099,0.105C35.654,182.87,34.48,183.644,34.516,182.79z"/>
		</g>
	</g>
	<g display="none">
		
			<linearGradient id="SVGID_9_" gradientUnits="userSpaceOnUse" x1="294.8673" y1="183.8537" x2="302.5868" y2="183.8537" gradientTransform="matrix(0.9016 0.4326 -0.4326 0.9016 69.6275 -177.8177)">
			<stop  offset="0" style="stop-color:#53C9F3"/>
			<stop  offset="0.2265" style="stop-color:#46C4F5"/>
			<stop  offset="0.6483" style="stop-color:#22B7FA"/>
			<stop  offset="1" style="stop-color:#00AAFF"/>
		</linearGradient>
		<path display="inline" fill="url(#SVGID_9_)" d="M262.905,118.843c-0.615,1.281-1.842,2.067-3.161,2.179
			c-0.663,0.055-1.348-0.06-1.991-0.368c-1.218-0.584-1.99-1.726-2.157-2.974c-0.095-0.719,0.011-1.473,0.348-2.176
			c0.598-1.247,1.78-2.027,3.061-2.168c0.002,0.001,0.002,0.001,0.005,0c0.49-0.053,0.995-0.012,1.487,0.132
			c0.201,0.057,0.401,0.133,0.595,0.226c0.681,0.327,1.221,0.827,1.597,1.422C263.373,116.199,263.5,117.602,262.905,118.843z"/>
		<path display="inline" fill="#57DCFB" d="M262.345,117.291c-0.322,0.671-0.812,1.206-1.396,1.579
			c-1.088,0.698-2.502,0.833-3.755,0.232c-0.681-0.327-1.223-0.828-1.597-1.422c-0.095-0.719,0.011-1.473,0.348-2.176
			c0.598-1.247,1.78-2.027,3.061-2.168c0.002,0.001,0.002,0.001,0.005,0c0.49-0.053,0.995-0.012,1.487,0.132
			c0.201,0.057,0.401,0.133,0.595,0.226c0.681,0.327,1.221,0.827,1.597,1.422C262.787,115.836,262.681,116.59,262.345,117.291z"/>
		<path display="inline" fill="#57DCFB" d="M262.905,118.843c-0.615,1.281-1.842,2.067-3.161,2.179
			c0.375-0.57,0.834-1.33,1.204-2.151c0.994-2.185,1.38-4.818-1.937-5.535c0.06-0.001,0.699-0.012,1.487,0.132
			c0.201,0.057,0.401,0.133,0.595,0.226c0.681,0.327,1.221,0.827,1.597,1.422C263.373,116.199,263.5,117.602,262.905,118.843z"/>
		<g display="inline" opacity="0.5">
			<path fill="#FFFFFF" d="M257.859,115.076c0.255-0.599,1.85-1.732,3.269-1.031c1.435,0.667,1.549,2.62,1.242,3.195
				c-0.272,0.634-0.857-0.339-2.292-1.006C258.659,115.533,257.534,115.686,257.859,115.076z"/>
		</g>
	</g>
	<g display="none">
		
			<linearGradient id="SVGID_10_" gradientUnits="userSpaceOnUse" x1="272.7597" y1="175.2769" x2="276.9318" y2="175.2769" gradientTransform="matrix(0.9016 0.4326 -0.4326 0.9016 69.6275 -177.8177)">
			<stop  offset="0" style="stop-color:#53C9F3"/>
			<stop  offset="0.2265" style="stop-color:#46C4F5"/>
			<stop  offset="0.6483" style="stop-color:#22B7FA"/>
			<stop  offset="1" style="stop-color:#00AAFF"/>
		</linearGradient>
		<path display="inline" fill="url(#SVGID_10_)" d="M243.485,100.012c-0.332,0.692-0.995,1.117-1.708,1.178
			c-0.358,0.03-0.729-0.033-1.076-0.199c-0.658-0.316-1.076-0.933-1.166-1.607c-0.051-0.389,0.006-0.796,0.188-1.176
			c0.323-0.674,0.962-1.095,1.654-1.172c0.001,0.001,0.001,0.001,0.003,0c0.265-0.029,0.538-0.007,0.804,0.071
			c0.109,0.031,0.217,0.072,0.322,0.122c0.368,0.176,0.66,0.447,0.863,0.769C243.738,98.583,243.806,99.342,243.485,100.012z"/>
		<path display="inline" fill="#57DCFB" d="M243.182,99.174c-0.174,0.363-0.439,0.652-0.755,0.854
			c-0.588,0.377-1.352,0.45-2.029,0.125c-0.368-0.177-0.661-0.447-0.863-0.769c-0.051-0.389,0.006-0.796,0.188-1.176
			c0.323-0.674,0.962-1.095,1.654-1.172c0.001,0.001,0.001,0.001,0.003,0c0.265-0.029,0.538-0.007,0.804,0.071
			c0.109,0.031,0.217,0.072,0.322,0.122c0.368,0.176,0.66,0.447,0.863,0.769C243.421,98.387,243.363,98.795,243.182,99.174z"/>
		<path display="inline" fill="#57DCFB" d="M243.485,100.012c-0.332,0.692-0.995,1.117-1.708,1.178
			c0.203-0.308,0.451-0.719,0.651-1.163c0.537-1.181,0.746-2.604-1.047-2.992c0.033,0,0.378-0.007,0.804,0.071
			c0.109,0.031,0.217,0.072,0.322,0.122c0.368,0.176,0.66,0.447,0.863,0.769C243.738,98.583,243.806,99.342,243.485,100.012z"/>
		<g display="inline" opacity="0.5">
			<path fill="#FFFFFF" d="M240.757,97.977c0.138-0.324,1-0.936,1.767-0.557c0.776,0.361,0.837,1.416,0.671,1.727
				c-0.147,0.343-0.463-0.183-1.239-0.544C241.19,98.223,240.582,98.306,240.757,97.977z"/>
		</g>
	</g>
	<g display="none">
		
			<linearGradient id="SVGID_11_" gradientUnits="userSpaceOnUse" x1="331.15" y1="205.2108" x2="335.3221" y2="205.2108" gradientTransform="matrix(0.9016 0.4326 -0.4326 0.9016 69.6275 -177.8177)">
			<stop  offset="0" style="stop-color:#53C9F3"/>
			<stop  offset="0.2265" style="stop-color:#46C4F5"/>
			<stop  offset="0.6483" style="stop-color:#22B7FA"/>
			<stop  offset="1" style="stop-color:#00AAFF"/>
		</linearGradient>
		<path display="inline" fill="url(#SVGID_11_)" d="M283.18,152.26c-0.332,0.692-0.995,1.117-1.708,1.178
			c-0.358,0.03-0.729-0.033-1.076-0.199c-0.659-0.316-1.076-0.933-1.166-1.607c-0.051-0.389,0.006-0.796,0.188-1.176
			c0.323-0.674,0.962-1.095,1.654-1.172c0.001,0.001,0.001,0.001,0.003,0c0.265-0.029,0.538-0.007,0.804,0.071
			c0.109,0.031,0.217,0.072,0.322,0.122c0.368,0.176,0.66,0.447,0.863,0.769C283.433,150.831,283.502,151.59,283.18,152.26z"/>
		<path display="inline" fill="#57DCFB" d="M282.877,151.422c-0.174,0.362-0.439,0.652-0.755,0.854
			c-0.588,0.377-1.352,0.45-2.029,0.125c-0.368-0.177-0.661-0.448-0.863-0.769c-0.051-0.389,0.006-0.796,0.188-1.176
			c0.323-0.674,0.962-1.095,1.654-1.172c0.001,0.001,0.001,0.001,0.003,0c0.265-0.029,0.538-0.007,0.804,0.071
			c0.109,0.031,0.217,0.072,0.322,0.122c0.368,0.176,0.66,0.447,0.863,0.769C283.116,150.635,283.059,151.043,282.877,151.422z"/>
		<path display="inline" fill="#57DCFB" d="M283.18,152.26c-0.332,0.692-0.995,1.117-1.708,1.178
			c0.203-0.308,0.451-0.719,0.651-1.163c0.537-1.181,0.746-2.604-1.047-2.992c0.033-0.001,0.378-0.007,0.804,0.071
			c0.109,0.031,0.217,0.072,0.322,0.122c0.368,0.176,0.66,0.447,0.863,0.769C283.433,150.831,283.502,151.59,283.18,152.26z"/>
		<g display="inline" opacity="0.5">
			<path fill="#FFFFFF" d="M280.453,150.225c0.138-0.324,1-0.936,1.767-0.557c0.776,0.361,0.837,1.416,0.671,1.727
				c-0.147,0.343-0.463-0.183-1.238-0.544C280.885,150.471,280.277,150.554,280.453,150.225z"/>
		</g>
	</g>
	<g display="none">
		
			<linearGradient id="SVGID_12_" gradientUnits="userSpaceOnUse" x1="199.9857" y1="381.7441" x2="212.8524" y2="381.7441" gradientTransform="matrix(0.9016 0.4326 -0.4326 0.9016 69.6275 -177.8177)">
			<stop  offset="0" style="stop-color:#53C9F3"/>
			<stop  offset="0.2265" style="stop-color:#46C4F5"/>
			<stop  offset="0.6483" style="stop-color:#22B7FA"/>
			<stop  offset="1" style="stop-color:#00AAFF"/>
		</linearGradient>
		<path display="inline" fill="url(#SVGID_12_)" d="M96.394,258.441c-1.024,2.135-3.07,3.445-5.268,3.632
			c-1.104,0.091-2.247-0.1-3.318-0.614c-2.031-0.974-3.318-2.876-3.596-4.956c-0.158-1.199,0.019-2.456,0.581-3.628
			c0.997-2.078,2.967-3.378,5.102-3.613c0.003,0.002,0.003,0.002,0.008,0c0.817-0.089,1.658-0.02,2.479,0.22
			c0.336,0.095,0.668,0.221,0.992,0.376c1.135,0.545,2.035,1.379,2.661,2.371C97.174,254.035,97.386,256.373,96.394,258.441z"/>
		<path display="inline" fill="#57DCFB" d="M95.459,255.855c-0.536,1.118-1.354,2.01-2.328,2.632
			c-1.814,1.164-4.17,1.388-6.258,0.386c-1.135-0.544-2.039-1.38-2.661-2.37c-0.158-1.199,0.019-2.456,0.581-3.628
			c0.997-2.078,2.967-3.378,5.102-3.613c0.003,0.002,0.003,0.002,0.008,0c0.817-0.089,1.658-0.02,2.479,0.22
			c0.336,0.095,0.668,0.221,0.992,0.376c1.135,0.545,2.035,1.379,2.661,2.371C96.197,253.429,96.02,254.687,95.459,255.855z"/>
		<path display="inline" fill="#57DCFB" d="M96.394,258.441c-1.024,2.135-3.07,3.445-5.268,3.632
			c0.626-0.951,1.39-2.216,2.006-3.586c1.656-3.642,2.3-8.031-3.229-9.226c0.1-0.002,1.166-0.021,2.479,0.22
			c0.336,0.095,0.668,0.221,0.992,0.376c1.135,0.545,2.035,1.379,2.661,2.371C97.174,254.035,97.386,256.373,96.394,258.441z"/>
		<g display="inline" opacity="0.5">
			<path fill="#FFFFFF" d="M87.982,252.163c0.426-0.999,3.084-2.887,5.448-1.718c2.392,1.112,2.582,4.367,2.07,5.325
				c-0.454,1.057-1.428-0.564-3.82-1.677C89.316,252.924,87.441,253.179,87.982,252.163z"/>
		</g>
	</g>
	<path fill="#FFB288" d="M201.968,330.074c-0.082-0.013-0.163-0.026-0.245-0.039c-5.471-0.831-12.73,0.481-14.611,2.719
		c-1.908,2.271-2.862,2.726-2.862,5.088c0,2.362-0.136,4.316-3.316,3.771c-3.18-0.545-6.269-16.628,9.813-18.445
		c16.082-1.817,8.677-1.09,8.677-1.09l2.544,8.314V330.074z"/>
	<path fill="#E29479" d="M172.049,72.167c0,0,11.852,7.271,16.49-2.156c5.039-10.242-3.619-11.529-3.619-11.529
		s4.911-1.041,6.076,4.384s-2.483,11.292-7.888,12.754C177.703,77.083,172.049,72.167,172.049,72.167z"/>
	<path fill="#ED9E7C" d="M259.983,225.247l12.523,0.308c1.4,0.035,2.554,1.11,2.686,2.505l0.059,0.624
		c0.123,1.304-0.308,2.599-1.189,3.568l-9.292,10.229l4.501-11.56L259.983,225.247z"/>
</g>
</svg>
