<svg width="512" height="512" viewBox="0 0 512 512" fill="none" xmlns="http://www.w3.org/2000/svg">
<path d="M470.573 369.837C468.622 364.552 462.758 361.849 457.473 363.799L351.401 402.938C346.116 404.888 343.413 410.753 345.363 416.038C346.884 420.158 350.783 422.709 354.933 422.709C356.105 422.709 357.298 422.505 358.463 422.076L464.535 382.937C469.82 380.987 472.523 375.122 470.573 369.837Z" fill="white"/>
<path d="M335.337 419.738C333.388 414.452 327.522 411.749 322.237 413.699L317.745 415.356C312.461 417.306 309.757 423.171 311.707 428.455C313.227 432.575 317.127 435.127 321.277 435.127C322.449 435.127 323.642 434.923 324.807 434.494L329.299 432.837C334.583 430.887 337.287 425.023 335.337 419.738Z" fill="white"/>
<path d="M470.573 328.276C468.622 322.991 462.758 320.29 457.473 322.238L373.648 353.168C368.363 355.118 365.66 360.983 367.61 366.268C369.131 370.388 373.03 372.939 377.18 372.939C378.352 372.939 379.545 372.735 380.71 372.306L464.535 341.376C469.82 339.426 472.523 333.561 470.573 328.276Z" fill="white"/>
<path d="M470.573 287.147C468.622 281.862 462.758 279.161 457.473 281.109L373.648 312.039C368.363 313.989 365.66 319.854 367.61 325.139C369.131 329.259 373.03 331.81 377.18 331.81C378.352 331.81 379.545 331.606 380.71 331.177L464.535 300.247C469.82 298.297 472.523 292.432 470.573 287.147Z" fill="white"/>
<path d="M505.332 100.528L259.531 9.8319C257.252 8.9919 254.748 8.9919 252.47 9.8319L6.669 100.528L6.667 100.536C5.862 100.834 5.088 101.228 4.368 101.729C1.631 103.637 0 106.762 0 110.097V401.903C0 406.174 2.661 409.993 6.668 411.472L252.469 502.168C253.615 502.591 254.81 502.798 255.999 502.798C257.2 502.798 258.395 502.58 259.527 502.162L259.531 502.168L505.332 411.472C509.339 409.993 512 406.175 512 401.903V110.097C512 105.825 509.339 102.007 505.332 100.528ZM245.801 477.965L20.398 394.795V124.732L66.294 141.668V265.246C66.294 269.517 68.955 273.336 72.962 274.815L183.113 315.46C184.259 315.883 185.454 316.09 186.643 316.09C188.701 316.09 190.741 315.467 192.476 314.258C195.212 312.351 196.843 309.226 196.843 305.891V189.838L245.799 207.902V477.965H245.801ZM176.446 182.311V291.254L86.693 258.136V149.193L176.446 182.311ZM105.957 134.477L186.645 104.704L267.333 134.477L186.645 164.25L105.957 134.477ZM256 189.922L215.999 175.162L300.328 144.045C304.335 142.566 306.996 138.748 306.996 134.476C306.996 130.204 304.335 126.386 300.328 124.907L190.176 84.2629C187.897 83.4229 185.394 83.4229 183.114 84.2629L76.383 123.647L39.663 110.097L256 30.2729L472.337 110.098L256 189.922ZM491.602 394.795L266.2 477.964V207.902L491.602 124.732V394.795Z" fill="white"/>
</svg>
