<svg width="512" height="512" viewBox="0 0 512 512" fill="none" xmlns="http://www.w3.org/2000/svg">
<g clip-path="url(#clip0)">
<path d="M86.6333 156.91C94.6841 163.414 97.8364 172.371 96.5552 185.098C96.1372 189.219 98.3091 193.172 102.012 195.031C103.434 195.746 104.973 196.094 106.497 196.094C108.942 196.094 111.36 195.199 113.243 193.481C122.235 185.262 131.868 181.664 142.696 182.488C146.653 182.781 150.403 180.727 152.27 177.231C154.137 173.735 153.762 169.469 151.317 166.352C142.387 154.977 138.5 145.152 139.77 137.149C140.469 132.715 138.129 128.36 134.051 126.492C129.973 124.629 125.149 125.711 122.254 129.141C115.969 136.598 106.551 139.867 93.4575 139.156C89.1177 138.906 85.1411 141.5 83.5825 145.547C82.0278 149.594 83.2583 154.188 86.6333 156.91ZM121.778 154.172C122.817 157.418 124.211 160.715 125.969 164.074C122.426 164.973 118.965 166.235 115.598 167.852C114.817 164.203 113.657 160.762 112.125 157.535C115.543 156.711 118.762 155.59 121.778 154.172Z" fill="white"/>
<path d="M496.715 8.62131C490.871 2.94163 483.161 -0.136499 474.95 0.00412605C466.746 0.129126 459.098 3.426 453.414 9.28928L293.106 174.789L274.149 156.438C271.809 154.172 268.508 153.188 265.313 153.805C262.114 154.418 259.414 156.555 258.079 159.524L241.414 196.61L238.926 194.203C227.418 183.047 208.969 183.332 197.782 194.86C192.383 200.442 189.489 207.817 189.629 215.617C189.672 218.004 190.004 220.336 190.594 222.582C174.907 223.805 157.45 227.711 138.938 234.18C137.481 229.074 137.051 224.258 137.672 219.75C138.282 215.305 135.856 210.996 131.735 209.215C127.618 207.434 122.813 208.617 119.993 212.11C110.778 223.52 96.9418 228.742 77.6879 228.074C73.3754 227.918 69.4223 230.582 67.9457 234.656C66.4691 238.731 67.7855 243.293 71.2074 245.953C76.2934 249.91 80.1449 254.606 82.8168 260.071C54.6332 276.125 28.6215 295.535 8.91445 315.313C7.02773 317.207 5.97695 319.781 6.00038 322.457C6.02382 325.133 7.12148 327.692 9.04335 329.551L101.868 419.379H101.871V419.383L144.778 460.903C144.786 460.914 144.797 460.926 144.809 460.938C144.821 460.946 144.832 460.957 144.844 460.969L194.672 509.188C196.539 510.992 199.032 512 201.621 512C201.7 512 201.774 512 201.852 511.996C204.524 511.938 207.063 510.805 208.895 508.863C251.246 463.934 293.028 384.821 295.77 324.371C297.938 324.875 300.149 325.125 302.364 325.125C309.977 325.125 317.582 322.164 323.278 316.274C328.657 310.707 331.555 303.36 331.43 295.59C331.305 287.801 328.164 280.543 322.586 275.16L320.094 272.746L356.934 255.41C359.903 254.012 361.996 251.246 362.536 248.008C363.075 244.77 361.989 241.469 359.629 239.188L337.086 217.367L376.082 177.094C379.922 173.129 379.821 166.801 375.852 162.961C371.887 159.121 365.559 159.227 361.719 163.192L322.727 203.465L307.465 188.696L467.774 23.1994C469.735 21.1721 472.391 20.0354 475.25 19.9924C478.11 19.9612 480.774 21.0002 482.797 22.969C484.821 24.926 485.957 27.5705 486.008 30.4182C486.055 33.258 485.004 35.9299 483.043 37.9573L415.543 107.864C411.707 111.832 411.817 118.16 415.789 121.996C419.758 125.832 426.086 125.719 429.922 121.75L497.411 51.8557C503.082 46.0041 506.133 38.2698 505.996 30.0823C505.856 21.9026 502.559 14.2776 496.715 8.62131V8.62131ZM119.375 238.696C121.239 245.649 124.422 252.774 128.938 260.133C121.059 261.731 113.516 264.649 106.336 268.875C105 260.625 102.301 253.164 98.2504 246.528C106.063 245.004 113.11 242.391 119.375 238.696ZM201.141 487.625L165.903 453.528L216.434 401.383C220.274 397.418 220.172 391.09 216.207 387.246C212.246 383.406 205.918 383.508 202.075 387.469L151.539 439.625L122.961 411.969L142.524 391.77C146.364 387.805 146.258 381.477 142.293 377.633C138.332 373.793 132 373.899 128.161 377.863L108.594 398.067L79.9926 370.387L130.524 318.238C134.364 314.274 134.266 307.946 130.301 304.102C126.336 300.262 120.008 300.363 116.164 304.324L65.6254 356.485L30.3871 322.383C46.4457 307.547 66.098 293.121 87.3012 280.574C87.3363 282.852 87.2621 285.203 87.0629 287.653C86.7269 291.781 88.9769 295.696 92.7152 297.481C94.0902 298.137 95.5629 298.457 97.0238 298.457C99.5355 298.457 102.016 297.508 103.914 295.699C116.836 283.403 130.899 277.863 146.887 278.77C150.836 278.992 154.563 276.852 156.364 273.317C158.161 269.781 157.696 265.52 155.18 262.453C152.332 258.981 149.848 255.598 147.684 252.297C169.188 244.985 188.739 241.535 204.934 242.227L275.653 310.684C279.594 362.332 241.907 440.524 201.141 487.625V487.625ZM308.907 302.379C305.422 305.985 299.649 306.078 296.043 302.598L212.356 221.59C210.633 219.934 209.664 217.684 209.618 215.254C209.575 212.801 210.477 210.492 212.145 208.766C213.93 206.922 216.309 206 218.692 206C220.973 206 223.254 206.848 225.016 208.555C225.016 208.559 225.02 208.559 225.02 208.563L270.895 252.953L295.782 277.047C295.832 277.098 295.891 277.141 295.946 277.192L308.696 289.531C310.43 291.203 311.407 293.469 311.446 295.906C311.485 298.348 310.582 300.645 308.907 302.379V302.379ZM304.735 257.879L285.352 239.125L256.696 211.379L270.477 180.707L286.082 195.813C286.176 195.914 286.266 196.02 286.368 196.117L314.789 223.602L335.329 243.481L304.735 257.879Z" fill="white"/>
<path d="M389.329 134.258L389.188 134.402C385.278 138.297 385.266 144.625 389.164 148.535C391.118 150.496 393.68 151.477 396.243 151.477C398.793 151.477 401.348 150.504 403.297 148.563L403.442 148.418C407.352 144.523 407.36 138.195 403.465 134.285C399.567 130.375 393.239 130.363 389.329 134.258Z" fill="white"/>
</g>
<defs>
<clipPath id="clip0">
<rect width="512" height="512" fill="white"/>
</clipPath>
</defs>
</svg>
