<svg width="512" height="512" viewBox="0 0 512 512" fill="none" xmlns="http://www.w3.org/2000/svg">
<path d="M411 65.5703H345.73C343.391 45.6016 325.57 30.0195 304 30.0195H296.672C291.988 12.7812 275.531 0 256 0C236.469 0 220.012 12.7812 215.328 30.0195H208C186.43 30.0195 168.609 45.6016 166.27 65.5703H101C84.4609 65.5703 71 79.0195 71 95.5703V482C71 498.539 84.4609 512 101 512H411C427.539 512 441 498.539 441 482V95.5703C441 79.0195 427.539 65.5703 411 65.5703ZM186.559 65.5703C188.801 56.6719 197.57 50.0195 208 50.0195H224C229.52 50.0195 234 45.5391 234 40.0195C234.012 28.9805 243.879 20 256 20C268.121 20 277.988 28.9805 278 40.0195C278 45.5391 282.48 50.0195 288 50.0195H304C314.43 50.0195 323.199 56.6719 325.441 65.5703C325.809 67.0117 326 68.5195 326 70.0586C326 76.3086 322.84 81.8984 317.898 85.5703C314.102 88.3906 309.262 90.0898 304 90.0898H208C202.738 90.0898 197.898 88.3906 194.102 85.5703C189.16 81.8984 186 76.3086 186 70.0586C186 68.5195 186.191 67.0117 186.559 65.5703ZM421 482C421 487.512 416.512 492 411 492H101C95.4883 492 91 487.512 91 482V95.5703C91 90.0508 95.4883 85.5703 101 85.5703H169.281C175.648 99.9609 190.609 110.09 208 110.09H304C321.391 110.09 336.352 99.9609 342.719 85.5703H411C416.512 85.5703 421 90.0508 421 95.5703V482Z" fill="white"/>
<path d="M381.27 212.527H131.617C126.094 212.527 121.617 208.047 121.617 202.527C121.617 197.004 126.094 192.527 131.617 192.527H381.27C386.793 192.527 391.27 197.004 391.27 202.527C391.27 208.047 386.793 212.527 381.27 212.527Z" fill="white"/>
<path d="M381.27 292.527H131.617C126.094 292.527 121.617 288.047 121.617 282.527C121.617 277.004 126.094 272.527 131.617 272.527H381.27C386.793 272.527 391.27 277.004 391.27 282.527C391.27 288.047 386.793 292.527 381.27 292.527Z" fill="white"/>
<path d="M381.27 372.527H131.617C126.094 372.527 121.617 368.047 121.617 362.527C121.617 357.004 126.094 352.527 131.617 352.527H381.27C386.793 352.527 391.27 357.004 391.27 362.527C391.27 368.047 386.793 372.527 381.27 372.527Z" fill="white"/>
<path d="M256.617 452.527H131.617C126.094 452.527 121.617 448.047 121.617 442.527C121.617 437.004 126.094 432.527 131.617 432.527H256.617C262.141 432.527 266.617 437.004 266.617 442.527C266.617 448.047 262.141 452.527 256.617 452.527Z" fill="white"/>
<path d="M256.5 150H166.5C160.977 150 156.5 145.523 156.5 140C156.5 134.477 160.977 130 166.5 130H256.5C262.023 130 266.5 134.477 266.5 140C266.5 145.523 262.023 150 256.5 150Z" fill="white"/>
<path d="M131.52 150C125.996 150 121.516 145.523 121.516 140C121.516 134.477 125.988 130 131.512 130H131.52C137.043 130 141.52 134.477 141.52 140C141.52 145.523 137.043 150 131.52 150Z" fill="white"/>
</svg>
