<?xml version="1.0" standalone="no"?>
<!DOCTYPE svg PUBLIC "-//W3C//DTD SVG 20010904//EN"
 "http://www.w3.org/TR/2001/REC-SVG-20010904/DTD/svg10.dtd">
<svg version="1.0" xmlns="http://www.w3.org/2000/svg"
 width="512.000000pt" height="512.000000pt" viewBox="0 0 512.000000 512.000000"
 preserveAspectRatio="xMidYMid meet">
<metadata>
Created by potrace 1.11, written by Peter Selinger 2001-2013
</metadata>
<g transform="translate(0.000000,512.000000) scale(0.100000,-0.100000)"
fill="#000000" stroke="none">
<path d="M830 5113 c-401 -66 -706 -346 -807 -739 -17 -65 -18 -181 -18 -1809
0 -1629 1 -1745 18 -1813 91 -376 369 -649 744 -732 86 -19 136 -19 1818 -17
l1730 3 80 23 c377 108 638 389 712 766 4 22 8 821 8 1775 l0 1735 -22 83
c-86 320 -314 571 -613 676 -168 58 -65 55 -1920 54 -938 0 -1716 -3 -1730 -5z"/>
</g>
</svg>
