<svg version="1.1" id="Слой_1" width="90px" height="13px" xmlns="http://www.w3.org/2000/svg" xmlns:xlink="http://www.w3.org/1999/xlink" x="0px" y="0px" viewBox="0 0 817.98 110.97" style="enable-background:new 0 0 817.98 110.97;" xml:space="preserve"> <style type="text/css"> .logo-st0{fill-rule:evenodd;clip-rule:evenodd;fill:#FFFFFF;} .st1{fill:#FFFFFF;} .st2{fill:url(#SVGID_1_);} .st3{fill:url(#SVGID_2_);} .st4{fill:url(#SVGID_3_);} </style> <g> <path class="logo-st0" d="M382.97,55.29c2.46-1.93,24.36-5.21,21.62-27.24c-2.51-20.17-25.73-24.51-47-25.2V2.82h-1.26 c-4.55-0.12-8.98-0.08-13.09,0h-56.76v0.44v7.02v100.24c9.2,0.83,65.17,0.22,79.46,0.21C424.78,110.72,422.02,59.12,382.97,55.29z M323.69,27.31c9.59,0.01,13.43,0.01,22.95,0.01c8.8,0,20.8-1.32,20.82,8.73c0.01,9.99-11.72,9.11-20.18,9.11 c-9.8,0-13.92,0-23.72,0L323.69,27.31z M350.49,86.44c-10.8,0-15.92,0-26.71,0l-0.25-19.32c10.85,0,15.75,0,26.33,0 c9.16,0,22.3-1.75,22.51,9.32C372.57,87.75,360.4,86.45,350.49,86.44z"/> <path class="logo-st0" d="M667.11,84.22l-7.04-8.41c4.17-3.48,23.68-7.04,26.14-30.84c1.93-18.7-8.56-30.17-20.41-35.77 c-15.76-7.46-32.27-6.14-51.14-6.14c-9.28,0-45-0.5-50.56,0.21v107.45l37.28,0.02l0.07-31.61l18.97-0.02 c0.85,0.28,24.55,28.56,26.03,31.62l42.85,0l-18.63-22.41C669.18,86.62,668.47,85.88,667.11,84.22z M636.44,53.88h-34.92v-17.1 v-6.62v-0.43h34.87h0.05c6.67,0,12.07,5.41,12.07,12.07C648.51,48.48,643.11,53.88,636.44,53.88z"/> <polygon class="logo-st0" points="465.81,83.6 465.98,68.8 525.09,68.8 524.83,43.76 465.83,43.76 465.88,30.19 539.84,30.19 539.87,3.05 428.96,3.27 428.96,110.74 541.64,110.68 541.41,83.6 	"/> <path class="logo-st0" d="M228.99,3.05v5.33c0.08,15.84,0.45,32.19,0,47.86v1.63h-0.05c-1.12,34.91-46.77,34.91-47.89,0h-0.25V43.9 c-0.02-3.48-0.02-6.98,0-10.48V3.05h-37.44c0.12,14.64,0.12,29.27,0.12,43.91c0,15.7-0.64,25.7,5.8,38.63 c10.33,20.73,33.3,29.16,55.73,28.84c22.43,0.33,45.4-8.1,55.73-28.84c6.44-12.93,5.8-22.93,5.8-38.63c0-14.64,0-29.27,0.12-43.91 H228.99z"/> <path class="logo-st0" d="M700.67,3.06L701.03,29l0.21,2.59l39.35-0.01c0.7,22.29,0.07,55.67,0.07,79.15h37.54v-79l39.61-0.17 l0.17-28.49C778.63,2.48,740.52,3.06,700.67,3.06z"/> </g> <path d="M94.31,70.16c-0.03-0.07-0.06-0.15-0.09-0.22c0.05,0,0.09,0.01,0.14,0.01l0.72-3.05c-11.62-0.02-23.74,1.67-35.85,3.35 c-13.04,1.81-26.09,3.62-38.76,3.43l-2.07,8.76c11.61,0.01,23.73-1.67,35.85-3.35c13.04-1.81,26.08-3.62,38.75-3.42L94.31,70.16z M6.56,63.99c0.18,0.24,0.37,0.48,0.57,0.7c16.03,2.7,33.53,0.27,51.04-2.16c18.57-2.58,37.13-5.16,54.61-1.94l2.11-8.93 c-16.22-2.89-33.98-0.43-51.75,2.04c-18.57,2.58-37.13,5.16-54.61,1.94L6.56,63.99z M26.75,47.14c0.03,0.07,0.06,0.15,0.09,0.22 c-0.05-0.01-0.09-0.01-0.14-0.02l-0.47,1.99c11.62,0.02,23.74-1.67,35.85-3.35c13.04-1.81,26.09-3.62,38.76-3.42l1.82-7.7 c-11.61-0.01-23.73,1.67-35.85,3.35c-13.04,1.81-26.09,3.62-38.75,3.42L26.75,47.14z"/> <path class="st1" d="M88.32,3.05l-0.03,21.08c-7.06,0.66-14.1,1.62-21.08,2.59c-9.78,1.36-19.67,2.79-29.57,3.22L37.64,3.05L0,3.05 v107.9l37.63,0l0.15-18.4c6.7-0.66,13.38-1.57,19.99-2.49l0.02-0.02l0,0.01c10.37-1.44,20.74-2.86,30.51-3.24l0.02,24.16l37.53-0.02 V3.05L88.32,3.05z"/> <g> <linearGradient id="SVGID_1_" gradientUnits="userSpaceOnUse" x1="20.3597" y1="75.3072" x2="97.0376" y2="75.3072"> <stop  offset="0" style="stop-color:#28499A"/> <stop  offset="1" style="stop-color:#78CBE8"/> </linearGradient> <path class="st2" d="M22.43,74.32l-2.07,8.76c11.61,0.01,23.73-1.67,35.85-3.35c13.04-1.81,26.08-3.62,38.75-3.42l1.3-5.5 c-0.03-0.07-0.06-0.15-0.09-0.22c0.05,0,0.09,0.01,0.14,0.01l0.72-3.05c-11.62-0.02-23.74,1.67-35.85,3.35 C48.14,72.7,35.1,74.51,22.43,74.32z"/> <linearGradient id="SVGID_2_" gradientUnits="userSpaceOnUse" x1="28.1885" y1="42.0984" x2="104.8664" y2="42.0984"> <stop  offset="0" style="stop-color:#28499A"/> <stop  offset="1" style="stop-color:#78CBE8"/> </linearGradient> <path class="st3" d="M28.2,49.97c11.62,0.02,23.74-1.67,35.85-3.35C77.09,44.81,90.13,43,102.8,43.2l1.82-7.7 c-0.02,0-0.04,0-0.06,0l0.3-1.28c-11.62-0.02-23.74,1.67-35.85,3.35C55.97,39.38,42.93,41.2,30.26,41l-2.07,8.76 c0.02,0,0.04,0,0.06,0L28.2,49.97z"/> <linearGradient id="SVGID_3_" gradientUnits="userSpaceOnUse" x1="8.3877" y1="58.7573" x2="116.8518" y2="58.7573"> <stop  offset="0" style="stop-color:#28499A"/> <stop  offset="1" style="stop-color:#78CBE8"/> </linearGradient> <path class="st4" d="M65.1,54.34c-18.57,2.58-37.13,5.16-54.61,1.94l-2.11,8.84c0.07,0.1,1.43,0.33,1.65,0.37 c15.76,2.45,32.93,0.07,50.09-2.32c18.57-2.58,37.13-5.16,54.61-1.94l2.11-8.93C100.64,49.41,82.87,51.88,65.1,54.34z"/> </g> </svg>