<?xml version="1.0" encoding="UTF-8"?>
<svg width="541px" height="473px" viewBox="0 0 541 473" version="1.1" xmlns="http://www.w3.org/2000/svg" xmlns:xlink="http://www.w3.org/1999/xlink">
    <!-- Generator: Sketch 47.1 (45422) - http://www.bohemiancoding.com/sketch -->
    <title>climbingman</title>
    <desc>Created with Sketch.</desc>
    <defs>
        <linearGradient x1="40.2945126%" y1="22.584%" x2="55.1674627%" y2="93.072%" id="linearGradient-1">
            <stop stop-color="#90B9E4" offset="0%"></stop>
            <stop stop-color="#F2FFFD" stop-opacity="0.31" offset="100%"></stop>
        </linearGradient>
        <linearGradient x1="95.7085487%" y1="7.198%" x2="43.1670356%" y2="67.195%" id="linearGradient-2">
            <stop stop-color="#90B9E4" stop-opacity="0.72" offset="0%"></stop>
            <stop stop-color="#F2FFFD" stop-opacity="0.06" offset="100%"></stop>
        </linearGradient>
        <path d="M69.085,20.518 C69.2826285,25.421656 68.6576516,30.3237874 67.236,35.021 L53.756,79.576 L0.4,120.744 L7.01,130.85 L68.635,92.786 C71.2118183,91.1953505 73.2976155,88.9219492 74.661,86.218 L112.749,10.618 L68.267,0.197 L69.085,20.519 L69.085,20.518 Z" id="path-3"></path>
        <linearGradient x1="95.445%" y1="28.0348808%" x2="50%" y2="67.3165382%" id="linearGradient-5">
            <stop stop-color="#838895" offset="0%"></stop>
            <stop stop-color="#9A9EAE" offset="100%"></stop>
        </linearGradient>
    </defs>
    <g id="Page-1" stroke="none" stroke-width="1" fill="none" fill-rule="evenodd">
        <g id="climbingman">
            <polygon id="Shape" fill="url(#linearGradient-1)" fill-rule="nonzero" points="456.69 97 456.69 172.152 372.75 172.152 372.75 247.304 288.812 247.304 288.812 322.455 204.875 322.455 204.875 397.607 120.937 397.607 120.937 472.759 37 472.759 37 473 541 473 540.627 97"></polygon>
            <polygon id="Shape" fill="url(#linearGradient-2)" fill-rule="nonzero" points="471 0 457.056 6.147 435.216 15.776 427.67 19.102 433.435 24.997 435.298 26.904 138 317.478 146.654 325 443.288 35.075 445.152 36.982 450.917 42.877 454.414 35.41 464.537 13.798"></polygon>
            <path d="M190.045,110.162 C189.162,112.236 186.555,112.79 183.948,112.726 C182.93,115.571 179.828,124.321 179.796,124.894 C179.764,125.574 165.299,112.847 165.299,112.847 L168.09,107.145 C166.985281,106.320317 165.945554,105.411977 164.98,104.428 C160.568,99.967 155.12,93.011 157.243,83.752 C158.87,76.65 168.459,69.102 179.243,73.125 C189.708,77.019 194.216,100.362 190.045,110.162" id="Shape" fill="#FFC495" fill-rule="nonzero"></path>
            <path d="M191.14,80.344 C191.14,80.344 184.688,86.497 174.879,86.807 L174.965,96.103 L172.187,97.152 C172.187,97.152 170.967,92.926 168,93.602 C165.034,94.278 165.015,98.994 167.782,102.475 C170.55,105.956 167.617,110.892 167.617,110.892 C167.617,110.892 164.17,108.918 162.577,106.107 C160.984,103.295 149.759,88.158 157.001,85.78 C157.001,85.78 154.736,83.715 156.604,79.846 C160.386,72.011 171.499,68.061 179.862,70.996 C188.225,73.93 185.528,81.049 191.14,80.344" id="Shape" fill="#42272A" fill-rule="nonzero"></path>
            <path d="M223.374,143.403 L230.397,137.726 L238.922,125.564 L250.922,116.478 L257.913,122.776 L253.473,132.313 L238.03,145.039 L231.138,152.372 C228.569,149.358 225.974,146.388 223.374,143.402" id="Shape" fill="#FFC495" fill-rule="nonzero"></path>
            <path d="M155.052,125.631 L164.2,144.444 L199.673,170.384 C203.141429,172.921539 207.890896,172.77648 211.198,170.032 L237.552,148.172 L228.521,137.432 L206.693,154.146 L175.235,124.332 C175.235,124.332 160.423,118.052 155.052,125.632" id="Shape" fill="#07162B" fill-rule="nonzero"></path>
            <polygon id="Shape" fill="#F8F8F8" fill-rule="nonzero" points="228.86 137.765 230.73 136.265 238.922 145.723 237.114 147.604"></polygon>
            <g id="Group" transform="translate(0.000000, 160.000000)" fill-rule="nonzero">
                <g id="c-link" fill="#EBEBEB">
                    <path d="M54.136,16.911 C54.366,16.911 54.594,16.924 54.823,16.95 C56.4129816,17.1267002 57.8676497,17.9277749 58.867,19.177 L62.065,23.173 C63.0666955,24.4216582 63.5288555,26.0183419 63.349,27.609 C63.2074868,28.9123734 62.637753,30.1320258 61.729,31.077 L51.09,17.745 C52.0114977,17.1981487 53.0634574,16.9100258 54.135,16.911 M73.108,45.345 L64.118,34.081 C65.8125658,32.4896318 66.8834797,30.3456764 67.138,28.035 C67.4351267,25.4407069 66.6817988,22.8353878 65.046,20.8 L61.848,16.803 C60.22246,14.7568666 57.84586,13.4461356 55.248,13.163 C52.9448377,12.8974474 50.6220777,13.4565254 48.692,14.741 L39.118,2.74 C36.74,-0.238 32.245,-0.607 29.084,1.92 L2.863,22.873 C-0.304,25.4 -0.94,29.867 1.438,32.845 L35.43,75.457 C37.808,78.435 42.303,78.798 45.463,76.272 L71.685,55.322 C74.845,52.789 75.487,48.322 73.109,45.344" id="c"></path>
                </g>
                <g id="c-link" fill="#EF4035">
                    <path d="M54.136,16.911 C54.366,16.911 54.594,16.924 54.823,16.95 C56.4129816,17.1267002 57.8676497,17.9277749 58.867,19.177 L62.065,23.173 C63.0666955,24.4216582 63.5288555,26.0183419 63.349,27.609 C63.2074868,28.9123734 62.637753,30.1320258 61.729,31.077 L51.09,17.745 C52.0114977,17.1981487 53.0634574,16.9100258 54.135,16.911 M73.108,45.345 L64.118,34.081 C65.8125658,32.4896318 66.8834797,30.3456764 67.138,28.035 C67.4351267,25.4407069 66.6817988,22.8353878 65.046,20.8 L61.848,16.803 C60.22246,14.7568666 57.84586,13.4461356 55.248,13.163 C52.9448377,12.8974474 50.6220777,13.4565254 48.692,14.741 L39.118,2.74 C36.74,-0.238 32.245,-0.607 29.084,1.92 L2.863,22.873 C-0.304,25.4 -0.94,29.867 1.438,32.845 L35.43,75.457 C37.808,78.435 42.303,78.798 45.463,76.272 L71.685,55.322 C74.845,52.789 75.487,48.322 73.109,45.344" id="c"></path>
                </g>
            </g>
            <g id="Group" transform="translate(20.000000, 160.000000)" fill-rule="nonzero">
                <g id="d-link" fill="#E0E0E0">
                    <path d="M53.108,45.346 C55.486,48.326 54.848,52.791 51.683,55.32 L42.646,62.543 L0.044,9.143 L9.083,1.921 C12.246,-0.607 16.739,-0.242 19.116,2.738 L53.108,45.346 Z" id="d"></path>
                </g>
                <g id="d-link" fill="#240301">
                    <path d="M53.108,45.346 C55.486,48.326 54.848,52.791 51.683,55.32 L42.646,62.543 L0.044,9.143 L9.083,1.921 C12.246,-0.607 16.739,-0.242 19.116,2.738 L53.108,45.346 Z" id="d"></path>
                </g>
            </g>
            <polygon id="Shape" fill="#FFFFFF" fill-rule="nonzero" points="41.451 191.12 45.346 196.002 38.329 201.609 34.435 196.728"></polygon>
            <g id="Group" transform="translate(46.000000, 210.000000)">
                <g id="Clipped">
                    <g id="Shape-Clipped">
                        <mask id="mask-4" fill="white">
                            <use xlink:href="#path-3"></use>
                        </mask>
                        <g id="path-3"></g>
                        <path d="M69.085,20.518 C69.2826285,25.421656 68.6576516,30.3237874 67.236,35.021 L53.756,79.576 L0.4,120.744 L7.01,130.85 L68.635,92.786 C71.2118183,91.1953505 73.2976155,88.9219492 74.661,86.218 L112.749,10.618 L68.267,0.197 L69.085,20.519 L69.085,20.518 Z" id="Shape" fill="url(#linearGradient-5)" fill-rule="nonzero" mask="url(#mask-4)"></path>
                    </g>
                </g>
            </g>
            <g id="Group" transform="translate(37.000000, 112.000000)" fill-rule="nonzero">
                <path d="M13.026,255.58 L0.306,219.9 L9.322,218.483 L13.432,229.851 C13.432,229.851 12.842,235.747 15.352,243.693 C17.862,251.639 16.642,254.287 13.026,255.58" id="Shape" fill="#07162B"></path>
                <path d="M142.583,12.203 C142.583,12.203 146.116,17.616 141.046,39.532 C136.506,52.822 131.93,62.962 128.908,72.55 C125.246,84.168 120.514,103.428 120.514,103.428 L77.439,97.781 C77.439,97.781 84.299,71.44 89.985,50.844 C95.855,29.59 105.42,8.157 128.054,0.207 L142.584,12.203 L142.583,12.203 Z" id="Shape" fill="#020F34"></path>
            </g>
            <path d="M136.16,138.627 C132.79,146.499 129.611,154.597 127.493,162.903 C121.83,183.633 115,210.146 115,210.146 L139.617,213 C140.74,187.87 152.747,159.908 166,133 L136.16,138.627 Z" id="Shape"></path>
            <g id="Group" transform="translate(114.000000, 109.000000)" fill-rule="nonzero">
                <polygon id="Shape" fill="#F8F8F8" points="48.712 4.042 51.309 0.354 67.677 13.112 67.454 20.497"></polygon>
                <path d="M59.572,13.064 L66.785,18.556 C68.415,33.682 58.973,55.704 56.209,62.345 L59.572,13.064 Z" id="Shape" fill="#F8F8F8"></path>
                <path d="M62.99,15.811 L66.785,18.556 C68.415,33.682 58.974,55.704 56.21,62.345 L57.747,39.802 L65.294,23.37 L62.99,15.811 L62.99,15.811 Z" id="Shape" fill="#EF4035"></path>
                <path d="M0.34,100.918 L0.963,116.434 C1.25588068,123.721696 6.2367857,129.97959 13.273,131.9 C17.8157744,133.141018 22.4946577,133.81514 27.203,133.907 L80.393,134.349 L101.27,192.436 L112.993,189.011 L96.652,118.188 C95.9969557,115.349838 93.6488089,113.216536 90.761,112.836 L0.34,100.918 L0.34,100.918 Z" id="Shape" fill="#A1A9B9"></path>
                <path d="M138.546,186.502 L106.089,203.227 L102.263,195.062 L112.99,189.507 C112.99,189.507 118.912,189.309 126.457,185.783 C134.003,182.258 136.787,183.111 138.546,186.503" id="Shape" fill="#000000"></path>
            </g>
            <polygon id="Shape" points="195 243.435 204 265 203.255 237"></polygon>
            <g id="Group" transform="translate(56.000000, 122.000000)" fill-rule="nonzero">
                <polygon id="Shape" fill="#FFC495" points="26.573 30.773 34.206 40.449 26.651 45.554 15.842 58.547 5.738 63.815 0.101 55.658 18.691 37.569"></polygon>
                <path d="M111.592,10.009 C111.592,10.009 109.232,-1.867 93.009,0.644 C79.947,2.665 58.828,7.797 51.092,9.72 C49.1507673,10.2030261 47.3485725,11.1311701 45.828,12.431 L19.828,34.639 L29.198,45.152 L54.728,27.387 C54.728,27.387 89.586,23.617 96.406,23.236 C103.225,22.853 111.914,19.256 111.592,10.009" id="Shape" fill="#020F34"></path>
                <polygon id="Shape" fill="#F8F8F8" points="28.697 44.633 26.508 46.435 18.371 36.886 20.473 35.346"></polygon>
            </g>
            <g id="logo" transform="translate(28.655883, 206.256818) rotate(51.500000) translate(-28.655883, -206.256818) translate(12.655883, 200.256818)" fill-rule="nonzero" fill="#FFFFFF">
                <path d="M29.4376771,9.100811 C29.4376771,9.31322007 29.2745354,9.47252687 29.0570129,9.47252687 L27.4255945,9.47252687 C27.2080721,9.47252687 27.0449303,9.31322007 27.0449303,9.100811 L27.0449303,6.71120905 L25.6950953,6.71120905 L25.6950953,4.90545396 L27.0449303,4.90545396 L27.0449303,2.40964748 C27.0449303,2.19723842 27.2080721,2.03793162 27.4255945,2.03793162 L29.0570129,2.03793162 C29.2745354,2.03793162 29.4376771,2.19723842 29.4376771,2.40964748 L29.4376771,9.100811 Z M25.3141463,6.71120905 L23.8905701,6.71120905 L23.8905701,9.100811 C23.8905701,9.31322007 23.7274283,9.47252687 23.5099058,9.47252687 L21.8784875,9.47252687 C21.6609651,9.47252687 21.4978232,9.31322007 21.4978232,9.100811 L21.4978232,2.40964748 C21.4978232,2.19723842 21.6609651,2.03793162 21.8784875,2.03793162 L23.5099058,2.03793162 C23.7274283,2.03793162 23.8905701,2.19723842 23.8905701,2.40964748 L23.8905701,4.90545396 L25.3141463,4.90545396 L25.3141463,6.71120905 Z M20.3777535,9.47252687 L18.5288127,9.47252687 C18.4365649,9.47252687 18.3502962,9.44361254 18.2748467,9.39468061 L15.1031189,2.03793162 L17.1149168,2.03793162 C17.3324393,2.03793162 17.5064003,2.18667357 17.6043423,2.39908263 L20.6496565,9.100811 C20.7475986,9.31322007 20.5952759,9.47252687 20.3777535,9.47252687 L20.3777535,9.47252687 Z M14.6319152,8.14497022 L15.4163057,6.39259543 L16.5674094,6.39259543 L17.3227589,8.14497022 L14.6319152,8.14497022 Z M13.3623699,9.47252687 L11.6221904,9.47252687 C11.4046679,9.47252687 11.2523453,9.31322007 11.3502873,9.100811 L14.3956015,2.40964748 C14.4650721,2.2592374 14.5724097,2.13579548 14.7065106,2.07657672 L15.7844425,4.57655355 L14.994073,6.39259543 L15.0006214,6.39259543 L13.6775497,9.34825088 C13.5890033,9.42526306 13.4805268,9.47252687 13.3623699,9.47252687 L13.3623699,9.47252687 Z M10.5021206,9.100811 C10.5021206,9.31322007 10.3389788,9.47252687 10.1214564,9.47252687 L8.49003803,9.47252687 C8.2725156,9.47252687 8.10937377,9.31322007 8.10937377,9.100811 L8.10937377,3.84340867 L6.68437397,3.84340867 L6.68437397,2.03793162 L10.1214564,2.03793162 C10.3389788,2.03793162 10.5021206,2.19723842 10.5021206,2.40964748 L10.5021206,9.100811 Z M6.303425,3.84340867 L4.95529831,3.84340867 L4.95529831,9.100811 C4.95529831,9.31322007 4.79215649,9.47252687 4.57463406,9.47252687 L2.942931,9.47252687 C2.72540857,9.47252687 2.56226673,9.31322007 2.56226673,9.100811 L2.56226673,2.40964748 C2.56226673,2.19723842 2.72540857,2.03793162 2.942931,2.03793162 L6.303425,2.03793162 L6.303425,3.84340867 Z M31.2265429,2.79069767e-05 L0.773400877,2.79069767e-05 C0.346328017,2.79069767e-05 0.000114285714,0.338103067 0.000114285714,0.755136567 L0.000114285714,11.2449193 C0.000114285714,11.6619527 0.346328017,12.0000279 0.773400877,12.0000279 L31.2265429,12.0000279 C31.6536157,12.0000279 32.0001143,11.6619527 32.0001143,11.2449193 L32.0001143,0.755136567 C32.0001143,0.338103067 31.6536157,2.79069767e-05 31.2265429,2.79069767e-05 L31.2265429,2.79069767e-05 Z" id="Shape"></path>
            </g>
        </g>
    </g>
</svg>