<svg width="1376" height="192" viewBox="0 0 1376 192" fill="none" xmlns="http://www.w3.org/2000/svg">
<path fill-rule="evenodd" clip-rule="evenodd" d="M230.21 147.034H261.286V145.092H230.21V147.034Z" fill="white"/>
<path fill-rule="evenodd" clip-rule="evenodd" d="M170 147.034H204.961V145.092H170V147.034Z" fill="white"/>
<path fill-rule="evenodd" clip-rule="evenodd" d="M238.1 146.015H236.367C236.367 135.933 229.403 127.731 220.843 127.731C216.35 127.731 212.078 130.031 209.121 134.04L208.585 134.769L207.88 134.201C206.069 132.741 203.882 131.97 201.555 131.97C195.997 131.97 191.475 136.487 191.475 142.039C191.475 143.145 191.654 144.232 192.005 145.27L190.363 145.826C189.951 144.608 189.742 143.334 189.742 142.039C189.742 135.533 195.042 130.239 201.555 130.239C203.948 130.239 206.296 130.974 208.258 132.325C211.518 128.294 216.06 126 220.843 126C230.359 126 238.1 134.979 238.1 146.015Z" fill="white"/>
<path fill-rule="evenodd" clip-rule="evenodd" d="M1209.47 15.5083H1232.17V13.7773H1209.47V15.5083Z" fill="white"/>
<path fill-rule="evenodd" clip-rule="evenodd" d="M1166 15.5083H1191.21V13.7773H1166V15.5083Z" fill="white"/>
<path fill-rule="evenodd" clip-rule="evenodd" d="M1215.51 14.8182H1213.78C1213.78 7.60166 1208.81 1.73099 1202.7 1.73099C1199.51 1.73099 1196.46 3.37154 1194.35 6.23244L1193.82 6.96076L1193.11 6.39256C1191.83 5.36349 1190.29 4.81995 1188.65 4.81995C1184.73 4.81995 1181.54 8.00542 1181.54 11.9214C1181.54 12.702 1181.67 13.4689 1181.91 14.2006L1180.27 14.7559C1179.96 13.8449 1179.81 12.8916 1179.81 11.9214C1179.81 7.05121 1183.77 3.08896 1188.65 3.08896C1190.37 3.08896 1192.06 3.59527 1193.49 4.52915C1195.9 1.64012 1199.21 0 1202.7 0C1209.77 0 1215.51 6.64745 1215.51 14.8182" fill="white"/>
<path fill-rule="evenodd" clip-rule="evenodd" d="M345.154 23.25H364.56V21.7773H345.154V23.25Z" fill="white"/>
<path fill-rule="evenodd" clip-rule="evenodd" d="M308 23.25H329.548V21.7773H308V23.25Z" fill="white"/>
<path fill-rule="evenodd" clip-rule="evenodd" d="M350.321 22.6632H348.846C348.846 16.4929 344.598 11.4726 339.375 11.4726C336.639 11.4726 334.036 12.8761 332.233 15.3221L331.776 15.9417L331.176 15.4583C330.085 14.5784 328.765 14.1131 327.361 14.1131C324.008 14.1131 321.28 16.8378 321.28 20.187C321.28 20.8544 321.388 21.5105 321.6 22.1364L320.203 22.6087C319.94 21.8304 319.806 21.0153 319.806 20.187C319.806 16.026 323.195 12.6404 327.361 12.6404C328.831 12.6404 330.274 13.0741 331.497 13.873C333.556 11.4027 336.391 10 339.375 10C345.41 10 350.321 15.6807 350.321 22.6632" fill="white"/>
<path fill-rule="evenodd" clip-rule="evenodd" d="M1356.15 187.25H1375.56V185.777H1356.15V187.25Z" fill="white"/>
<path fill-rule="evenodd" clip-rule="evenodd" d="M1319 187.25H1340.55V185.777H1319V187.25Z" fill="white"/>
<path fill-rule="evenodd" clip-rule="evenodd" d="M1361.32 186.663H1359.85C1359.85 180.493 1355.6 175.473 1350.37 175.473C1347.64 175.473 1345.04 176.876 1343.23 179.322L1342.78 179.942L1342.18 179.458C1341.08 178.578 1339.77 178.113 1338.36 178.113C1335.01 178.113 1332.28 180.838 1332.28 184.187C1332.28 184.854 1332.39 185.51 1332.6 186.136L1331.2 186.609C1330.94 185.83 1330.81 185.015 1330.81 184.187C1330.81 180.026 1334.2 176.64 1338.36 176.64C1339.83 176.64 1341.27 177.074 1342.5 177.873C1344.56 175.403 1347.39 174 1350.37 174C1356.41 174 1361.32 179.681 1361.32 186.663" fill="white"/>
<path fill-rule="evenodd" clip-rule="evenodd" d="M43.6717 53.5745H66.4825V51.8435H43.6717V53.5745Z" fill="white"/>
<path fill-rule="evenodd" clip-rule="evenodd" d="M0 53.5745H25.328V51.8435H0V53.5745Z" fill="white"/>
<path fill-rule="evenodd" clip-rule="evenodd" d="M49.7452 52.8848H48.0123C48.0123 45.632 43.0183 39.731 36.8794 39.731C33.6639 39.731 30.6043 41.3806 28.4841 44.2558L27.9468 44.9841L27.2424 44.4159C25.9592 43.3817 24.4086 42.8347 22.758 42.8347C18.8168 42.8347 15.6104 46.0374 15.6104 49.9742C15.6104 50.7587 15.7365 51.5299 15.986 52.2656L14.3445 52.8208C14.0343 51.9059 13.8774 50.9478 13.8774 49.9742C13.8774 45.0832 17.8611 41.1037 22.758 41.1037C24.4853 41.1037 26.1814 41.6135 27.6198 42.5525C30.0398 39.6488 33.3714 38 36.8794 38C43.9736 38 49.7452 44.6773 49.7452 52.8848" fill="white"/>
<path d="M1141.32 167.332L1143.45 187.18L1111.88 190.575L1109.74 170.728" stroke="white" stroke-width="1.5" stroke-linecap="round" stroke-linejoin="round"/>
<rect x="1105.07" y="161.192" width="39.9238" height="9.98095" transform="rotate(-6.13738 1105.07 161.192)" stroke="white" stroke-width="1.5" stroke-linecap="round" stroke-linejoin="round"/>
<path d="M1128.12 188.829L1124.91 159.058" stroke="white" stroke-width="1.5" stroke-linecap="round" stroke-linejoin="round"/>
<path fill-rule="evenodd" clip-rule="evenodd" d="M1124.91 159.058L1116.22 159.993C1113.55 160.28 1111.14 158.291 1110.85 155.551C1110.55 152.811 1112.48 150.357 1115.15 150.07C1121.91 149.342 1124.91 159.058 1124.91 159.058Z" stroke="white" stroke-width="1.5" stroke-linecap="round" stroke-linejoin="round"/>
<path fill-rule="evenodd" clip-rule="evenodd" d="M1124.91 159.058L1133.61 158.122C1136.28 157.835 1138.21 155.381 1137.91 152.641C1137.62 149.901 1135.22 147.912 1132.55 148.199C1125.78 148.926 1124.91 159.058 1124.91 159.058Z" stroke="white" stroke-width="1.5" stroke-linecap="round" stroke-linejoin="round"/>
</svg>
