<svg xmlns="http://www.w3.org/2000/svg" width="20" height="19" viewBox="0 0 20 19">
    <path fill="#FFF" fill-rule="nonzero" d="M1.999 17v-7c0-2.595 1.518-4.993 3.827-6.195a3.96 3.96 0 0 1 1.152-2.632c1.511-1.512 4.147-1.511 5.657-.001l.185.185a7.041 7.041 0 0 1 6.179 1.935l.707.706c.391.392.39 1.025 0 1.415L11.221 13.9a1 1 0 0 1-1.414 0l-.708-.708a7.027 7.027 0 0 1-1.936-6.178l-.185-.186a3.967 3.967 0 0 1-.699-.979c-1.391.923-2.28 2.479-2.28 4.15v7h4v2h-8v-2h2V17zM8.394 5.415l.572.575a1 1 0 0 1 .258.963 5.019 5.019 0 0 0 1.289 4.825l7.071-7.072a5.04 5.04 0 0 0-4.826-1.288 1.001 1.001 0 0 1-.965-.259l-.573-.573c-.755-.756-2.072-.756-2.828 0-.378.378-.586.88-.586 1.415s.208 1.035.588 1.414z"/>
</svg>
