<svg xmlns="http://www.w3.org/2000/svg" width="13" height="21" viewBox="0 0 13 21">
    <g fill="#FFF" fill-rule="nonzero" transform="translate(.25 .125)">
        <path d="M6.25 18.296c2.503-3.004 6.25-8.151 6.25-12.044A6.256 6.256 0 0 0 6.25.002 6.256 6.256 0 0 0 0 6.252c0 3.893 3.749 9.042 6.25 12.044zm0-16.21a4.17 4.17 0 0 1 4.167 4.166c0 2.612-2.54 6.556-4.167 8.731-1.628-2.173-4.167-6.115-4.167-8.73A4.172 4.172 0 0 1 6.25 2.084z"/>
        <circle cx="6.25" cy="6.252" r="2.083"/>
        <path d="M2.083 18.752h8.333v2.083H2.083z"/>
    </g>
</svg>
