<svg width="28" height="28" viewBox="0 0 28 28" fill="none" xmlns="http://www.w3.org/2000/svg">
<rect width="28" height="28" rx="14" fill="white" fill-opacity="0.12"/>
<path fill-rule="evenodd" clip-rule="evenodd" d="M6 10H22V20.4552C22 21.3084 21.3402 22 20.5263 22H7.47368C6.65979 22 6 21.3084 6 20.4552V10Z" fill="#EE4035"/>
<path fill-rule="evenodd" clip-rule="evenodd" d="M7.47368 7.73682H20.5263C21.3402 7.73682 22 8.39661 22 9.2105V10.0263H6V9.2105C6 8.39661 6.65979 7.73682 7.47368 7.73682Z" fill="#D12E26"/>
<path fill-rule="evenodd" clip-rule="evenodd" d="M9 5C9.55228 5 10 5.51659 10 6.15385V8.84615C10 9.48341 9.55228 10 9 10C8.44772 10 8 9.48341 8 8.84615V6.15385C8 5.51659 8.44772 5 9 5ZM9 5.8042C8.81591 5.8042 8.66667 5.97639 8.66667 6.18881V8.81119C8.66667 9.02361 8.81591 9.1958 9 9.1958C9.18409 9.1958 9.33333 9.02361 9.33333 8.81119V6.18881C9.33333 5.97639 9.18409 5.8042 9 5.8042Z" fill="#D12E26"/>
<path fill-rule="evenodd" clip-rule="evenodd" d="M19 5C19.5523 5 20 5.51659 20 6.15385V8.84615C20 9.48341 19.5523 10 19 10C18.4477 10 18 9.48341 18 8.84615V6.15385C18 5.51659 18.4477 5 19 5ZM19 5.8042C18.8159 5.8042 18.6667 5.97639 18.6667 6.18881V8.81119C18.6667 9.02361 18.8159 9.1958 19 9.1958C19.1841 9.1958 19.3333 9.02361 19.3333 8.81119V6.18881C19.3333 5.97639 19.1841 5.8042 19 5.8042Z" fill="#D12E26"/>
<path fill-rule="evenodd" clip-rule="evenodd" d="M14.1937 16.7795C14.0733 16.7129 13.9271 16.7129 13.8067 16.7795L12.6816 17.4014C12.3894 17.563 12.0395 17.3165 12.0933 16.987L12.3177 15.6113C12.3381 15.486 12.2979 15.3584 12.2092 15.2676L11.2438 14.2781C11.0165 14.0451 11.1479 13.6525 11.4697 13.6034L12.7694 13.4048C12.9013 13.3846 13.0145 13.3001 13.0711 13.1793L13.6381 11.9714C13.7821 11.6647 14.2183 11.6647 14.3623 11.9714L14.9293 13.1793C14.9859 13.3001 15.0991 13.3846 15.2309 13.4048L16.5307 13.6034C16.8525 13.6525 16.9839 14.0451 16.7566 14.2781L15.7912 15.2676C15.7025 15.3584 15.6623 15.486 15.6827 15.6113L15.9071 16.987C15.9609 17.3165 15.611 17.563 15.3188 17.4014L14.1937 16.7795Z" fill="white"/>
</svg>
