<svg xmlns="http://www.w3.org/2000/svg" xmlns:xlink="http://www.w3.org/1999/xlink" width="759" height="447" viewBox="0 0 759 447">
    <defs>
        <path id="a" d="M0 610h868.476V.088H0z"/>
        <path id="c" d="M.518 18.596H27.27V.743H.52v17.853z"/>
        <path id="e" d="M0 609.8h868.476V.088H0z"/>
    </defs>
    <g fill="none" fill-rule="evenodd">
        <g opacity=".1">
            <path fill="#C3FFFE" d="M2.163 216.673h756.26V-61.542H2.163z"/>
            <path fill="#00A090" d="M17.171 203.818h726.244V-48.688H17.171z"/>
            <g fill="#29FF65">
                <path d="M656.522 151.507h20.586v-34.232h-20.586zM631.994 151.507h20.586v-21.754h-20.586zM607.202 151.507h20.586v-12.014h-20.586zM582.674 151.507h20.586V149.4h-20.586zM708.055 151.507h20.586V72.962h-20.586zM683.527 151.507h20.586v-49.915h-20.586zM623.703 80.114l26.457 20.476 45.957-41.183 7.772 7.037 11.01-26.923-32.66 7.083 8.115 7.164-40.194 35.675-26.457-19.446-38.424 30.593 5.642 6.236z"/>
            </g>
            <path fill="#FFF" d="M41.75 171.926h273.607V-22.577H41.75z"/>
            <path fill="#92D7E7" d="M193.53 158.609h84.51V95.986h-84.51z"/>
            <path fill="#B2D235" d="M205.975 145.754h7.2v-6.788h-7.2zM219.361 145.708h7.2v-12.106h-7.2zM232.185 145.754h7.2V128.32h-7.2zM246.36 145.8h7.199v-24.602h-7.2zM260.758 145.8h7.2v-35.505h-7.2z"/>
            <path fill="#FEC77C" d="M141.967 18.965c0 16.578-13.441 30.018-30.021 30.018-16.581 0-30.023-13.44-30.023-30.018 0-16.578 13.442-30.017 30.023-30.017 16.58 0 30.021 13.439 30.021 30.017"/>
            <path fill="#7895A4" d="M111.945 48.982c16.58 0 30.022-13.439 30.022-30.018 0-8.288-3.36-15.793-8.793-21.225l-21.229 21.225H81.924c0 16.579 13.44 30.018 30.021 30.018"/>
            <path fill="#9F2214" d="M88.126.701a29.876 29.876 0 0 0-6.202 18.264h30.021L88.126.7z"/>
            <path fill="#FF5A5A" d="M111.945 18.965H81.924c0 3.912.756 7.647 2.118 11.074l27.903-11.074zM150.614 13.15h20.449V7.344h-20.45z"/>
            <path fill="#9F2214" d="M150.613 21.858h29.977v-5.805h-29.977z"/>
            <path fill="#FEC77C" d="M150.613 30.67h46.839v-5.806h-46.84z"/>
            <path fill="#7895A4" d="M150.613 39.378h78.69v-5.806h-78.69zM78.702 81.93h202.171v-4.734H78.703zM78.702 74.507h202.171v-4.734H78.703zM78.702 67.077h202.171v-4.735H78.703zM78.702 59.654h202.171V54.92H78.703zM340.585 170.032h215.478v-17.26H340.585zM340.585 142.97h215.478v-17.26H340.585zM340.585 115.879h215.478V98.618H340.585zM340.585 88.817h215.478v-17.26H340.585z"/>
            <path fill="#00BBD6" d="M261.164 20.499a5.815 5.815 0 0 1-5.81-5.809 5.816 5.816 0 0 1 5.81-5.809 5.816 5.816 0 0 1 5.81 5.81 5.815 5.815 0 0 1-5.81 5.808m0-12.867c-3.892 0-7.06 3.166-7.06 7.058s3.168 7.058 7.06 7.058c3.892 0 7.06-3.166 7.06-7.058s-3.168-7.058-7.06-7.058"/>
            <path fill="#00BBD6" d="M261.164 25.395c-5.904 0-10.707-4.802-10.707-10.704 0-5.903 4.803-10.706 10.707-10.706 5.903 0 10.706 4.803 10.706 10.706 0 5.902-4.803 10.704-10.706 10.704m0-23.712c-7.173 0-13.01 5.835-13.01 13.008 0 7.171 5.837 13.006 13.01 13.006s13.009-5.835 13.009-13.006c0-7.173-5.836-13.008-13.009-13.008"/>
            <path fill="#00BBD6" d="M261.164 31.134c-9.068 0-16.446-7.376-16.446-16.444 0-9.067 7.378-16.443 16.446-16.443 9.068 0 16.446 7.376 16.446 16.443 0 9.068-7.378 16.444-16.446 16.444m0-36.424c-11.02 0-19.983 8.963-19.983 19.98 0 11.018 8.964 19.981 19.983 19.981s19.984-8.963 19.984-19.981c0-11.017-8.965-19.98-19.984-19.98"/>
            <path fill="#00BBD6" d="M261.164 11.886a2.805 2.805 0 1 0-.001 5.61 2.805 2.805 0 0 0 .001-5.61"/>
            <path fill="#000" d="M41.684 176.48h273.74v-4.694H41.683z"/>
            <path fill="#92D7E7" d="M79.583 157.878h105.32v-6.776H79.582zM79.583 147.255h105.32v-6.776H79.582zM79.583 136.62h105.32v-6.777H79.582zM79.583 125.996h105.32v-6.776H79.582z"/>
            <g>
                <path fill="#8BE9FF" d="M703.72 291.913h12.75v-59.856h-12.75z"/>
                <path fill="#5E9AA8" d="M710.095 291.913h6.374v-59.856h-6.374z"/>
                <path fill="#FFF" d="M703.707 290.122h12.762v-.78h-12.762zM703.707 288.745h12.762v-.78h-12.762zM703.725 235.867h12.744v-.78h-12.744zM703.725 234.49h12.744v-.78h-12.744z"/>
                <path fill="#8BE9FF" d="M690.156 291.913h12.75v-55.01h-12.75z"/>
                <path fill="#5E9AA8" d="M696.531 291.913h6.374v-55.01h-6.374z"/>
                <path fill="#FFF" d="M690.143 290.267h12.762v-.718h-12.762zM690.143 289.001h12.762v-.717h-12.762zM690.16 240.403h12.745v-.717H690.16zM690.16 239.137h12.745v-.716H690.16z"/>
                <path fill="#8BE9FF" d="M676.592 291.913h12.749v-54.854h-12.75z"/>
                <path fill="#5E9AA8" d="M682.967 291.913h6.374v-54.854h-6.374z"/>
                <path fill="#FFF" d="M676.579 290.272h12.762v-.715h-12.762zM676.579 289.01h12.762v-.715h-12.762zM676.596 240.55h12.745v-.716h-12.745zM676.596 239.288h12.745v-.716h-12.745z"/>
                <path fill="#8BE9FF" d="M663.027 291.913h12.75v-49.697h-12.75z"/>
                <path fill="#5E9AA8" d="M669.402 291.913h6.374v-49.697h-6.374z"/>
                <path fill="#FFF" d="M663.014 290.426h12.762v-.648h-12.762zM663.014 289.283h12.762v-.649h-12.762zM663.032 245.379h12.744v-.648h-12.744zM663.032 244.235h12.744v-.648h-12.744z"/>
                <g>
                    <path fill="#8BE9FF" d="M606.216 292.203h55.524v-7.528h-55.524z"/>
                    <path fill="#5E9AA8" d="M606.216 292.203h55.524v-3.764h-55.524z"/>
                    <path fill="#FFF" d="M659.354 292.203h.725v-7.536h-.725zM658.078 292.203h.724v-7.536h-.724zM609.026 292.203h.724v-7.526h-.724zM607.748 292.203h.725v-7.526h-.725z"/>
                    <path fill="#8BE9FF" d="M610.71 284.193h51.03v-7.528h-51.03z"/>
                    <path fill="#5E9AA8" d="M610.71 284.193h51.03v-3.764h-51.03z"/>
                    <path fill="#FFF" d="M659.548 284.193h.665v-7.536h-.665zM658.374 284.193h.665v-7.536h-.665zM613.293 284.193h.665v-7.526h-.665zM612.119 284.193h.665v-7.526h-.665z"/>
                    <path fill="#8BE9FF" d="M610.856 276.183h50.884v-7.528h-50.884z"/>
                    <path fill="#5E9AA8" d="M610.856 276.183h50.884v-3.764h-50.884z"/>
                    <path fill="#FFF" d="M659.554 276.183h.664v-7.536h-.664zM658.384 276.183h.663v-7.536h-.663zM613.43 276.183h.664v-7.526h-.664zM612.26 276.183h.663v-7.526h-.663z"/>
                    <path fill="#8BE9FF" d="M615.64 268.173h46.1v-7.528h-46.1z"/>
                    <path fill="#5E9AA8" d="M615.64 268.173h46.1v-3.764h-46.1z"/>
                    <path fill="#FFF" d="M659.76 268.173h.6v-7.536h-.6zM658.699 268.173h.601v-7.536h-.601zM617.972 268.173h.601v-7.526h-.601zM616.911 268.173h.602v-7.526h-.602z"/>
                </g>
                <g>
                    <path fill="#8BE9FF" d="M266.634 291.913h12.75v-59.856h-12.75z"/>
                    <path fill="#5E9AA8" d="M273.009 291.913h6.374v-59.856h-6.374z"/>
                    <path fill="#FFF" d="M266.621 290.122h12.762v-.78h-12.762zM266.621 288.745h12.762v-.78h-12.762zM266.638 235.867h12.745v-.78h-12.745zM266.638 234.49h12.745v-.78h-12.745z"/>
                    <path fill="#8BE9FF" d="M253.07 291.913h12.749v-55.01h-12.75z"/>
                    <path fill="#5E9AA8" d="M259.445 291.913h6.374v-55.01h-6.374z"/>
                    <path fill="#FFF" d="M253.057 290.267h12.762v-.718h-12.762zM253.057 289.001h12.762v-.717h-12.762zM253.074 240.403h12.745v-.717h-12.745zM253.074 239.137h12.745v-.716h-12.745z"/>
                    <path fill="#8BE9FF" d="M239.505 291.913h12.75v-54.854h-12.75z"/>
                    <path fill="#5E9AA8" d="M245.88 291.913h6.374v-54.854h-6.374z"/>
                    <path fill="#FFF" d="M239.492 290.272h12.762v-.715h-12.762zM239.492 289.01h12.762v-.715h-12.762zM239.51 240.55h12.744v-.716H239.51zM239.51 239.288h12.744v-.716H239.51z"/>
                    <path fill="#8BE9FF" d="M225.941 291.913h12.749v-49.697h-12.749z"/>
                    <path fill="#5E9AA8" d="M232.316 291.913h6.374v-49.697h-6.374z"/>
                    <path fill="#FFF" d="M225.928 290.426h12.762v-.648h-12.762zM225.928 289.283h12.762v-.649h-12.762zM225.945 245.379h12.745v-.648h-12.745zM225.945 244.235h12.745v-.648h-12.745z"/>
                </g>
                <g>
                    <path fill="#8BE9FF" d="M169.13 292.203h55.523v-7.528h-55.524z"/>
                    <path fill="#5E9AA8" d="M169.13 292.203h55.523v-3.764h-55.524z"/>
                    <path fill="#FFF" d="M222.268 292.203h.724v-7.536h-.724zM220.99 292.203h.725v-7.536h-.724zM171.939 292.203h.724v-7.526h-.724zM170.662 292.203h.724v-7.526h-.724z"/>
                    <path fill="#8BE9FF" d="M173.623 284.193h51.03v-7.528h-51.03z"/>
                    <path fill="#5E9AA8" d="M173.623 284.193h51.03v-3.764h-51.03z"/>
                    <path fill="#FFF" d="M222.46 284.193h.666v-7.536h-.665zM221.287 284.193h.666v-7.536h-.666zM176.206 284.193h.665v-7.526h-.665zM175.032 284.193h.665v-7.526h-.665z"/>
                    <path fill="#8BE9FF" d="M173.768 276.183h50.885v-7.528h-50.885z"/>
                    <path fill="#5E9AA8" d="M173.768 276.183h50.885v-3.764h-50.885z"/>
                    <path fill="#FFF" d="M222.468 276.183h.663v-7.536h-.663zM221.297 276.183h.663v-7.536h-.663zM176.344 276.183h.663v-7.526h-.663zM175.173 276.183h.664v-7.526h-.664z"/>
                    <path fill="#8BE9FF" d="M178.552 268.173h46.1v-7.528h-46.1z"/>
                    <path fill="#5E9AA8" d="M178.552 268.173h46.1v-3.764h-46.1z"/>
                    <path fill="#FFF" d="M222.673 268.173h.6v-7.536h-.6zM221.612 268.173h.601v-7.536h-.601zM180.886 268.173h.6v-7.526h-.6zM179.825 268.173h.601v-7.526h-.6z"/>
                </g>
                <g>
                    <path fill="#8BE9FF" d="M0 421.026h753.817V292.274H0z"/>
                    <path fill="#D1E2E6" d="M0 442.243h753.817v-21.217H0z"/>
                    <path fill="#000" d="M0 433.684h753.817v-12.62H0z"/>
                    <path fill="#6D959E" d="M0 303.486h753.817v-11.53H0z"/>
                    <path fill="#4FA0B2" d="M82.15 421.267h1.821V303.365h-1.822zM162.986 365.22h69.258v-30.523h-69.258v30.524zm69.258-61.855v29.065h-69.258v-29.065h-1.822v117.902h1.822v-53.779h69.258v53.779h1.821V303.365h-1.821zM307.578 421.267h1.822V303.365h-1.822zM388.415 365.22h69.257v-30.523h-69.257v30.524zm69.257-61.855v29.065h-69.257v-29.065h-1.822v117.902h1.822v-53.779h69.257v53.779h1.821V303.365h-1.821zM529.096 421.267h1.822V303.365h-1.822zM609.932 365.22h69.258v-30.523h-69.258v30.524zm69.258-61.855v29.065h-69.258v-29.065h-1.821v117.902h1.821v-53.779h69.258v53.779h1.822V303.365h-1.822z"/>
                </g>
            </g>
        </g>
        <g transform="translate(-57 -141)">
            <path fill="#FFF" d="M430.4 202.32h2.738V54.846H430.4z"/>
            <path fill="#FEC77C" d="M433.94 233.931h-4.341c-3.645 0-6.628-2.79-6.628-6.2v-20.268c0-3.41 2.983-6.201 6.628-6.201h4.34c3.645 0 6.628 2.79 6.628 6.2v20.269c0 3.41-2.983 6.2-6.628 6.2"/>
            <path fill="#FFF" d="M430.965 230.422h1.609c3.573 0 6.498-2.736 6.498-6.08v-8.459c0-3.344-2.925-6.08-6.498-6.08h-1.61c-3.573 0-6.498 2.736-6.498 6.08v8.458c0 3.345 2.925 6.08 6.499 6.08"/>
            <path fill="#FFF" d="M432.017 170.457v-.096l-.048.048-.047-.048v.096l-47.938 48.448h95.971z"/>
            <path fill="#FFF" d="M438.952 184.182c0-2.457-2.13-4.448-4.755-4.448-2.626 0-4.754 1.991-4.754 4.448 0 2.457 2.128 4.448 4.754 4.448 2.626 0 4.755-1.99 4.755-4.448M691.314 213.272h2.739V65.798h-2.74z"/>
            <path fill="#FEC77C" d="M694.854 233.931h-4.341c-3.645 0-6.627-2.79-6.627-6.2v-20.268c0-3.41 2.982-6.201 6.627-6.201h4.34c3.646 0 6.628 2.79 6.628 6.2v20.269c0 3.41-2.982 6.2-6.627 6.2"/>
            <path fill="#FFF" d="M691.88 230.422h1.608c3.574 0 6.498-2.736 6.498-6.08v-8.459c0-3.344-2.924-6.08-6.498-6.08h-1.609c-3.574 0-6.499 2.736-6.499 6.08v8.458c0 3.345 2.925 6.08 6.5 6.08"/>
            <path fill="#FFF" d="M692.932 170.457v-.096l-.048.048-.048-.048v.096L644.9 218.905h95.97zM699.866 227.988c0-2.457-2.129-4.448-4.754-4.448-2.626 0-4.754 1.991-4.754 4.448 0 2.457 2.128 4.448 4.754 4.448 2.625 0 4.754-1.99 4.754-4.448"/>
            <path fill="#FEC77C" d="M565.816 233.931h-4.34c-3.646 0-6.628-2.79-6.628-6.2v-20.268c0-3.41 2.982-6.201 6.627-6.201h4.341c3.645 0 6.627 2.79 6.627 6.2v20.269c0 3.41-2.982 6.2-6.627 6.2z"/>
            <path fill="#FFF" d="M562.841 230.422h1.61c3.573 0 6.497-2.736 6.497-6.08v-8.459c0-3.344-2.924-6.08-6.498-6.08h-1.609c-3.574 0-6.498 2.736-6.498 6.08v8.458c0 3.345 2.924 6.08 6.498 6.08"/>
            <path fill="#FFF" d="M563.894 170.457v-.096l-.047.048-.048-.048v.096l-47.938 48.448h95.97zM570.828 227.988c0-2.457-2.129-4.448-4.754-4.448-2.626 0-4.754 1.991-4.754 4.448 0 2.457 2.128 4.448 4.754 4.448 2.625 0 4.754-1.99 4.754-4.448"/>
            <mask id="b" fill="#fff">
                <use xlink:href="#a"/>
            </mask>
            <path fill="#FFF" d="M563 173h2V25h-2z" mask="url(#b)"/>
        </g>
        <path fill="#D0ECF4" d="M462.047 424.039v-46.911l-9.286 8.598v38.313h-47.195V436.14h6.82v-4.034h90.305v4.127h6.82V424.04z"/>
        <path fill="#809EAD" d="M462.047 357.017h-9.286v28.71l9.286-8.6z"/>
        <path fill="#97D7D9" d="M503.272 356.26h-91.441v-99.826c0-12.521 10.848-22.672 24.231-22.672h42.978c13.383 0 24.232 10.15 24.232 22.672v99.826z"/>
        <path fill="#D0ECF4" d="M402.623 361.175h-3.017c-1.366 0-2.475-1.036-2.475-2.315v-45.33c0-1.279 1.109-2.316 2.475-2.316h3.017c1.367 0 2.475 1.037 2.475 2.316v45.33c0 1.28-1.108 2.315-2.475 2.315"/>
        <path fill="#6AC9CD" d="M409.155 313.807h-16.543c-.852 0-1.542-.645-1.542-1.442v-1.76c0-.797.69-1.443 1.542-1.443h16.543c.852 0 1.542.646 1.542 1.443v1.76c0 .797-.69 1.442-1.542 1.442"/>
        <path fill="#D0ECF4" d="M515.537 361.608h-3.018c-1.367 0-2.474-1.037-2.474-2.316v-45.33c0-1.278 1.107-2.316 2.474-2.316h3.018c1.366 0 2.474 1.038 2.474 2.316v45.33c0 1.28-1.108 2.316-2.474 2.316"/>
        <path fill="#6AC9CD" d="M522.069 314.24h-16.544c-.851 0-1.541-.646-1.541-1.443v-1.76c0-.797.69-1.443 1.541-1.443h16.544c.851 0 1.541.646 1.541 1.443v1.76c0 .797-.69 1.442-1.541 1.442"/>
        <path fill="#937963" d="M415.168 441.663c0 2.948-2.711 5.337-6.056 5.337s-6.056-2.39-6.056-5.337c0-2.948 2.711-5.337 6.056-5.337s6.056 2.39 6.056 5.337M512.202 441.663c0 2.948-2.71 5.337-6.056 5.337-3.344 0-6.056-2.39-6.056-5.337 0-2.948 2.712-5.337 6.056-5.337 3.345 0 6.056 2.39 6.056 5.337"/>
        <path fill="#81D0D3" d="M510.285 350.121c0-2.695-2.335-4.879-5.215-4.879h-95.037c-2.88 0-5.215 2.184-5.215 4.88v3.438h105.467v-3.439z"/>
        <path fill="#4EC3C7" d="M410.033 360.609h95.037c2.88 0 5.214-2.185 5.214-4.88v-2.17H404.818v2.17c0 2.695 2.335 4.88 5.215 4.88"/>
        <path fill="#FFC495" d="M449.891 213.671h13.207v-20.069l-13.207 16.978z"/>
        <path fill="#CF9E76" d="M449.891 187.845v22.735l13.207-16.978v-5.757z"/>
        <path fill="#FFC495" d="M467.303 139.573l-9.101-7.035-21.469 6.757s-1.088 3.61-3.166 9.812c-2.077 6.202-6.914 22.933-6.776 24.39.037.395.125.755.267 1.088.422.993 1.32 1.752 2.75 2.523 1.633.88 2.177 1.48 2.177 1.48s.148 5.786.346 7.638c.197 1.85 1.138 7.035 5.59 11.477 4.228 4.22 8.607 4.63 14.147 3.426 5.699-1.238 11.278-6.665 13.85-18.514 2.562-11.803 1.385-43.042 1.385-43.042"/>
        <path fill="#FFF" d="M434.952 181.505s3.71 1.095 5.69 1.157c4.451.139 10.04-1.343 10.04-1.343s-1.533 7.406-9.052 6.156c-5.357-.89-6.678-5.97-6.678-5.97"/>
        <path fill="#80612E" d="M456.124 136.68s-3.265 3.75-7.717 6.526c-4.452 2.777-16.324 7.08-18.846 6.942-2.523-.139-8.904-3.61-7.866-7.914.79-3.274 5.021-7.667 9.053-10.969 1.385-1.134 9.975-5.986 11.723-6.526 4.814-1.487 12.103-3.19 15.434-1.944 4.452 1.667 4.154 4.305 4.154 4.305s2.524-1.944 3.71-1.528c1.188.417 3.71-.277 6.53 5.555 2.82 5.83 4.749 11.107 4.749 14.856 0 3.749-7.569 20.41-7.569 20.41l-3.413-3.61s-.296-5.276-2.077-8.747c-1.78-3.47-6.975-5.693-7.865-9.303-.89-3.61 0-8.053 0-8.053"/>
        <path fill="#000" d="M446.033 155.077c-1.23 0-2.226 1.616-2.226 3.61 0 1.994.997 3.61 2.226 3.61 1.23 0 2.226-1.616 2.226-3.61 0-1.994-.997-3.61-2.226-3.61"/>
        <path fill="#80612E" d="M451.761 149.701s-2.672-2.439-6.962-1.158c-2.469.738-4.84 2.593-4.93 4.057 0 0 9.22-2.22 11.892-2.899"/>
        <path fill="#FFC495" d="M472.172 165.538c1.327-4.754.555-9.06-1.724-9.616-2.278-.556-5.2 2.847-6.526 7.602-1.326 4.754-.554 9.06 1.724 9.616 2.278.556 5.2-2.847 6.526-7.602"/>
        <path fill="#000" d="M453.156 158.618c0 4.096-2.93 7.429-6.53 7.429s-6.53-3.333-6.53-7.429 2.93-7.428 6.53-7.428c3.41 0 6.215 2.988 6.504 6.783l-.039.239.055.005c.007.133.01.266.01.401zm13.423-.273c-5.414-.77-10.273-1.287-12.09-1.287-.088 0-.182 0-.277.004-.663-3.968-3.811-6.983-7.586-6.983-3.583 0-6.604 2.718-7.469 6.389-2.162.01-4.184.095-5.728.245-2.31.223-3.052.5-3.052 1.142v.615l8.585-.83a9.545 9.545 0 0 0-.052.978c0 4.709 3.462 8.54 7.716 8.54 4.255 0 7.717-3.831 7.717-8.54 0-.098-.003-.194-.007-.29l12.095 1.12.148-1.103z"/>
        <path fill="#FFF" d="M463.564 211.816l-13.081.023-24.184 7.634-26.578 57.809 24.023 7.557 1.864-7.557-13.461-4.65 19.881-36.634.876 76.221h55.24l-.286-77.406 17.485 36.85-13.876 6.2 2.485 6.976 24.23-8.332-26.523-59.95z"/>
        <path fill="#9A7F55" d="M456.116 211.87l-5.237 6.164 4.223 4.267-5.828 69.94 9.191 9.25 7.348-9.72-8.177-69.47 4.054-4.583z"/>
        <path fill="#483318" d="M493.18 446.842l-17.231-11.933 32.686-91.04-20.492-26.078v-5.571h-55.239v5.57l-21.57 25.843 34.208 91.038-19.933 12.171 30.069-.08-15.204-95.306 19.005-10.905 18.497 10.668L465.222 447z"/>
        <path fill="#BDBDB0" d="M456.116 211.87l-8.658 10.293-3.753-9.162 6.525-6.717zM456.116 211.87l8.493 9.429 4.181-8.535-5.089-7.626z"/>
        <path fill="#543E36" d="M428.438 349.678l27.24 97.085-15.204-95.307 19.004-10.905zM492.334 349.48L475.95 434.91l32.687-91.04z"/>
        <path fill="#E5D3BD" d="M497.845 285.953h-77.042c-.839 0-1.518-.636-1.518-1.42v-1.591c0-.785.68-1.422 1.518-1.422h77.042c.84 0 1.519.637 1.519 1.422v1.59c0 .785-.68 1.421-1.519 1.421"/>
        <path fill="#D6C2AD" d="M497.845 285.953h-77.042c-.839 0-1.518-.636-1.518-1.42 0 0 80.079-2.376 80.079-1.591v1.59c0 .785-.68 1.421-1.519 1.421"/>
        <path fill="#E5D3BD" d="M495.831 281.56h-73.013c-1.951 0-3.534-1.48-3.534-3.306v-39.94c0-1.826 1.583-3.306 3.534-3.306h73.013c1.95 0 3.533 1.48 3.533 3.306v39.94c0 1.826-1.582 3.306-3.533 3.306"/>
        <path fill="#937963" d="M439.235 282.126c-.772 0-1.397.586-1.397 1.308 0 .723.625 1.308 1.397 1.308s1.398-.585 1.398-1.308c0-.722-.626-1.308-1.398-1.308M479.413 282.126c-.772 0-1.397.586-1.397 1.308 0 .723.625 1.308 1.397 1.308s1.398-.585 1.398-1.308c0-.722-.626-1.308-1.398-1.308M444.637 284.273h29.685v-1.42h-29.685z"/>
        <path fill="#C7B29E" d="M495.831 281.56h-73.013c-1.951 0-3.534-1.48-3.534-3.306 0 0 80.08-41.766 80.08-39.94v39.94c0 1.826-1.582 3.306-3.533 3.306"/>
        <path fill="#D0ECF4" d="M321.87 424.039v-46.911l-9.286 8.598v38.313H265.39V436.14h6.82v-4.034h90.305v4.127h6.82V424.04z"/>
        <path fill="#809EAD" d="M321.87 357.017h-9.286v28.71l9.287-8.6z"/>
        <path fill="#97D7D9" d="M363.096 356.26h-91.442v-99.826c0-12.521 10.85-22.672 24.232-22.672h42.978c13.383 0 24.232 10.15 24.232 22.672v99.826z"/>
        <path fill="#D0ECF4" d="M262.447 361.175h-3.018c-1.366 0-2.474-1.036-2.474-2.315v-45.33c0-1.279 1.108-2.316 2.474-2.316h3.018c1.367 0 2.475 1.037 2.475 2.316v45.33c0 1.28-1.108 2.315-2.475 2.315"/>
        <path fill="#6AC9CD" d="M268.98 313.807h-16.544c-.852 0-1.542-.645-1.542-1.442v-1.76c0-.797.69-1.443 1.542-1.443h16.543c.852 0 1.542.646 1.542 1.443v1.76c0 .797-.69 1.442-1.542 1.442"/>
        <path fill="#D0ECF4" d="M375.36 361.608h-3.017c-1.367 0-2.475-1.037-2.475-2.316v-45.33c0-1.278 1.108-2.316 2.475-2.316h3.018c1.366 0 2.474 1.038 2.474 2.316v45.33c0 1.28-1.108 2.316-2.474 2.316"/>
        <path fill="#6AC9CD" d="M381.893 314.24h-16.544c-.851 0-1.541-.646-1.541-1.443v-1.76c0-.797.69-1.443 1.541-1.443h16.544c.851 0 1.541.646 1.541 1.443v1.76c0 .797-.69 1.442-1.541 1.442"/>
        <path fill="#937963" d="M274.992 441.663c0 2.948-2.711 5.337-6.057 5.337-3.344 0-6.055-2.39-6.055-5.337 0-2.948 2.711-5.337 6.055-5.337 3.346 0 6.057 2.39 6.057 5.337M372.026 441.663c0 2.948-2.711 5.337-6.056 5.337-3.344 0-6.056-2.39-6.056-5.337 0-2.948 2.712-5.337 6.056-5.337 3.345 0 6.056 2.39 6.056 5.337"/>
        <path fill="#81D0D3" d="M370.109 350.121c0-2.695-2.336-4.879-5.215-4.879h-95.037c-2.88 0-5.216 2.184-5.216 4.88v3.438H370.11v-3.439z"/>
        <path fill="#4EC3C7" d="M269.857 360.609h95.036c2.88 0 5.215-2.185 5.215-4.88v-2.17H264.642v2.17c0 2.695 2.334 4.88 5.215 4.88"/>
        <path fill="#FFC495" d="M320.53 214.583h-13.207v-20.069l13.207 16.978z"/>
        <path fill="#CF9E76" d="M320.53 188.758v22.734l-13.207-16.978v-5.756z"/>
        <path fill="#FFC495" d="M343.729 136.553s-2.919 12.31-2.177 17.448c.565 3.913 3.364 12.312 5.896 16.415.612.991-.349 2.238-1.551 2.446l-6.027 1.041-.148 17.217-9.943 7.36-23.595-14.163-4.451-26.52 14.987-30.27 27.009 9.026z"/>
        <path fill="#000" d="M339.895 176.703l-22.68 5.716-13.677-21.684s7.674-3.437 11.6-13.12c2.176-5.37 3.833-14.232 3.833-14.232s7.271 6.525 10.091 7.914c2.82 1.388 7.865 5.97 13.95 3.749 6.083-2.222 17.362-12.08 17.362-12.08s-4.749.833-9.053-.139c-4.302-.972-24.262-14.555-27.676-15.666-3.413-1.112-5.564-2.662-9.893-.833-3.176 1.34-2.053 5.252-2.053 5.252s-1.904-.637-3.56-.555c-6.06.301-11.164 11.484-11.7 16.037-1.187 10.09 3.728 33.246 5.466 42.001 1.93 9.72 10.982 22.493 19.144 24.716 8.758 2.383 14.246.554 17.362-4.027 3.116-4.582 1.484-23.05 1.484-23.05"/>
        <path fill="#000" d="M331.978 156.487s-3.199-2.994-6.246-3.484c-3.232-.519-6.458.468-6.458.468s.634-2.608 2.92-3.774c2.032-1.037 3.728-.216 5.907 1.42 2.091 1.57 3.877 5.37 3.877 5.37M325.13 160.99c0 2.121.864 3.841 1.929 3.841s1.93-1.72 1.93-3.841c0-2.121-.865-3.841-1.93-3.841s-1.93 1.72-1.93 3.841"/>
        <path fill="#FFC495" d="M293.641 163.548c-1.699-4.858-1.08-9.407 1.383-10.161 2.463-.754 5.836 2.573 7.536 7.43 1.699 4.858 1.08 9.407-1.384 10.16-2.462.755-5.836-2.572-7.535-7.43"/>
        <path fill="#FFF" d="M337.694 183.437s-2.474 1.11-5.936 1.666c-2.903.465-10.19-.833-10.19-.833s4.65 5.276 10.388 4.443c5.325-.773 5.738-5.276 5.738-5.276M320.489 211.816l-13.082.023-20.587 4.007-35.904 63.567 32.308-7.234 1.104-6.46-17.95 3.618 19.607-27.903 3.844 70.785h55.239l-.819-78.02 28.994 36.688 28.719-26.87-4.97-4.65-22.368 17.568-28.803-42.962z"/>
        <path fill="#507282" d="M313.04 211.87l-5.236 6.164 4.223 4.267-5.829 69.94 9.192 9.25 7.348-9.72-8.178-69.47 4.055-4.583z"/>
        <path fill="#DAD7C5" d="M350.103 446.842l-17.23-11.933 32.687-91.04-20.493-26.078v-5.571h-55.239v5.57l-21.569 25.843 34.208 91.038-19.934 12.171 30.07-.08-15.205-95.306 19.005-10.905 18.497 10.668L322.146 447zM313.04 211.87l-8.658 10.293-3.752-9.162 6.524-6.717zM313.04 211.87l8.494 9.429 4.18-8.535-5.088-7.626z"/>
        <path fill="#B0A690" d="M285.363 349.678l27.239 97.085-15.203-95.307 19.003-10.905zM349.259 349.48l-16.386 85.429 32.687-91.04z"/>
        <path fill="#767769" d="M319.523 284.314l-33.639-13.677 19.456-41.892 33.64 13.676z"/>
        <path fill="#B0A690" d="M369.309 232.326l-30.33 10.096-19.271 41.642 29.512-11.24z"/>
        <path fill="#FFC495" d="M284.328 265.72l7.731-7.428 12.633 3.488-1.035 4.263-12.633 6.007-7.8.129zM396.991 239.367l-1.174-11.11 14.083-13.37 3.107 2.325-7.249 8.526 7.249 6.2-3.314 6.977-7.731 5.102z"/>
        <path fill="#CF9E76" d="M297.707 446.784h14.46V295.136h-14.46z"/>
        <path fill="#9C7761" d="M297.707 294.489h14.46v10.532l-14.46 10.209z"/>
        <path fill="#CF9E76" d="M461.624 447h14.46V295.353h-14.46z"/>
        <path fill="#9C7761" d="M461.625 294.705h14.46v10.532l-14.46 10.209z"/>
        <path fill="#CF9E76" d="M212.09 297.676h336.89v-11.667H212.09z"/>
        <path fill="#B08874" d="M212.09 297.676h336.89v-4.322H212.09z"/>
        <path fill="#000" d="M518.82 284.87l-3.882-3.275 18.833-19.661 3.882 3.276z"/>
        <path d="M519 292l3-.635-2.866-2.365z"/>
        <g transform="translate(-57 -163)">
            <path fill="#FFC495" d="M652.868 392.065h13.208v-20.062l-13.208 16.972z"/>
            <path fill="#CF9E76" d="M652.868 366.248v22.727l13.208-16.972v-5.755z"/>
            <path fill="#FFC495" d="M671.18 340.267l.628-18.694-20.49-1.293-17.345 11.874s-3.27 6.467-3.646 11.405c-.377 4.937 4.651 10.581 4.274 15.05-.377 4.466-2.465 7.32-2.465 7.32l5.338 1.228s.55 4.644 3.85 8.348c1.75 1.964 6.455 5.512 11.55 4.501 4.148-.823 8.59-4.096 12.863-9.74 4.514-5.96 4.813-12.873 4.813-12.873l.63-17.126z"/>
            <path fill="#000" d="M650.928 355.501c-.37-1.96-1.468-3.418-2.453-3.256-.247.04-.464.18-.643.395l-3.576 1.265 3.05.06c-.1.618-.091 1.352.054 2.125.37 1.961 1.47 3.419 2.454 3.257.986-.163 1.485-1.885 1.114-3.846M654.398 343.794s-4.226 1.38-6.725 2.704c-1.885 1-5.656 3.057-5.656 3.057l3.897 1.293 8.484-7.054z"/>
            <path fill="#000" d="M653.12 329.176l-23.463 23.827s-3.688-5.33-2.346-13.638c1.34-8.308 4.357-17.243 10.558-22.886 6.201-5.644 15.005-10.829 26.03-8.988 8.972 1.499 13.742 7.44 15.227 12.768 1.298 4.664 1.983 9.387-1.033 18.166-3.017 8.779-7.542 18.968-7.542 18.968s-10.559-13.482-13.073-18.498c-2.514-5.016-4.358-9.719-4.358-9.719"/>
            <path fill="#000" d="M676.07 318.512c3.395-1.41 4.73-2.805 7.616-2.436 2.709.346 3.868 1.608 4.496 12.777.629 11.17 3.563 31.318 5.863 35.394 2.389 4.232 7.552 4.32 10.433 3.998 3.142-.354 6.16-6.467 6.16-6.467s-2.892 6.82-5.657 9.523c-2.765 2.705-6.662 4.233-11.438 4.468-4.438.218-12.57-2.352-12.445-6.585.126-4.232-2.262-45.616-2.262-45.616l-2.765-5.056z"/>
            <path fill="#FFC495" d="M671.283 351.066c.408-3.453-.8-6.411-2.697-6.607-1.898-.196-3.767 2.444-4.174 5.897-.408 3.453.8 6.411 2.697 6.607 1.898.196 3.767-2.444 4.174-5.897"/>
            <path fill="#FFF" d="M640.37 370.31s3.257.071 4.895-.264c3.686-.753 8-2.88 8-2.88s.145 5.577-6.272 6.125c-4.573.39-6.623-2.981-6.623-2.981M652.868 388.966l-22.622 29.448 8.56 13.43 2.761 39.259 18.778.065 12.978-68.51-7.18-20.403z"/>
            <path fill="#824737" d="M631.903 483.5l9.665-12.397 18.776.064 2.762 28.605-13.53 8.265-58.818-.258-7.248-16.853z"/>
            <path fill="#FFC495" d="M649.846 413.134l-5.103 34.982-51.982-7.167-4.142-5.811-8.284-.969-7.456 7.36 13.255 5.619 66.893 12.849 13.734-50.046a8.318 8.318 0 0 0-.743-6.556c-1.524-2.683-5.259-3.442-7.835-1.593l-1.46 1.048c-3.541 2.542-5.983 6.194-6.877 10.284M583.51 490.926l-25.75 4.068-40.28 96.952 8.49.033 40.075-83.813 24.714-.387z"/>
            <g transform="translate(498.702 591.203)">
                <mask id="d" fill="#fff">
                    <use xlink:href="#c"/>
                </mask>
                <path fill="#000" d="M.518 18.467H16.12l6.904-6.457v6.586h2.76L27.27.84 18.778.743z" mask="url(#d)"/>
            </g>
            <path fill="#D0ECF4" d="M625.914 586.846V539.68l9.286 8.595v38.57h47.194V598.943h-6.82v-4.033H585.27v4.126h-6.82V586.845z"/>
            <path fill="#809EAD" d="M625.914 519.846h9.286v28.43l-9.286-8.595z"/>
            <path fill="#937963" d="M672.792 604.464c0 2.947 2.712 5.335 6.057 5.335 3.344 0 6.056-2.388 6.056-5.335 0-2.946-2.712-5.335-6.056-5.335-3.345 0-6.057 2.389-6.057 5.335M575.758 604.464c0 2.947 2.711 5.335 6.057 5.335 3.344 0 6.055-2.388 6.055-5.335 0-2.946-2.711-5.335-6.055-5.335-3.346 0-6.057 2.389-6.057 5.335"/>
            <path fill="#81D0D3" d="M577.676 512.953c0-2.694 2.334-4.878 5.215-4.878h95.036c2.88 0 5.216 2.184 5.216 4.878v3.437H577.676v-3.437z"/>
            <path fill="#4EC3C7" d="M677.928 523.437H582.89c-2.88 0-5.215-2.184-5.215-4.878v-2.169h105.466v2.169c0 2.694-2.334 4.878-5.214 4.878"/>
            <path fill="#D0ECF4" d="M612.37 523.571h3.018c1.366 0 2.475-1.036 2.475-2.314V475.94c0-1.278-1.109-2.314-2.475-2.314h-3.018c-1.366 0-2.474 1.036-2.474 2.314v45.316c0 1.278 1.108 2.314 2.474 2.314"/>
            <path fill="#6AC9CD" d="M605.839 476.219h16.543c.852 0 1.542-.646 1.542-1.442v-1.76c0-.797-.69-1.442-1.542-1.442h-16.543c-.852 0-1.542.645-1.542 1.442v1.76c0 .796.69 1.442 1.542 1.442"/>
            <path fill="#4EC3C7" d="M656.25 523.416h30.136l29.53-127.371h-26.12c-8.592 0-15.96 5.74-17.512 13.645l-21.197 107.929c-.593 3.016 1.884 5.797 5.163 5.797"/>
            <path fill="#057F7F" d="M656.849 523.416h36.437l29.53-127.371h-26.118c-8.593 0-15.96 5.74-17.513 13.645L656.85 523.416z"/>
            <path fill="#D6C2AD" d="M285.348 448.83h58.85c1.309 0 2.369-.992 2.369-2.215 0-1.224-1.06-2.217-2.368-2.217h-58.85c-1.309 0-2.369.993-2.369 2.217 0 1.223 1.06 2.215 2.368 2.215"/>
            <path fill="#D6C2AD" d="M344.877 444.588l.084.023c.952.256 1.947-.258 2.22-1.148l13.106-42.576c.274-.89-.276-1.82-1.227-2.077l-.084-.022c-.952-.257-1.947.257-2.221 1.148l-13.106 42.575c-.274.891.276 1.821 1.228 2.077"/>
            <path fill="#937963" d="M333.554 445.004c.772 0 1.398.586 1.398 1.307 0 .723-.626 1.308-1.398 1.308-.772 0-1.398-.585-1.398-1.308 0-.721.626-1.307 1.398-1.307M293.376 445.004c.772 0 1.398.586 1.398 1.307 0 .723-.626 1.308-1.398 1.308-.772 0-1.397-.585-1.397-1.308 0-.721.625-1.307 1.397-1.307"/>
            <mask id="f" fill="#fff">
                <use xlink:href="#e"/>
            </mask>
            <path fill="#937963" d="M298.468 447.151h29.684v-1.42h-29.684z" mask="url(#f)"/>
            <path fill="#6C2700" d="M248.938 343.164c1.583 27.945 14.246 33.127 14.246 33.127s-16.849 10.21-24.979 10.709c-9.45.58-19.055-4.907-19.055-4.907l29.788-38.93z" mask="url(#f)"/>
            <path fill="#FFC495" d="M221.633 390.218h-13.208v-20.062l13.208 16.972z" mask="url(#f)"/>
            <path fill="#CF9E76" d="M221.633 364.4v22.728l-13.208-16.973v-5.754z" mask="url(#f)"/>
            <path fill="#FFC495" d="M238.122 321.128l7.21 11.107s3.161 8.154 2.654 13.344c-.532 5.45-4.34 10.635-3.005 14.24 1.334 3.606 3.759 5.368 3.759 5.368l-6.34 1.106s-2.196 4.084-5.035 7.663c-2.839 3.58-9.423 7.47-12.182 7.698-2.76.229-7.503-1.608-11.324-6.307-3.822-4.7-6.723-12.263-8.253-24.213-1.529-11.95 3.23-30.923 3.23-30.923l29.286.917z" mask="url(#f)"/>
            <path fill="#000" d="M229.266 353.053c.437-2.315 1.734-4.036 2.897-3.844.292.048.547.211.76.466l4.22 1.493-3.6.072c.119.729.108 1.595-.064 2.509-.438 2.314-1.735 4.035-2.898 3.844-1.163-.193-1.751-2.225-1.315-4.54" mask="url(#f)"/>
            <path fill="#6C2700" d="M228.02 342.402s4.592 1.292 5.285 1.792c.693.5 4.28 3.78 4.28 3.78s-3.91.138-5.125-.644c-1.217-.782-4.44-4.928-4.44-4.928" mask="url(#f)"/>
            <path fill="#6C2700" d="M226.825 325.594c-.444 11.833-3.065 16.144-10.238 21.827-8.064 6.388-8.161 22.734-8.161 22.734s-10.982-21.317-11.833-32.394c-.85-11.078 2.747-17.136 7.922-23.324 2.706-3.237 12.558-7.915 19.898-5.922 7.34 1.993 17.065 10.292 25.8 20.716 8.733 10.424 16.434 18.332 16.434 18.332s-14.357 1.127-24.227-4.124c-10.877-5.787-15.595-17.845-15.595-17.845" mask="url(#f)"/>
            <path fill="#FFC495" d="M206.225 355.636c-.482-4.077.944-7.569 3.184-7.8 2.24-.232 4.447 2.885 4.928 6.961.482 4.077-.944 7.569-3.184 7.8-2.24.232-4.447-2.885-4.928-6.961" mask="url(#f)"/>
            <path fill="#FFF" d="M238.255 370.466s-3.12.8-6.754.967c-3.747.174-9.126-2.741-9.126-2.741s3.302 5.552 8.683 5.73c3.337.11 7.197-3.956 7.197-3.956M221.422 388.966l22.622 29.448-8.56 13.43-2.76 39.259-18.778.065-12.979-68.51 7.18-20.403z" mask="url(#f)"/>
            <path fill="#574109" d="M242.388 483.5l-9.665-12.397-18.777.064-2.762 28.605 13.531 8.265 58.817-.258 7.248-16.853z" mask="url(#f)"/>
            <path fill="#FFC495" d="M290.78 490.926l25.75 4.068 40.281 96.952-8.491.033-40.074-83.813-24.714-.387z" mask="url(#f)"/>
            <path fill="#000" d="M375.07 609.67h-15.6l-6.905-6.456v6.586h-2.76l-1.485-17.757 8.491-.097z" mask="url(#f)"/>
            <path fill="#FFC495" d="M224.444 413.134l5.103 34.982 51.983-7.167 4.142-5.811 8.284-.969 7.455 7.36-13.254 5.619-66.894 12.849-13.733-50.046a8.318 8.318 0 0 1 .743-6.556c1.523-2.683 5.258-3.442 7.835-1.593l1.46 1.048c3.54 2.542 5.982 6.194 6.876 10.284" mask="url(#f)"/>
            <path fill="#D0ECF4" d="M249.526 586.846V539.68l-9.287 8.595v38.57h-47.194V598.943h6.82v-4.033h90.305v4.126h6.82V586.845z" mask="url(#f)"/>
            <path fill="#809EAD" d="M249.526 519.846h-9.287v28.43l9.287-8.595z" mask="url(#f)"/>
            <path fill="#937963" d="M202.647 604.464c0 2.947-2.711 5.335-6.057 5.335-3.344 0-6.055-2.388-6.055-5.335 0-2.946 2.711-5.335 6.055-5.335 3.346 0 6.057 2.389 6.057 5.335M299.681 604.464c0 2.947-2.711 5.335-6.056 5.335-3.344 0-6.056-2.388-6.056-5.335 0-2.946 2.712-5.335 6.056-5.335 3.345 0 6.056 2.389 6.056 5.335" mask="url(#f)"/>
            <path fill="#81D0D3" d="M297.764 512.953c0-2.694-2.335-4.878-5.215-4.878h-95.037c-2.88 0-5.216 2.184-5.216 4.878v3.437h105.468v-3.437z" mask="url(#f)"/>
            <path fill="#4EC3C7" d="M197.512 523.437h95.036c2.88 0 5.215-2.184 5.215-4.878v-2.169H192.297v2.169c0 2.694 2.334 4.878 5.215 4.878" mask="url(#f)"/>
            <path fill="#D0ECF4" d="M263.069 523.571h-3.018c-1.366 0-2.474-1.036-2.474-2.314V475.94c0-1.278 1.108-2.314 2.474-2.314h3.018c1.367 0 2.474 1.036 2.474 2.314v45.316c0 1.278-1.107 2.314-2.474 2.314" mask="url(#f)"/>
            <path fill="#6AC9CD" d="M269.6 476.219h-16.543c-.851 0-1.541-.646-1.541-1.442v-1.76c0-.797.69-1.442 1.541-1.442h16.544c.851 0 1.541.645 1.541 1.442v1.76c0 .796-.69 1.442-1.541 1.442" mask="url(#f)"/>
            <path fill="#4EC3C7" d="M219.19 523.416h-30.137l-29.53-127.371h26.12c8.593 0 15.96 5.74 17.512 13.645l21.197 107.929c.594 3.016-1.883 5.797-5.162 5.797" mask="url(#f)"/>
            <path fill="#0A7F7F" d="M218.59 523.416h-36.437l-29.53-127.371h26.119c8.593 0 15.96 5.74 17.512 13.645l22.336 113.726z" mask="url(#f)"/>
        </g>
    </g>
</svg>
