<svg xmlns="http://www.w3.org/2000/svg" width="30" height="31" viewBox="0 0 30 31">
    <g fill="#FFF" fill-rule="nonzero">
        <path d="M10.808 8.857h2.952v2.952h-2.952zM16.713 8.857h2.952v2.952h-2.952zM10.808 14.762h2.952v2.952h-2.952zM16.713 14.762h2.952v2.952h-2.952zM4.903 20.667h2.952v2.952H4.903zM10.808 20.667h2.952v2.952h-2.952zM16.713 20.667h2.952v2.952h-2.952zM22.618 20.667h2.952v2.952h-2.952z"/>
        <path d="M28.522 16.238h-4.428V4.428c0-.814-.662-1.476-1.476-1.476h-2.953V1.476C19.665.661 19.004 0 18.19 0h-5.905c-.815 0-1.476.661-1.476 1.476v1.476H7.856c-.815 0-1.477.662-1.477 1.477v11.81H1.951c-.815 0-1.476.66-1.476 1.475v11.81c0 .815.661 1.476 1.476 1.476h26.571c.815 0 1.477-.661 1.477-1.476v-11.81c0-.815-.662-1.476-1.477-1.476zm-1.476 11.81H18.19v-2.953h-5.905v2.953H3.427V19.19h4.429c.815 0 1.476-.66 1.476-1.476V5.904h2.952c.815 0 1.476-.66 1.476-1.475V2.952h2.953V4.43c0 .814.661 1.476 1.476 1.476h2.952v11.81c0 .814.662 1.475 1.477 1.475h4.428v8.858z"/>
    </g>
</svg>
