<svg xmlns="http://www.w3.org/2000/svg" width="33" height="29" viewBox="0 0 33 29">
    <g fill="#FFF" fill-rule="nonzero">
        <path d="M28.876.722H16.5c-2.274 0-4.125 1.87-4.125 4.168v13.893h-5.5c-5.192 0-6.783 7.734-6.847 8.063-.082.408.023.832.284 1.153.261.322.65.508 1.063.508h11c.76 0 1.375-.622 1.375-1.389h9.625c2.275 0 4.126-1.87 4.126-4.168V10.447h4.125c.759 0 1.375-.622 1.375-1.39V4.89C33 2.592 31.15.722 28.876.722zM11.098 25.73h-7.9c.65-1.837 1.89-4.168 3.677-4.168h5.726c-.867 1.293-1.322 2.834-1.503 4.168zm6.777-4.168c.618 0 1.375.767 1.375 1.39 0 .483.106.948.271 1.389h-5.267c.511-1.39 1.54-2.779 3.621-2.779zm6.875 1.39c0 .766-.617 1.389-1.375 1.389-.761 0-1.375-.76-1.375-1.39 0-2.142-2.004-4.167-4.125-4.167h-2.75V4.89c0-.767.618-1.39 1.375-1.39h8.503c-.154.437-.253.901-.253 1.39v18.06zm5.5-15.283H27.5V4.89c0-.767.618-1.39 1.376-1.39.757 0 1.375.623 1.375 1.39v2.778z"/>
        <path d="M16 6.611h7.083v2.863H16zM16 10.537h7.083V13.4H16zM16 14.463h7.083v2.863H16z"/>
    </g>
</svg>
