<svg xmlns="http://www.w3.org/2000/svg" xmlns:xlink="http://www.w3.org/1999/xlink" width="32" height="32" viewBox="0 0 32 32">
    <defs>
        <path id="a" d="M31.465 21.433L29.09 14.31V1.455C29.09.652 28.439 0 27.636 0H4.364C3.56 0 2.909.652 2.909 1.455V14.31L.535 21.43c-.27.812-.16 1.644.303 2.285.46.645 1.216 1.011 2.071 1.011h11.636v4.364H7.273V32h17.454v-2.91h-7.272v-4.363H29.09c.855 0 1.61-.366 2.073-1.01.462-.64.571-1.474.3-2.284zM26.182 2.909v10.182H5.818V2.909h20.364zM3.473 21.82L5.413 16h21.176l1.939 5.818H3.473z"/>
        <path id="b" d="M13.091 17.455h5.818v2.909h-5.818z"/>
    </defs>
    <g fill="none" fill-rule="evenodd">
        <g>
            <use fill="#2F01FF" xlink:href="#a"/>
            <use fill="#FFF" xlink:href="#a"/>
        </g>
        <g>
            <use fill="#2F01FF" xlink:href="#b"/>
            <use fill="#FFF" xlink:href="#b"/>
        </g>
    </g>
</svg>
