<svg xmlns="http://www.w3.org/2000/svg" width="34" height="34" viewBox="0 0 34 34">
    <g fill="#FFF" fill-rule="nonzero">
        <path d="M21.25 4.25v1.487a3.547 3.547 0 0 0-2.833 3.471 3.546 3.546 0 0 0 3.541 3.542h1.417a.71.71 0 0 1 0 1.417H21.25v4.25h2.833v-1.488a3.549 3.549 0 0 0 2.834-3.47 3.547 3.547 0 0 0-3.542-3.542h-1.417a.709.709 0 0 1 0-1.417h4.959V5.667h-2.834V4.25H21.25z"/>
        <path d="M26.917 25.5c0 .782-.636 1.417-1.417 1.417h-7.083v2.833h5.666c0 .782-.636 1.417-1.416 1.417H11.92l-3.42-3.42V20.42L11.92 17H17v1.417c0 .782-.636 1.416-1.417 1.416H12.75v2.834h2.833a4.255 4.255 0 0 0 4.25-4.25v-2.834c0-.782-.634-1.416-1.416-1.416h-7.084c-.375 0-.736.148-1.001.415L7.735 17.18a1.381 1.381 0 0 0-.652-.18H1.417C.635 17 0 17.635 0 18.417V29.75c0 .782.635 1.417 1.417 1.417h5.666c.24 0 .454-.074.652-.179l2.597 2.598c.265.265.626.414 1.001.414h11.334a4.255 4.255 0 0 0 4.25-4.25v-.26c1.646-.587 2.833-2.145 2.833-3.99v-1.417h-2.833V25.5zm-21.25 2.833H2.833v-8.5h2.834v8.5z"/>
        <path d="M22.667 0c-6.25 0-11.334 5.086-11.334 11.333 0 .482.04.95.098 1.417h2.863a8.47 8.47 0 0 1-.127-1.417c0-4.686 3.812-8.5 8.5-8.5 4.687 0 8.5 3.814 8.5 8.5 0 4.688-3.813 8.5-8.5 8.5-.483 0-.955-.05-1.417-.127v2.863a11.4 11.4 0 0 0 1.417.098C28.916 22.667 34 17.582 34 11.333 34 5.086 28.916 0 22.667 0z"/>
    </g>
</svg>
