<?xml version="1.0" encoding="UTF-8"?>
<svg width="35px" height="34px" viewBox="0 0 35 34" version="1.1" xmlns="http://www.w3.org/2000/svg" xmlns:xlink="http://www.w3.org/1999/xlink">
    <!-- Generator: Sketch 47.1 (45422) - http://www.bohemiancoding.com/sketch -->
    <title>icon-02</title>
    <desc>Created with Sketch.</desc>
    <defs></defs>
    <g id="Page-1" stroke="none" stroke-width="1" fill="none" fill-rule="evenodd">
        <g id="icon-02" fill-rule="nonzero" fill="#FFFFFF">
            <path d="M8.5,10.2 C5.68471841,10.1966937 3.40330626,7.91528159 3.4,5.1 C3.4,2.288 5.688,0 8.5,0 C11.312,0 13.6,2.288 13.6,5.1 C13.6,7.912 11.312,10.2 8.5,10.2 L8.5,10.2 Z M8.5,3.4 C7.563,3.4 6.8,4.163 6.8,5.1 C6.8,6.037 7.563,6.8 8.5,6.8 C9.437,6.8 10.2,6.037 10.2,5.1 C10.2,4.163 9.437,3.4 8.5,3.4 Z" id="Shape"></path>
            <path d="M11.9,34 L5.1,34 C4.16111593,34 3.4,33.2388841 3.4,32.3 L3.4,25.5 L1.7,25.5 C0.761115925,25.5 -3.55271368e-15,24.7388841 -3.55271368e-15,23.8 L-3.55271368e-15,18.7 C-3.55271368e-15,14.013 3.813,10.2 8.5,10.2 C13.187,10.2 17,14.013 17,18.7 L17,23.8 C17,24.7388841 16.2388841,25.5 15.3,25.5 L13.6,25.5 L13.6,32.3 C13.6,32.750868 13.4208934,33.1832697 13.1020815,33.5020815 C12.7832697,33.8208934 12.350868,34 11.9,34 L11.9,34 Z M6.8,30.6 L10.2,30.6 L10.2,23.8 C10.2,22.8611159 10.9611159,22.1 11.9,22.1 L13.6,22.1 L13.6,18.7 C13.6,15.888 11.312,13.6 8.5,13.6 C5.68471841,13.6033063 3.40330626,15.8847184 3.4,18.7 L3.4,22.1 L5.1,22.1 C6.03888407,22.1 6.8,22.8611159 6.8,23.8 L6.8,30.6 L6.8,30.6 Z M28,14.4 C25.6815462,14.3972449 23.8027551,12.5184538 23.8,10.2 C23.8,7.884 25.684,6 28,6 C30.316,6 32.2,7.884 32.2,10.2 C32.2,12.516 30.316,14.4 28,14.4 Z M28,8.8 C27.229,8.8 26.6,9.429 26.6,10.2 C26.6,10.971 27.229,11.6 28,11.6 C28.771,11.6 29.4,10.971 29.4,10.2 C29.4,9.429 28.771,8.8 28,8.8 Z M30.8,34 L25.2,34 C24.4268014,34 23.8,33.3731986 23.8,32.6 L23.8,27 L22.4,27 C21.6268014,27 21,26.3731986 21,25.6 L21,21.4 C21,17.54 24.14,14.4 28,14.4 C31.86,14.4 35,17.54 35,21.4 L35,25.6 C35,26.3731986 34.3731986,27 33.6,27 L32.2,27 L32.2,32.6 C32.2,33.3731986 31.5731986,34 30.8,34 Z M26.6,31.2 L29.4,31.2 L29.4,25.6 C29.4,24.8268014 30.0268014,24.2 30.8,24.2 L32.2,24.2 L32.2,21.4 C32.2,19.084 30.316,17.2 28,17.2 C25.6815462,17.2027551 23.8027551,19.0815462 23.8,21.4 L23.8,24.2 L25.2,24.2 C25.9731986,24.2 26.6,24.8268014 26.6,25.6 L26.6,31.2 L26.6,31.2 Z" id="Shape"></path>
        </g>
    </g>
</svg>