<svg xmlns="http://www.w3.org/2000/svg" width="27" height="35" viewBox="0 0 27 35">
    <g fill="#FFF" fill-rule="nonzero">
        <path d="M25.412 11.12H17.47v3.176h6.353V28.59h-3.177v3.176H3.177v-17.47H7.94v-3.177H1.588C.712 11.12 0 11.831 0 12.707v20.648c0 .876.712 1.588 1.588 1.588h20.647c.421 0 .826-.167 1.123-.466l3.177-3.176c.298-.297.465-.702.465-1.123v-17.47c0-.877-.712-1.589-1.588-1.589z"/>
        <path d="M6.353 17.472h14.294v3.176H6.353zM6.353 23.825h14.294v3.176H6.353zM11.118 9.237v5.059c0 .878.71 1.588 1.588 1.588.878 0 1.588-.71 1.588-1.588V9.237c1.847-.656 3.178-2.398 3.177-4.472A4.763 4.763 0 0 0 12.706.002a4.762 4.762 0 0 0-4.763 4.763c-.002 2.074 1.33 3.816 3.175 4.472z"/>
    </g>
</svg>
