<?xml version="1.0" encoding="UTF-8"?>
<svg width="28px" height="25px" viewBox="0 0 28 25" version="1.1" xmlns="http://www.w3.org/2000/svg" xmlns:xlink="http://www.w3.org/1999/xlink">
    <!-- Generator: Sketch 47.1 (45422) - http://www.bohemiancoding.com/sketch -->
    <title>coin purse 1</title>
    <desc>Created with Sketch.</desc>
    <defs></defs>
    <g id="Page-1" stroke="none" stroke-width="1" fill="none" fill-rule="evenodd">
        <g id="coin-purse-1" fill-rule="nonzero" fill="#FFFFFF">
            <g id="Solid">
                <g id="Group">
                    <path d="M14,9.72222222 C6.2804,9.72222222 0,15.9527778 0,23.6111111 C0,24.3777778 0.6272,25 1.4,25 L26.6,25 C27.3728,25 28,24.3777778 28,23.6111111 C28,15.9527778 21.7196,9.72222222 14,9.72222222 Z M2.8868,22.2222222 C3.5784,16.75 8.2992,12.5 14,12.5 C19.7008,12.5 24.4216,16.7486111 25.1132,22.2222222 L2.8868,22.2222222 Z" id="Shape"></path>
                    <path d="M14,8.33333333 C18.3526,8.33333333 22.5274,10.1902778 25.4548,13.4263889 L27.5394,11.5722222 C25.5052,9.32222222 22.9516,7.65555556 20.153,6.65 C20.678,5.95555556 21,5.10138889 21,4.16666667 C21,1.86944444 19.1156,0 16.8,0 C15.7206,0 14.7448,0.416666667 14,1.08333333 C13.2552,0.418055556 12.2794,0 11.2,0 C8.8844,0 7,1.87083333 7,4.16666667 C7,5.1 7.322,5.95555556 7.847,6.65138889 C5.047,7.65694444 2.4948,9.32361111 0.4606,11.5736111 L2.5452,13.4277778 C5.4726,10.1916667 9.6474,8.33333333 14,8.33333333 Z M16.8,2.77777778 C17.5714,2.77777778 18.2,3.40138889 18.2,4.16666667 C18.2,4.93333333 17.5714,5.55555556 16.8,5.55555556 C16.0286,5.55555556 15.4,4.93333333 15.4,4.16666667 C15.4,3.40138889 16.0286,2.77777778 16.8,2.77777778 Z M11.2,2.77777778 C11.9714,2.77777778 12.6,3.40138889 12.6,4.16666667 C12.6,4.93333333 11.9714,5.55555556 11.2,5.55555556 C10.4286,5.55555556 9.8,4.93333333 9.8,4.16666667 C9.8,3.40138889 10.4286,2.77777778 11.2,2.77777778 Z" id="Shape"></path>
                </g>
            </g>
        </g>
    </g>
</svg>