<svg xmlns="http://www.w3.org/2000/svg" width="52" height="55" viewBox="0 0 52 55">
    <g fill="none" fill-rule="nonzero">
        <path fill="#E7451F" d="M22.047.324c11.77 0 21.345 9.544 21.345 21.267 0 11.728-12.396 25.1-21.345 32.745C13.093 46.686.703 33.314.703 21.59.703 9.868 10.278.324 22.047.324z"/>
        <path fill="#E7451F" fill-opacity=".39" d="M48.475 44.395c5.115.81 4.602 2.41-1.142 4.033-5.746 2.05-17.629 4.07-25.265 5.924-.144-2.302.965-5.526 6.708-8.088 5.744-2.135 14.583-2.765 19.699-1.869z"/>
        <g fill="#FFF">
            <path d="M17.754 16.191h2.37v2.37h-2.37zM22.493 16.191h2.37v2.37h-2.37zM17.754 20.93h2.37v2.37h-2.37zM22.493 20.93h2.37v2.37h-2.37zM13.014 25.67h2.37v2.37h-2.37zM17.754 25.67h2.37v2.37h-2.37zM22.493 25.67h2.37v2.37h-2.37zM27.233 25.67h2.37v2.37h-2.37z"/>
            <path d="M31.973 22.115H28.42v-9.48c0-.653-.531-1.184-1.185-1.184h-2.37v-1.185c0-.654-.531-1.185-1.185-1.185h-4.74c-.654 0-1.185.53-1.185 1.185v1.185h-2.37c-.654 0-1.185.53-1.185 1.185v9.48h-3.555c-.654 0-1.185.53-1.185 1.184v9.48c0 .654.531 1.185 1.185 1.185h21.33c.653 0 1.184-.531 1.184-1.185V23.3c0-.654-.53-1.185-1.185-1.185zm-1.185 9.48h-7.11v-2.37H18.94v2.37h-7.11v-7.11h3.555c.654 0 1.185-.53 1.185-1.185v-9.48h2.37c.654 0 1.185-.53 1.185-1.184V11.45h2.37v1.185c0 .654.53 1.185 1.185 1.185h2.37v9.48c0 .653.53 1.184 1.185 1.184h3.554v7.11z"/>
        </g>
    </g>
</svg>
