<svg xmlns="http://www.w3.org/2000/svg" xmlns:xlink="http://www.w3.org/1999/xlink" width="171" height="69" viewBox="0 0 171 69">
    <defs>
        <path id="a" d="M0 68.91h171V0H0z"/>
    </defs>
    <g fill="none" fill-rule="evenodd">
        <path fill="#191D20" d="M36.38 28.397l-.738 1.31s-1.075-.828-2.485-.828c-1.277 0-1.881.621-1.881 1.104 0 1.932 5.306.966 5.306 4.346 0 1.655-1.41 3.104-4.097 3.104-2.176 0-3.56-1.31-3.56-1.31l.806-1.311s1.088 1.034 2.62 1.034c1.545 0 2.283-.759 2.283-1.517 0-1.725-5.306-.828-5.306-4.346 0-1.38 1.344-2.76 3.694-2.76 2.015 0 3.359 1.174 3.359 1.174zM40.88 33.957h3.314L42.57 30.08h-.067l-1.623 3.877zm6.762 3.476h-2.028l-.744-1.872h-4.665l-.744 1.872h-2.028l3.921-9.358h2.366l3.922 9.358z"/>
        <mask id="b" fill="#fff">
            <use xlink:href="#a"/>
        </mask>
        <path fill="#191D20" d="M48.493 37.433h1.701v-9.358h-1.701zM59.393 34.492v-6.417h1.86v9.358H59.26l-4.586-6.417h-.067v6.417h-1.86v-9.358h1.993l4.586 6.417zM70.612 28.075v1.537h-3.293v7.82h-1.921v-7.82h-3.294v-1.537zM70.612 33.18h5.955v-1.702h-5.955zM80.19 29.612v3.342h2.47c1.303 0 2.127-.802 2.127-1.67 0-.87-.824-1.672-2.127-1.672h-2.47zm2.47-1.537c2.675 0 4.116 1.403 4.116 3.208 0 1.805-1.44 3.209-4.116 3.209h-2.47v2.94h-1.921v-9.357h4.39zM96.825 29.612h-2.303v3.075h2.303c1.216 0 1.855-.802 1.855-1.538 0-.868-.64-1.537-1.855-1.537zm0-1.537c2.43 0 3.71 1.336 3.71 3.074a2.877 2.877 0 0 1-1.663 2.674v.067l2.367 3.543h-2.111l-2.111-3.209h-2.495v3.209h-1.79v-9.358h4.093zM102.09 28.075h7.522v1.537h-5.642v2.406h3.896v1.538h-3.896v2.34h5.776v1.537h-7.656zM114.046 33.957h3.312l-1.622-3.877h-.068l-1.622 3.877zm6.76 3.476h-2.028l-.744-1.872h-4.665l-.744 1.872h-2.028l3.922-9.358h2.366l3.921 9.358zM121.657 28.075h1.78v7.82h5.026v1.538h-6.806zM136.97 28.075v1.537h-3.293v7.82h-1.921v-7.82h-3.293v-1.537zM144.351 28.075h1.977l-3.756 6.417v2.94h-1.845v-2.94l-3.757-6.417h1.977l2.637 4.545h.131zM70.154 44.354l-.785 1.31s-.943-.62-2.16-.62c-1.963 0-3.272 1.38-3.272 3.449s1.309 3.449 3.272 3.449c.916 0 1.57-.345 1.57-.345V49.32h-1.897v-1.586h3.73v4.663s-1.44 1.2-3.534 1.2c-2.945 0-4.974-2.138-4.974-5.104s2.03-5.105 4.974-5.105c1.898 0 3.076.966 3.076.966M76.407 45.776h-2.303v3.075h2.303c1.216 0 1.855-.802 1.855-1.537 0-.87-.64-1.538-1.855-1.538zm0-1.537c2.43 0 3.71 1.337 3.71 3.075 0 2.005-1.663 2.673-1.663 2.673v.067l2.367 3.543H78.71l-2.111-3.209h-2.495v3.209h-1.79v-9.358h4.093zM87.627 45.044c-1.77 0-3.13 1.38-3.13 3.449s1.36 3.449 3.13 3.449c1.77 0 3.13-1.38 3.13-3.45 0-2.069-1.36-3.448-3.13-3.448m0-1.656c2.995 0 5.104 2.139 5.104 5.105 0 2.966-2.11 5.104-5.104 5.104-2.995 0-5.105-2.138-5.105-5.104s2.11-5.105 5.105-5.105M93.582 49.698v-5.46h1.86v5.46c0 1.43.931 2.34 2.394 2.34 1.462 0 2.393-.91 2.393-2.34v-5.46h1.86v5.46c0 2.274-1.661 3.899-4.253 3.899s-4.254-1.625-4.254-3.9M106.563 45.776v3.342h2.47c1.303 0 2.127-.802 2.127-1.67 0-.87-.824-1.672-2.128-1.672h-2.47zm2.47-1.537c2.675 0 4.116 1.404 4.116 3.208 0 1.805-1.44 3.209-4.117 3.209h-2.47v2.941h-1.92v-9.358h4.39z" mask="url(#b)"/>
        <path fill="#19171C" d="M2.199 67.372h145.205l21.398-58.176H23.597L2.199 67.372zm146.27 1.538H0l.382-1.036 22.15-60.217H171L148.47 68.91z" mask="url(#b)"/>
        <path fill="#FFF" d="M83.373 17.866h70.612V0H83.373z" mask="url(#b)"/>
        <path fill="#D43938" d="M118.254 14.463h31.477V2.553h-31.477z" mask="url(#b)"/>
        <path fill="#FFF" d="M135.269 11.06l-.717-1.702h-1.092l-.744 1.702zM133.522 8.722h-.008l.904-1.88-1.232-2.588a.708.708 0 0 0-.356.345l-3.482 6.927c-.112.22.062.384.31.384h1.99a.58.58 0 0 0 .361-.128l1.513-3.06zM139.49 12.336l-3.252-7.669c-.105-.243-.29-.413-.523-.413h-2.148l3.387 8.418c.08.056.173.09.271.09h1.975c.232 0 .395-.183.29-.426M144.627 7.535h-1.587V4.68a.415.415 0 0 0-.424-.425h-1.818a.415.415 0 0 0-.425.425v7.657c0 .243.182.425.425.425h1.818a.415.415 0 0 0 .424-.425V9.6h1.587V7.535zM148.448 4.254h-1.854a.419.419 0 0 0-.433.425v2.856h-1.534v2.066h1.534v2.735c0 .243.185.425.433.425h1.854a.419.419 0 0 0 .433-.425V4.679a.419.419 0 0 0-.433-.425M128.039 4.254h-3.83V6.32h1.588v6.016c0 .243.181.425.424.425h1.818a.415.415 0 0 0 .424-.425V4.679a.415.415 0 0 0-.424-.425" mask="url(#b)"/>
        <path fill="#FFF" d="M124.209 4.254h-3.82a.419.419 0 0 0-.434.425v7.657c0 .243.186.425.433.425h1.855a.419.419 0 0 0 .433-.425V6.32h1.533V4.254z" mask="url(#b)"/>
        <path fill="#2E55A5" d="M85.925 14.463h14.463V2.553H85.925z" mask="url(#b)"/>
        <path fill="#FFF" d="M89.447 10.339h-1.82c-.042 3.24 5.955 3.188 5.955.094 0-1.84-1.43-2.062-2.893-2.22-.663-.073-1.21-.189-1.168-.747.063-.873 2.041-.957 2.041.021h1.789c.042-3.177-5.682-3.177-5.619 0 .021 1.6 1.073 2.147 2.673 2.263.736.042 1.346.157 1.346.673 0 .863-2.304.852-2.304-.084M95.27 6.66v5.25h1.738V6.66h1.679V5.104h-5.105V6.66z" mask="url(#b)"/>
        <path fill="#E6AC43" d="M109.746 2.552l-5.104 1.616v5.687c0 1.459.53 2.83 1.494 3.86a5.14 5.14 0 0 0 1.423 1.073 4.867 4.867 0 0 0 2.187.525c.753 0 1.51-.181 2.187-.525a5.118 5.118 0 0 0 1.423-1.073c.964-1.031 1.495-2.402 1.495-3.86V4.168l-5.105-1.616z" mask="url(#b)"/>
        <path fill="#64194E" d="M109.746 14.853c-.805 0-1.614-.17-2.34-.491a5.5 5.5 0 0 1-1.522-1.002c-1.031-.962-1.6-2.243-1.6-3.604V4.542l5.462-1.51v-.48l-5.955 1.646v5.558c0 1.475.627 2.888 1.744 3.93.482.45 1.043.82 1.659 1.092a6.32 6.32 0 0 0 2.552.535v-.46z" mask="url(#b)"/>
        <path fill="#531348" d="M109.746 2.552v.481l5.462 1.51v5.213c0 1.361-.569 2.641-1.6 3.604-.444.414-.956.751-1.522 1.002a5.821 5.821 0 0 1-2.34.49v.461a6.31 6.31 0 0 0 2.552-.535 5.984 5.984 0 0 0 1.659-1.092c1.116-1.042 1.744-2.455 1.744-3.93V4.198l-5.955-1.646z" mask="url(#b)"/>
        <path fill="#64194E" d="M109.746 2.552l-5.104 1.401v4.929c0 1.263.53 2.452 1.494 3.345.416.384.894.697 1.423.93a5.484 5.484 0 0 0 2.187.455V2.552z" mask="url(#b)"/>
        <path fill="#531348" d="M109.746 2.552v11.06c.753 0 1.51-.158 2.187-.456a5.122 5.122 0 0 0 1.422-.93c.965-.893 1.496-2.081 1.496-3.344V3.953l-5.105-1.4z" mask="url(#b)"/>
        <path fill="#FFF" d="M110.087 4.254h.136v6.15c0 .288.027.522.08.703.053.181.134.316.244.406.188.153.489.246.9.28v.117h-3.402v-.117c.263-.02.46-.05.591-.093a.858.858 0 0 0 .56-.597c.037-.145.056-.368.056-.667V5.084a4.78 4.78 0 0 1-.477.033c-.287 0-.52-.022-.701-.067v-.1h.136c.302 0 .588-.048.86-.144.271-.095.567-.25.887-.463l.13-.09z" mask="url(#b)"/>
    </g>
</svg>
