<svg xmlns="http://www.w3.org/2000/svg" xmlns:xlink="http://www.w3.org/1999/xlink" width="222" height="47" viewBox="0 0 222 47">
    <defs>
        <path id="a" d="M0 47h221.959V.136H0z"/>
    </defs>
    <g fill="none" fill-rule="evenodd">
        <path fill="#2F01FF" d="M0 46.864h46.744V.167H0z"/>
        <g transform="translate(0 -.136)">
            <path fill="#FEFEFE" d="M11.174 27.331c0 2.7 6.646 2.732 6.646.244 0-1.488-1.76-1.822-3.884-1.942-4.613-.334-7.648-1.912-7.71-6.523-.181-9.163 16.329-9.163 16.207 0h-5.16c0-2.822-5.704-2.58-5.887-.061-.121 1.608 1.457 1.942 3.369 2.154 4.219.454 8.346 1.093 8.346 6.402 0 8.92-17.3 9.071-17.177-.274h5.25zM30.484 17.44v16.384h5.372V17.44h5.189v-4.854H25.264v4.854z"/>
            <path fill="#020303" d="M70.859 13.85h-5.103V6.874c1.675 0 3.429-.04 5.103 0 4.066.039 3.867 6.976 0 6.976zm5.9 4.664C83.815 13.73 81.822.535 70.859.495h-12.24v27.906h7.137v-8.212h3.708l4.784 8.212h7.973v-1.037l-5.462-8.85zM106.976.495h-17.42v27.906h17.78v-6.339H96.65V17.16h9.488V10.82h-9.488V6.873h10.325zM130.257 18.793h-6.378l3.149-7.335 3.229 7.335zm3.947 9.607h6.976v-1.036L128.583.136h-3.07l-12.557 27.228V28.4h6.976l1.634-3.508h11.003l1.635 3.508zM155.026.495h-7.176v27.906h17.302v-6.419h-10.126zM177.178 6.874V28.4h7.056V6.874h6.817V.496h-20.73v6.378zM212.55 16.68l9.409-15.109V.495h-7.734l-5.063 9.288h-.28L203.822.495h-7.694v1.076l9.368 15.11V28.4h7.056zM59.688 41.889h2.76a2.498 2.498 0 0 0-.169-.755 1.815 1.815 0 0 0-.375-.59 1.627 1.627 0 0 0-.584-.384 2.137 2.137 0 0 0-.79-.14c-.37 0-.692.04-.965.118a3.183 3.183 0 0 0-.667.263l-.298-1.19c.24-.123.541-.228.903-.313a4.662 4.662 0 0 1 1.078-.13c.472 0 .908.066 1.308.196s.746.343 1.037.642c.29.297.518.683.682 1.158.164.476.246 1.056.246 1.74 0 .712-.096 1.306-.287 1.785-.192.48-.448.862-.77 1.15a2.853 2.853 0 0 1-1.108.615 4.585 4.585 0 0 1-1.303.185c-.39 0-.744-.033-1.062-.102a3.703 3.703 0 0 1-.765-.236l.37-1.222c.157.076.37.146.636.212.267.065.575.096.923.096.267 0 .514-.038.74-.113a1.64 1.64 0 0 0 .6-.354c.174-.16.316-.364.425-.61a2.73 2.73 0 0 0 .206-.892h-2.77v-1.13zM66.933 43.028h-.37v3.068h-1.405v-7.183h1.406v3.18l.328-.143 1.98-3.037h1.6L68.38 41.93l-.554.39.574.4 2.39 3.376h-1.733zM76.415 45.802a2.162 2.162 0 0 1-.836.336 5.283 5.283 0 0 1-1.042.102c-.431 0-.84-.067-1.226-.2a2.622 2.622 0 0 1-1.021-.647c-.294-.297-.53-.684-.703-1.16-.175-.475-.262-1.051-.262-1.73 0-.703.098-1.293.293-1.77.195-.474.448-.857.759-1.148a2.797 2.797 0 0 1 1.042-.626 3.66 3.66 0 0 1 1.149-.19c.41 0 .758.028 1.04.082.285.055.52.12.704.195l-.277 1.19a2.025 2.025 0 0 0-.56-.164 5.131 5.131 0 0 0-.784-.051c-.568 0-1.024.202-1.37.607-.345.404-.518 1.032-.518 1.882 0 .37.04.707.123 1.012.082.306.207.566.375.782.167.216.376.384.626.504.249.12.538.18.867.18.308 0 .567-.031.78-.093a2.27 2.27 0 0 0 .554-.236l.287 1.143zM81.504 40.165H78.99v5.93h-1.406v-7.182h5.326v7.183h-1.406zM84.44 38.913h4.258v1.252h-2.853v1.673h2.596v1.25h-2.596v1.756h2.904v1.252h-4.31zM92.187 40.02a4.82 4.82 0 0 0-.39.016 3.889 3.889 0 0 0-.298.036v2.33a2.734 2.734 0 0 0 .478.041h.128c.185 0 .368-.017.549-.052.18-.034.344-.097.487-.19a.998.998 0 0 0 .344-.384c.086-.164.128-.38.128-.647a1.14 1.14 0 0 0-.123-.56 1.011 1.011 0 0 0-.323-.353 1.271 1.271 0 0 0-.457-.185 2.673 2.673 0 0 0-.523-.051zm-2.093-1.035c.287-.055.603-.098.949-.13a11.52 11.52 0 0 1 1.03-.045c.357 0 .714.029 1.073.087.36.059.683.175.97.349.288.175.522.418.703.729.18.31.272.717.272 1.216 0 .45-.08.833-.236 1.144a2.177 2.177 0 0 1-.626.764c-.26.199-.556.343-.888.43a3.955 3.955 0 0 1-1.031.135h-.164a6.512 6.512 0 0 1-.477-.021 1.535 1.535 0 0 1-.17-.02v2.473h-1.405v-7.111zM101.278 40.165h-2.093v5.93H97.78v-5.93h-2.104v-1.252h5.603zM108.82 43.09h-2.626v3.006h-1.406v-7.183h1.406v2.924h2.627v-2.924h1.406v7.183h-1.406zM113.459 43.377h1.539l-.533-1.602-.216-1.128h-.051l-.216 1.139-.523 1.59zm1.847 1.128H113.1l-.544 1.59h-1.406l2.586-7.233h1.037l2.586 7.233h-1.478l-.575-1.59zM122.807 40.02a4.82 4.82 0 0 0-.39.016 3.889 3.889 0 0 0-.298.036v2.33a2.803 2.803 0 0 0 .478.041h.128c.185 0 .368-.017.549-.052.181-.034.344-.097.487-.19a.99.99 0 0 0 .344-.384c.086-.164.128-.38.128-.647a1.14 1.14 0 0 0-.123-.56 1.011 1.011 0 0 0-.323-.353 1.271 1.271 0 0 0-.457-.185 2.673 2.673 0 0 0-.523-.051zm-2.093-1.035c.287-.055.603-.098.949-.13a11.52 11.52 0 0 1 1.031-.045c.356 0 .713.029 1.073.087.359.059.682.175.969.349.288.175.522.418.703.729.181.31.272.717.272 1.216 0 .45-.079.833-.236 1.144a2.177 2.177 0 0 1-.626.764c-.26.199-.556.343-.887.43a3.969 3.969 0 0 1-1.032.135h-.164a6.512 6.512 0 0 1-.477-.021 1.535 1.535 0 0 1-.17-.02v2.473h-1.405v-7.111z"/>
            <mask id="b" fill="#fff">
                <use xlink:href="#a"/>
            </mask>
            <path fill="#020303" d="M132.422 46.096h1.406v-7.183h-1.406v7.183zm-3.53-1.149c.39 0 .706-.091.949-.272.243-.182.365-.484.365-.909 0-.225-.035-.41-.103-.554a.853.853 0 0 0-.277-.338 1.056 1.056 0 0 0-.41-.17 2.752 2.752 0 0 0-.514-.046 2.67 2.67 0 0 0-.615.082v2.145c.075.02.166.036.272.046.106.01.217.016.333.016zm-2.011-6.034h1.406v2.575a9.21 9.21 0 0 1 .359-.051c.164-.021.325-.031.482-.031.342 0 .669.035.98.103.311.068.583.19.816.364.232.175.417.411.554.708.137.298.205.672.205 1.124 0 .835-.243 1.459-.728 1.873-.486.414-1.208.62-2.165.62-.096 0-.22-.001-.37-.005a9.041 9.041 0 0 1-.487-.025 16.268 16.268 0 0 1-.539-.052 3.536 3.536 0 0 1-.513-.092v-7.111zM139.4 43.09h-2.627v3.006h-1.406v-7.183h1.406v2.924h2.627v-2.924h1.406v7.183H139.4zM144.12 43.028h-.369v3.068h-1.406v-7.183h1.406v3.18l.328-.143 1.981-3.037h1.6l-2.093 3.017-.554.39.574.4 2.391 3.376h-1.734zM149.005 38.913h4.259v1.252h-2.853v1.673h2.596v1.25h-2.596v1.756h2.904v1.252h-4.31zM161.585 43.09h-2.627v3.006h-1.406v-7.183h1.406v2.924h2.627v-2.924h1.406v7.183h-1.406zM165.782 42.504c0 .363.031.696.092 1.001.062.304.156.566.283.785.126.22.288.39.487.513.198.123.434.184.708.184.5 0 .886-.195 1.16-.585.273-.39.41-1.022.41-1.898 0-.349-.029-.674-.087-.975a2.72 2.72 0 0 0-.272-.79 1.41 1.41 0 0 0-.482-.528 1.328 1.328 0 0 0-.729-.19c-.499 0-.886.2-1.16.6-.273.4-.41 1.028-.41 1.883m-1.478 0c0-1.197.264-2.119.79-2.766.527-.646 1.28-.969 2.258-.969.513 0 .961.09 1.344.267.383.178.701.431.955.76.253.327.441.721.564 1.18.123.457.185.967.185 1.528 0 1.197-.265 2.12-.796 2.766-.53.646-1.28.97-2.252.97-.52 0-.972-.09-1.354-.268a2.482 2.482 0 0 1-.95-.759 3.362 3.362 0 0 1-.559-1.18 5.894 5.894 0 0 1-.185-1.529M173.97 45.018c.172 0 .338-.02.499-.06.16-.042.302-.104.426-.189a.988.988 0 0 0 .297-.32.89.89 0 0 0 .113-.457c0-.224-.045-.4-.133-.528a.906.906 0 0 0-.35-.3 1.45 1.45 0 0 0-.482-.137 4.763 4.763 0 0 0-.533-.03h-.75v1.96a.615.615 0 0 0 .165.031c.075.006.155.011.24.015l.268.01c.092.003.172.005.24.005zm-.461-3.089c.096 0 .207-.003.334-.01.126-.007.23-.017.313-.03.26-.08.484-.203.672-.366a.805.805 0 0 0 .282-.64.835.835 0 0 0-.103-.436.768.768 0 0 0-.272-.274 1.144 1.144 0 0 0-.384-.142 2.368 2.368 0 0 0-.452-.04c-.178 0-.342.002-.492.01a3.37 3.37 0 0 0-.35.03v1.898h.452zm3.027-1.344c0 .178-.022.356-.066.534a1.465 1.465 0 0 1-.621.877 1.732 1.732 0 0 1-.595.251v.062c.205.034.4.092.585.174a1.503 1.503 0 0 1 .805.862c.079.206.118.448.118.73 0 .368-.08.688-.236.958a1.94 1.94 0 0 1-.631.662 2.9 2.9 0 0 1-.898.38 4.346 4.346 0 0 1-1.036.123h-.447a12.288 12.288 0 0 1-1.221-.06 4.657 4.657 0 0 1-.59-.094v-7.08c.13-.02.279-.04.446-.062a15.482 15.482 0 0 1 1.73-.092c.335 0 .66.025.98.077.318.051.6.142.85.272.25.13.45.311.602.543.15.233.225.527.225.883zM179.317 42.504c0 .363.031.696.092 1.001.062.304.156.566.283.785.126.22.288.39.487.513.198.123.434.184.708.184.499 0 .886-.195 1.16-.585.273-.39.41-1.022.41-1.898 0-.349-.029-.674-.087-.975a2.72 2.72 0 0 0-.272-.79 1.41 1.41 0 0 0-.482-.528 1.328 1.328 0 0 0-.729-.19c-.499 0-.886.2-1.16.6-.273.4-.41 1.028-.41 1.883m-1.478 0c0-1.197.264-2.119.791-2.766.526-.646 1.279-.969 2.257-.969.513 0 .961.09 1.344.267.383.178.701.431.955.76.253.327.441.721.564 1.18.123.457.185.967.185 1.528 0 1.197-.265 2.12-.796 2.766-.53.646-1.281.97-2.252.97-.52 0-.972-.09-1.354-.268a2.482 2.482 0 0 1-.95-.759 3.362 3.362 0 0 1-.559-1.18 5.894 5.894 0 0 1-.185-1.529M190.102 45.802a2.162 2.162 0 0 1-.836.336 5.283 5.283 0 0 1-1.042.102c-.431 0-.84-.067-1.226-.2a2.622 2.622 0 0 1-1.021-.647c-.294-.297-.529-.684-.703-1.16-.175-.475-.262-1.051-.262-1.73 0-.703.098-1.293.293-1.77.195-.474.448-.857.759-1.148a2.797 2.797 0 0 1 1.042-.626 3.66 3.66 0 0 1 1.149-.19c.41 0 .757.028 1.042.082.283.055.518.12.702.195l-.277 1.19a2.025 2.025 0 0 0-.559-.164 5.131 5.131 0 0 0-.785-.051c-.568 0-1.024.202-1.37.607-.345.404-.518 1.032-.518 1.882 0 .37.041.707.123 1.012.082.306.207.566.375.782.167.216.376.384.626.504.249.12.538.18.867.18.307 0 .567-.031.78-.093.211-.061.396-.14.554-.236l.287 1.143zM195.92 40.165h-2.093v5.93h-1.406v-5.93h-2.104v-1.252h5.603zM199.04 40.02a4.82 4.82 0 0 0-.39.016 3.791 3.791 0 0 0-.297.036v2.33a2.803 2.803 0 0 0 .477.041h.128c.185 0 .368-.017.549-.052.18-.034.344-.097.487-.19a.99.99 0 0 0 .344-.384c.086-.164.128-.38.128-.647a1.14 1.14 0 0 0-.123-.56 1.011 1.011 0 0 0-.323-.353 1.271 1.271 0 0 0-.457-.185 2.673 2.673 0 0 0-.523-.051zm-2.093-1.035c.287-.055.603-.098.949-.13a11.52 11.52 0 0 1 1.03-.045c.357 0 .714.029 1.074.087.359.059.682.175.969.349.288.175.522.418.703.729.18.31.272.717.272 1.216 0 .45-.08.833-.236 1.144a2.177 2.177 0 0 1-.626.764c-.26.199-.556.343-.887.43a3.969 3.969 0 0 1-1.032.135h-.164a6.512 6.512 0 0 1-.477-.021 1.479 1.479 0 0 1-.17-.02v2.473h-1.405v-7.111zM204.253 42.504c0 .363.03.696.092 1.001.062.304.156.566.283.785.126.22.288.39.487.513.198.123.434.184.708.184.499 0 .886-.195 1.16-.585.273-.39.41-1.022.41-1.898 0-.349-.03-.674-.087-.975a2.72 2.72 0 0 0-.272-.79 1.41 1.41 0 0 0-.482-.528 1.328 1.328 0 0 0-.73-.19c-.498 0-.885.2-1.16.6-.272.4-.41 1.028-.41 1.883m-1.477 0c0-1.197.264-2.119.79-2.766.527-.646 1.28-.969 2.258-.969.513 0 .96.09 1.344.267.383.178.7.431.955.76.253.327.44.721.564 1.18.123.457.185.967.185 1.528 0 1.197-.265 2.12-.796 2.766-.53.646-1.281.97-2.252.97-.52 0-.972-.09-1.354-.268a2.482 2.482 0 0 1-.95-.759 3.362 3.362 0 0 1-.56-1.18 5.894 5.894 0 0 1-.184-1.529M210.174 38.913h4.259v1.252h-2.853v1.673h2.596v1.25h-2.596v1.756h2.904v1.252h-4.31zM217.603 43.028h-.369v3.068h-1.406v-7.183h1.406v3.18l.328-.143 1.98-3.037h1.601l-2.093 3.017-.554.39.574.4 2.391 3.376h-1.734z" mask="url(#b)"/>
        </g>
    </g>
</svg>
