<svg width="640" height="520" viewBox="0 0 640 520" fill="none" xmlns="http://www.w3.org/2000/svg">
<mask id="mask0" mask-type="alpha" maskUnits="userSpaceOnUse" x="0" y="0" width="640" height="520">
<rect width="640" height="520" rx="4" fill="#C4C4C4"/>
</mask>
<g mask="url(#mask0)">
<path d="M-366 93.8088C-366 93.8088 -70.8451 40.7271 193.47 36.5016C749.85 27.5881 1596.95 140.415 1596.95 140.415V294.678H-366V93.8088Z" fill="url(#paint0_linear)"/>
<path d="M543.929 287H685.093C688.836 286.979 692.5 285.913 695.666 283.921C698.832 281.93 701.374 279.094 703.004 275.735C704.634 272.376 705.285 268.629 704.885 264.919C704.485 261.209 703.049 257.686 700.74 254.749C684.759 234.833 657.834 212.889 616.296 212.024C574.758 211.16 545.797 233.769 528.582 254.35C526.169 257.262 524.635 260.797 524.159 264.543C523.682 268.289 524.283 272.094 525.89 275.513C527.498 278.933 530.046 281.828 533.24 283.861C536.433 285.895 540.14 286.983 543.929 287Z" fill="url(#paint1_linear)"/>
<path d="M-174.696 293.974C-174.696 293.974 -63.6136 196.892 92.8774 197.88C192.86 198.511 254.561 221.51 286.095 238.054C303.158 247.032 322.933 249.405 341.636 244.718C363.478 239.253 394.991 234.985 427.975 242.805C488.33 257.122 530.775 293.974 530.775 293.974H-174.696Z" fill="url(#paint2_linear)"/>
<ellipse cx="320" cy="447.5" rx="387" ry="280.5" fill="url(#paint3_linear)"/>
</g>
<defs>
<linearGradient id="paint0_linear" x1="615.075" y1="325.56" x2="615.769" y2="98.9593" gradientUnits="userSpaceOnUse">
<stop stop-color="#5AAADB"/>
<stop offset="1" stop-color="white"/>
</linearGradient>
<linearGradient id="paint1_linear" x1="614.494" y1="376.04" x2="614.494" y2="215.947" gradientUnits="userSpaceOnUse">
<stop stop-color="#5AAADB"/>
<stop offset="1" stop-color="white"/>
</linearGradient>
<linearGradient id="paint2_linear" x1="178.039" y1="304.023" x2="178.039" y2="214.173" gradientUnits="userSpaceOnUse">
<stop stop-color="#5AAADB"/>
<stop offset="1" stop-color="white"/>
</linearGradient>
<linearGradient id="paint3_linear" x1="320" y1="167" x2="320" y2="630" gradientUnits="userSpaceOnUse">
<stop stop-color="#47A6E0"/>
<stop offset="1" stop-color="#5AAADB"/>
</linearGradient>
</defs>
</svg>
