<svg width="638" height="406" viewBox="0 0 638 406" fill="none" xmlns="http://www.w3.org/2000/svg">
<g opacity="0.8">
<path opacity="0.14" d="M566.769 196.285C566.769 198.442 564.362 200.192 561.4 200.192C558.438 200.192 556.031 198.442 556.031 196.285C556.031 194.129 558.438 192.379 561.4 192.379C564.362 192.379 566.769 194.129 566.769 196.285Z" fill="white"/>
<path opacity="0.14" d="M440.987 252.887C440.987 255.044 438.589 256.793 435.627 256.793C432.665 256.793 430.259 255.044 430.259 252.887C430.259 250.73 432.656 248.981 435.627 248.981C438.599 248.981 440.987 250.73 440.987 252.887Z" fill="white"/>
<path opacity="0.14" d="M94.4824 130.058C94.4824 132.214 92.0758 133.964 89.1139 133.964C86.1519 133.964 83.7453 132.214 83.7453 130.058C83.7453 127.901 86.1519 126.152 89.1139 126.152C92.0758 126.152 94.4824 127.901 94.4824 130.058Z" fill="white"/>
<path opacity="0.14" d="M94.4824 177.875C94.4824 178.949 93.2791 179.828 91.7981 179.828C90.3172 179.828 89.1139 178.902 89.1139 177.875C89.1139 176.847 90.3172 175.922 91.7981 175.922C93.2791 175.922 94.4824 176.792 94.4824 177.875Z" fill="white"/>
<path opacity="0.14" d="M583.698 36.2095C583.698 37.2924 582.495 38.1625 581.014 38.1625C579.533 38.1625 578.329 37.2924 578.329 36.2095C578.329 35.1265 579.533 34.2564 581.014 34.2564C582.495 34.2564 583.698 35.1357 583.698 36.2095Z" fill="white"/>
<path opacity="0.14" d="M71.9992 241.298C70.3794 242.372 67.8617 240.854 66.3807 237.892C64.8997 234.93 65.0108 231.662 66.6306 230.579C68.2505 229.497 70.7681 231.024 72.2491 233.986C73.7301 236.948 73.619 240.206 71.9992 241.298Z" fill="white"/>
<path opacity="0.14" d="M555.309 190.38C554.911 191.805 553.005 192.37 551.052 191.639C549.099 190.908 547.84 189.167 548.275 187.742C548.71 186.317 550.58 185.761 552.533 186.492C554.486 187.224 555.707 188.955 555.309 190.38Z" fill="white"/>
<path opacity="0.14" d="M417.698 79.4172C417.3 80.8334 415.393 81.398 413.431 80.676C411.469 79.9541 410.219 78.2046 410.654 76.7792C411.089 75.3537 412.959 74.7891 414.912 75.5204C416.865 76.2516 418.096 77.9917 417.698 79.4172Z" fill="white"/>
<path opacity="0.14" d="M627.091 188.945C626.693 190.371 624.786 190.935 622.833 190.204C620.88 189.473 619.612 187.733 620.056 186.317C620.501 184.9 622.361 184.326 624.323 185.058C626.286 185.789 627.489 187.529 627.091 188.945Z" fill="white"/>
<path opacity="0.14" d="M634.163 72.0022C634.785 70.6735 633.755 68.8776 631.861 67.991C629.968 67.1044 627.928 67.4628 627.306 68.7916C626.684 70.1203 627.715 71.9161 629.608 72.8027C631.502 73.6893 633.541 73.3309 634.163 72.0022Z" fill="white"/>
<path opacity="0.14" d="M463.762 115.587C465.152 112.619 462.844 108.605 458.608 106.622C454.372 104.638 449.812 105.436 448.422 108.404C447.033 111.371 449.34 115.385 453.576 117.369C457.812 119.352 462.373 118.554 463.762 115.587Z" fill="white"/>
<path opacity="0.14" d="M267.538 107.536C268.16 106.207 267.129 104.411 265.235 103.524C263.342 102.638 261.303 102.996 260.68 104.325C260.058 105.654 261.089 107.449 262.983 108.336C264.876 109.223 266.915 108.864 267.538 107.536Z" fill="white"/>
<path opacity="0.14" d="M593.806 123.634C593.408 125.05 591.501 125.615 589.539 124.893C587.576 124.171 586.327 122.421 586.762 120.996C587.197 119.57 589.067 119.006 591.02 119.737C592.973 120.468 594.204 122.208 593.806 123.634Z" fill="white"/>
<path opacity="0.14" d="M126.117 286.731C126.739 285.402 125.709 283.606 123.815 282.72C121.921 281.833 119.882 282.191 119.26 283.52C118.638 284.849 119.669 286.645 121.562 287.531C123.456 288.418 125.495 288.059 126.117 286.731Z" fill="white"/>
<path opacity="0.14" d="M38.3865 5.8936C39.0087 4.56488 37.978 2.76901 36.0845 1.88242C34.1909 0.995825 32.1516 1.35423 31.5294 2.68295C30.9073 4.01167 31.938 5.80753 33.8315 6.69413C35.725 7.58072 37.7644 7.22231 38.3865 5.8936Z" fill="white"/>
<path opacity="0.14" d="M637.93 250.017C637.532 251.443 635.625 252.007 633.672 251.276C631.719 250.545 630.451 248.805 630.895 247.389C631.339 245.972 633.209 245.399 635.162 246.13C637.115 246.861 638.309 248.601 637.93 250.017Z" fill="white"/>
<path opacity="0.14" d="M612.772 360.147C612.374 361.573 610.467 362.137 608.514 361.406C606.561 360.675 605.293 358.935 605.737 357.518C606.181 356.102 608.042 355.528 610.004 356.26C611.966 356.991 613.17 358.731 612.772 360.147Z" fill="white"/>
<path opacity="0.14" d="M536.149 158.141C535.372 159.335 532.447 158.335 529.725 155.919C527.004 153.503 525.357 150.569 526.143 149.384C526.93 148.2 529.124 150.551 531.891 152.976C534.659 155.401 536.936 156.947 536.149 158.141Z" fill="white"/>
<path opacity="0.14" d="M617.872 18.3636C617.085 19.5576 614.216 18.5672 611.448 16.1421C608.68 13.717 607.079 10.8013 607.857 9.60727C608.634 8.41322 610.846 10.7828 613.614 13.1987C616.382 15.6145 618.659 17.1788 617.872 18.3636Z" fill="white"/>
<path opacity="0.14" d="M249.273 182.716C247.616 185.234 241.553 183.132 235.722 178.032C229.891 172.932 226.466 166.768 228.16 164.25C229.854 161.732 234.454 166.721 240.285 171.821C246.117 176.922 250.921 180.207 249.273 182.716Z" fill="white"/>
<path opacity="0.14" d="M494.561 139.897C494.367 140.6 493.414 140.887 492.432 140.526C491.451 140.165 490.822 139.286 491.025 138.573C491.229 137.861 492.173 137.583 493.154 137.944C494.136 138.305 494.765 139.184 494.561 139.897Z" fill="white"/>
<path opacity="0.14" d="M139.162 108.148C138.958 108.861 138.005 109.139 137.033 108.778C136.061 108.417 135.422 107.537 135.617 106.825C135.811 106.112 136.774 105.834 137.755 106.195C138.736 106.556 139.403 107.436 139.162 108.148Z" fill="white"/>
<path opacity="0.14" d="M529.522 81.6479C529.318 82.3606 528.365 82.6383 527.384 82.2773C526.402 81.9163 525.782 81.0463 525.977 80.3335C526.171 79.6208 527.134 79.3339 528.106 79.7041C529.078 80.0744 529.716 80.9352 529.522 81.6479Z" fill="white"/>
<path opacity="0.14" d="M621.981 158.844C621.778 159.557 620.824 159.844 619.843 159.474C618.862 159.103 618.242 158.243 618.436 157.53C618.631 156.817 619.593 156.539 620.565 156.9C621.537 157.261 622.176 158.132 621.981 158.844Z" fill="white"/>
<path opacity="0.14" d="M28.7915 46.8263C28.5971 47.539 27.6345 47.8167 26.6626 47.4557C25.6907 47.0947 25.052 46.2154 25.2556 45.5119C25.4593 44.8084 26.4034 44.5122 27.4031 44.901C28.4027 45.2897 28.9951 46.1135 28.7915 46.8263Z" fill="white"/>
<path opacity="0.14" d="M621.981 290.439C621.778 291.152 620.824 291.429 619.843 291.068C618.862 290.707 618.242 289.837 618.436 289.125C618.631 288.412 619.593 288.125 620.565 288.495C621.537 288.865 622.176 289.726 621.981 290.439Z" fill="white"/>
<path opacity="0.14" d="M469.292 87.6367C469.098 88.3494 468.144 88.6271 467.163 88.2661C466.182 87.9051 465.552 87.0257 465.756 86.3223C465.96 85.6188 466.904 85.3226 467.885 85.6929C468.866 86.0631 469.496 86.9239 469.292 87.6367Z" fill="white"/>
<path opacity="0.14" d="M569.055 182.818C568.851 183.521 567.898 183.808 566.917 183.438C565.935 183.068 565.315 182.207 565.51 181.494C565.704 180.781 566.667 180.504 567.639 180.865C568.611 181.226 569.249 182.133 569.055 182.818Z" fill="white"/>
<path opacity="0.14" d="M495.154 181.614C494.959 182.327 494.006 182.605 493.025 182.244C492.044 181.883 491.423 181.003 491.618 180.3C491.812 179.597 492.775 179.3 493.747 179.671C494.719 180.041 495.357 180.902 495.154 181.614Z" fill="white"/>
<path opacity="0.14" d="M129.73 326.547C131.016 326.723 131.859 328.778 131.581 331.175C131.303 333.573 130.1 335.285 128.804 335.109C127.508 334.933 126.666 332.888 126.953 330.537C127.24 328.186 128.443 326.371 129.73 326.547Z" fill="white"/>
<path opacity="0.14" d="M102.137 37.6349C103.424 37.8108 104.266 39.8656 103.988 42.263C103.711 44.6603 102.508 46.3727 101.212 46.1968C99.9158 46.021 99.0735 43.9754 99.3141 41.6243C99.5548 39.2732 100.851 37.4961 102.137 37.6349Z" fill="white"/>
<path opacity="0.14" d="M140.884 214.113C142.17 214.289 143.022 216.344 142.781 218.695C142.54 221.046 141.291 222.804 140.004 222.628C138.718 222.453 137.875 220.407 138.153 218.056C138.431 215.705 139.597 213.937 140.884 214.113Z" fill="white"/>
<path opacity="0.14" d="M585.605 84.5914C586.327 85.8317 585.531 87.9051 583.828 89.2195C582.125 90.5338 580.125 90.5986 579.431 89.3583C578.737 88.118 579.505 86.0446 581.208 84.7302C582.911 83.4158 584.883 83.3418 585.605 84.5914Z" fill="white"/>
<path opacity="0.14" d="M601.849 90.5894C603.284 93.0422 601.701 97.1612 598.323 99.7807C594.944 102.4 591.038 102.558 589.613 100.058C588.187 97.5592 589.752 93.4865 593.139 90.8671C596.527 88.2476 600.424 88.1272 601.849 90.5894Z" fill="white"/>
<path opacity="0.14" d="M562.409 375.549C563.834 378.002 562.261 382.121 558.873 384.741C555.485 387.36 551.598 387.518 550.163 385.018C548.728 382.519 550.311 378.447 553.69 375.827C557.068 373.208 560.937 373.087 562.409 375.549Z" fill="white"/>
<path opacity="0.14" d="M612.883 368.431C614.317 370.894 612.735 375.013 609.356 377.623C605.978 380.233 602.071 380.4 600.637 377.91C599.202 375.42 600.785 371.329 604.163 368.718C607.542 366.108 611.467 365.969 612.883 368.431Z" fill="white"/>
<path opacity="0.14" d="M283.799 56.934C284.521 58.1651 282.355 61.2844 278.976 63.8946C275.598 66.5049 272.275 67.5971 271.571 66.4123C270.868 65.2275 273.015 62.0619 276.394 59.4424C279.772 56.8229 283.086 55.7214 283.799 56.934Z" fill="white"/>
<path opacity="0.14" d="M494.182 80.5094C495.154 82.1848 492.21 86.4426 487.591 90.0155C482.973 93.5884 478.437 95.1249 477.456 93.4495C476.475 91.7742 479.427 87.5071 484.046 83.9342C488.665 80.3613 493.201 78.8248 494.182 80.5094Z" fill="white"/>
<path opacity="0.14" d="M195.865 127.66C196.587 128.91 195.791 130.983 194.088 132.288C192.385 133.593 190.385 133.677 189.691 132.436C188.997 131.196 189.765 129.113 191.468 127.808C193.172 126.503 195.115 126.42 195.865 127.66Z" fill="white"/>
<path opacity="0.14" d="M143.531 92.9312C144.262 94.1715 143.457 96.2541 141.754 97.5593C140.05 98.8644 138.051 98.9477 137.357 97.7074C136.663 96.467 137.431 94.3844 139.134 93.0793C140.837 91.7742 142.809 91.6908 143.531 92.9312Z" fill="white"/>
<path opacity="0.14" d="M50.1917 86.6833C50.9137 87.9236 50.1177 90.0062 48.4145 91.3114C46.7114 92.6165 44.7121 92.6998 44.0179 91.4595C43.3236 90.2191 44.0919 88.1365 45.795 86.8314C47.4982 85.5263 49.4697 85.4429 50.1917 86.6833Z" fill="white"/>
<path opacity="0.14" d="M7.03952 68.0414C7.7615 69.2817 6.96547 71.3551 5.26233 72.6694C3.5592 73.9838 1.55987 74.0486 0.86566 72.8083C0.171448 71.568 0.939709 69.4946 2.64284 68.1802C4.34597 66.8658 6.28051 66.7918 7.03952 68.0414Z" fill="white"/>
<path opacity="0.14" d="M40.9078 92.1074C42.2962 94.4955 40.7597 98.4849 37.483 101.021C34.2063 103.557 30.4206 103.678 29.0321 101.299C27.6437 98.9199 29.171 94.9212 32.4477 92.3758C35.7243 89.8304 39.5194 89.71 40.9078 92.1074Z" fill="white"/>
<path opacity="0.14" d="M94.649 259.135C95.371 260.375 94.575 262.448 92.8626 263.763C91.1502 265.077 89.1601 265.142 88.4659 263.902C87.7717 262.661 88.54 260.588 90.2523 259.274C91.9647 257.959 93.927 257.885 94.649 259.135Z" fill="white"/>
<path opacity="0.14" d="M155.874 314.955C159.781 313.994 162.387 310.938 161.696 308.128C161.005 305.318 157.278 303.82 153.371 304.781C149.464 305.742 146.858 308.798 147.549 311.608C148.24 314.418 151.967 315.916 155.874 314.955Z" fill="white"/>
<path opacity="0.14" d="M26.6163 185.132C25.3574 187.649 21.5254 187.825 18.0636 185.521C14.6018 183.216 12.8153 179.3 14.0742 176.783C15.333 174.265 19.1651 174.089 22.6269 176.394C26.0887 178.699 27.8751 182.605 26.6163 185.132Z" fill="white"/>
<path opacity="0.14" d="M72.1288 65.4497C70.8607 67.9766 67.0287 68.1525 63.5669 65.8477C60.1051 63.5429 58.3186 59.6275 59.5867 57.1099C60.8548 54.5922 64.6776 54.4071 68.1394 56.7118C71.6012 59.0166 73.3876 62.932 72.1288 65.4497Z" fill="white"/>
<path opacity="0.14" d="M141.874 164.592C143.059 166.619 141.754 170.026 138.958 172.192C136.163 174.358 132.932 174.459 131.757 172.423C130.581 170.387 131.877 166.99 134.673 164.824C137.468 162.658 140.689 162.556 141.874 164.592Z" fill="white"/>
<path opacity="0.14" d="M233.13 187.649C234.315 189.686 233.01 193.083 230.215 195.249C227.419 197.415 224.189 197.516 223.013 195.48C221.838 193.444 223.134 190.047 225.929 187.881C228.724 185.715 231.964 185.595 233.13 187.649Z" fill="white"/>
<path opacity="0.14" d="M57.0299 148.313C59.6134 145.867 60.414 142.517 58.8182 140.832C57.2224 139.147 53.8344 139.764 51.251 142.211C48.6676 144.657 47.8669 148.006 49.4628 149.692C51.0586 151.377 54.4465 150.76 57.0299 148.313Z" fill="white"/>
<path opacity="0.14" d="M616.372 179.402C616.789 182.272 613.929 186.752 609.986 187.52C608.236 187.789 606.449 187.386 604.985 186.392C603.52 185.398 602.486 183.886 602.09 182.161C601.674 179.291 604.534 177.884 608.477 177.125C612.42 176.366 615.956 176.533 616.372 179.402Z" fill="white"/>
<path opacity="0.14" d="M547.895 397.172C548.312 400.041 545.452 404.521 541.508 405.289C539.759 405.559 537.972 405.156 536.507 404.162C535.043 403.167 534.009 401.656 533.613 399.93C533.196 397.061 536.057 395.654 540 394.895C543.943 394.136 547.479 394.302 547.895 397.172Z" fill="white"/>
<path opacity="0.14" d="M340.678 75.3167C341.103 78.1861 338.243 82.6661 334.3 83.4344C332.546 83.7113 330.753 83.3119 329.282 82.3171C327.811 81.3222 326.773 79.806 326.377 78.075C325.951 75.2056 328.811 73.7987 332.754 73.0397C336.697 72.2807 340.261 72.4473 340.678 75.3167Z" fill="white"/>
<path opacity="0.14" d="M16.2957 252.109C16.7122 254.979 13.8521 259.459 9.90894 260.218C8.16 260.492 6.3722 260.092 4.90667 259.099C3.44114 258.106 2.40711 256.594 2.01344 254.868C1.59691 251.998 4.45706 250.591 8.40019 249.832C12.3433 249.073 15.8329 249.231 16.2957 252.109Z" fill="white"/>
<path opacity="0.14" d="M634.311 381.048C634.727 383.917 631.867 388.406 627.924 389.165C626.175 389.439 624.387 389.039 622.922 388.046C621.456 387.053 620.422 385.541 620.029 383.815C619.603 380.946 622.463 379.539 626.406 378.771C630.349 378.002 633.885 378.178 634.311 381.048Z" fill="white"/>
<path opacity="0.14" d="M184.424 79.1458C188.331 78.1848 190.938 75.128 190.247 72.3184C189.555 69.5087 185.828 68.0101 181.921 68.9712C178.015 69.9322 175.408 72.9889 176.099 75.7986C176.79 78.6082 180.518 80.1068 184.424 79.1458Z" fill="white"/>
<path opacity="0.14" d="M100.971 109.907C99.3604 112.147 95.5561 111.573 92.4831 108.62C89.4101 105.668 88.2253 101.475 89.8358 99.2346C91.4464 96.9946 95.2507 97.5685 98.3237 100.521C101.397 103.474 102.591 107.667 100.971 109.907Z" fill="white"/>
<path opacity="0.14" d="M222.986 107.945C220.209 111.73 213.822 110.722 208.629 105.769C203.437 100.817 201.419 93.6717 204.196 89.8952C206.972 86.1186 213.359 87.1183 218.561 92.0611C223.763 97.0039 225.716 104.14 222.986 107.945Z" fill="white"/>
<path opacity="0.14" d="M24.7263 360.762C26.7833 358.991 26.1821 354.92 23.3836 351.67C20.585 348.42 16.6488 347.221 14.5918 348.992C12.5348 350.764 13.1359 354.834 15.9345 358.084C18.733 361.334 22.6692 362.533 24.7263 360.762Z" fill="white"/>
<path opacity="0.14" d="M632.756 213.826C631.136 216.057 627.341 215.483 624.258 212.539C621.176 209.596 619.982 205.384 621.648 203.181C623.314 200.978 627.063 201.524 630.136 204.468C633.209 207.411 634.348 211.586 632.756 213.826Z" fill="white"/>
<path opacity="0.14" d="M585.697 254.322C584.087 256.552 580.283 255.978 577.209 253.035C574.136 250.091 572.952 245.88 574.562 243.64C576.173 241.4 579.977 241.983 583.05 244.927C586.123 247.87 587.317 252.082 585.697 254.322Z" fill="white"/>
<path opacity="0.14" d="M441.153 282.099C439.543 284.339 435.738 283.756 432.665 280.813C429.592 277.869 428.407 273.658 430.018 271.427C431.629 269.196 435.433 269.761 438.506 272.704C441.579 275.648 442.801 279.859 441.153 282.099Z" fill="white"/>
</g>
<g opacity="0.6">
<path d="M22.5872 375.699L23.7615 374.81C24.0284 374.601 24.0818 374.236 23.8683 373.974C23.6547 373.713 23.2811 373.661 23.0142 373.87L21.3061 375.176L16.4487 375.542C16.4487 375.49 16.3953 375.437 16.3953 375.385L19.7048 371.78L21.6798 371.518C22 371.466 22.2669 371.153 22.2135 370.839C22.1602 370.526 21.8399 370.264 21.5196 370.316L20.1852 370.526L20.3987 369.062C20.4521 368.749 20.2386 368.435 19.8649 368.383C19.5446 368.331 19.2244 368.54 19.171 368.906L18.8507 370.996L15.5947 374.392L15.1143 369.585L16.2352 367.965C16.4487 367.704 16.342 367.338 16.0751 367.129C15.8082 366.92 15.4345 367.024 15.221 367.286L14.4737 368.383L13.5129 367.233C13.2994 366.972 12.9258 366.92 12.6589 367.129C12.392 367.338 12.3386 367.704 12.5521 367.965L13.8866 369.689L14.367 374.706C14.2069 374.758 14.0467 374.863 13.8866 375.019L8.92244 373.609L7.48124 372.041C7.3211 371.78 6.94746 371.78 6.68057 371.989C6.41368 372.198 6.41368 372.563 6.62719 372.825L7.58799 373.922L6.3603 374.445C6.04003 374.601 5.93328 374.915 6.04003 375.228C6.14679 375.437 6.3603 375.594 6.62719 375.594C6.73395 375.594 6.78732 375.594 6.89408 375.542L8.65555 374.81L13.4062 376.117C13.4062 376.117 13.4062 376.117 13.4062 376.169C13.4062 376.221 13.4062 376.221 13.4062 376.274L9.08257 378.782L7.10759 378.468C6.78732 378.416 6.46706 378.625 6.41368 378.991C6.3603 379.304 6.57381 379.618 6.94746 379.67L8.28191 379.879L7.64137 381.185C7.48124 381.499 7.64137 381.865 7.90826 381.969C8.01502 382.021 8.06839 382.021 8.17515 382.021C8.38866 382.021 8.60217 381.917 8.70893 381.708L9.66973 379.827L13.7265 377.475L12.3386 381.865L10.6839 382.91C10.417 383.067 10.3103 383.485 10.5238 383.746C10.6305 383.903 10.844 384.007 11.0576 384.007C11.1643 384.007 11.2711 383.955 11.3778 383.903L12.4988 383.171L12.9258 384.582C12.9792 384.843 13.2461 385 13.5129 385C13.5663 385 13.6197 385 13.6731 385C13.9933 384.895 14.2069 384.582 14.1001 384.268L13.5129 382.231L14.9541 377.684C15.0075 377.684 15.0075 377.684 15.0609 377.684C15.221 377.684 15.3812 377.632 15.5413 377.58L18.744 381.29V383.223C18.744 383.537 19.0109 383.798 19.3845 383.798C19.7048 383.798 19.9717 383.537 19.9717 383.171V381.812L21.4129 382.231C21.4662 382.231 21.5196 382.231 21.573 382.231C21.8399 382.231 22.1068 382.074 22.1602 381.812C22.2669 381.499 22.0534 381.133 21.7331 381.081L19.6514 380.454L16.3953 376.744C16.4487 376.692 16.4487 376.639 16.5021 376.535L21.3595 376.169L22.9608 377.266C23.0676 377.319 23.1743 377.371 23.3345 377.371C23.548 377.371 23.7081 377.266 23.8149 377.11C24.0284 376.848 23.9216 376.483 23.6547 376.274L22.5872 375.699ZM14.6339 376.169C14.6339 375.96 14.794 375.803 15.0075 375.803C15.221 375.803 15.3812 375.96 15.3812 376.169C15.3812 376.378 15.221 376.535 15.0075 376.535C14.794 376.535 14.6339 376.378 14.6339 376.169Z" fill="white"/>
<path d="M160.43 366.665L161.735 365.678C162.032 365.446 162.091 365.04 161.854 364.749C161.616 364.459 161.201 364.401 160.905 364.633L159.007 366.085L153.61 366.491C153.61 366.433 153.55 366.375 153.55 366.317L157.228 362.311L159.422 362.02C159.778 361.962 160.074 361.614 160.015 361.266C159.956 360.917 159.6 360.627 159.244 360.685L157.761 360.917L157.999 359.292C158.058 358.943 157.821 358.595 157.405 358.537C157.05 358.479 156.694 358.711 156.634 359.117L156.279 361.44L152.661 365.214L152.127 359.872L153.372 358.072C153.61 357.782 153.491 357.376 153.195 357.143C152.898 356.911 152.483 357.027 152.246 357.317L151.415 358.537L150.348 357.259C150.11 356.969 149.695 356.911 149.399 357.143C149.102 357.376 149.043 357.782 149.28 358.072L150.763 359.988L151.297 365.562C151.119 365.62 150.941 365.736 150.763 365.91L145.247 364.343L143.646 362.601C143.468 362.311 143.053 362.311 142.756 362.543C142.46 362.775 142.46 363.182 142.697 363.472L143.764 364.691L142.4 365.272C142.044 365.446 141.926 365.794 142.044 366.143C142.163 366.375 142.4 366.549 142.697 366.549C142.815 366.549 142.875 366.549 142.993 366.491L144.951 365.678L150.229 367.13C150.229 367.13 150.229 367.13 150.229 367.188C150.229 367.246 150.229 367.246 150.229 367.304L145.425 370.091L143.231 369.742C142.875 369.684 142.519 369.917 142.46 370.323C142.4 370.671 142.638 371.02 143.053 371.078L144.535 371.31L143.824 372.762C143.646 373.11 143.824 373.516 144.12 373.632C144.239 373.691 144.298 373.691 144.417 373.691C144.654 373.691 144.891 373.574 145.01 373.342L146.077 371.252L150.585 368.639L149.043 373.516L147.204 374.678C146.908 374.852 146.789 375.316 147.026 375.607C147.145 375.781 147.382 375.897 147.62 375.897C147.738 375.897 147.857 375.839 147.975 375.781L149.221 374.968L149.695 376.536C149.755 376.826 150.051 377 150.348 377C150.407 377 150.466 377 150.526 377C150.881 376.884 151.119 376.536 151 376.187L150.348 373.923L151.949 368.872C152.008 368.872 152.008 368.872 152.068 368.872C152.246 368.872 152.424 368.813 152.601 368.755L156.16 372.878V375.026C156.16 375.374 156.457 375.665 156.872 375.665C157.228 375.665 157.524 375.374 157.524 374.968V373.458L159.125 373.923C159.185 373.923 159.244 373.923 159.303 373.923C159.6 373.923 159.896 373.749 159.956 373.458C160.074 373.11 159.837 372.704 159.481 372.645L157.168 371.949L153.55 367.826C153.61 367.768 153.61 367.71 153.669 367.594L159.066 367.188L160.845 368.407C160.964 368.465 161.083 368.523 161.261 368.523C161.498 368.523 161.676 368.407 161.794 368.233C162.032 367.943 161.913 367.536 161.616 367.304L160.43 366.665ZM151.593 367.188C151.593 366.956 151.771 366.781 152.008 366.781C152.246 366.781 152.424 366.956 152.424 367.188C152.424 367.42 152.246 367.594 152.008 367.594C151.771 367.594 151.593 367.42 151.593 367.188Z" fill="white"/>
<path d="M28.4302 166.665L29.735 165.678C30.0315 165.446 30.0909 165.04 29.8536 164.749C29.6164 164.459 29.2012 164.401 28.9047 164.633L27.0068 166.085L21.6097 166.491C21.6097 166.433 21.5504 166.375 21.5504 166.317L25.2275 162.311L27.422 162.02C27.7778 161.962 28.0744 161.614 28.015 161.266C27.9557 160.917 27.5999 160.627 27.244 160.685L25.7613 160.917L25.9985 159.292C26.0579 158.943 25.8206 158.595 25.4055 158.537C25.0496 158.479 24.6938 158.711 24.6344 159.117L24.2786 161.44L20.6608 165.214L20.127 159.872L21.3725 158.072C21.6097 157.782 21.4911 157.376 21.1945 157.143C20.898 156.911 20.4828 157.027 20.2456 157.317L19.4153 158.537L18.3477 157.259C18.1105 156.969 17.6953 156.911 17.3988 157.143C17.1022 157.376 17.0429 157.782 17.2802 158.072L18.7629 159.988L19.2967 165.562C19.1187 165.62 18.9408 165.736 18.7629 165.91L13.2472 164.343L11.6458 162.601C11.4679 162.311 11.0527 162.311 10.7562 162.543C10.4596 162.775 10.4596 163.182 10.6969 163.472L11.7644 164.691L10.4003 165.272C10.0445 165.446 9.92586 165.794 10.0445 166.143C10.1631 166.375 10.4003 166.549 10.6969 166.549C10.8155 166.549 10.8748 166.549 10.9934 166.491L12.9506 165.678L18.2291 167.13C18.2291 167.13 18.2291 167.13 18.2291 167.188C18.2291 167.246 18.2291 167.246 18.2291 167.304L13.4251 170.091L11.2307 169.742C10.8748 169.684 10.519 169.917 10.4596 170.323C10.4003 170.671 10.6376 171.02 11.0527 171.078L12.5355 171.31L11.8237 172.762C11.6458 173.11 11.8237 173.516 12.1203 173.632C12.2389 173.691 12.2982 173.691 12.4168 173.691C12.6541 173.691 12.8913 173.574 13.0099 173.342L14.0775 171.252L18.5849 168.639L17.0429 173.516L15.2043 174.678C14.9078 174.852 14.7892 175.316 15.0264 175.607C15.145 175.781 15.3823 175.897 15.6195 175.897C15.7381 175.897 15.8567 175.839 15.9754 175.781L17.2208 174.968L17.6953 176.536C17.7546 176.826 18.0512 177 18.3477 177C18.407 177 18.4663 177 18.5256 177C18.8815 176.884 19.1187 176.536 19.0001 176.187L18.3477 173.923L19.949 168.872C20.0084 168.872 20.0084 168.872 20.0677 168.872C20.2456 168.872 20.4235 168.813 20.6014 168.755L24.16 172.878V175.026C24.16 175.374 24.4565 175.665 24.8717 175.665C25.2275 175.665 25.5241 175.374 25.5241 174.968V173.458L27.1254 173.923C27.1847 173.923 27.244 173.923 27.3033 173.923C27.5999 173.923 27.8964 173.749 27.9557 173.458C28.0744 173.11 27.8371 172.704 27.4813 172.645L25.1682 171.949L21.5504 167.826C21.6097 167.768 21.6097 167.71 21.669 167.594L27.0661 167.188L28.8454 168.407C28.964 168.465 29.0826 168.523 29.2605 168.523C29.4978 168.523 29.6757 168.407 29.7943 168.233C30.0315 167.943 29.9129 167.536 29.6164 167.304L28.4302 166.665ZM19.5932 167.188C19.5932 166.956 19.7711 166.781 20.0084 166.781C20.2456 166.781 20.4235 166.956 20.4235 167.188C20.4235 167.42 20.2456 167.594 20.0084 167.594C19.7711 167.594 19.5932 167.42 19.5932 167.188Z" fill="white"/>
<path d="M58.9011 81.7657L59.8145 81.0747C60.0221 80.9122 60.0636 80.6277 59.8975 80.4245C59.7315 80.2213 59.4409 80.1806 59.2333 80.3432L57.9048 81.3592L54.1268 81.6437C54.1268 81.6031 54.0853 81.5624 54.0853 81.5218L56.6593 78.7175L58.1954 78.5143C58.4445 78.4736 58.652 78.2298 58.6105 77.9859C58.569 77.7421 58.3199 77.5389 58.0708 77.5795L57.0329 77.7421L57.199 76.6041C57.2405 76.3602 57.0744 76.1164 56.7838 76.0757C56.5347 76.0351 56.2856 76.1977 56.2441 76.4822L55.995 78.1078L53.4625 80.7496L53.0889 77.0105L53.9607 75.7506C54.1268 75.5474 54.0438 75.2629 53.8362 75.1003C53.6286 74.9377 53.338 75.019 53.1719 75.2222L52.5907 76.0757L51.8434 75.1816C51.6773 74.9784 51.3867 74.9377 51.1791 75.1003C50.9716 75.2629 50.93 75.5474 51.0961 75.7506L52.134 77.0918L52.5077 80.9935C52.3831 81.0341 52.2586 81.1154 52.134 81.2373L48.273 80.14L47.1521 78.9207C47.0275 78.7175 46.7369 78.7175 46.5293 78.8801C46.3218 79.0426 46.3218 79.3271 46.4878 79.5303L47.2351 80.3838L46.2802 80.7902C46.0311 80.9122 45.9481 81.156 46.0311 81.3999C46.1142 81.5624 46.2802 81.6844 46.4878 81.6844C46.5708 81.6844 46.6124 81.6844 46.6954 81.6437L48.0654 81.0747L51.7604 82.0908C51.7604 82.0908 51.7604 82.0908 51.7604 82.1314C51.7604 82.1721 51.7604 82.1721 51.7604 82.2127L48.3976 84.1636L46.8615 83.9197C46.6124 83.8791 46.3633 84.0416 46.3218 84.3261C46.2802 84.57 46.4463 84.8138 46.7369 84.8545L47.7748 85.017L47.2766 86.0331C47.1521 86.277 47.2766 86.5615 47.4842 86.6427C47.5672 86.6834 47.6088 86.6834 47.6918 86.6834C47.8578 86.6834 48.0239 86.6021 48.1069 86.4395L48.8542 84.9764L52.0095 83.1475L50.93 86.5615L49.643 87.3743C49.4355 87.4962 49.3524 87.8214 49.5185 88.0246C49.6015 88.1465 49.7676 88.2278 49.9337 88.2278C50.0167 88.2278 50.0997 88.1872 50.1828 88.1465L51.0546 87.5775L51.3867 88.6749C51.4282 88.8781 51.6358 89 51.8434 89C51.8849 89 51.9264 89 51.9679 89C52.217 88.9187 52.3831 88.6749 52.3001 88.431L51.8434 86.846L52.9643 83.3101C53.0058 83.3101 53.0059 83.3101 53.0474 83.3101C53.1719 83.3101 53.2965 83.2694 53.421 83.2288L55.912 86.1144V87.6182C55.912 87.862 56.1196 88.0652 56.4102 88.0652C56.6593 88.0652 56.8669 87.862 56.8669 87.5775V86.5208L57.9878 86.846C58.0293 86.846 58.0708 86.846 58.1123 86.846C58.3199 86.846 58.5275 86.724 58.569 86.5208C58.652 86.277 58.486 85.9925 58.2369 85.9518L56.6178 85.4641L54.0853 82.5785C54.1268 82.5379 54.1268 82.4972 54.1683 82.4159L57.9463 82.1314L59.1918 82.9849C59.2748 83.0256 59.3578 83.0662 59.4824 83.0662C59.6484 83.0662 59.773 82.9849 59.856 82.863C60.0221 82.6598 59.939 82.3753 59.7315 82.2127L58.9011 81.7657ZM52.7152 82.1314C52.7152 81.9689 52.8398 81.8469 53.0059 81.8469C53.1719 81.8469 53.2965 81.9689 53.2965 82.1314C53.2965 82.294 53.1719 82.4159 53.0059 82.4159C52.8398 82.4159 52.7152 82.294 52.7152 82.1314Z" fill="white"/>
<path d="M549.195 329.115L550.695 327.98C551.036 327.713 551.104 327.245 550.832 326.912C550.559 326.578 550.081 326.511 549.74 326.778L547.558 328.447L541.351 328.915C541.351 328.848 541.283 328.781 541.283 328.714L545.512 324.107L548.035 323.773C548.444 323.707 548.786 323.306 548.717 322.905C548.649 322.505 548.24 322.171 547.831 322.238L546.126 322.505L546.398 320.635C546.467 320.235 546.194 319.834 545.716 319.767C545.307 319.701 544.898 319.968 544.83 320.435L544.42 323.106L540.26 327.446L539.646 321.303L541.078 319.233C541.351 318.899 541.215 318.432 540.874 318.165C540.533 317.898 540.055 318.031 539.782 318.365L538.828 319.767L537.6 318.298C537.327 317.964 536.85 317.898 536.509 318.165C536.168 318.432 536.099 318.899 536.372 319.233L538.077 321.437L538.691 327.846C538.487 327.913 538.282 328.047 538.077 328.247L531.734 326.444L529.893 324.441C529.688 324.107 529.211 324.107 528.87 324.374C528.529 324.641 528.529 325.109 528.801 325.443L530.029 326.845L528.46 327.513C528.051 327.713 527.915 328.113 528.051 328.514C528.188 328.781 528.46 328.981 528.801 328.981C528.938 328.981 529.006 328.981 529.142 328.915L531.393 327.98L537.463 329.649C537.463 329.649 537.463 329.649 537.463 329.716C537.463 329.783 537.463 329.783 537.463 329.849L531.939 333.054L529.415 332.654C529.006 332.587 528.597 332.854 528.529 333.321C528.46 333.722 528.733 334.123 529.211 334.19L530.916 334.457L530.097 336.126C529.893 336.526 530.097 336.994 530.438 337.127C530.575 337.194 530.643 337.194 530.779 337.194C531.052 337.194 531.325 337.061 531.461 336.794L532.689 334.39L537.873 331.385L536.099 336.994L533.985 338.329C533.644 338.53 533.508 339.064 533.78 339.398C533.917 339.598 534.19 339.731 534.462 339.731C534.599 339.731 534.735 339.665 534.872 339.598L536.304 338.663L536.85 340.466C536.918 340.8 537.259 341 537.6 341C537.668 341 537.736 341 537.804 341C538.214 340.866 538.487 340.466 538.35 340.065L537.6 337.461L539.441 331.652C539.51 331.652 539.51 331.652 539.578 331.652C539.782 331.652 539.987 331.585 540.192 331.519L544.284 336.259V338.73C544.284 339.13 544.625 339.464 545.102 339.464C545.512 339.464 545.853 339.13 545.853 338.663V336.927L547.694 337.461C547.762 337.461 547.831 337.461 547.899 337.461C548.24 337.461 548.581 337.261 548.649 336.927C548.786 336.526 548.513 336.059 548.103 335.992L545.443 335.191L541.283 330.45C541.351 330.384 541.351 330.317 541.419 330.183L547.626 329.716L549.672 331.118C549.809 331.185 549.945 331.252 550.15 331.252C550.422 331.252 550.627 331.118 550.763 330.918C551.036 330.584 550.9 330.117 550.559 329.849L549.195 329.115ZM539.032 329.716C539.032 329.449 539.237 329.249 539.51 329.249C539.782 329.249 539.987 329.449 539.987 329.716C539.987 329.983 539.782 330.183 539.51 330.183C539.237 330.183 539.032 329.983 539.032 329.716Z" fill="white"/>
<path d="M621.666 335.215L622.775 334.376C623.027 334.179 623.077 333.834 622.876 333.587C622.674 333.34 622.321 333.291 622.069 333.488L620.456 334.722L615.868 335.067C615.868 335.018 615.818 334.969 615.818 334.919L618.943 331.514L620.809 331.267C621.111 331.218 621.363 330.922 621.313 330.626C621.262 330.33 620.96 330.083 620.657 330.132L619.397 330.33L619.599 328.948C619.649 328.652 619.448 328.356 619.095 328.306C618.792 328.257 618.49 328.454 618.439 328.8L618.137 330.774L615.062 333.982L614.608 329.441L615.667 327.911C615.868 327.665 615.767 327.319 615.515 327.122C615.263 326.924 614.91 327.023 614.709 327.27L614.003 328.306L613.096 327.221C612.894 326.974 612.541 326.924 612.289 327.122C612.037 327.319 611.986 327.665 612.188 327.911L613.448 329.54L613.902 334.278C613.751 334.327 613.6 334.426 613.448 334.574L608.76 333.241L607.399 331.761C607.248 331.514 606.895 331.514 606.643 331.711C606.391 331.909 606.391 332.254 606.592 332.501L607.5 333.537L606.34 334.031C606.038 334.179 605.937 334.475 606.038 334.771C606.139 334.969 606.34 335.117 606.592 335.117C606.693 335.117 606.744 335.117 606.844 335.067L608.508 334.376L612.995 335.61C612.995 335.61 612.995 335.61 612.995 335.66C612.995 335.709 612.995 335.709 612.995 335.758L608.911 338.127L607.046 337.831C606.744 337.782 606.441 337.979 606.391 338.325C606.34 338.621 606.542 338.917 606.895 338.966L608.155 339.164L607.55 340.397C607.399 340.693 607.55 341.039 607.802 341.138C607.903 341.187 607.953 341.187 608.054 341.187C608.256 341.187 608.458 341.088 608.558 340.891L609.466 339.114L613.297 336.893L611.986 341.039L610.424 342.026C610.172 342.174 610.071 342.569 610.272 342.816C610.373 342.964 610.575 343.062 610.777 343.062C610.877 343.062 610.978 343.013 611.079 342.964L612.138 342.273L612.541 343.605C612.591 343.852 612.843 344 613.096 344C613.146 344 613.196 344 613.247 344C613.549 343.901 613.751 343.605 613.65 343.309L613.096 341.384L614.457 337.091C614.507 337.091 614.507 337.091 614.558 337.091C614.709 337.091 614.86 337.041 615.011 336.992L618.036 340.496V342.322C618.036 342.618 618.288 342.865 618.641 342.865C618.943 342.865 619.195 342.618 619.195 342.273V340.99L620.557 341.384C620.607 341.384 620.657 341.384 620.708 341.384C620.96 341.384 621.212 341.236 621.262 340.99C621.363 340.693 621.162 340.348 620.859 340.299L618.893 339.706L615.818 336.202C615.868 336.153 615.868 336.104 615.919 336.005L620.506 335.66L622.019 336.696C622.119 336.745 622.22 336.795 622.371 336.795C622.573 336.795 622.724 336.696 622.825 336.548C623.027 336.301 622.926 335.956 622.674 335.758L621.666 335.215ZM614.154 335.66C614.154 335.462 614.305 335.314 614.507 335.314C614.709 335.314 614.86 335.462 614.86 335.66C614.86 335.857 614.709 336.005 614.507 336.005C614.305 336.005 614.154 335.857 614.154 335.66Z" fill="white"/>
<path d="M632.666 76.2154L633.775 75.3765C634.027 75.1791 634.077 74.8336 633.876 74.5868C633.674 74.3401 633.321 74.2907 633.069 74.4881L631.456 75.7219L626.868 76.0674C626.868 76.018 626.818 75.9687 626.818 75.9193L629.943 72.5141L631.809 72.2673C632.111 72.218 632.363 71.9219 632.313 71.6258C632.262 71.3297 631.96 71.0829 631.657 71.1322L630.397 71.3297L630.599 69.9478C630.649 69.6517 630.448 69.3556 630.095 69.3062C629.792 69.2569 629.49 69.4543 629.439 69.7998L629.137 71.7738L626.062 74.9817L625.608 70.4413L626.667 68.9114C626.868 68.6647 626.767 68.3192 626.515 68.1218C626.263 67.9244 625.91 68.0231 625.709 68.2699L625.003 69.3062L624.096 68.2205C623.894 67.9738 623.541 67.9244 623.289 68.1218C623.037 68.3192 622.986 68.6647 623.188 68.9114L624.448 70.54L624.902 75.2778C624.751 75.3271 624.6 75.4258 624.448 75.5739L619.76 74.2414L618.399 72.7608C618.248 72.5141 617.895 72.5141 617.643 72.7115C617.391 72.9089 617.391 73.2544 617.592 73.5011L618.5 74.5375L617.34 75.031C617.038 75.1791 616.937 75.4752 617.038 75.7713C617.139 75.9687 617.34 76.1167 617.592 76.1167C617.693 76.1167 617.744 76.1167 617.844 76.0674L619.508 75.3765L623.995 76.6103C623.995 76.6103 623.995 76.6103 623.995 76.6596C623.995 76.709 623.995 76.709 623.995 76.7583L619.911 79.1272L618.046 78.8311C617.744 78.7817 617.441 78.9791 617.391 79.3246C617.34 79.6207 617.542 79.9168 617.895 79.9662L619.155 80.1636L618.55 81.3973C618.399 81.6935 618.55 82.0389 618.802 82.1376C618.903 82.187 618.953 82.187 619.054 82.187C619.256 82.187 619.458 82.0883 619.558 81.8909L620.466 80.1142L624.297 77.8934L622.986 82.0389L621.424 83.0259C621.172 83.174 621.071 83.5688 621.272 83.8156C621.373 83.9636 621.575 84.0623 621.777 84.0623C621.877 84.0623 621.978 84.013 622.079 83.9636L623.138 83.2727L623.541 84.6052C623.591 84.8519 623.843 85 624.096 85C624.146 85 624.196 85 624.247 85C624.549 84.9013 624.751 84.6052 624.65 84.3091L624.096 82.3844L625.457 78.0908C625.507 78.0908 625.507 78.0908 625.558 78.0908C625.709 78.0908 625.86 78.0414 626.011 77.9921L629.036 81.496V83.3221C629.036 83.6182 629.288 83.8649 629.641 83.8649C629.943 83.8649 630.195 83.6182 630.195 83.2727V81.9896L631.557 82.3844C631.607 82.3844 631.657 82.3844 631.708 82.3844C631.96 82.3844 632.212 82.2363 632.262 81.9896C632.363 81.6935 632.162 81.348 631.859 81.2986L629.893 80.7064L626.818 77.2025C626.868 77.1531 626.868 77.1038 626.919 77.0051L631.506 76.6596L633.019 77.696C633.119 77.7453 633.22 77.7947 633.371 77.7947C633.573 77.7947 633.724 77.696 633.825 77.5479C634.027 77.3012 633.926 76.9557 633.674 76.7583L632.666 76.2154ZM625.154 76.6596C625.154 76.4622 625.305 76.3141 625.507 76.3141C625.709 76.3141 625.86 76.4622 625.86 76.6596C625.86 76.857 625.709 77.0051 625.507 77.0051C625.305 77.0051 625.154 76.857 625.154 76.6596Z" fill="white"/>
<path d="M597.959 141.565L599.655 140.282C600.041 139.98 600.118 139.451 599.81 139.074C599.501 138.697 598.962 138.621 598.576 138.923L596.109 140.81L589.093 141.338C589.093 141.263 589.016 141.187 589.016 141.112L593.796 135.904L596.649 135.527C597.111 135.451 597.497 134.998 597.42 134.545C597.342 134.092 596.88 133.715 596.417 133.79L594.49 134.092L594.798 131.979C594.875 131.526 594.567 131.073 594.027 130.998C593.564 130.922 593.102 131.224 593.025 131.753L592.562 134.772L587.859 139.678L587.165 132.734L588.784 130.394C589.093 130.017 588.938 129.488 588.553 129.186C588.167 128.884 587.628 129.035 587.319 129.413L586.24 130.998L584.852 129.337C584.544 128.96 584.004 128.884 583.618 129.186C583.233 129.488 583.156 130.017 583.464 130.394L585.392 132.885L586.086 140.131C585.854 140.206 585.623 140.357 585.392 140.584L578.221 138.546L576.14 136.281C575.908 135.904 575.369 135.904 574.983 136.206C574.598 136.508 574.598 137.036 574.906 137.413L576.294 138.999L574.52 139.753C574.058 139.98 573.904 140.433 574.058 140.885C574.212 141.187 574.52 141.414 574.906 141.414C575.06 141.414 575.137 141.414 575.291 141.338L577.836 140.282L584.698 142.169C584.698 142.169 584.698 142.169 584.698 142.244C584.698 142.32 584.698 142.32 584.698 142.395L578.453 146.018L575.6 145.565C575.137 145.49 574.675 145.792 574.598 146.32C574.52 146.773 574.829 147.226 575.369 147.301L577.296 147.603L576.371 149.49C576.14 149.943 576.371 150.471 576.756 150.622C576.911 150.698 576.988 150.698 577.142 150.698C577.45 150.698 577.759 150.547 577.913 150.245L579.301 147.528L585.16 144.131L583.156 150.471L580.766 151.981C580.38 152.207 580.226 152.811 580.534 153.189C580.689 153.415 580.997 153.566 581.305 153.566C581.46 153.566 581.614 153.49 581.768 153.415L583.387 152.358L584.004 154.396C584.081 154.774 584.467 155 584.852 155C584.929 155 585.006 155 585.083 155C585.546 154.849 585.854 154.396 585.7 153.943L584.852 151L586.934 144.433C587.011 144.433 587.011 144.433 587.088 144.433C587.319 144.433 587.551 144.358 587.782 144.282L592.408 149.641V152.434C592.408 152.887 592.793 153.264 593.333 153.264C593.796 153.264 594.181 152.887 594.181 152.358V150.396L596.263 151C596.34 151 596.417 151 596.494 151C596.88 151 597.265 150.773 597.342 150.396C597.497 149.943 597.188 149.415 596.726 149.339L593.719 148.433L589.016 143.074C589.093 142.999 589.093 142.923 589.17 142.772L596.186 142.244L598.499 143.829C598.653 143.905 598.807 143.98 599.039 143.98C599.347 143.98 599.578 143.829 599.733 143.603C600.041 143.225 599.887 142.697 599.501 142.395L597.959 141.565ZM586.471 142.244C586.471 141.942 586.702 141.716 587.011 141.716C587.319 141.716 587.551 141.942 587.551 142.244C587.551 142.546 587.319 142.772 587.011 142.772C586.702 142.772 586.471 142.546 586.471 142.244Z" fill="white"/>
<path d="M44.6453 321.498L46.6025 320.017C47.0473 319.669 47.1363 319.059 46.7804 318.624C46.4246 318.188 45.8018 318.101 45.357 318.45L42.5102 320.627L34.4145 321.237C34.4145 321.149 34.3256 321.062 34.3256 320.975L39.8413 314.966L43.1329 314.531C43.6667 314.443 44.1115 313.921 44.0226 313.398C43.9336 312.876 43.3998 312.44 42.866 312.527L40.642 312.876L40.9978 310.437C41.0868 309.915 40.7309 309.392 40.1082 309.305C39.5744 309.218 39.0406 309.566 38.9517 310.176L38.4179 313.66L32.9911 319.321L32.1905 311.308L34.0587 308.608C34.4145 308.173 34.2366 307.563 33.7918 307.215C33.347 306.867 32.7242 307.041 32.3684 307.476L31.1229 309.305L29.5216 307.389C29.1657 306.954 28.543 306.867 28.0982 307.215C27.6533 307.563 27.5644 308.173 27.9202 308.608L30.1443 311.482L30.945 319.843C30.6781 319.93 30.4112 320.104 30.1443 320.366L21.8707 318.014L19.4687 315.401C19.2018 314.966 18.5791 314.966 18.1343 315.314C17.6895 315.663 17.6895 316.272 18.0453 316.708L19.6467 318.537L17.6005 319.408C17.0667 319.669 16.8888 320.191 17.0667 320.714C17.2446 321.062 17.6005 321.324 18.0453 321.324C18.2232 321.324 18.3122 321.324 18.4901 321.237L21.4259 320.017L29.3436 322.195C29.3436 322.195 29.3436 322.195 29.3436 322.282C29.3436 322.369 29.3436 322.369 29.3436 322.456L22.1376 326.636L18.846 326.114C18.3122 326.027 17.7784 326.375 17.6895 326.985C17.6005 327.507 17.9564 328.03 18.5791 328.117L20.8032 328.465L19.7356 330.642C19.4687 331.165 19.7356 331.775 20.1804 331.949C20.3584 332.036 20.4473 332.036 20.6252 332.036C20.9811 332.036 21.337 331.862 21.5149 331.513L23.1162 328.378L29.8774 324.459L27.5644 331.775L24.8065 333.516C24.3617 333.778 24.1838 334.474 24.5396 334.91C24.7176 335.171 25.0734 335.345 25.4293 335.345C25.6072 335.345 25.7851 335.258 25.963 335.171L27.8313 333.952L28.543 336.303C28.6319 336.739 29.0768 337 29.5216 337C29.6105 337 29.6995 337 29.7885 337C30.3222 336.826 30.6781 336.303 30.5002 335.781L29.5216 332.384L31.9236 324.807C32.0125 324.807 32.0125 324.807 32.1015 324.807C32.3684 324.807 32.6353 324.72 32.9022 324.633L38.24 330.817V334.039C38.24 334.561 38.6848 334.997 39.3075 334.997C39.8413 334.997 40.2861 334.561 40.2861 333.952V331.687L42.6881 332.384C42.7771 332.384 42.866 332.384 42.955 332.384C43.3998 332.384 43.8446 332.123 43.9336 331.687C44.1115 331.165 43.7557 330.555 43.2219 330.468L39.7523 329.423L34.3256 323.24C34.4145 323.153 34.4145 323.065 34.5035 322.891L42.5992 322.282L45.268 324.111C45.446 324.198 45.6239 324.285 45.8908 324.285C46.2466 324.285 46.5135 324.111 46.6915 323.849C47.0473 323.414 46.8694 322.804 46.4246 322.456L44.6453 321.498ZM31.3898 322.282C31.3898 321.933 31.6567 321.672 32.0125 321.672C32.3684 321.672 32.6353 321.933 32.6353 322.282C32.6353 322.63 32.3684 322.891 32.0125 322.891C31.6567 322.891 31.3898 322.63 31.3898 322.282Z" fill="white"/>
<path d="M47.6453 50.4978L49.6025 49.0173C50.0473 48.6689 50.1363 48.0593 49.7804 47.6238C49.4246 47.1884 48.8018 47.1013 48.357 47.4497L45.5102 49.6269L37.4145 50.2366C37.4145 50.1495 37.3256 50.0624 37.3256 49.9753L42.8413 43.966L46.1329 43.5306C46.6667 43.4435 47.1115 42.9209 47.0226 42.3984C46.9336 41.8759 46.3998 41.4404 45.866 41.5275L43.642 41.8759L43.9978 39.4373C44.0868 38.9148 43.7309 38.3922 43.1082 38.3051C42.5744 38.218 42.0406 38.5664 41.9517 39.176L41.4179 42.6597L35.9911 48.3206L35.1905 40.3082L37.0587 37.6084C37.4145 37.173 37.2366 36.5633 36.7918 36.215C36.347 35.8666 35.7242 36.0408 35.3684 36.4762L34.1229 38.3051L32.5216 36.3891C32.1657 35.9537 31.543 35.8666 31.0982 36.215C30.6533 36.5633 30.5644 37.173 30.9202 37.6084L33.1443 40.4824L33.945 48.8431C33.6781 48.9302 33.4112 49.1044 33.1443 49.3657L24.8707 47.0142L22.4687 44.4015C22.2018 43.966 21.5791 43.966 21.1343 44.3144C20.6895 44.6628 20.6895 45.2724 21.0453 45.7079L22.6467 47.5368L20.6005 48.4077C20.0667 48.6689 19.8888 49.1915 20.0667 49.714C20.2446 50.0624 20.6005 50.3237 21.0453 50.3237C21.2232 50.3237 21.3122 50.3237 21.4901 50.2366L24.4259 49.0173L32.3436 51.1946C32.3436 51.1946 32.3436 51.1946 32.3436 51.2817C32.3436 51.3688 32.3436 51.3688 32.3436 51.4558L25.1376 55.6362L21.846 55.1137C21.3122 55.0266 20.7784 55.3749 20.6895 55.9846C20.6005 56.5071 20.9564 57.0297 21.5791 57.1167L23.8032 57.4651L22.7356 59.6424C22.4687 60.1649 22.7356 60.7746 23.1804 60.9487C23.3584 61.0358 23.4473 61.0358 23.6252 61.0358C23.9811 61.0358 24.337 60.8616 24.5149 60.5133L26.1162 57.378L32.8774 53.4589L30.5644 60.7746L27.8065 62.5164C27.3617 62.7776 27.1838 63.4744 27.5396 63.9098C27.7176 64.1711 28.0734 64.3453 28.4293 64.3453C28.6072 64.3453 28.7851 64.2582 28.963 64.1711L30.8313 62.9518L31.543 65.3033C31.6319 65.7387 32.0768 66 32.5216 66C32.6105 66 32.6995 66 32.7885 66C33.3222 65.8258 33.6781 65.3033 33.5002 64.7807L32.5216 61.3842L34.9236 53.8073C35.0125 53.8073 35.0125 53.8073 35.1015 53.8073C35.3684 53.8073 35.6353 53.7202 35.9022 53.6331L41.24 59.8166V63.0389C41.24 63.5615 41.6848 63.9969 42.3075 63.9969C42.8413 63.9969 43.2861 63.5615 43.2861 62.9518V60.6875L45.6881 61.3842C45.7771 61.3842 45.866 61.3842 45.955 61.3842C46.3998 61.3842 46.8446 61.1229 46.9336 60.6875C47.1115 60.1649 46.7557 59.5553 46.2219 59.4682L42.7523 58.4231L37.3256 52.2397C37.4145 52.1526 37.4145 52.0655 37.5035 51.8913L45.5992 51.2817L48.268 53.1106C48.446 53.1977 48.6239 53.2847 48.8908 53.2847C49.2466 53.2847 49.5135 53.1106 49.6915 52.8493C50.0473 52.4138 49.8694 51.8042 49.4246 51.4558L47.6453 50.4978ZM34.3898 51.2817C34.3898 50.9333 34.6567 50.672 35.0125 50.672C35.3684 50.672 35.6353 50.9333 35.6353 51.2817C35.6353 51.63 35.3684 51.8913 35.0125 51.8913C34.6567 51.8913 34.3898 51.63 34.3898 51.2817Z" fill="white"/>
</g>
</svg>
