<svg xmlns="http://www.w3.org/2000/svg" width="27" height="32" viewBox="0 0 27 32">
    <g fill="#FFF" fill-rule="nonzero">
        <path d="M12.915 7.83A3.92 3.92 0 0 1 9 3.915 3.92 3.92 0 0 1 12.915 0a3.92 3.92 0 0 1 3.915 3.915 3.92 3.92 0 0 1-3.915 3.915zm0-5.22c-.72 0-1.305.586-1.305 1.305 0 .72.586 1.305 1.305 1.305.72 0 1.305-.585 1.305-1.305s-.586-1.305-1.305-1.305zM15.135 25.965h-5.22c-.72 0-1.305-.585-1.305-1.305v-5.22H7.305c-.72 0-1.305-.585-1.305-1.305v-2.61A6.532 6.532 0 0 1 12.525 9a6.532 6.532 0 0 1 6.525 6.525v2.61c0 .72-.585 1.305-1.305 1.305H16.44v5.22c0 .722-.585 1.305-1.305 1.305zm-3.915-2.61h2.61v-5.22c0-.72.585-1.305 1.305-1.305h1.305v-1.305a3.92 3.92 0 0 0-3.915-3.915 3.92 3.92 0 0 0-3.915 3.915v1.305h1.305c.72 0 1.305.585 1.305 1.305v5.22z"/>
        <path d="M13.05 31.438C6.765 31.438 0 29.805 0 26.218 0 24.953.87 23.194 5.013 22l.724 2.508c-2.583.745-3.127 1.577-3.127 1.71 0 .672 3.589 2.61 10.44 2.61 6.851 0 10.44-1.938 10.44-2.61 0-.126-.508-.919-2.922-1.65l.757-2.498c3.946 1.195 4.775 2.915 4.775 4.146 0 3.59-6.765 5.222-13.05 5.222z"/>
    </g>
</svg>
