<svg width="674" height="90" viewBox="0 0 674 90" fill="none" xmlns="http://www.w3.org/2000/svg">
<path d="M529.458 34.6357L547.223 29.8356L580.694 34.2099L562.345 39.6019L529.458 34.6357Z" fill="white"/>
<path d="M529.458 34.6356L531.61 74.5527L562.056 78.9486L562.345 39.6018L529.458 34.6356Z" fill="#F0E9E9"/>
<path d="M562.056 78.9487L578.059 73.1308L580.694 34.2098L562.345 39.6019L562.056 78.9487Z" fill="#CBC5C4"/>
<path d="M544.754 36.9455L546.01 76.6316L549.005 77.0647L549.337 37.6385L544.754 36.9455Z" fill="#F2BD7C"/>
<path d="M544.754 36.9455L555.502 30.9182L559.97 31.5029L549.337 37.6385L544.754 36.9455Z" fill="#FFDC9F"/>
<path d="M570.126 37.3208L569.642 76.1913L572.681 75.0869L575.085 35.8627L570.126 37.3208Z" fill="#F1A06B"/>
<path d="M575.085 35.8628L542.668 31.0626L537.066 32.5785L570.126 37.3209L575.085 35.8628Z" fill="#FFDC9F"/>
<path d="M550.904 29.0848C550.904 29.0848 540.986 26.7533 534.814 23.9021C528.643 21.0508 520.941 18.7915 515.939 19.0441C510.936 19.2968 509.442 20.2568 509.442 20.2568L514.625 22.776L511.203 26.7172C511.203 26.7172 522.262 26.645 527.878 28.0526C533.493 29.4601 540.228 32.9033 544.638 33.423C549.049 33.9427 554.094 31.5101 554.094 31.5101L550.904 29.0848Z" fill="#F2BD7C"/>
<path d="M551.308 29.0991C551.308 29.0991 550.197 20.5599 552.146 20.0835C554.094 19.6071 553.358 19.7659 555.336 20.9425C557.314 22.1191 559.09 21.7726 559.97 22.9275C560.851 24.0824 559.465 28.8248 557.574 30.1458C555.683 31.4667 552.709 33.6827 551.799 32.0225C551.255 31.1516 551.078 30.1001 551.308 29.0991V29.0991Z" fill="#F1A06B"/>
<path d="M553.315 33.4085C553.315 33.4085 560.223 18.51 563.904 20.6394C567.585 22.7688 565.218 23.7432 566.279 25.6922C567.34 27.6411 568.228 27.771 568.011 29.4529C567.795 31.1348 559.696 37.855 553.315 33.4085Z" fill="#FFDC9F"/>
<path d="M554.643 32.1309C554.643 32.1309 552.03 19.0442 547.641 19.0803C543.253 19.1164 540.856 19.8021 542.372 22.8554C543.888 25.9088 543.404 25.0209 543.253 27.9804C543.101 30.9399 541.895 32.3908 543.816 33.1054C545.736 33.82 553.777 33.3364 554.643 32.1309Z" fill="#FFDC9F"/>
<path d="M28.364 49.5798L44.0133 44.8446L73.832 47.8402L57.6847 53.1168L28.364 49.5798Z" fill="#83D3EF"/>
<path d="M28.364 49.5798L31.338 84.9494L58.4787 88.0461L57.6847 53.1168L28.364 49.5798Z" fill="#4DB3D2"/>
<path d="M58.4789 88.0461L72.5329 82.4591L73.8321 47.8402L57.6848 53.1168L58.4789 88.0461Z" fill="#2F87BF"/>
<path d="M42.0065 51.2183L44.172 86.4147L46.8427 86.7179L46.0848 51.7164L42.0065 51.2183Z" fill="#5F58A5"/>
<path d="M48.5031 45.1622C48.5031 45.1622 35.8278 37.0705 30.8039 33.4614C25.7799 29.8523 21.218 24.6912 16.6272 22.071C14.0334 20.5455 11.1799 19.5128 8.21063 19.0248C8.21063 19.0248 15.0824 24.5396 16.0713 26.5463C16.0713 26.5463 6.95465 24.2076 4.19727 25.6801C4.19727 25.6801 15.3495 30.6896 20.0775 34.3926C24.8055 38.0955 41.8262 48.2084 44.7424 48.2011C47.6586 48.1939 48.5031 45.1622 48.5031 45.1622Z" fill="#5F58A5"/>
<path d="M42.0065 51.2184L51.3902 45.5882L55.3675 45.9852L46.0848 51.7165L42.0065 51.2184Z" fill="#726EB1"/>
<path d="M64.5349 50.8792L65.1412 85.397L67.8048 84.3359L68.8947 49.45L64.5349 50.8792Z" fill="#312869"/>
<path d="M68.8947 49.4498L39.9999 46.0573L35.0698 47.5514L64.5348 50.8791L68.8947 49.4498Z" fill="#726EB1"/>
<path d="M47.6008 44.0867C47.6008 44.0867 46.4026 36.5363 48.1133 36.0599C49.824 35.5835 49.1888 35.7351 51.0006 36.7384C52.8124 37.7418 54.3571 37.3737 55.1439 38.377C55.9307 39.3803 54.848 43.6247 53.2022 44.8735C51.5564 46.1222 48.9795 48.1433 48.1494 46.6925C47.8877 46.3172 47.7042 45.8931 47.61 45.4454C47.5157 44.9977 47.5126 44.5356 47.6008 44.0867V44.0867Z" fill="#5F58A5"/>
<path d="M46.6407 45.2777C46.6407 45.2777 46.6407 45.3643 46.7057 45.5087H46.9584L46.6407 45.2777Z" fill="#5F58A5"/>
<path d="M46.7057 45.5087C44.7423 45.552 31.7421 45.7253 26.4945 43.2927C23.071 41.7117 19.5031 40.4644 15.8403 39.5681L22.3367 45.4799L17.5871 47.9557C17.5871 47.9557 34.0087 52.4527 41.1981 51.4061C47.4491 50.4966 46.9366 46.5193 46.7057 45.5087Z" fill="#5F58A5"/>
<path d="M49.5064 47.8546C49.5064 47.8546 55.2449 34.4503 58.5654 36.2404C61.8858 38.0306 59.8141 38.9617 60.8175 40.6797C61.8208 42.3976 62.6004 42.4698 62.456 43.9712C62.3116 45.4726 55.2883 51.6298 49.5064 47.8546Z" fill="#726EB1"/>
<path d="M50.6541 46.6853C50.6541 46.6853 47.9544 35.1361 44.0999 35.2876C40.2453 35.4392 38.1231 36.1322 39.5162 38.7813C40.9094 41.4304 40.4907 40.6725 40.4402 43.3072C40.3897 45.9418 39.3502 47.2556 41.0754 47.8402C42.8006 48.4249 49.9178 47.7825 50.6541 46.6853Z" fill="#726EB1"/>
<path d="M465.456 89.1514C465.456 89.1514 469.939 71.5821 495.715 69.2073C521.492 66.8325 523.52 73.5383 544.201 72.6504C564.881 71.7626 602.986 62.7686 622.418 64.7969C641.849 66.8253 645.747 73.1052 645.747 73.1052V89.1514H465.456Z" fill="url(#paint0_linear)"/>
<path d="M17.6865 88.8354C17.6865 88.8354 55.8279 55.5014 109.561 55.8406C143.891 56.0572 165.077 63.954 175.904 69.6348C181.763 72.7175 188.553 73.5322 194.975 71.923C202.475 70.0462 213.295 68.5809 224.62 71.2661C245.344 76.1818 259.918 88.8354 259.918 88.8354H17.6865Z" fill="url(#paint1_linear)"/>
<defs>
<linearGradient id="paint0_linear" x1="555.605" y1="97.4885" x2="555.605" y2="55.2399" gradientUnits="userSpaceOnUse">
<stop stop-color="#5AAADB"/>
<stop offset="1" stop-color="white"/>
</linearGradient>
<linearGradient id="paint1_linear" x1="138.802" y1="92.2858" x2="138.802" y2="61.4348" gradientUnits="userSpaceOnUse">
<stop stop-color="#5AAADB"/>
<stop offset="1" stop-color="white"/>
</linearGradient>
</defs>
</svg>
