<svg xmlns="http://www.w3.org/2000/svg" width="19" height="19" viewBox="0 0 19 19">
    <g fill="#FFF" fill-rule="nonzero">
        <path d="M17.5 6.75h-4.013l5.507-5.506L17.756.006 12.25 5.513V1.5H10.5v7h7z"/>
        <path d="M15.75 11.125h-3.5c-.942 0-1.713.748-1.75 1.682-2.223-.354-3.913-2.049-4.295-4.31a1.75 1.75 0 0 0 1.67-1.747v-3.5c0-.965-.785-1.75-1.75-1.75h-3.5c-.965 0-1.75.785-1.75 1.75v4.375c0 5.79 4.71 10.5 10.5 10.5h4.375c.965 0 1.75-.785 1.75-1.75v-3.5c0-.965-.785-1.75-1.75-1.75zm-4.375 5.25c-4.825 0-8.75-3.924-8.75-8.75V3.25h3.5v3.5H5.25a.875.875 0 0 0-.875.889c.063 3.982 3.073 6.986 7 6.986a.875.875 0 0 0 .875-.875v-.875h3.5v3.5h-4.375z"/>
    </g>
</svg>
