<svg xmlns="http://www.w3.org/2000/svg" width="24" height="34" viewBox="0 0 24 34">
    <g fill="#FFF" fill-rule="nonzero">
        <path d="M4.5 12.41c0 4.135 3.364 7.5 7.5 7.5s7.5-3.365 7.5-7.5v-1.147l3.615-7.231L12 .328.885 4.033l3.615 7.23v1.146zm7.5 4.5a4.505 4.505 0 0 1-4.5-4.5h9c0 2.48-2.019 4.5-4.5 4.5zm0-13.418l6.885 2.293-1.812 3.624H6.927L5.115 5.785 12 3.492z"/>
        <circle cx="12" cy="6.409" r="1.5"/>
        <path d="M12 21.41c-7.065 0-12 3.7-12 9v3h24v-3c0-5.3-4.935-9-12-9zm-1.5 3.076v5.923H3c0-3.187 3.018-5.5 7.5-5.923zm3 5.923v-5.923c4.482.423 7.5 2.736 7.5 5.923h-7.5z"/>
    </g>
</svg>
