<?xml version="1.0" encoding="UTF-8"?>
<svg width="26px" height="29px" viewBox="0 0 26 29" version="1.1" xmlns="http://www.w3.org/2000/svg" xmlns:xlink="http://www.w3.org/1999/xlink">
    <!-- Generator: Sketch 47.1 (45422) - http://www.bohemiancoding.com/sketch -->
    <title>chair 1.1</title>
    <desc>Created with Sketch.</desc>
    <defs></defs>
    <g id="Page-1" stroke="none" stroke-width="1" fill="none" fill-rule="evenodd">
        <g id="chair-1.1" fill-rule="nonzero" fill="#FFFFFF">
            <g id="Outline">
                <g id="Group">
                    <path d="M25.7157143,15.7171429 C25.7157143,9.14428571 19.2371429,0.00285714286 12.8585714,0.00285714286 C6.48,0.00285714286 0.00142857143,9.14428571 0.00142857143,15.7171429 C0.00142857143,22.7142857 5.83142857,24.09 11.43,24.2628571 L11.43,25.7171429 L7.14428571,25.7171429 L7.14428571,28.5742857 L18.5728571,28.5742857 L18.5728571,25.7171429 L14.2871429,25.7171429 L14.2871429,24.2628571 C19.8857143,24.09 25.7157143,22.7142857 25.7157143,15.7171429 Z M2.85857143,15.7171429 C2.85857143,10.64 8.22142857,2.86 12.8585714,2.86 C17.4957143,2.86 22.8585714,10.64 22.8585714,15.7171429 C22.8585714,18.6071429 22.0857143,21.4314286 12.8585714,21.4314286 C3.63142857,21.4314286 2.85857143,18.6071429 2.85857143,15.7171429 Z" id="Shape"></path>
                    <path d="M17.1442857,18.5742857 L20.0014286,18.5742857 C20.0014286,16.0485714 16.2371429,14.2885714 12.8585714,14.2885714 C9.48,14.2885714 5.71571429,16.0485714 5.71571429,18.5742857 L8.56142857,18.6585714 C8.74571429,18.1971429 10.5614286,17.1457143 12.8585714,17.1457143 C15.1557143,17.1457143 16.9714286,18.1971429 17.1442857,18.5742857 Z" id="Shape"></path>
                </g>
            </g>
        </g>
    </g>
</svg>