<svg xmlns="http://www.w3.org/2000/svg" width="29" height="29" viewBox="0 0 29 29">
    <g fill="#FFF" fill-rule="nonzero">
        <path d="M26.145 0H3.313A2.857 2.857 0 0 0 .459 2.854v22.832a2.857 2.857 0 0 0 2.854 2.854h22.832a2.857 2.857 0 0 0 2.854-2.854V2.854A2.857 2.857 0 0 0 26.145 0zm0 2.854v5.708h-.591l-2.263 2.263L17.464 5l-5.708 7.135L7.594 7.97l-3.445 3.445h-.836V2.854h22.832zM3.313 25.686V14.27H5.33l2.263-2.262 4.4 4.4L17.7 9.272l5.59 5.589 2.854-2.854v13.678H3.313z"/>
        <path d="M4.74 19.978h2.854v4.278H4.74zM10.448 17.124h2.854v7.132h-2.854zM16.157 19.978h2.854v4.278h-2.854zM21.865 17.124h2.854v7.132h-2.854z"/>
    </g>
</svg>
