<svg xmlns="http://www.w3.org/2000/svg" width="33" height="29" viewBox="0 0 33 29">
    <path fill="#FFF" fill-rule="nonzero" d="M32.635 8.421a1.576 1.576 0 0 0-1.207-.564H22V1.571C22 .704 21.296 0 20.428 0h-4.714a1.57 1.57 0 0 0-1.444.952L9.964 11H9.43c0-.867-.704-1.571-1.572-1.571H1.571c-.867 0-1.571.704-1.571 1.57v15.715c0 .868.704 1.572 1.571 1.572h6.286c.868 0 1.572-.704 1.572-1.572v-.82l5.7 2.28c.188.074.386.112.585.112h12.572c.759 0 1.41-.544 1.546-1.29L32.975 9.71c.083-.46-.041-.93-.34-1.289zM6.285 25.143H3.144V12.57h3.143v12.572zm20.69 0H16.017L9.43 22.507v-8.364h1.57a1.57 1.57 0 0 0 1.445-.953L16.75 3.143h2.107v6.286c0 .867.704 1.57 1.571 1.57h9.118l-2.571 14.144z"/>
</svg>
