<svg xmlns="http://www.w3.org/2000/svg" width="35" height="29" viewBox="0 0 35 29">
    <g fill="#FFF" fill-rule="nonzero">
        <path d="M34.12 8.31L18.211.503a1.617 1.617 0 0 0-1.424 0L.878 8.31a1.57 1.57 0 0 0-.708.723 1.91 1.91 0 0 0-.17.675v9.002c0 .86.713 1.561 1.59 1.561.88 0 1.592-.701 1.592-1.561v-6.694l3.182 1.249v7.656c0 .591.34 1.132.88 1.397 2.734 1.341 5.545 2.997 10.256 2.997 4.71 0 7.523-1.657 10.257-2.997.539-.267.88-.806.88-1.397v-7.656L34 11.158c.58-.227.972-.77.997-1.385a1.56 1.56 0 0 0-.878-1.463zm-8.665 11.646l-1.552.76a14.622 14.622 0 0 1-12.806 0l-1.552-.76v-5.442l7.363 2.892c.191.075.392.11.592.11.2 0 .4-.035.592-.112l7.363-2.892v5.444zM17.5 14.272L5.471 9.549 17.5 3.648l12.029 5.9L17.5 14.273zM1.59 22.2c-.877 0-1.59.699-1.59 1.56v3.124c0 .863.713 1.561 1.59 1.561.88 0 1.592-.698 1.592-1.561V23.76c0-.862-.713-1.562-1.591-1.562z"/>
    </g>
</svg>
