<svg width="184" height="140" viewBox="0 0 184 140" fill="none" xmlns="http://www.w3.org/2000/svg">
<path d="M184.001 46.0938L174.816 47.29L177.557 56.1353L162.81 46.672L169.252 36.6305L184.001 46.0938Z" fill="#0386E9"/>
<path d="M168.894 66.1014L159.636 65.8291L160.945 74.9991L147.876 63.3234L155.827 54.4258L168.894 66.1014Z" fill="#FECB17"/>
<path d="M151.411 84.3765L142.262 82.9498L142.41 92.2099L130.909 78.9902L139.909 71.1568L151.411 84.3765Z" fill="#FB446C"/>
<path d="M132.006 99.9615L123.04 97.6464L122.283 106.877L112.126 92.5953L121.85 85.6796L132.006 99.9615Z" fill="#6EA00E"/>
<path d="M110.126 114.549L101.668 110.772L99.3843 119.747L91.75 103.973L102.489 98.7757L110.126 114.549Z" fill="#703CD5"/>
<path d="M87.6796 124.668L79.5027 120.321L76.6115 129.12L70.0708 112.863L81.141 108.411L87.6796 124.668Z" fill="#0386E9"/>
<path d="M62.545 133.329L55.1893 127.702L50.8945 135.906L47.1108 118.796L58.7614 116.219L62.545 133.329Z" fill="#FECB17"/>
<path d="M39.4765 138.154L32.7346 131.802L27.6227 139.526L25.6094 122.116L37.461 120.746L39.4765 138.154Z" fill="#FB446C"/>
<path d="M181.64 0.178879C181.732 0.214494 181.514 1.00013 181.011 2.46666C180.76 3.19993 180.44 4.10289 180.052 5.16927C179.855 5.70141 179.645 6.27335 179.423 6.8872C179.201 7.50104 178.908 8.13165 178.625 8.81044C178.05 10.168 177.409 11.6723 176.704 13.3232C176.534 13.7422 176.331 14.1486 176.13 14.5697C175.929 14.9908 175.724 15.4224 175.512 15.8603L174.2 18.5838C173.973 19.0559 173.741 19.5357 173.505 20.0231C173.274 20.5133 172.998 20.991 172.74 21.4896L171.11 24.5421C170.027 26.6581 168.718 28.8013 167.383 31.0786C167.048 31.6457 166.709 32.2211 166.367 32.8049C166.019 33.3832 165.638 33.9488 165.267 34.5333C164.519 35.694 163.755 36.8812 162.975 38.0949C162.778 38.3966 162.583 38.7004 162.387 39.0063C162.19 39.3121 161.968 39.6054 161.758 39.9092L160.48 41.7319C159.615 42.9533 158.754 44.2145 157.836 45.4674L154.964 49.2384C154.474 49.8669 153.994 50.5248 153.485 51.1596C152.976 51.7944 152.437 52.4166 151.916 53.0598C151.394 53.703 150.855 54.3378 150.321 54.9851L149.517 55.9593C149.246 56.2841 148.98 56.6151 148.691 56.9272L145.241 60.7821C144.097 62.1041 142.836 63.3464 141.597 64.6391C140.359 65.9317 139.111 67.2474 137.77 68.4898L133.758 72.3174L129.517 76.0571C123.559 81.1752 117.294 85.9244 110.756 90.2782C104.18 94.5708 97.347 98.4573 90.2962 101.916L85.1864 104.338L80.085 106.513C78.409 107.258 76.7078 107.864 75.0381 108.509C73.3683 109.154 71.7237 109.806 70.0581 110.336L65.1432 111.972C64.743 112.115 64.3345 112.23 63.9281 112.349L62.7171 112.706L60.3183 113.41L57.953 114.103C57.1674 114.312 56.3796 114.503 55.6024 114.704L51.0079 115.857C49.4953 116.206 47.9974 116.5 46.5329 116.812L44.3541 117.269C43.9937 117.34 43.6397 117.426 43.2793 117.478L42.2088 117.66L38.0334 118.362C37.3525 118.473 36.68 118.601 36.0116 118.691L34.0255 118.945C31.4067 119.274 28.9199 119.63 26.5483 119.783L23.0999 120.076C22.5426 120.118 21.9958 120.183 21.4532 120.202L19.8568 120.271L16.8295 120.401L15.3985 120.459C14.9314 120.478 14.4746 120.501 14.0263 120.495L9.1218 120.48C8.38645 120.48 7.69089 120.48 7.03933 120.455L5.21246 120.357C4.07904 120.294 3.11742 120.231 2.35064 120.172C0.804495 120.074 0 119.965 0 119.866C0 119.768 0.819161 119.688 2.36321 119.621C3.13628 119.59 4.09161 119.561 5.21874 119.535L7.03724 119.5C7.6867 119.481 8.37807 119.431 9.10923 119.397L13.9739 119.165C14.4181 119.152 14.8706 119.108 15.3336 119.07L16.7498 118.953L19.7458 118.712L21.3233 118.586C21.8596 118.551 22.4002 118.467 22.9512 118.408L26.3556 118.01C28.6979 117.782 31.1511 117.361 33.7322 116.975L35.6911 116.676C36.351 116.573 37.0131 116.431 37.6835 116.307L41.7961 115.534L42.8436 115.324C43.1976 115.259 43.5475 115.167 43.9037 115.09L46.0469 114.599C47.4883 114.262 48.9632 113.948 50.4465 113.579L54.9655 112.368C55.7302 112.159 56.5053 111.968 57.27 111.74L59.5955 111.025L61.9692 110.296L63.1613 109.932C63.5593 109.808 63.9616 109.691 64.3554 109.546L69.174 107.87C70.8103 107.332 72.4213 106.653 74.068 106.02C75.7148 105.388 77.3845 104.763 79.027 104.011L84.0383 101.832L89.0664 99.4188C95.9963 95.9797 102.719 92.1378 109.2 87.9129C115.639 83.6249 121.821 78.9632 127.714 73.9515L131.904 70.2894C133.245 69.0324 134.571 67.7837 135.884 66.5435C137.219 65.3304 138.442 64.0294 139.687 62.7724C140.931 61.5154 142.176 60.2982 143.315 59.0013L146.762 55.2303C147.051 54.9244 147.317 54.6017 147.587 54.2833L148.394 53.3342L149.99 51.4487L151.566 49.5946C152.077 48.9661 152.561 48.3376 153.053 47.7091L155.949 44.0323C156.875 42.8109 157.744 41.5811 158.622 40.389L159.921 38.6124C160.13 38.317 160.354 38.0321 160.549 37.7325L161.148 36.8421C161.945 35.6605 162.725 34.504 163.491 33.3727C163.868 32.8028 164.26 32.2519 164.616 31.6862L165.663 30.0102C167.038 27.7894 168.387 25.7007 169.526 23.6391C170.113 22.6182 170.682 21.6272 171.234 20.6663C171.506 20.1844 171.795 19.7193 172.04 19.2416L172.778 17.8401C173.264 16.9224 173.733 16.0369 174.184 15.1836C174.41 14.7646 174.632 14.3455 174.848 13.9265C175.064 13.5075 175.286 13.1178 175.476 12.7135L177.609 8.33487C177.93 7.67703 178.238 7.06109 178.52 6.47448C178.803 5.88786 179.038 5.32849 179.27 4.8152C179.738 3.78863 180.142 2.92967 180.475 2.22573C181.148 0.859768 181.546 0.143263 181.64 0.178879Z" fill="#511623"/>
</svg>
