<?xml version="1.0" encoding="UTF-8"?>
<svg width="112px" height="43px" viewBox="0 0 112 43" version="1.1" xmlns="http://www.w3.org/2000/svg" xmlns:xlink="http://www.w3.org/1999/xlink">
    <!-- Generator: Sketch 47.1 (45422) - http://www.bohemiancoding.com/sketch -->
    <title>logo</title>
    <desc>Created with Sketch.</desc>
    <defs></defs>
    <g id="Page-1" stroke="none" stroke-width="1" fill="none" fill-rule="evenodd">
        <g id="Artboard" transform="translate(-230.000000, -110.000000)" fill="#EE4136">
            <g id="Page-1" transform="translate(230.000000, 110.000000)">
                <path d="M103.03187,32.6112394 C103.03187,33.3723719 102.460874,33.9432213 101.699545,33.9432213 L95.9895808,33.9432213 C95.2282523,33.9432213 94.6572559,33.3723719 94.6572559,32.6112394 L94.6572559,24.0484991 L89.9328335,24.0484991 L89.9328335,17.5778767 L94.6572559,17.5778767 L94.6572559,8.63457014 C94.6572559,7.87343766 95.2282523,7.3025883 95.9895808,7.3025883 L101.699545,7.3025883 C102.460874,7.3025883 103.03187,7.87343766 103.03187,8.63457014 L103.03187,32.6112394 Z M88.599512,24.0484991 L83.6169953,24.0484991 L83.6169953,32.6112394 C83.6169953,33.3723719 83.0459989,33.9432213 82.2846704,33.9432213 L76.5747062,33.9432213 C75.8133777,33.9432213 75.2423813,33.3723719 75.2423813,32.6112394 L75.2423813,8.63457014 C75.2423813,7.87343766 75.8133777,7.3025883 76.5747062,7.3025883 L82.2846704,7.3025883 C83.0459989,7.3025883 83.6169953,7.87343766 83.6169953,8.63457014 L83.6169953,17.5778767 L88.599512,17.5778767 L88.599512,24.0484991 Z M71.3221371,33.9432213 L64.8508444,33.9432213 C64.5279773,33.9432213 64.2260368,33.8396116 63.9619634,33.6642722 L52.8609162,7.3025883 L59.9022088,7.3025883 C60.6635374,7.3025883 61.2724009,7.83558028 61.6151981,8.59671276 L72.2737978,32.6112394 C72.616595,33.3723719 72.0834657,33.9432213 71.3221371,33.9432213 L71.3221371,33.9432213 Z M51.2117032,29.1861433 L53.9570699,22.9068003 L57.9859329,22.9068003 L60.6296563,29.1861433 L51.2117032,29.1861433 Z M46.7682948,33.9432213 L40.6776664,33.9432213 C39.9163378,33.9432213 39.3832085,33.3723719 39.7260057,32.6112394 L50.3846054,8.63457014 C50.6277522,8.09560067 51.003434,7.65326714 51.4727871,7.44106659 L55.2455487,16.3993169 L52.4792554,22.9068003 L52.502175,22.9068003 L47.871424,33.497899 C47.5615115,33.7738593 47.1818437,33.9432213 46.7682948,33.9432213 L46.7682948,33.9432213 Z M36.7574222,32.6112394 C36.7574222,33.3723719 36.1864258,33.9432213 35.4250973,33.9432213 L29.7151331,33.9432213 C28.9538046,33.9432213 28.3828082,33.3723719 28.3828082,32.6112394 L28.3828082,13.7722144 L23.3953089,13.7722144 L23.3953089,7.3025883 L35.4250973,7.3025883 C36.1864258,7.3025883 36.7574222,7.87343766 36.7574222,8.63457014 L36.7574222,32.6112394 Z M22.0619875,13.7722144 L17.3435441,13.7722144 L17.3435441,32.6112394 C17.3435441,33.3723719 16.7725477,33.9432213 16.0112192,33.9432213 L10.3002585,33.9432213 C9.53892998,33.9432213 8.96793357,33.3723719 8.96793357,32.6112394 L8.96793357,8.63457014 C8.96793357,7.87343766 9.53892998,7.3025883 10.3002585,7.3025883 L22.0619875,7.3025883 L22.0619875,13.7722144 Z M109.2929,0.0001 L2.70690307,0.0001 C1.21214806,0.0001 0.0004,1.21153599 0.0004,2.70590603 L0.0004,40.294294 C0.0004,41.788664 1.21214806,43.0001 2.70690307,43.0001 L109.2929,43.0001 C110.787655,43.0001 112.0004,41.788664 112.0004,40.294294 L112.0004,2.70590603 C112.0004,1.21153599 110.787655,0.0001 109.2929,0.0001 L109.2929,0.0001 Z" id="logo"></path>
            </g>
        </g>
    </g>
</svg>