<?xml version="1.0" encoding="UTF-8"?>
<svg width="268px" height="350px" viewBox="0 0 268 350" version="1.1" xmlns="http://www.w3.org/2000/svg" xmlns:xlink="http://www.w3.org/1999/xlink">
    <!-- Generator: Sketch 47.1 (45422) - http://www.bohemiancoding.com/sketch -->
    <title>man-woman</title>
    <desc>Created with Sketch.</desc>
    <defs>
        <polygon id="path-1" points="0 349.212 267.284 349.212 267.284 0 0 0"></polygon>
        <polygon id="path-3" points="0 349.212 267.284 349.212 267.284 0 0 0"></polygon>
        <polygon id="path-5" points="0 349.212 267.284 349.212 267.284 0 0 0"></polygon>
        <polygon id="path-7" points="0 349.212 267.284 349.212 267.284 0 0 0"></polygon>
        <polygon id="path-9" points="0 349.212 267.284 349.212 267.284 0 0 0"></polygon>
        <polygon id="path-11" points="0 349.212 267.284 349.212 267.284 0 0 0"></polygon>
        <polygon id="path-13" points="0 349.212 267.284 349.212 267.284 0 0 0"></polygon>
        <polygon id="path-15" points="0 349.212 267.284 349.212 267.284 0 0 0"></polygon>
        <polygon id="path-17" points="0 349.212 267.284 349.212 267.284 0 0 0"></polygon>
        <polygon id="path-19" points="0 349.212 267.284 349.212 267.284 0 0 0"></polygon>
        <polygon id="path-21" points="0 349.212 267.284 349.212 267.284 0 0 0"></polygon>
        <polygon id="path-23" points="0 349.212 267.284 349.212 267.284 0 0 0"></polygon>
        <polygon id="path-25" points="0 349.212 267.284 349.212 267.284 0 0 0"></polygon>
        <polygon id="path-27" points="0 349.212 267.284 349.212 267.284 0 0 0"></polygon>
        <polygon id="path-29" points="0 349.212 267.284 349.212 267.284 0 0 0"></polygon>
        <polygon id="path-31" points="0 349.212 267.284 349.212 267.284 0 0 0"></polygon>
        <polygon id="path-33" points="0 349.212 267.284 349.212 267.284 0 0 0"></polygon>
        <polygon id="path-35" points="0 349.212 267.284 349.212 267.284 0 0 0"></polygon>
        <polygon id="path-37" points="0 349.212 267.284 349.212 267.284 0 0 0"></polygon>
        <polygon id="path-39" points="0 349.212 267.284 349.212 267.284 0 0 0"></polygon>
        <polygon id="path-41" points="0 349.212 267.284 349.212 267.284 0 0 0"></polygon>
        <polygon id="path-43" points="0 349.212 267.284 349.212 267.284 0 0 0"></polygon>
        <polygon id="path-45" points="0 349.212 267.284 349.212 267.284 0 0 0"></polygon>
        <polygon id="path-47" points="0 349.212 267.284 349.212 267.284 0 0 0"></polygon>
        <polygon id="path-49" points="0 349.212 267.284 349.212 267.284 0 0 0"></polygon>
        <polygon id="path-51" points="0 349.212 267.284 349.212 267.284 0 0 0"></polygon>
        <polygon id="path-53" points="0 349.212 267.284 349.212 267.284 0 0 0"></polygon>
        <polygon id="path-55" points="0 349.212 267.284 349.212 267.284 0 0 0"></polygon>
        <polygon id="path-57" points="0 349.212 267.284 349.212 267.284 0 0 0"></polygon>
        <polygon id="path-59" points="0 349.212 267.284 349.212 267.284 0 0 0"></polygon>
        <polygon id="path-61" points="0 349.212 267.284 349.212 267.284 0 0 0"></polygon>
        <polygon id="path-63" points="0 349.212 267.284 349.212 267.284 0 0 0"></polygon>
        <polygon id="path-65" points="0 349.212 267.284 349.212 267.284 0 0 0"></polygon>
        <polygon id="path-67" points="0 349.212 267.284 349.212 267.284 0 0 0"></polygon>
        <polygon id="path-69" points="0 349.212 267.284 349.212 267.284 0 0 0"></polygon>
        <polygon id="path-71" points="0 349.212 267.284 349.212 267.284 0 0 0"></polygon>
        <polygon id="path-73" points="0 349.212 267.284 349.212 267.284 0 0 0"></polygon>
        <polygon id="path-75" points="0 349.212 267.284 349.212 267.284 0 0 0"></polygon>
        <polygon id="path-77" points="0 349.212 267.284 349.212 267.284 0 0 0"></polygon>
        <linearGradient x1="0%" y1="40.3376506%" x2="50%" y2="55.2137042%" id="linearGradient-79">
            <stop stop-color="#F7AB6E" offset="0%"></stop>
            <stop stop-color="#FFC495" offset="100%"></stop>
        </linearGradient>
        <polygon id="path-80" points="0 349.212 267.284 349.212 267.284 0 0 0"></polygon>
        <polygon id="path-82" points="0 349.212 267.284 349.212 267.284 0 0 0"></polygon>
        <polygon id="path-84" points="0 349.212 267.284 349.212 267.284 0 0 0"></polygon>
        <polygon id="path-86" points="0 349.212 267.284 349.212 267.284 0 0 0"></polygon>
        <polygon id="path-88" points="0 349.212 267.284 349.212 267.284 0 0 0"></polygon>
        <polygon id="path-90" points="0 349.212 267.284 349.212 267.284 0 0 0"></polygon>
        <polygon id="path-92" points="0 349.212 267.284 349.212 267.284 0 0 0"></polygon>
        <polygon id="path-94" points="0 349.212 267.284 349.212 267.284 0 0 0"></polygon>
        <polygon id="path-96" points="0 349.212 267.284 349.212 267.284 0 0 0"></polygon>
        <polygon id="path-98" points="0 349.212 267.284 349.212 267.284 0 0 0"></polygon>
        <polygon id="path-100" points="0 349.212 267.284 349.212 267.284 0 0 0"></polygon>
        <polygon id="path-102" points="0 349.212 267.284 349.212 267.284 0 0 0"></polygon>
        <polygon id="path-104" points="0 349.212 267.284 349.212 267.284 0 0 0"></polygon>
    </defs>
    <g id="Page-1" stroke="none" stroke-width="1" fill="none" fill-rule="evenodd">
        <g id="man-woman">
            <path d="M9.007,45.73 C5.145,44.85 0.085,39.96 0.968,36.1 C1.846,32.24 5.689,29.831 9.548,30.706 C13.405,31.584 18.045,36.821 17.167,40.676 C16.29,44.537 12.859,46.616 9.007,45.73 L9.007,45.73 Z" id="Shape" fill="#8E3925" fill-rule="nonzero"></path>
            <path d="M159.471,330.95 C159.367,331.49 158.177,342.368 158.177,342.368 C158.177,342.368 152.786,342.445 152.679,342.086 C152.576,341.727 152.679,329.656 152.679,329.656 L159.471,330.95 Z" id="Shape" fill="#080E32" fill-rule="nonzero"></path>
            <g id="Clipped">
                <mask id="mask-2" fill="white">
                    <use xlink:href="#path-1"></use>
                </mask>
                <g id="a"></g>
                <polygon id="Shape" fill="#2A334C" fill-rule="nonzero" mask="url(#mask-2)" points="251.556 208.346 254.621 208.346 254.621 193.29 251.556 193.29"></polygon>
            </g>
            <g id="Clipped">
                <mask id="mask-4" fill="white">
                    <use xlink:href="#path-3"></use>
                </mask>
                <g id="a"></g>
                <path d="M220.564,342.368 L217.582,336.113 L209.204,335.529 L207.577,343.416 L207.577,349.213 L222.907,349.213 L222.907,344.287 L220.564,342.368 Z M151.267,335.534 L156.731,335.53 L161.275,342.848 L161.275,348.652 L129.887,348.652 L129.887,343.722 L151.267,335.534 Z" id="Shape" fill="#080E32" fill-rule="nonzero" mask="url(#mask-4)"></path>
            </g>
            <g id="Clipped">
                <mask id="mask-6" fill="white">
                    <use xlink:href="#path-5"></use>
                </mask>
                <g id="a"></g>
                <polygon id="Shape" fill="#2A334C" fill-rule="nonzero" mask="url(#mask-6)" points="219.18 328.577 217.644 337.477 209.184 337.477 208.462 327.621"></polygon>
            </g>
            <g id="Clipped">
                <mask id="mask-8" fill="white">
                    <use xlink:href="#path-7"></use>
                </mask>
                <g id="a"></g>
                <polygon id="Shape" fill="#080E32" fill-rule="nonzero" mask="url(#mask-8)" points="226.763 157.55 226.69 181.152 215.119 189.765 176.232 179.315 175.755 153.948"></polygon>
            </g>
            <g id="Clipped">
                <mask id="mask-10" fill="white">
                    <use xlink:href="#path-9"></use>
                </mask>
                <g id="a"></g>
                <polygon id="Shape" fill="#080E32" fill-rule="nonzero" mask="url(#mask-10)" points="201.52 181.004 160.403 341.041 149.089 336.372 168.103 160.072"></polygon>
            </g>
            <g id="Clipped">
                <mask id="mask-12" fill="white">
                    <use xlink:href="#path-11"></use>
                </mask>
                <g id="a"></g>
                <path d="M170.548,145.907 C170.683,145.171 170.759,144.395 170.688,143.555 C168.438,117.126 168.882,92.647 161.275,67.295 C169.905,63.817 178.777,54.932 185.903,53.35 C199.275,50.391 221.973,58.937 229.569,62.9 C231.92,64.125 234.049,62.12 235.202,62.891 C238.5,65.115 223.59,115.157 221.595,133.544 L223.438,156.639 L175.167,164.495 C175.167,164.495 169.089,162.285 171.027,149.548 C171.117,148.956 170.931,147.672 170.548,145.907" id="Shape" fill="#FFFFFF" fill-rule="nonzero" mask="url(#mask-12)"></path>
            </g>
            <g id="Clipped">
                <mask id="mask-14" fill="white">
                    <use xlink:href="#path-13"></use>
                </mask>
                <g id="a"></g>
                <path d="M202.958,55.108 C203.055,57.892 202.025,56.158 193.575,56.886 C183.31,57.773 184.221,56.276 183.707,49.568 C183.374,45.232 182.021,26.046 182.021,26.046 L200.121,30.468 C200.121,30.468 202.855,52.33 202.958,55.108" id="Shape" fill="#F6AE76" fill-rule="nonzero" mask="url(#mask-14)"></path>
            </g>
            <g id="Clipped">
                <mask id="mask-16" fill="white">
                    <use xlink:href="#path-15"></use>
                </mask>
                <g id="a"></g>
                <path d="M237.241,61.32 C244.961,81.793 258.148,128.582 258.148,128.582 L240.298,124.846 C235.125,120.279 222.881,95.247 222.907,92.367 C222.954,85.989 236.234,58.649 237.241,61.321" id="Shape" fill="#2A334C" fill-rule="nonzero" mask="url(#mask-16)"></path>
            </g>
            <g id="Clipped">
                <mask id="mask-18" fill="white">
                    <use xlink:href="#path-17"></use>
                </mask>
                <g id="a"></g>
                <polygon id="Shape" fill="#FFB288" fill-rule="nonzero" mask="url(#mask-18)" points="226.855 146.016 226.569 145.478 227.509 145.695"></polygon>
            </g>
            <g id="Clipped">
                <mask id="mask-20" fill="white">
                    <use xlink:href="#path-19"></use>
                </mask>
                <g id="a"></g>
                <path d="M148.037,126.655 C148.037,126.662 139.01,117.56 139.01,117.56 L133.949,109.173 C133.949,109.173 154.622,71.484 158.555,65.503 C161.287,67.74 169.715,88.459 169.715,88.459 L148.037,126.655 Z" id="Shape" fill="#2A334C" fill-rule="nonzero" mask="url(#mask-20)"></path>
            </g>
            <g id="Clipped">
                <mask id="mask-22" fill="white">
                    <use xlink:href="#path-21"></use>
                </mask>
                <g id="a"></g>
                <path d="M198.538,168.73 L232.34,168.73 C232.34,168.73 220.102,332.66 218.597,337.476 C214.857,339.296 210.973,338.276 208.462,337.039 C207.291,325.363 198.538,168.73 198.538,168.73" id="Shape" fill="#080E32" fill-rule="nonzero" mask="url(#mask-22)"></path>
            </g>
            <g id="Clipped">
                <mask id="mask-24" fill="white">
                    <use xlink:href="#path-23"></use>
                </mask>
                <g id="a"></g>
                <path d="M202.252,48.151 L205.195,55.421 C205.195,55.421 195.929,66.912 196.562,67.286 C197.201,67.65 188.648,57.185 188.648,57.185 L202.252,48.151 Z M185.38,65.828 L188.648,57.185 L182.828,49.046 L181.108,54.9 L185.38,65.828 Z" id="Shape" fill="#FAFCFC" fill-rule="nonzero" mask="url(#mask-24)"></path>
            </g>
            <g id="Clipped">
                <mask id="mask-26" fill="white">
                    <use xlink:href="#path-25"></use>
                </mask>
                <g id="a"></g>
                <path d="M203.875,52.16 L210.005,184.405 L233.818,182.827 L231.296,87.49 L237.241,61.321 L203.875,52.16 Z M181.108,54.9 L184.878,185.103 L163.974,184.01 L160.097,86.309 L158.555,65.505 L181.108,54.9 Z" id="Shape" fill="#2A334C" fill-rule="nonzero" mask="url(#mask-26)"></path>
            </g>
            <g id="Clipped">
                <mask id="mask-28" fill="white">
                    <use xlink:href="#path-27"></use>
                </mask>
                <g id="a"></g>
                <polygon id="Shape" fill="#EF4035" fill-rule="nonzero" mask="url(#mask-28)" points="188.934 57.194 190.827 61.054 190.154 62.639 189.411 64.387 187.031 61.767"></polygon>
            </g>
            <g id="Clipped">
                <mask id="mask-30" fill="white">
                    <use xlink:href="#path-29"></use>
                </mask>
                <g id="a"></g>
                <polygon id="Shape" fill="#EF4035" fill-rule="nonzero" mask="url(#mask-30)" points="195.563 145.454 190.806 138.565 188.061 62.487 190.031 61.991 198.034 136.357"></polygon>
            </g>
            <g id="Clipped">
                <mask id="mask-32" fill="white">
                    <use xlink:href="#path-31"></use>
                </mask>
                <g id="a"></g>
                <path d="M250.161,168.648 L253.401,169.935 L257.438,190.05 L250.962,199.368 L242.632,197.98 L245.914,179.55 L250.161,168.648 Z M114.348,126.441 L116.198,134.881 L108.636,135.665 L94.721,146.016 L85.885,146.822 L81.231,136.632 L93.614,130.164 L114.348,126.441 Z" id="Shape" fill="#F9B47E" fill-rule="nonzero" mask="url(#mask-32)"></path>
            </g>
            <g id="Clipped">
                <mask id="mask-34" fill="white">
                    <use xlink:href="#path-33"></use>
                </mask>
                <g id="a"></g>
                <path d="M242.837,181.868 L242.837,168.648 L248.2,175.218 L257.227,170.14 L257.227,185.103 L242.837,181.868 Z M101.808,128.166 L113.975,122.98 L110.029,130.496 L116.892,136.81 L103.589,141.108 L101.808,128.166 Z" id="Shape" fill="#FAFCFC" fill-rule="nonzero" mask="url(#mask-34)"></path>
            </g>
            <g id="Clipped">
                <mask id="mask-36" fill="white">
                    <use xlink:href="#path-35"></use>
                </mask>
                <g id="a"></g>
                <path d="M241.74,176.11 C240.707,161.59 237.4,118.884 236.704,118.577 L243.51,112.363 L258.148,128.583 L258.148,171.848 L257.802,176.866 C252.452,176.509 247.098,176.266 241.74,176.11 M104.79,124.703 C114.973,120.491 140.205,105.743 140.205,105.743 L152.359,110.216 L148.037,126.656 L111.325,139.448 L108.959,140.218 C107.643249,135.026846 106.253776,129.854657 104.791,124.703" id="Shape" fill="#2A334C" fill-rule="nonzero" mask="url(#mask-36)"></path>
            </g>
            <g id="Clipped">
                <mask id="mask-38" fill="white">
                    <use xlink:href="#path-37"></use>
                </mask>
                <g id="a"></g>
                <polygon id="Shape" fill="#080E32" fill-rule="nonzero" mask="url(#mask-38)" points="232.777 254.505 267.284 254.505 267.284 202.365 232.777 202.365"></polygon>
            </g>
            <g id="Clipped">
                <mask id="mask-40" fill="white">
                    <use xlink:href="#path-39"></use>
                </mask>
                <g id="a"></g>
                <polygon id="Shape" fill="#2A334C" fill-rule="nonzero" mask="url(#mask-40)" points="245.955 208.346 249.017 208.346 249.017 193.29 245.955 193.29"></polygon>
            </g>
            <g id="Clipped">
                <mask id="mask-42" fill="white">
                    <use xlink:href="#path-41"></use>
                </mask>
                <g id="a"></g>
                <polygon id="Shape" fill="#373747" fill-rule="nonzero" mask="url(#mask-42)" points="239.913 230.721 267.283 230.721 267.283 202.365 239.913 202.365"></polygon>
            </g>
            <g id="Clipped">
                <mask id="mask-44" fill="white">
                    <use xlink:href="#path-43"></use>
                </mask>
                <g id="a"></g>
                <polygon id="Shape" fill="#FFFFFF" fill-rule="nonzero" mask="url(#mask-44)" points="250.033 234.888 254.621 234.888 254.621 228.435 250.033 228.435"></polygon>
            </g>
            <g id="Clipped">
                <mask id="mask-46" fill="white">
                    <use xlink:href="#path-45"></use>
                </mask>
                <g id="a"></g>
                <path d="M175.33,21.705 L174.753,10.079 L194.928,8.299 L203.344,17.528 L205.156,31.736 C203.631,32.7 198.305,32.126 198.021,33.841 C197.426,37.429 197.12,42.346 197.12,42.346 C197.12,42.346 181.038,51.766 179.45,49.079 C178.62,47.682 175.319,37.709 175.319,37.709 C175.319,37.709 172.416,37.679 170.746,36.504 C173.581,31.393 175.331,21.705 175.331,21.705" id="Shape" fill="#FFC495" fill-rule="nonzero" mask="url(#mask-46)"></path>
            </g>
            <g id="Clipped">
                <mask id="mask-48" fill="white">
                    <use xlink:href="#path-47"></use>
                </mask>
                <g id="a"></g>
                <path d="M209.505,21.831 L200.572,42.964 L199.546,32.202 L195.094,33.663 L191.794,23.361 L190.676,13.661 L174.53,13.418 C174.53,13.418 173.366,10.015 173.478,1.318 C173.56,-4.758 208.623,12.151 208.623,12.151 L209.505,21.831 Z" id="Shape" fill="#080E32" fill-rule="nonzero" mask="url(#mask-48)"></path>
            </g>
            <g id="Clipped">
                <mask id="mask-50" fill="white">
                    <use xlink:href="#path-49"></use>
                </mask>
                <g id="a"></g>
                <path d="M202.23,24.365 C204.856,26.283 202.875,30.292 201.645,32.462 C200.605,34.306 196.827,37.18 194.565,34.845 L196.853,26.096 C197.326,23.902 200.459,23.081 202.23,24.365" id="Shape" fill="#FFB288" fill-rule="nonzero" mask="url(#mask-50)"></path>
            </g>
            <g id="Clipped">
                <mask id="mask-52" fill="white">
                    <use xlink:href="#path-51"></use>
                </mask>
                <g id="a"></g>
                <polygon id="Shape" fill="#262432" fill-rule="nonzero" mask="url(#mask-52)" points="44.973 193.059 48.172 193.059 48.172 177.336 44.973 177.336"></polygon>
            </g>
            <g id="Clipped">
                <mask id="mask-54" fill="white">
                    <use xlink:href="#path-53"></use>
                </mask>
                <g id="a"></g>
                <path d="M56.189,182.938 C56.189,182.938 51.605,184.79 51.599,184.79 C51,185.02 46.903,180.02 46.498,179.565 C44.118,176.944 45.513,165.369 46.326,161.818 C46.776,159.868 51.481,156.241 51.481,156.241 L54.417,166.103 L56.189,182.938 L56.189,182.938 Z" id="Shape" fill="#F9B47E" fill-rule="nonzero" mask="url(#mask-54)"></path>
            </g>
            <g id="Clipped">
                <mask id="mask-56" fill="white">
                    <use xlink:href="#path-55"></use>
                </mask>
                <g id="a"></g>
                <polygon id="Shape" fill="#FFFFFF" fill-rule="nonzero" mask="url(#mask-56)" points="54.28 163.634 45.13 164.378 45.13 155.116 53.793 158.459"></polygon>
            </g>
            <g id="Clipped">
                <mask id="mask-58" fill="white">
                    <use xlink:href="#path-57"></use>
                </mask>
                <g id="a"></g>
                <path d="M39.154,116.112 C39.154,116.112 44.79,145.349 43.558,158.592 C43.558,158.592 50.488,160.282 54.397,160.355 L49.799,113.387 C48.554,109.483 39.154,116.112 39.154,116.112" id="Shape" fill="#2A334C" fill-rule="nonzero" mask="url(#mask-58)"></path>
            </g>
            <g id="Clipped">
                <mask id="mask-60" fill="white">
                    <use xlink:href="#path-59"></use>
                </mask>
                <g id="a"></g>
                <polygon id="Shape" fill="#1D1B28" fill-rule="nonzero" mask="url(#mask-60)" points="31.742 241.28 67.786 241.28 67.786 186.805 31.742 186.805"></polygon>
            </g>
            <g id="Clipped">
                <mask id="mask-62" fill="white">
                    <use xlink:href="#path-61"></use>
                </mask>
                <g id="a"></g>
                <polygon id="Shape" fill="#262432" fill-rule="nonzero" mask="url(#mask-62)" points="50.82 193.059 54.025 193.059 54.025 177.336 50.82 177.336"></polygon>
            </g>
            <g id="Clipped">
                <mask id="mask-64" fill="white">
                    <use xlink:href="#path-63"></use>
                </mask>
                <g id="a"></g>
                <polygon id="Shape" fill="#373747" fill-rule="nonzero" mask="url(#mask-64)" points="31.743 216.428 66.887 216.428 66.887 186.805 31.743 186.805"></polygon>
            </g>
            <g id="Clipped">
                <mask id="mask-66" fill="white">
                    <use xlink:href="#path-65"></use>
                </mask>
                <g id="a"></g>
                <polygon id="Shape" fill="#FFFFFF" fill-rule="nonzero" mask="url(#mask-66)" points="44.973 220.784 49.764 220.784 49.764 214.044 44.974 214.044"></polygon>
            </g>
            <g id="Clipped">
                <mask id="mask-68" fill="white">
                    <use xlink:href="#path-67"></use>
                </mask>
                <g id="a"></g>
                <path d="M50.82,113.824 C51.607,88.86 52.36,66.369 48.226,64.946 C21.166,54.331 37.168,66.928 35.216,76.693 C32.777,88.819 40.544,79.395 46.368,94.038 C49.769,98.586 38.737,109.135 50.819,113.824" id="Shape" fill="#2A334C" fill-rule="nonzero" mask="url(#mask-68)"></path>
            </g>
            <g id="Clipped">
                <mask id="mask-70" fill="white">
                    <use xlink:href="#path-69"></use>
                </mask>
                <g id="a"></g>
                <polygon id="Shape" fill="#2A334C" fill-rule="nonzero" mask="url(#mask-70)" points="35.235 60.91 37.895 134.32 52.91 141.534 51.242 87.318 49.032 74.574"></polygon>
            </g>
            <g id="Clipped">
                <mask id="mask-72" fill="white">
                    <use xlink:href="#path-71"></use>
                </mask>
                <g id="a"></g>
                <polygon id="Shape" fill="#080E32" fill-rule="nonzero" mask="url(#mask-72)" points="6.963 349.161 11.831 349.161 11.831 330.371 6.963 330.371"></polygon>
            </g>
            <g id="Clipped">
                <mask id="mask-74" fill="white">
                    <use xlink:href="#path-73"></use>
                </mask>
                <g id="a"></g>
                <path d="M18.91,333.49 L22.485,342.272 L23.702,343.12 C23.702,343.12 24.1,349.058 23.828,349.161 C23.566,349.271 11.085,349.161 11.085,349.161 L6.217,330.371 L10.08,325.097 L15.928,323.497 L18.909,333.491 L18.91,333.49 Z" id="Shape" fill="#080E32" fill-rule="nonzero" mask="url(#mask-74)"></path>
            </g>
            <g id="Clipped">
                <mask id="mask-76" fill="white">
                    <use xlink:href="#path-75"></use>
                </mask>
                <g id="a"></g>
                <polygon id="Shape" fill="#F9B47E" fill-rule="nonzero" mask="url(#mask-76)" points="20.047 341.768 12.701 343.953 9.039 328.735 13.928 323.095 16.885 324.285"></polygon>
            </g>
            <g id="Clipped">
                <mask id="mask-78" fill="white">
                    <use xlink:href="#path-77"></use>
                </mask>
                <g id="a"></g>
                <path d="M62.22,231.687 C62.22,231.687 57,201.623 51.325,179.823 L32.041,191.934 L48.656,239.683 C48.656,239.683 41.778,260.655 44.572,269.708 C46.436,275.716 72.418,327.91 72.418,327.91 L82.038,346.452 L85.848,345.91 C71.278,318.28 62.78,250.82 62.08,247.587 L62.22,231.687 L62.22,231.687 Z" id="Shape" fill="url(#linearGradient-79)" fill-rule="nonzero" mask="url(#mask-78)"></path>
            </g>
            <g id="Clipped">
                <mask id="mask-81" fill="white">
                    <use xlink:href="#path-80"></use>
                </mask>
                <g id="a"></g>
                <polygon id="Shape" fill="#080E32" fill-rule="nonzero" mask="url(#mask-81)" points="70.62 324.395 64.736 329.817 68.453 348.897 71.119 348.912 71.572 340.045 78.873 349.058 89.207 349.212 89.244 346.509 84.988 344.865"></polygon>
            </g>
            <g id="Clipped">
                <mask id="mask-83" fill="white">
                    <use xlink:href="#path-82"></use>
                </mask>
                <g id="a"></g>
                <path d="M2.732,182.479 C4.64108723,179.174584 6.49897588,175.840853 8.305,172.479 L20.048,170.899 L20.048,341.769 L14.201,335.579 C14.201,335.579 0.43,262.127 0.17,258.766 C-0.546,249.319 7.431,232.014 7.431,232.014 L2.731,182.48 L2.732,182.479 Z" id="Shape" fill="#FFC495" fill-rule="nonzero" mask="url(#mask-83)"></path>
            </g>
            <g id="Clipped">
                <mask id="mask-85" fill="white">
                    <use xlink:href="#path-84"></use>
                </mask>
                <g id="a"></g>
                <path d="M34.082,69.734 C27.587,69.054 18.668,67.835 16.461,66.582 C16.963,59.025 21.091,39.669 23.911,34.289 C25.287,34.774 32.588,39.149 31.561,45.41 C29.811,56.09 34.355,67.263 34.081,69.734" id="Shape" fill="#F9B47E" fill-rule="nonzero" mask="url(#mask-85)"></path>
            </g>
            <g id="Clipped">
                <mask id="mask-87" fill="white">
                    <use xlink:href="#path-86"></use>
                </mask>
                <g id="a"></g>
                <path d="M0.85,62.923 C10.106,59.014 29.502,56.913 39.547,63.104 C46.761,70.108 50.896,76.721 46.171,88.353 C46.095,91.138 48.306,130.996 48.996,143.423 C49.123,145.733 48.785,147.341 48.785,147.341 C38.119,147.733 23.589,139.323 13.053,134.906 C17.777,127.478 24.823,110.986 24.439,105.087 C23.56,91.465 1.465,82.413 0.85,62.923" id="Shape" fill="#FFFFFF" fill-rule="nonzero" mask="url(#mask-87)"></path>
            </g>
            <g id="Clipped">
                <mask id="mask-89" fill="white">
                    <use xlink:href="#path-88"></use>
                </mask>
                <g id="a"></g>
                <path d="M49.167,144.295 L15.453,130.732 C12.787,134.667 1.267,146.735 0.25,156.44 C-0.373,162.29 2.904,225.674 2.904,225.674 C16.584,228.908 61.475,224.85 61.475,224.85 L49.168,160.971 C49.168,160.971 49.274,148.926 49.168,144.295" id="Shape" fill="#080E32" fill-rule="nonzero" mask="url(#mask-89)"></path>
            </g>
            <g id="Clipped">
                <mask id="mask-91" fill="white">
                    <use xlink:href="#path-90"></use>
                </mask>
                <g id="a"></g>
                <path d="M35.235,60.91 L49.287,76.86 L49.167,87.118 L48.608,136.525 L49.197,145.935 L52.961,143.451 L51.271,75.311 L44.1,63.694 L35.235,60.91 Z M17.725,57.457 L0,62.692 L3.572,81.482 C9.684,95.184 18.365,110.317 18.597,111.646 C18.982,113.826 10.08,137.592 10.08,137.592 L27.229,149.154 L27.879,76.86 L17.725,57.457 L17.725,57.457 Z" id="Shape" fill="#2A334C" fill-rule="nonzero" mask="url(#mask-91)"></path>
            </g>
            <g id="Clipped">
                <mask id="mask-93" fill="white">
                    <use xlink:href="#path-92"></use>
                </mask>
                <g id="a"></g>
                <polygon id="Shape" fill="#F9B47E" fill-rule="nonzero" mask="url(#mask-93)" points="89.967 130.978 99.7 142.17 97.426 147.749 92.106 146.476 89.569 141.858 76.709 130.139 83.205 128.207"></polygon>
            </g>
            <g id="Clipped">
                <mask id="mask-95" fill="white">
                    <use xlink:href="#path-94"></use>
                </mask>
                <g id="a"></g>
                <path d="M39.969,105.541 C49.636,99.642 68.212,122.284 83.614,127.291 L81.884,133.459 C68.708,131.368 62.079,128.241 52.454,124.866 C35.684,118.985 32.529,110.06 39.969,105.541" id="Shape" fill="#2A334C" fill-rule="nonzero" mask="url(#mask-95)"></path>
            </g>
            <g id="Clipped">
                <mask id="mask-97" fill="white">
                    <use xlink:href="#path-96"></use>
                </mask>
                <g id="a"></g>
                <polygon id="Shape" fill="#FFFFFF" fill-rule="nonzero" mask="url(#mask-97)" points="85.543 127.95 81.69 134.404 76.79 132.402 80.345 125.659"></polygon>
            </g>
            <g id="Clipped">
                <mask id="mask-99" fill="white">
                    <use xlink:href="#path-98"></use>
                </mask>
                <g id="a"></g>
                <path d="M48.172,106.755 C43.01,106.04 18.352,69.734 18.352,69.734 L0.815,64.094 L4.421,83.387 C4.421,83.387 35.559,114.547 41.044,119.014 C46.529,123.481 54.77,107.688 48.172,106.755" id="Shape" fill="#2A334C" fill-rule="nonzero" mask="url(#mask-99)"></path>
            </g>
            <g id="Clipped">
                <mask id="mask-101" fill="white">
                    <use xlink:href="#path-100"></use>
                </mask>
                <g id="a"></g>
                <path d="M8.316,22.265 C7.437,26.457 9.016,33.27 16.221,35.939 C25.841,45.113 34.535,49.114 38.723,48.005 C40.392,44.645 41.191,41.577 42.111,38.861 C42.569,38.39 43.856,38.066 44.905,36.926 C43.691,35.701 40.855,30.442 40.593,26.34 C40.283,21.465 38.37,16.611 37.526,15.768 C27.928,18.318 17.746,19.168 8.316,22.265" id="Shape" fill="#FFC495" fill-rule="nonzero" mask="url(#mask-101)"></path>
            </g>
            <g id="Clipped">
                <mask id="mask-103" fill="white">
                    <use xlink:href="#path-102"></use>
                </mask>
                <g id="a"></g>
                <path d="M12.186,13.492 C3.979,21.71 5.9,31.996 11.885,39.825 C14.219,42.882 17.659,43.98 20.652,44.076 C21.406,41.537 23.19,35.007 23.19,35.007 L39.154,18.588 C33.774,6.737 20.044,5.621 12.186,13.492" id="Shape" fill="#8E3925" fill-rule="nonzero" mask="url(#mask-103)"></path>
            </g>
            <g id="Clipped">
                <mask id="mask-105" fill="white">
                    <use xlink:href="#path-104"></use>
                </mask>
                <g id="a"></g>
                <path d="M27.228,38.563 L23.575,31.508 C23.575,31.508 20.963,28.564 18.798,30.856 C16.638,33.148 22.795,41.52 27.228,38.563" id="Shape" fill="#FFB288" fill-rule="nonzero" mask="url(#mask-105)"></path>
            </g>
        </g>
    </g>
</svg>