<?xml version="1.0" encoding="UTF-8"?>
<svg width="374px" height="417px" viewBox="0 0 374 417" version="1.1" xmlns="http://www.w3.org/2000/svg" xmlns:xlink="http://www.w3.org/1999/xlink">
    <!-- Generator: Sketch 47.1 (45422) - http://www.bohemiancoding.com/sketch -->
    <title>man-hand</title>
    <desc>Created with Sketch.</desc>
    <defs>
        <polygon id="path-1" points="0 429 373.877 429 373.877 0 0 0"></polygon>
        <polygon id="path-3" points="0 429 373.877 429 373.877 0 0 0"></polygon>
        <polygon id="path-5" points="0 429 373.877 429 373.877 0 0 0"></polygon>
        <polygon id="path-7" points="0 429 373.877 429 373.877 0 0 0"></polygon>
        <polygon id="path-9" points="0 429 373.877 429 373.877 0 0 0"></polygon>
        <polygon id="path-11" points="0 429 373.877 429 373.877 0 0 0"></polygon>
        <polygon id="path-13" points="0 429 373.877 429 373.877 0 0 0"></polygon>
        <polygon id="path-15" points="0 429 373.877 429 373.877 0 0 0"></polygon>
        <polygon id="path-17" points="0 429 373.877 429 373.877 0 0 0"></polygon>
        <polygon id="path-19" points="0 429 373.877 429 373.877 0 0 0"></polygon>
        <polygon id="path-21" points="0 429 373.877 429 373.877 0 0 0"></polygon>
        <polygon id="path-23" points="0 429 373.877 429 373.877 0 0 0"></polygon>
        <polygon id="path-25" points="0 429 373.877 429 373.877 0 0 0"></polygon>
        <polygon id="path-27" points="0 429 373.877 429 373.877 0 0 0"></polygon>
        <polygon id="path-29" points="0 429 373.877 429 373.877 0 0 0"></polygon>
        <polygon id="path-31" points="0 429 373.877 429 373.877 0 0 0"></polygon>
        <polygon id="path-33" points="0 429 373.877 429 373.877 0 0 0"></polygon>
        <polygon id="path-35" points="0 429 373.877 429 373.877 0 0 0"></polygon>
        <polygon id="path-37" points="0 429 373.877 429 373.877 0 0 0"></polygon>
        <polygon id="path-39" points="0 429 373.877 429 373.877 0 0 0"></polygon>
        <polygon id="path-41" points="0 429 373.877 429 373.877 0 0 0"></polygon>
        <polygon id="path-43" points="0 429 373.877 429 373.877 0 0 0"></polygon>
        <polygon id="path-45" points="0 429 373.877 429 373.877 0 0 0"></polygon>
        <polygon id="path-47" points="0 429 373.877 429 373.877 0 0 0"></polygon>
        <polygon id="path-49" points="0 429 373.877 429 373.877 0 0 0"></polygon>
        <polygon id="path-51" points="0 429 373.877 429 373.877 0 0 0"></polygon>
        <polygon id="path-53" points="0 429 373.877 429 373.877 0 0 0"></polygon>
        <polygon id="path-55" points="0 429 373.877 429 373.877 0 0 0"></polygon>
        <polygon id="path-57" points="0 429 373.877 429 373.877 0 0 0"></polygon>
        <polygon id="path-59" points="0 429 373.877 429 373.877 0 0 0"></polygon>
        <polygon id="path-61" points="0 429 373.877 429 373.877 0 0 0"></polygon>
        <polygon id="path-63" points="0 429 373.877 429 373.877 0 0 0"></polygon>
        <polygon id="path-65" points="0 429 373.877 429 373.877 0 0 0"></polygon>
        <polygon id="path-67" points="0 429 373.877 429 373.877 0 0 0"></polygon>
        <polygon id="path-69" points="0 429 373.877 429 373.877 0 0 0"></polygon>
        <polygon id="path-71" points="0 429 373.877 429 373.877 0 0 0"></polygon>
        <polygon id="path-73" points="0 429 373.877 429 373.877 0 0 0"></polygon>
        <polygon id="path-75" points="0 429 373.877 429 373.877 0 0 0"></polygon>
        <polygon id="path-77" points="0 429 373.877 429 373.877 0 0 0"></polygon>
        <polygon id="path-79" points="0 429 373.877 429 373.877 0 0 0"></polygon>
        <polygon id="path-81" points="0 429 373.877 429 373.877 0 0 0"></polygon>
        <polygon id="path-83" points="0 429 373.877 429 373.877 0 0 0"></polygon>
        <polygon id="path-85" points="0 429 373.877 429 373.877 0 0 0"></polygon>
        <polygon id="path-87" points="0 429 373.877 429 373.877 0 0 0"></polygon>
        <polygon id="path-89" points="0 429 373.877 429 373.877 0 0 0"></polygon>
        <polygon id="path-91" points="0 429 373.877 429 373.877 0 0 0"></polygon>
        <polygon id="path-93" points="0 429 373.877 429 373.877 0 0 0"></polygon>
        <polygon id="path-95" points="0 429 373.877 429 373.877 0 0 0"></polygon>
        <polygon id="path-97" points="0 429 373.877 429 373.877 0 0 0"></polygon>
        <polygon id="path-99" points="0 429 373.877 429 373.877 0 0 0"></polygon>
        <polygon id="path-101" points="0 429 373.877 429 373.877 0 0 0"></polygon>
        <path d="M0.214,0.06 C1.34322245,-0.00876999119 2.47644161,0.087236983 3.578,0.345 C4.6,0.583 5.627,0.815 6.651,1.055 L6.651,5.158 C5.067,5.48 3.212,5.463 2.435,5.502 C1.695,5.539 0.955,5.556 0.215,5.553 L0.215,0.06 L0.214,0.06 Z" id="path-103"></path>
        <path d="M6.494,0.155 C6.318,0.131 6.13,0.122 5.926,0.105 C4.78575127,0.0176949679 3.63886231,0.09821978 2.522,0.344 C1.702,0.524 0.877,0.702 0.054,0.881 L0.054,5.241 C1.458,5.463 2.928,5.473 3.597,5.515 C4.507,5.572 5.417,5.6 6.327,5.597 C6.376,5.597 6.433,5.599 6.494,5.603 L6.494,0.155 Z" id="path-105"></path>
    </defs>
    <g id="Page-1" stroke="none" stroke-width="1" fill="none" fill-rule="evenodd">
        <g id="man-hand" transform="translate(0.000000, -12.000000)">
            <path d="M342.808,98.816 L373.885,98.816 L373.885,96.874 L342.808,96.874 L342.808,98.816 Z M282.598,98.816 L317.559,98.816 L317.559,96.874 L282.6,96.874 L282.598,98.816 Z" id="Shape" fill="#292929" fill-rule="nonzero"></path>
            <g id="Group">
                <path d="M350.699,97.797 L348.966,97.797 C348.966,87.715 342.002,79.513 333.442,79.513 C328.949,79.513 324.676,81.813 321.72,85.823 L321.183,86.551 L320.478,85.983 C318.690499,84.532161 316.456177,83.7442832 314.154,83.753 C308.596,83.753 304.074,88.269 304.074,93.821 C304.074,94.927 304.252,96.014 304.604,97.052 L302.962,97.608 C302.549341,96.3881096 302.339556,95.1087957 302.341,93.821 C302.341,87.315 307.641,82.021 314.154,82.021 C316.547,82.021 318.894,82.757 320.857,84.107 C324.117,80.077 328.658,77.782 333.442,77.782 C342.958,77.782 350.699,86.761 350.699,97.797 L350.699,97.797 Z" id="Shape" fill="#292929" fill-rule="nonzero"></path>
                <g id="Clipped">
                    <g id="Shape-Clipped">
                        <mask id="mask-2" fill="white">
                            <use xlink:href="#path-1"></use>
                        </mask>
                        <g id="path-1"></g>
                        <path d="M164.279,225.957 L186.981,225.957 L186.981,224.226 L164.28,224.226 L164.279,225.957 Z M120.814,225.957 L146.022,225.957 L146.022,224.226 L120.814,224.226 L120.814,225.957 Z" id="Shape" fill="#292929" fill-rule="nonzero" mask="url(#mask-2)"></path>
                    </g>
                </g>
                <g id="Clipped">
                    <g id="Shape-Clipped">
                        <mask id="mask-4" fill="white">
                            <use xlink:href="#path-3"></use>
                        </mask>
                        <g id="path-3"></g>
                        <path d="M170.327,225.266 L168.594,225.266 C168.594,218.05 163.626,212.179 157.518,212.179 C154.32,212.179 151.276,213.819 149.166,216.681 L148.629,217.409 L147.924,216.841 C146.663522,215.817482 145.087686,215.261699 143.464,215.268 C139.544,215.268 136.354,218.454 136.354,222.37 C136.354,223.15 136.48,223.917 136.728,224.649 L135.086,225.204 C134.777176,224.291091 134.620093,223.33373 134.621,222.37 C134.621,217.5 138.588,213.537 143.464,213.537 C145.183,213.537 146.871,214.043 148.302,214.977 C150.712,212.088 154.027,210.448 157.518,210.448 C164.581,210.448 170.328,217.096 170.328,225.266" id="Shape" fill="#292929" fill-rule="nonzero" mask="url(#mask-4)"></path>
                    </g>
                </g>
                <g id="Clipped">
                    <g id="Group-Clipped">
                        <mask id="mask-6" fill="white">
                            <use xlink:href="#path-5"></use>
                        </mask>
                        <g id="path-5"></g>
                        <g id="Group" mask="url(#mask-6)">
                            <g transform="translate(178.000000, 33.000000)" id="Shape">
                                <g>
                                    <path d="M43.93,16.09 L66.741,16.09 L66.741,14.359 L43.931,14.359 L43.93,16.09 Z M0.258,16.09 L25.586,16.09 L25.586,14.359 L0.258,14.359 L0.258,16.09 Z" fill="#292929" fill-rule="nonzero"></path>
                                    <path d="M50.004,15.4 L48.271,15.4 C48.271,8.147 43.277,2.246 37.138,2.246 C33.922,2.246 30.863,3.896 28.742,6.771 L28.205,7.5 L27.501,6.931 C26.2331456,5.90251303 24.6485425,5.34428051 23.016,5.351 C19.076,5.351 15.869,8.553 15.869,12.49 C15.869,13.274 15.995,14.045 16.244,14.781 L14.603,15.336 C14.2927109,14.4192634 14.1349485,13.4578245 14.136,12.49 C14.136,7.599 18.119,3.62 23.016,3.62 C24.744,3.62 26.44,4.129 27.878,5.068 C30.298,2.164 33.63,0.515 37.138,0.515 C44.232,0.515 50.004,7.193 50.004,15.4" fill="#292929" fill-rule="nonzero"></path>
                                </g>
                            </g>
                        </g>
                    </g>
                </g>
                <g id="Clipped">
                    <g id="Group-Clipped">
                        <mask id="mask-8" fill="white">
                            <use xlink:href="#path-7"></use>
                        </mask>
                        <g id="path-7"></g>
                        <g id="Group" mask="url(#mask-8)">
                            <g transform="translate(309.000000, 12.000000)" id="Shape">
                                <g>
                                    <path d="M37.373,13.688 L56.78,13.688 L56.78,12.216 L37.373,12.216 L37.373,13.688 Z M0.22,13.688 L21.768,13.688 L21.768,12.216 L0.22,12.216 L0.22,13.688 Z" fill="#292929" fill-rule="nonzero"></path>
                                    <path d="M42.54,13.102 L41.066,13.102 C41.066,6.932 36.818,1.912 31.595,1.912 C28.859,1.912 26.256,3.315 24.453,5.761 L23.996,6.381 L23.396,5.897 C22.3176611,5.02182955 20.9697797,4.54662627 19.581,4.552 C16.228,4.552 13.501,7.276 13.501,10.625 C13.501,11.293 13.608,11.949 13.82,12.575 L12.423,13.047 C12.1590483,12.2668242 12.0249324,11.4486163 12.026,10.625 C12.026,6.465 15.416,3.079 19.581,3.079 C21.051,3.079 22.494,3.513 23.717,4.312 C25.777,1.842 28.61,0.438 31.595,0.438 C37.63,0.438 42.54,6.119 42.54,13.102" fill="#292929" fill-rule="nonzero"></path>
                                </g>
                            </g>
                        </g>
                    </g>
                </g>
                <g id="Clipped">
                    <g id="Shape-Clipped">
                        <mask id="mask-10" fill="white">
                            <use xlink:href="#path-9"></use>
                        </mask>
                        <g id="path-9"></g>
                        <path d="M45.91,427.644 C48.303,426.18 47.276,413.928 44.609,410.67 C44.026,409.96 42.227,407.748 40.777,408.82 C39.709,409.609 38.403,409.81 37.919,416.507 C37.762,418.677 37.413,424.265 38.712,427.758 C39.491,429.854 45.05,428.171 45.91,427.644" id="Shape" fill="#161616" fill-rule="nonzero" mask="url(#mask-10)"></path>
                    </g>
                </g>
                <g id="Clipped">
                    <g id="Shape-Clipped">
                        <mask id="mask-12" fill="white">
                            <use xlink:href="#path-11"></use>
                        </mask>
                        <g id="path-11"></g>
                        <path d="M41.29,410.074 C40.599,410.584 40.221,413.871 40.11,414.786 C40.03,415.444 39.96,416.014 39.908,416.452 C39.584,419.15 40.412,418.888 40.674,418.696 C41.222,418.296 41.932,418.066 42.801,418.107 C43.707,418.149 44.414,418.469 44.931,418.949 C45.175,419.175 46.391,419.28 46.431,418.371 C46.47,417.493 46.253,416.628 46.177,415.758 C46.015,413.918 45.58,411.925 44.374,410.452 C43.791,409.742 42.627,409.09 41.29,410.074" id="Shape" fill="#FFB98F" fill-rule="nonzero" mask="url(#mask-12)"></path>
                    </g>
                </g>
                <g id="Clipped">
                    <g id="Shape-Clipped">
                        <mask id="mask-14" fill="white">
                            <use xlink:href="#path-13"></use>
                        </mask>
                        <g id="path-13"></g>
                        <path d="M42.062,414.547 L40.599,413.053 C40.2775528,412.725067 40.0996717,412.282789 40.1045486,411.82361 C40.1094255,411.364432 40.2966602,410.926032 40.625,410.605 L55.033,396.525 C55.7170601,395.856457 56.8132818,395.86809 57.483,396.551 L58.947,398.045 C59.2683166,398.373065 59.4460191,398.815418 59.4409546,399.274597 C59.4358901,399.733776 59.2484743,400.172102 58.92,400.493 L44.513,414.573 C43.8285987,415.241658 42.7320627,415.230026 42.062,414.547" id="Shape" fill="#FFB98F" fill-rule="nonzero" mask="url(#mask-14)"></path>
                    </g>
                </g>
                <g id="Clipped">
                    <g id="Shape-Clipped">
                        <mask id="mask-16" fill="white">
                            <use xlink:href="#path-15"></use>
                        </mask>
                        <g id="path-15"></g>
                        <path d="M51.523,427.442 C47.441,424.607 51.377,419.472 54.478,416.623 C55.155,416.003 55.432,415.313 57.225,415.516 C60.206,415.852 61.589,418.619 61.094,422.127 C60.789,424.282 61.004,426.573 59.461,428.341 C57.991,430.026 52.351,428.017 51.523,427.442" id="Shape" fill="#161616" fill-rule="nonzero" mask="url(#mask-16)"></path>
                    </g>
                </g>
                <g id="Clipped">
                    <g id="Shape-Clipped">
                        <mask id="mask-18" fill="white">
                            <use xlink:href="#path-17"></use>
                        </mask>
                        <g id="path-17"></g>
                        <path d="M53.12,419.944 L53.075,420.03 C52.901,420.354 52.715,420.67 52.515,420.98 C52.337,421.257 52.112,421.503 51.977,421.809 C51.607,422.643 52.796,422.781 53.039,422.555 C53.556,422.075 54.265,421.756 55.173,421.715 C56.045,421.676 56.757,421.909 57.308,422.31 C57.572,422.503 59.28,424.637 59.243,421.913 C59.227,420.728 59.02,419.633 58.985,418.387 C58.966,417.75 58.288,417.104 57.729,416.753 C57.31,416.489 56.809,416.473 56.344,416.611 C55.807,416.771 53.526,417.589 53.429,418.194 C53.365,418.596 53.309,419.577 53.12,419.944" id="Shape" fill="#FFB98F" fill-rule="nonzero" mask="url(#mask-18)"></path>
                    </g>
                </g>
                <g id="Clipped">
                    <g id="Shape-Clipped">
                        <mask id="mask-20" fill="white">
                            <use xlink:href="#path-19"></use>
                        </mask>
                        <g id="path-19"></g>
                        <path d="M57.1,421.277 L55.011,421.17 C54.5521531,421.146723 54.1213547,420.94209 53.8134071,420.601135 C53.5054595,420.26018 53.3455973,419.810841 53.369,419.352 L54.402,399.245 C54.425781,398.786143 54.630914,398.355539 54.9722507,398.047961 C55.3135874,397.740383 55.7631526,397.581039 56.222,397.605 L58.312,397.712 C59.267,397.761 60.002,398.574 59.953,399.529 L58.92,419.637 C58.8699382,420.592283 58.0553207,421.326334 57.1,421.277" id="Shape" fill="#FFB98F" fill-rule="nonzero" mask="url(#mask-20)"></path>
                    </g>
                </g>
                <g id="Clipped">
                    <g id="Shape-Clipped">
                        <mask id="mask-22" fill="white">
                            <use xlink:href="#path-21"></use>
                        </mask>
                        <g id="path-21"></g>
                        <path d="M97.303,354.413 C95.95,352.123 94.058,350.516 91.823,349.298 C88.417,347.44 84.255,346.403 83.358,350.248 C82.617,351.733 81.686,353.082 80.908,354.624 C77.251,361.884 46.436,401.528 44.718,406.604 C44.414,407.505 49.908,412.306 50.77,411.652 C50.77,411.652 85.181,375.244 94.09,360.55 C95.02,359.016 96.25,356.855 97.303,354.413" id="Shape" fill="#292929" fill-rule="nonzero" mask="url(#mask-22)"></path>
                    </g>
                </g>
                <g id="Clipped">
                    <g id="Shape-Clipped">
                        <mask id="mask-24" fill="white">
                            <use xlink:href="#path-23"></use>
                        </mask>
                        <g id="path-23"></g>
                        <path d="M83.73,354.362 C85.246,355.752 89.422,359.814 93.106,359.14 C96.966,358.433 98.034,352.555 98.717,348.694 C100.575,338.195 102.434,307.726 100.297,287.311 C99.549,280.174 82.885,279.802 78.381,293.172 C79.59,302.178 82.893,327.781 83.718,353.952 L83.729,354.362" id="Shape" fill="#292929" fill-rule="nonzero" mask="url(#mask-24)"></path>
                    </g>
                </g>
                <g id="Clipped">
                    <g id="Shape-Clipped">
                        <mask id="mask-26" fill="white">
                            <use xlink:href="#path-25"></use>
                        </mask>
                        <g id="path-25"></g>
                        <path d="M79.396,301.04 C80.673,301.54 86.334,300.071 87.839,300.165 C90.233,300.313 92.629,300.13 94.91,299.362 C97.408,298.522 100.958,298.049 100.923,295.465 C100.765,283.667 95.082,257.825 95.082,257.825 C94.964,256.995 52.988,257.37 52.988,257.37 C52.671,265.439 50.622,277.317 50.672,291.011 C50.707,300.519 50.75,308.126 50.689,318.717 C50.631,328.649 52.566,341.539 52.232,351.287 C51.218,380.921 51.749,407.015 51.582,413.955 C51.558,415.016 61.295,417.335 61.352,415.845 C61.822,403.191 65.896,352.013 70.314,319.459 C72.447,303.736 73.596,292.358 76.485,291.763 C78.167,291.417 78.924,295.315 79.395,301.04" id="Shape" fill="#292929" fill-rule="nonzero" mask="url(#mask-26)"></path>
                    </g>
                </g>
                <g id="Clipped">
                    <g id="Shape-Clipped">
                        <mask id="mask-28" fill="white">
                            <use xlink:href="#path-27"></use>
                        </mask>
                        <g id="path-27"></g>
                        <path d="M75.43,292.096 C75.3630431,292.096266 75.2997484,292.065466 75.2586406,292.012613 C75.2175327,291.95976 75.2032601,291.890831 75.22,291.826 C77.067,284.61 74.229,268.39 74.2,268.226 C74.1794155,268.108667 74.257709,267.99682 74.375,267.976 C74.4316838,267.965561 74.4901856,267.978317 74.5373773,268.011408 C74.5845689,268.044499 74.6164982,268.095152 74.626,268.152 C74.656,268.315 77.51,284.627 75.64,291.933 C75.6153683,292.028869 75.528983,292.095921 75.43,292.096 M53.244,282.322 C53.1333258,282.315523 53.0453305,282.226663 53.0399352,282.115931 C53.0345399,282.005199 53.1134797,281.908206 53.223,281.891 C56.006,281.621 58.133,280.543 59.543,278.686 C62.363,274.974 61.404,269.343 61.394,269.286 C61.3835585,269.173506 61.461179,269.071821 61.5724457,269.052232 C61.6837123,269.032642 61.7913938,269.101704 61.82,269.211 C61.863,269.449 62.822,275.086 59.888,278.948 C58.401,280.905 56.173,282.04 53.265,282.322 L53.244,282.322 M94.715,281.502 C92.462,281.502 90.667,280.841 89.361,279.525 C85.995,276.133 87.072,269.677 87.119,269.404 C87.1403477,269.286841 87.2514028,269.208214 87.369,269.227 C87.488,269.248 87.566,269.36 87.546,269.477 C87.536,269.542 86.461,275.99 89.67,279.222 C91.282,280.845 93.718,281.402 96.909,280.879 C97.027,280.857 97.139,280.939 97.157,281.057 C97.177,281.175 97.097,281.287 96.979,281.305 C96.179,281.437 95.424,281.502 94.715,281.502 M77.144,287.266 C77.105,287.266 77.067,287.266 77.028,287.264 C76.9084929,287.258069 76.8163389,287.15652 76.822,287.037 C76.8295043,286.918243 76.9300744,286.826977 77.049,286.831 C77.595,286.857 78.043,286.661 78.406,286.233 C80.994,283.183 78.226,270.183 78.196,270.053 C78.1762113,269.975909 78.2002131,269.894171 78.2585405,269.840019 C78.3168679,269.785866 78.4001602,269.76799 78.4755719,269.793439 C78.5509836,269.818888 78.6064122,269.883578 78.62,269.962 C78.737,270.505 81.46,283.302 78.737,286.512 C78.312,287.013 77.777,287.266 77.144,287.266" id="Shape" fill="#161616" fill-rule="nonzero" mask="url(#mask-28)"></path>
                    </g>
                </g>
                <g id="Clipped">
                    <g id="Shape-Clipped">
                        <mask id="mask-30" fill="white">
                            <use xlink:href="#path-29"></use>
                        </mask>
                        <g id="path-29"></g>
                        <path d="M52.9,264.92 C71.94,269.6 83.316,267.64 96.524,265.686 C96.5928018,265.675888 96.6547234,265.638738 96.6960262,265.582791 C96.737329,265.526845 96.7545974,265.456729 96.744,265.388 L95.812,259.448 C95.8019279,259.38011 95.7650172,259.319108 95.7095521,259.278684 C95.6540869,259.238261 95.584713,259.221801 95.517,259.233 C81.02,261.611 63.03,261.943 53.149,257.113 C53.0366281,257.05613 52.9027408,257.061934 52.7957124,257.128316 C52.688684,257.194698 52.6239882,257.312061 52.625,257.438 L52.625,264.557 C52.6187645,264.727974 52.7337225,264.879718 52.9,264.92" id="Shape" fill="#161616" fill-rule="nonzero" mask="url(#mask-30)"></path>
                    </g>
                </g>
                <g id="Clipped">
                    <g id="Shape-Clipped">
                        <mask id="mask-32" fill="white">
                            <use xlink:href="#path-31"></use>
                        </mask>
                        <g id="path-31"></g>
                        <path d="M58.836,257.663 C57.152,261.861 57.712,264.389 58.408,267.295 L60.675,267.075 C59.81,263.861 59.81,259.863 61.607,257.735 L58.837,257.663 L58.836,257.663 Z" id="Shape" fill="#292929" fill-rule="nonzero" mask="url(#mask-32)"></path>
                    </g>
                </g>
                <g id="Clipped">
                    <g id="Shape-Clipped">
                        <mask id="mask-34" fill="white">
                            <use xlink:href="#path-33"></use>
                        </mask>
                        <g id="path-33"></g>
                        <path d="M58.88,257.73 C57.207,261.926 57.807,264.507 58.458,267.225 L60.592,267.018 C59.84,264.167 59.636,260.099 61.472,257.797 L58.88,257.729 L58.88,257.73 Z M58.358,267.366 L58.345,267.31 C57.682,264.542 57.055,261.927 58.776,257.64 L58.793,257.597 L61.744,257.674 L61.657,257.777 C59.745,260.04 59.967,264.191 60.737,267.058 L60.757,267.132 L58.358,267.366 Z" id="Shape" fill="#161616" fill-rule="nonzero" mask="url(#mask-34)"></path>
                    </g>
                </g>
                <g id="Clipped">
                    <g id="Shape-Clipped">
                        <mask id="mask-36" fill="white">
                            <use xlink:href="#path-35"></use>
                        </mask>
                        <g id="path-35"></g>
                        <path d="M92.726,258.935 C94.41,263.134 93.85,265.661 93.154,268.567 L90.888,268.347 C91.752,265.133 91.752,261.135 89.955,259.007 L92.725,258.935 L92.726,258.935 Z" id="Shape" fill="#292929" fill-rule="nonzero" mask="url(#mask-36)"></path>
                    </g>
                </g>
                <g id="Clipped">
                    <g id="Shape-Clipped">
                        <mask id="mask-38" fill="white">
                            <use xlink:href="#path-37"></use>
                        </mask>
                        <g id="path-37"></g>
                        <path d="M90.97,268.29 L93.104,268.497 C93.754,265.779 94.354,263.198 92.682,259.001 L90.089,259.069 C91.927,261.371 91.722,265.439 90.97,268.29 Z M93.204,268.638 L90.805,268.405 L90.825,268.331 C91.595,265.464 91.818,261.313 89.905,259.049 L89.818,258.946 L92.769,258.869 L92.786,258.911 C94.506,263.199 93.88,265.814 93.217,268.582 L93.204,268.638 L93.204,268.638 Z" id="Shape" fill="#161616" fill-rule="nonzero" mask="url(#mask-38)"></path>
                    </g>
                </g>
                <g id="Clipped">
                    <g id="Shape-Clipped">
                        <mask id="mask-40" fill="white">
                            <use xlink:href="#path-39"></use>
                        </mask>
                        <g id="path-39"></g>
                        <path d="M84.17,259.514 C84.271,262.479 84.445,266.068 84.597,269.146 L82.331,268.926 C82.419,266.068 82.008,261.153 81.398,259.586 L84.169,259.514 L84.17,259.514 Z" id="Shape" fill="#292929" fill-rule="nonzero" mask="url(#mask-40)"></path>
                    </g>
                </g>
                <g id="Clipped">
                    <g id="Shape-Clipped">
                        <mask id="mask-42" fill="white">
                            <use xlink:href="#path-41"></use>
                        </mask>
                        <g id="path-41"></g>
                        <path d="M82.398,268.867 L84.529,269.074 C84.367,265.804 84.204,262.398 84.107,259.58 L81.491,259.648 C82.08,261.294 82.478,266.009 82.398,268.868 L82.398,268.867 Z M84.666,269.217 L82.265,268.984 L82.266,268.924 C82.355,266.034 81.944,261.168 81.338,259.609 L81.305,259.523 L84.232,259.447 L84.234,259.511 C84.332,262.362 84.498,265.825 84.663,269.143 L84.666,269.218 L84.666,269.217 Z" id="Shape" fill="#161616" fill-rule="nonzero" mask="url(#mask-42)"></path>
                    </g>
                </g>
                <g id="Clipped">
                    <g id="Shape-Clipped">
                        <mask id="mask-44" fill="white">
                            <use xlink:href="#path-43"></use>
                        </mask>
                        <g id="path-43"></g>
                        <path d="M68.315,258.935 C68.195155,262.14664 68.0524847,265.357388 67.887,268.567 L70.153,268.347 C70.065,265.49 70.476,260.575 71.086,259.007 L68.315,258.935 L68.315,258.935 Z" id="Shape" fill="#292929" fill-rule="nonzero" mask="url(#mask-44)"></path>
                    </g>
                </g>
                <g id="Clipped">
                    <g id="Shape-Clipped">
                        <mask id="mask-46" fill="white">
                            <use xlink:href="#path-45"></use>
                        </mask>
                        <g id="path-45"></g>
                        <path d="M68.377,259.002 C68.276,261.944 68.107,265.438 67.955,268.495 L70.086,268.289 C70.006,265.432 70.404,260.715 70.993,259.069 L68.377,259.002 L68.377,259.002 Z M67.817,268.639 L67.822,268.564 C67.975,265.467 68.147,261.912 68.25,258.933 L68.252,258.869 L71.18,258.945 L71.146,259.031 C70.541,260.59 70.129,265.456 70.218,268.346 L70.22,268.406 L67.818,268.639 L67.817,268.639 Z" id="Shape" fill="#161616" fill-rule="nonzero" mask="url(#mask-46)"></path>
                    </g>
                </g>
                <g id="Clipped">
                    <g id="Shape-Clipped">
                        <mask id="mask-48" fill="white">
                            <use xlink:href="#path-47"></use>
                        </mask>
                        <g id="path-47"></g>
                        <path d="M79.24,260.206 L74.728,259.996 C73.8076323,259.946778 72.9163113,260.326346 72.314,261.024 C72.314,261.024 73.884,261.12 74.084,261.13 C75.202,261.182 77.588,261.27 77.588,261.27 C79.202,261.344 80.452,262.63 80.382,264.142 L80.322,265.432 C80.252,266.943 78.924,268.076 77.311,268.001 L71.999,267.787 C72.5334258,268.538257 73.3857686,268.999512 74.307,269.036 L78.818,269.245 C80.432,269.32 81.796,268.155 81.867,266.645 L82.033,263.078 C82.103,261.567 80.853,260.281 79.239,260.206" id="Shape" fill="#787878" fill-rule="nonzero" mask="url(#mask-48)"></path>
                    </g>
                </g>
                <g id="Clipped">
                    <g id="Shape-Clipped">
                        <mask id="mask-50" fill="white">
                            <use xlink:href="#path-49"></use>
                        </mask>
                        <g id="path-49"></g>
                        <path d="M53.138,243.178 C54.807,209.935 53.738,209.862 53.766,176.095 C53.766,176.095 52.086,163.501 51.397,162.24 C50.707,160.98 50.611,159.581 51.226,158.284 C51.554,157.593 52.054,156.978 52.627,156.424 C53.205,155.868 53.742,155.334 54.381,154.83 C55.718,153.776 57.804,152.719 58.936,152.193 C59.726,151.826 60.501,151.446 61.3,151.099 C62.771,150.489 64.3,149.989 65.86,149.581 C66.07,149.526 66.285,149.481 66.498,149.429 C66.324,149.847 66.434,150.343 66.805,150.639 C66.989,150.787 71.36,154.239 75.231,154.239 C76.765,154.239 77.989,153.739 78.871,152.752 C80.551,150.871 80.234,147.917 80.221,147.792 C80.214,147.744 80.201,147.699 80.19,147.652 C84.095,147.468 88.316,147.647 91.124,147.831 C91.124,147.831 93.371,147.881 93.687,147.921 C96.975,148.328 101.072,149.336 101.399,153.151 C101.519,154.543 101.399,156.288 100.76,157.562 C99.886,159.304 96.748,169.467 96.748,169.467 C96.835,184.004 94.71,200.481 95.358,225.921 C95.728,240.443 97.201,263.978 97.201,263.978 C97.201,263.978 82.036,265.677 75.239,265.677 C65.49,265.677 51.93,264.557 51.93,264.557 C51.93,264.557 52.982,246.291 53.138,243.177" id="Shape" fill="#373737" fill-rule="nonzero" mask="url(#mask-50)"></path>
                    </g>
                </g>
                <g id="Clipped">
                    <g id="Shape-Clipped">
                        <mask id="mask-52" fill="white">
                            <use xlink:href="#path-51"></use>
                        </mask>
                        <g id="path-51"></g>
                        <path d="M60.735,248.466 L70.773,247.054 C71.9636233,246.88706 72.9031149,245.957736 73.083,244.769 L73.833,239.796 L54.597,241.811 C54.016,245.664 56.878,247.885 60.735,248.466" id="Shape" fill="#292929" fill-rule="nonzero" mask="url(#mask-52)"></path>
                    </g>
                </g>
                <g id="Clipped">
                    <g id="Shape-Clipped">
                        <mask id="mask-54" fill="white">
                            <use xlink:href="#path-53"></use>
                        </mask>
                        <g id="path-53"></g>
                        <path d="M190.887,139.804 C181.981,141.582 173.343,145.208 164.363,146.994 C159.903,147.88 155.423,148.49 150.92,149.103 C148.316,149.457 144.882,150.365 142.613,148.53 C142.166976,148.164846 141.799581,147.713087 141.533,147.202 C140.673,145.575 140.934,143.549 142.877,142.932 C158.709,137.896 174.287,135.234 185.719,136.659 C198.329,138.23 197.281,135.103 197.309,134.939 L198.902,139.825 C197.95,139.311 192.97,139.388 190.887,139.804" id="Shape" fill="#FFB98F" fill-rule="nonzero" mask="url(#mask-54)"></path>
                    </g>
                </g>
                <g id="Clipped">
                    <g id="Shape-Clipped">
                        <mask id="mask-56" fill="white">
                            <use xlink:href="#path-55"></use>
                        </mask>
                        <g id="path-55"></g>
                        <path d="M197.18,129.022 C197.18,129.022 196.66,141.187 199.766,139.81 C202.873,138.432 201.979,126.045 201.979,126.045 C201.979,126.045 199.535,123.063 197.181,129.022 M146.889,149.268 C145.517,150.101 143.651,150.397 141.967,150.83 C137.293,152.033 132.454,152.547 127.706,153.36 C121.612,154.401 115.387,155.561 109.524,157.49 C106.698255,158.410973 103.905854,159.431273 101.152,160.549 C99.4520624,161.246574 97.4979593,160.585966 96.57,159 C95.354,156.915 93.992,153.887 94.044,150.848 C94.071,149.262 95.143,147.886 96.658,147.412 C103.188,145.368 109.818,144.376 116.525,143.081 C121.96,142.031 127.388,140.847 132.914,140.378 C135.696,140.142 138.501,140.088 141.284,140.348 C144.657,140.664 148.979,141.133 148.902,145.552 C148.868,147.458 148.058,148.557 146.888,149.267" id="Shape" fill="#FFB98F" fill-rule="nonzero" mask="url(#mask-56)"></path>
                    </g>
                </g>
                <g id="Clipped">
                    <g id="Shape-Clipped">
                        <mask id="mask-58" fill="white">
                            <use xlink:href="#path-57"></use>
                        </mask>
                        <g id="path-57"></g>
                        <path d="M193.002,135.353 C193.814,137.49 193.678,140.573 193.315,143.337 L189.869,143.664 C189.476,143.701 189.825,138.647 189.903,138.199 C189.983,137.739 190.083,137.284 190.202,136.834 C190.282,136.527 190.365,135.798 190.602,135.576 C191.008,135.195 193.002,135.353 193.002,135.353" id="Shape" fill="#D8D8D8" fill-rule="nonzero" mask="url(#mask-58)"></path>
                    </g>
                </g>
                <g id="Clipped">
                    <g id="Shape-Clipped">
                        <mask id="mask-60" fill="white">
                            <use xlink:href="#path-59"></use>
                        </mask>
                        <g id="path-59"></g>
                        <path d="M81.315,147.61 C89.189,146.71 93.715,145.854 94.886,145.638 C99.441,144.799 103.969,143.828 108.488,142.82 C110.413,142.392 130.858,139.249 135.624,138.624 C146.604,137.184 157.634,134.994 168.707,134.639 C176.337,134.395 183.977,134.449 191.603,134.802 C191.514,135.517 190.12,144.132 191.369,144.004 C178.499,145.321 165.774,148.207 153.01,150.295 C142.258,152.055 132.162,153.298 121.215,155.488 C116.702,156.391 111.302,157.613 107.24,159.821 C104.072,161.542 101.339,163.836 98.991,166.53 C98.188,167.451 92.857,174.274 94.058,175.474 C87.2,169.053 81.315,147.611 81.315,147.609" id="Shape" fill="#373737" fill-rule="nonzero" mask="url(#mask-60)"></path>
                    </g>
                </g>
                <g id="Clipped">
                    <g id="Shape-Clipped">
                        <mask id="mask-62" fill="white">
                            <use xlink:href="#path-61"></use>
                        </mask>
                        <g id="path-61"></g>
                        <path d="M43.474,232.61 C36.588,226.23 17.55,212.026 9.86,204.145 C9.769,204.052 8.112,202.583 6.622,202.56 C3.327,202.51 0.964,205.418 2.947,208.047 C13.08,221.477 26.69,229.29 37.468,233.352 C44.746,236.095 57.364,242.803 57.364,242.803 C57.364,242.803 59.507,240.641 58.748,236.336 C49.362,232.006 49.795,238.464 43.474,232.61" id="Shape" fill="#FFB98F" fill-rule="nonzero" mask="url(#mask-62)"></path>
                    </g>
                </g>
                <g id="Clipped">
                    <g id="Shape-Clipped">
                        <mask id="mask-64" fill="white">
                            <use xlink:href="#path-63"></use>
                        </mask>
                        <g id="path-63"></g>
                        <path d="M56.536,245.047 C56.536,245.047 44.886,241.326 47.801,235.738 C50.717,230.151 63.071,234.805 63.071,234.805 C63.071,234.805 63.341,242.731 56.536,245.047 M9.396,208.158 C14.36,193.713 35.993,182.247 43.663,178.568 C45.3210165,177.779299 46.1434263,175.888653 45.59,174.138 C44.86,171.838 43.528,168.798 41.239,166.795 C40.044,165.75 38.304,165.62 36.934,166.423 C18.236,177.389 7.823,191.053 2.468,204.706 C2.10176046,205.645892 2.14453351,206.696007 2.586,207.603 C3.562,209.608 4.486,210.468 5.766,210.592 C7.373,210.748 8.872,209.684 9.396,208.158" id="Shape" fill="#FFB98F" fill-rule="nonzero" mask="url(#mask-64)"></path>
                    </g>
                </g>
                <g id="Clipped">
                    <g id="Shape-Clipped">
                        <mask id="mask-66" fill="white">
                            <use xlink:href="#path-65"></use>
                        </mask>
                        <g id="path-65"></g>
                        <path d="M46.554,230.766 C46.208,233.026 44.571,235.644 42.894,237.871 L39.732,236.461 C39.372,236.301 42.165,232.073 42.454,231.721 C42.75,231.361 43.061,231.013 43.387,230.68 C43.607,230.452 44.038,229.858 44.354,229.781 C44.896,229.649 46.554,230.766 46.554,230.766" id="Shape" fill="#D8D8D8" fill-rule="nonzero" mask="url(#mask-66)"></path>
                    </g>
                </g>
                <g id="Clipped">
                    <g id="Shape-Clipped">
                        <mask id="mask-68" fill="white">
                            <use xlink:href="#path-67"></use>
                        </mask>
                        <g id="path-67"></g>
                        <path d="M58.336,152.48 C58.336,152.48 52.999,154.124 48.363,157.013 C41.301,161.414 34.121,165.527 27.541,170.671 C17.641,178.41 8.31,187.711 1.977,198.631 C1.254,199.876 0.523,201.144 0.173,202.541 C-0.837,206.584 2.809,210.887 5.191,213.772 C14.687,225.27 27.529,232.439 41.014,237.872 C40.715,236.9 44.141,231.618 45.472,229.769 C44.719,229.478 41.817,227.777 41.195,227.389 C34.148,222.987 28.47,218.215 22.648,213.087 C20.7855729,211.43919 18.8980183,209.82 16.986,208.23 C15.703,207.17 13.816,206.247 13.859,204.291 C13.874,203.655 13.823,203.079 14.207,202.571 C17.634,198.032 22.33,194.861 26.83,191.488 C31.908,187.681 37.184,184.09 42.835,181.178 C46.142,179.474 48.998,177.638 52.601,176.463 C56.07,175.332 59.631,174.494 63.073,173.278 C63.073,173.278 62.797,167.548 62.142,163.468 C61.485,159.385 58.336,152.479 58.336,152.479" id="Shape" fill="#373737" fill-rule="nonzero" mask="url(#mask-68)"></path>
                    </g>
                </g>
                <g id="Clipped">
                    <g id="Shape-Clipped">
                        <mask id="mask-70" fill="white">
                            <use xlink:href="#path-69"></use>
                        </mask>
                        <g id="path-69"></g>
                        <path d="M82.47,194.489 C85.768,185.576 85.856,176.792 86.464,167.076 C86.872,160.556 84.868,153.986 83.853,147.578 C82.6315805,147.572951 81.410219,147.597625 80.19,147.652 C80.11,147.659 67,149.314 66.498,149.429 C66.285,149.479 66.071,149.525 65.859,149.581 C64.3,149.99 62.784,150.537 61.313,151.146 C60.726,151.401 60.141,151.631 59.565,151.901 C60.205,151.603 64.331,164.124 64.601,164.941 C67.029,172.292 69.332,179.685 71.614,187.083 C73.774,194.087 75.573,201.347 76.85,208.563 C76.85,208.563 80.403,200.073 82.47,194.489" id="Shape" fill="#FFFFFF" fill-rule="nonzero" mask="url(#mask-70)"></path>
                    </g>
                </g>
                <g id="Clipped">
                    <g id="Group-Clipped">
                        <mask id="mask-72" fill="white">
                            <use xlink:href="#path-71"></use>
                        </mask>
                        <g id="path-71"></g>
                        <g id="Group" mask="url(#mask-72)">
                            <g transform="translate(72.000000, 153.000000)" id="c-link">
                                <g>
                                    <g id="Group" fill-rule="nonzero" fill="#005C8E">
                                        <path d="M5.49,3.33 L5.122,4.299 L4.954,4.741 C4.74864134,5.28156131 4.6936919,5.86768868 4.795,6.437 C4.82575723,6.61826217 4.85609065,6.799596 4.886,6.981 L4.914,7.147 L4.984,7.579 C5.586,11.415 8.67,26.95 9.688,37.932 L4.81,54.79 C4.81,54.79 3.247,42.265 1.827,32.772 C1.922,33.413 2.019,11.634 1.982,7.452 L1.98,6.972 L1.98,6.74 L1.978,6.528 L1.978,6.432 C1.97265567,5.79045549 1.77362863,5.16548967 1.407,4.639 L1.087,4.178 L0.316,3.067 L2.674,0.199 L5.489,3.329 L5.49,3.33 Z" id="c"></path>
                                    </g>
                                    <g id="Group" fill-rule="nonzero" fill="#EF4035">
                                        <path d="M5.49,3.33 L5.122,4.299 L4.954,4.741 C4.74864134,5.28156131 4.6936919,5.86768868 4.795,6.437 C4.82575723,6.61826217 4.85609065,6.799596 4.886,6.981 L4.914,7.147 L4.984,7.579 C5.586,11.415 8.67,26.95 9.688,37.932 L4.81,54.79 C4.81,54.79 3.247,42.265 1.827,32.772 C1.922,33.413 2.019,11.634 1.982,7.452 L1.98,6.972 L1.98,6.74 L1.978,6.528 L1.978,6.432 C1.97265567,5.79045549 1.77362863,5.16548967 1.407,4.639 L1.087,4.178 L0.316,3.067 L2.674,0.199 L5.489,3.329 L5.49,3.33 Z" id="c"></path>
                                    </g>
                                </g>
                            </g>
                        </g>
                    </g>
                </g>
                <g id="Clipped">
                    <g id="Shape-Clipped">
                        <mask id="mask-74" fill="white">
                            <use xlink:href="#path-73"></use>
                        </mask>
                        <g id="path-73"></g>
                        <path d="M79.72,147.728 C79.72,147.728 80.645,153.976 74.274,153.071 L79.627,158.966 L85.195,147.134 C85.195,147.134 81.437,147.492 79.72,147.728" id="Shape" fill="#D8D8D8" fill-rule="nonzero" mask="url(#mask-74)"></path>
                    </g>
                </g>
                <g id="Clipped">
                    <g id="Shape-Clipped">
                        <mask id="mask-76" fill="white">
                            <use xlink:href="#path-75"></use>
                        </mask>
                        <g id="path-75"></g>
                        <path d="M79.486,147.74 C79.486,147.74 79.857,153.46 74.884,153.138 L79.504,158.112 L84.55,147.195 C84.55,147.195 81.04,147.525 79.486,147.74" id="Shape" fill="#FFFFFF" fill-rule="nonzero" mask="url(#mask-76)"></path>
                    </g>
                </g>
                <g id="Clipped">
                    <g id="Shape-Clipped">
                        <mask id="mask-78" fill="white">
                            <use xlink:href="#path-77"></use>
                        </mask>
                        <g id="path-77"></g>
                        <path d="M67.78,148.771 C67.78,148.771 67.488,152.155 74.884,153.138 L70.716,159.847 L61.659,150.98 C61.659,150.98 66.605,149.393 67.779,148.771" id="Shape" fill="#D8D8D8" fill-rule="nonzero" mask="url(#mask-78)"></path>
                    </g>
                </g>
                <g id="Clipped">
                    <g id="Shape-Clipped">
                        <mask id="mask-80" fill="white">
                            <use xlink:href="#path-79"></use>
                        </mask>
                        <g id="path-79"></g>
                        <path d="M67.763,148.786 C67.763,148.786 67.879,151.244 74.274,153.071 L70.614,159.158 L62.101,150.793 C63.871,150.086 67.054,149.09 67.763,148.786" id="Shape" fill="#FFFFFF" fill-rule="nonzero" mask="url(#mask-80)"></path>
                    </g>
                </g>
                <g id="Clipped">
                    <g id="Shape-Clipped">
                        <mask id="mask-82" fill="white">
                            <use xlink:href="#path-81"></use>
                        </mask>
                        <g id="path-81"></g>
                        <path d="M78.996,134.744 L79.179,139.589 L79.476,147.47 C79.532,148.955 79.593,150.338 78.709,151.615 C77.983,152.662 76.799,153.198 75.539,153.198 C71.989,153.198 67.763,149.827 67.763,149.827 L67.379,130.633 C67.379,130.633 73.849,136.239 78.996,134.744" id="Shape" fill="#FFB98F" fill-rule="nonzero" mask="url(#mask-82)"></path>
                    </g>
                </g>
                <g id="Clipped">
                    <g id="Shape-Clipped">
                        <mask id="mask-84" fill="white">
                            <use xlink:href="#path-83"></use>
                        </mask>
                        <g id="path-83"></g>
                        <path d="M68.585,161.622 C68.818,162.406 69.051,163.189 69.272,163.982 C69.706,165.535 70.102,167.117 70.476,168.706 C71.886,174.713 73.854,182.049 74.719,188.255 C75.582,194.438 75.816,199.574 76.747,205.737 C76.826,206.26 76.904,206.784 76.971,207.308 C76.971,207.308 77.018,208.898 76.803,208.698 C76.803,208.698 66.442,176.331 62.206,167.713 C61.8599916,167.003656 61.4924883,166.304999 61.104,165.618 C60.8411801,165.163662 60.8071095,164.612236 61.012,164.129 C61.215,163.658 61.642,163.303 62.155,163.173 L63.038,162.963 L59.703,160.938 C59.1877135,160.615337 58.8859035,160.040369 58.913,159.433 L59.103,152.118 C60.685,151.258 63.703,150.15 64.093,150.062 C64.093,150.062 64.879,151.895 65.066,152.312 C66.423,155.193 67.58,158.343 68.586,161.622" id="Shape" fill="#292929" fill-rule="nonzero" mask="url(#mask-84)"></path>
                    </g>
                </g>
                <g id="Clipped">
                    <g id="Shape-Clipped">
                        <mask id="mask-86" fill="white">
                            <use xlink:href="#path-85"></use>
                        </mask>
                        <g id="path-85"></g>
                        <path d="M89.213,158.322 C89.378,159.021 89.118,159.753 88.539,160.169 L87.16,161.184 L88.158,161.707 C88.881,162.085 89.232,162.706 89.388,163.632 C89.448,164.55 89.303,166.014 88.977,167.869 C88.251,172 88.197,176.212 87.709,180.372 C87.078,185.753 85.689,190.974 83.401,195.895 C82.381,198.09 81.154,200.18 79.981,202.295 C79.4247348,203.286953 78.9063608,204.299683 78.427,205.331 C78.16,205.91 77.009,208.712 76.85,208.712 C76.409,207.497 79.852,196.5 81.315,190.498 C83.167,182.996 83.075,174.965 83.168,166.066 C83.184,164.05 83.143,162.006 83.043,159.943 L82.985,159.002 C82.864,157.04 82.728,155.078 82.473,153.128 C82.3495772,152.165096 82.1904677,151.207104 81.996,150.256 C81.806,149.339 81.468,148.461 81.296,147.54 L85.369,147.099 C85.918,148.194 86.617,150.437 87.036,151.508 C87.9122644,153.728438 88.6395432,156.004818 89.213,158.322" id="Shape" fill="#292929" fill-rule="nonzero" mask="url(#mask-86)"></path>
                    </g>
                </g>
                <g id="Clipped">
                    <g id="Shape-Clipped">
                        <mask id="mask-88" fill="white">
                            <use xlink:href="#path-87"></use>
                        </mask>
                        <g id="path-87"></g>
                        <path d="M76.812,265.464 C76.6921542,265.464 76.595,265.366846 76.595,265.247 L76.721,208.147 C76.7155014,208.06614 76.7555214,207.988955 76.8247749,207.946854 C76.8940283,207.904752 76.9809717,207.904752 77.0502251,207.946854 C77.1194786,207.988955 77.1594986,208.06614 77.154,208.147 L77.029,265.248 C77.029,265.368 76.932,265.464 76.812,265.464" id="Shape" fill="#292929" fill-rule="nonzero" mask="url(#mask-88)"></path>
                    </g>
                </g>
                <g id="Clipped">
                    <g id="Shape-Clipped">
                        <mask id="mask-90" fill="white">
                            <use xlink:href="#path-89"></use>
                        </mask>
                        <g id="path-89"></g>
                        <path d="M63.298,133.238 C66.738,136.93 70.353,139.645 74.622,139.881 C81.186,140.243 85.72,133.066 89.276,128.297 C93.06,123.222 96.209,98.052 91.111,81.464 C90.26,79.427 89.259,77.532 88.071,75.841 C84.504,70.77 79.24,67.546 71.221,67.896 C69.2975535,67.9944549 67.3974012,68.3620308 65.576,68.988 C56.696,72.038 51.093,83.173 51.496,96.87 C52.176,120.022 54.174,123.446 63.298,133.238" id="Shape" fill="#FFB98F" fill-rule="nonzero" mask="url(#mask-90)"></path>
                    </g>
                </g>
                <g id="Clipped">
                    <g id="Shape-Clipped">
                        <mask id="mask-92" fill="white">
                            <use xlink:href="#path-91"></use>
                        </mask>
                        <g id="path-91"></g>
                        <path d="M74.047,133.433 C73.9439959,133.434788 73.8540646,133.363586 73.8321802,133.262917 C73.8102958,133.162249 73.8625499,133.060136 73.957,133.019 C75.809,132.189 77.393,131.656 79.487,132.959 C79.5883443,133.02196 79.6194605,133.155156 79.5565,133.2565 C79.4935395,133.357844 79.3603443,133.38896 79.259,133.326 C77.502,132.234 76.207,132.484 74.136,133.414 C74.1077024,133.426692 74.077013,133.433171 74.046,133.433" id="Shape" fill="#C46642" fill-rule="nonzero" mask="url(#mask-92)"></path>
                    </g>
                </g>
                <g id="Clipped">
                    <g id="Shape-Clipped">
                        <mask id="mask-94" fill="white">
                            <use xlink:href="#path-93"></use>
                        </mask>
                        <g id="path-93"></g>
                        <path d="M76.091,63.65 C71.67,61.268 61.631,64.596 57.787,67.878 C44.893,78.888 50.18,84.865 51.475,98.449 C54.065,90.687 58.967,82.256 63.898,80.297 C64.081,80.221 66.536,81.658 67.002,81.827 C68.808,82.484 70.693,82.983 72.55,83.472 C78.625,85.069 85.528,86.836 91.772,85.207 C93.146,84.85 94.511,84.327 95.59,83.405 C100.817,78.935 98.636,71.177 94.097,67.343 C89.337,63.322 83.033,61.268 77.178,59.43 C77.179,59.43 76.861,59.348 76.85,59.328 C77.498,60.621 80.088,61.915 78.4,64.005 C78.317,64.056 77.463,64.178 76.091,63.65" id="Shape" fill="#7F3728" fill-rule="nonzero" mask="url(#mask-94)"></path>
                    </g>
                </g>
                <g id="Clipped">
                    <g id="Shape-Clipped">
                        <mask id="mask-96" fill="white">
                            <use xlink:href="#path-95"></use>
                        </mask>
                        <g id="path-95"></g>
                        <path d="M52.015,98.927 C52.015,98.927 48.969,94.702 47.506,96.105 C46.308,97.255 45.523,103.821 45.938,106.067 C46.862,111.049 53.185,109.387 53.185,109.387 L52.015,98.927 L52.015,98.927 Z" id="Shape" fill="#FFB98F" fill-rule="nonzero" mask="url(#mask-96)"></path>
                    </g>
                </g>
                <g id="Clipped">
                    <g id="Shape-Clipped">
                        <mask id="mask-98" fill="white">
                            <use xlink:href="#path-97"></use>
                        </mask>
                        <g id="path-97"></g>
                        <path d="M49.94,106.169 C49.833,106.169 49.723,106.154 49.61,106.126 C48.622,105.876 48.118,103.153 48.307,102.334 C48.46,101.671 48.754,101.264 49.179,101.124 C49.905,100.885 50.699,101.552 50.733,101.58 C50.824127,101.65732 50.8353199,101.793873 50.758,101.885 C50.6806801,101.976127 50.544127,101.98732 50.453,101.91 C50.275,101.759 49.723,101.398 49.314,101.535 C49.043,101.625 48.846,101.926 48.729,102.431 C48.556,103.181 49.109,105.553 49.717,105.706 C50.109,105.806 50.464,105.64 50.803,105.203 C50.8761777,105.108283 51.0122832,105.090822 51.107,105.164 C51.2017168,105.237178 51.2191777,105.373283 51.146,105.468 C50.785,105.934 50.38,106.168 49.941,106.168" id="Shape" fill="#C46642" fill-rule="nonzero" mask="url(#mask-98)"></path>
                    </g>
                </g>
                <g id="Clipped">
                    <g id="Shape-Clipped">
                        <mask id="mask-100" fill="white">
                            <use xlink:href="#path-99"></use>
                        </mask>
                        <g id="path-99"></g>
                        <path d="M65.37,92.65 C67.617,92.354 69.947,92.06 69.947,92.08 C69.947,93.977 69.565,95.63 68.34,97.237 L58.194,97.8 C57.026,97.865 55.752,98.026 55.544,96.832 C55.41,96.056 55.234,94.958 56.044,94.551 C57.471,93.833 59.629,93.54 61.294,93.212 C61.584,93.155 63.447,92.902 65.369,92.649 M82.834,91.695 C80.587,91.4 78.256,91.105 78.256,91.125 C78.256,93.023 78.639,94.677 79.864,96.283 L90.01,96.846 C91.178,96.911 92.452,97.071 92.659,95.878 C92.794,95.101 92.969,94.004 92.16,93.596 C90.733,92.879 88.575,92.586 86.909,92.258 C86.619,92.201 84.757,91.948 82.834,91.695" id="Shape" fill="#7F3728" fill-rule="nonzero" mask="url(#mask-100)"></path>
                    </g>
                </g>
                <g id="Clipped">
                    <g id="Shape-Clipped">
                        <mask id="mask-102" fill="white">
                            <use xlink:href="#path-101"></use>
                        </mask>
                        <g id="path-101"></g>
                        <path d="M80.986,105.47 C81.207,105.467 81.431,105.445 81.581,105.447 C82.509,105.462 83.438,105.447 84.365,105.399 C85.946,105.319 91.901,105.471 91.304,102.583 C91.191,102.039 90.774,101.598 90.291,101.323 C89.808,101.049 89.259,100.917 88.718,100.788 C87.656,100.535 86.592,100.289 85.531,100.037 C84.3967585,99.7648267 83.2278317,99.6660394 82.064,99.744 C81.451,99.786 80.964,99.768 80.557,100.257 C80.187,100.7 79.919,101.23 79.786,101.791 C79.582,102.653 79.781,103.401 79.992,104.229 C80.062,104.502 80.145,105.159 80.373,105.346 C80.503,105.451 80.743,105.472 80.986,105.469" id="Shape" fill="#FFFFFF" fill-rule="nonzero" mask="url(#mask-102)"></path>
                    </g>
                </g>
            </g>
            <g id="Group" transform="translate(81.575000, 99.787000)">
                <g id="Clipped">
                    <g id="Shape-Clipped">
                        <mask id="mask-104" fill="white">
                            <use xlink:href="#path-103"></use>
                        </mask>
                        <g id="path-103"></g>
                        <path d="M0.291,3.161 C0.672,5.067 2.391,6.342 4.124,6.008 C5.86,5.675 6.956,3.858 6.575,1.951 C6.191,0.047 4.472,-1.226 2.738,-0.892 C1.005,-0.559 -0.093,1.256 0.291,3.161" id="Shape" fill="#005C8E" fill-rule="nonzero" mask="url(#mask-104)"></path>
                    </g>
                </g>
            </g>
            <path d="M84.186,103.403 C84.342,104.183 85.079,104.699 85.83,104.554 C86.582,104.41 87.065,103.66 86.909,102.879 C86.751,102.099 86.014,101.584 85.263,101.729 C84.512,101.873 84.029,102.623 84.186,103.403" id="Shape" fill="#292929" fill-rule="nonzero"></path>
            <path d="M68.596,105.613 C68.376,105.608 68.151,105.583 68.002,105.583 C67.0733038,105.586306 66.1447647,105.557956 65.218,105.498 C63.638,105.396 57.68,105.472 58.315,102.568 C58.435,102.021 58.857,101.581 59.344,101.311 C59.83,101.041 60.381,100.914 60.924,100.791 C61.989,100.55 63.058,100.316 64.122,100.075 C65.2595645,99.8157064 66.4300185,99.7314041 67.593,99.825 C68.205,99.875 68.693,99.865 69.094,100.362 C69.459,100.814 69.72,101.352 69.845,101.92 C70.038,102.791 69.829,103.543 69.607,104.376 C69.534,104.649 69.442,105.312 69.211,105.496 C69.081,105.601 68.841,105.619 68.596,105.613" id="Shape" fill="#FFFFFF" fill-rule="nonzero"></path>
            <g id="Group" transform="translate(61.181000, 99.787000)">
                <g id="Clipped">
                    <g id="Shape-Clipped">
                        <mask id="mask-106" fill="white">
                            <use xlink:href="#path-105"></use>
                        </mask>
                        <g id="path-105"></g>
                        <path d="M6.407,3.21 C6.001,5.111 4.266,6.365 2.537,6.008 C0.807,5.653 -0.267,3.823 0.14,1.92 C0.55,0.02 2.284,-1.23 4.014,-0.874 C5.742,-0.519 6.817,1.31 6.407,3.211" id="Shape" fill="#005C8E" fill-rule="nonzero" mask="url(#mask-106)"></path>
                    </g>
                </g>
            </g>
            <path d="M66.426,103.078 C66.259,103.856 65.516,104.362 64.766,104.208 C64.016,104.054 63.544,103.298 63.71,102.519 C63.878,101.741 64.622,101.236 65.371,101.39 C66.121,101.544 66.594,102.3 66.426,103.078" id="Shape" fill="#292929" fill-rule="nonzero"></path>
            <g id="Group" transform="translate(58.000000, 92.000000)" fill-rule="nonzero">
                <path d="M22.04,14.687 C21.932952,14.6854314 21.8428858,14.6063636 21.8274668,14.5004203 C21.8120479,14.394477 21.87584,14.2930167 21.978,14.261 C22,14.254 24.29,13.575 28.288,13.185 C30.962,12.924 33.762,13.393 33.79,13.398 C33.9084651,13.4184345 33.9879345,13.5310349 33.9675,13.6495 C33.9470655,13.7679651 33.8344651,13.8474345 33.716,13.827 C33.689,13.822 30.946,13.364 28.33,13.619 C24.38,14.003 22.126,14.671 22.103,14.679 C22.0828037,14.6845259 22.0619375,14.6872183 22.041,14.687 M12.258,14.687 C12.2370157,14.686893 12.2161486,14.6838639 12.196,14.678 C12.173,14.671 9.919,14.003 5.968,13.618 C3.353,13.364 0.609,13.822 0.582,13.827 C0.463258779,13.8471584 0.350658393,13.7672412 0.3305,13.6485 C0.310341607,13.5297588 0.390258779,13.4171584 0.509,13.397 C0.537,13.393 3.336,12.925 6.011,13.185 C10.008,13.575 12.298,14.255 12.321,14.261 C12.4233206,14.2930877 12.4871102,14.3948238 12.4714223,14.500904 C12.4557343,14.6069842 12.3652284,14.685902 12.258,14.687 M15.955,27.314 C15.25,27.314 14.717,27.124 14.372,26.748 C13.93,26.267 13.947,25.633 13.962,25.45 C13.972,25.33 14.076,25.24 14.198,25.252 C14.318,25.262 14.408,25.367 14.397,25.487 C14.385,25.625 14.371,26.103 14.693,26.453 C14.953,26.736 15.377,26.879 15.955,26.879 C16.888,26.879 18.243,26.863 19.53,26.847 C20.745,26.832 21.898,26.817 22.582,26.82 L22.583,26.82 C22.919,26.82 23.59,26.54 23.83,26.154 C23.9430819,25.9831679 23.9508084,25.7633502 23.85,25.585 C23.8112147,25.5148609 23.8140446,25.4290956 23.8573691,25.3616657 C23.9006935,25.2942358 23.9775247,25.2560173 24.0574388,25.2621439 C24.1373529,25.2682704 24.2074604,25.317754 24.24,25.391 C24.4088407,25.7041557 24.3935061,26.0844551 24.2,26.383 C23.864,26.925 23.024,27.253 22.581,27.255 C21.905,27.256 20.748,27.268 19.535,27.283 C18.247,27.298 16.89,27.314 15.955,27.314 M21.454,24.425 C21.3644043,24.4250861 21.2838791,24.3703448 21.251,24.287 C20.211,21.65 19.671,18.097 19.53,17.071 C19.53,17.068 19.125,13.767 18.94,12.303 L18.755,10.839 C18.7468709,10.7234686 18.8305001,10.6217475 18.9454228,10.6073822 C19.0603454,10.5930169 19.1664405,10.6710224 19.187,10.785 L19.372,12.249 C19.557,13.713 19.962,17.015 19.962,17.015 C20.101,18.025 20.634,21.535 21.656,24.128 C21.682523,24.194876 21.6741768,24.2705497 21.6337167,24.330038 C21.5932567,24.3895262 21.5259434,24.4250945 21.454,24.425 M18.739,5.003 C18.6253244,5.00282471 18.5308645,4.91532961 18.522,4.802 L18.186,0.362 C18.1768873,0.241878075 18.2668781,0.13711272 18.387,0.128000022 C18.5071219,0.118887325 18.6118873,0.208878077 18.621,0.329 L18.956,4.769 C18.966,4.889 18.876,4.994 18.756,5.003 L18.739,5.003" id="Shape" fill="#C46642"></path>
                <path d="M26.736,32.62 C26.736,32.62 23.852,36.942 21.544,37.506 C19.236,38.069 16.336,38.19 10.742,32.212 C15.799,34.922 25.215,33.244 26.736,32.62" id="Shape" fill="#FFFFFF"></path>
            </g>
        </g>
    </g>
</svg>