<svg xmlns="http://www.w3.org/2000/svg" xmlns:xlink="http://www.w3.org/1999/xlink" width="2478" height="400" viewBox="0 0 2478 400">
    <defs>
        <path id="a" d="M0 0h2502v541H0z"/>
        <linearGradient id="c" x1="50%" x2="50%" y1="100%" y2="0%">
            <stop offset="0%" stop-color="#F2FFFD"/>
            <stop offset="100%" stop-color="#90B9E4"/>
        </linearGradient>
        <linearGradient id="d" x1="50%" x2="50%" y1="100%" y2="0%">
            <stop offset="0%" stop-color="#F2FFFD"/>
            <stop offset="100%" stop-color="#90B9E4"/>
        </linearGradient>
    </defs>
    <g fill="none" fill-rule="evenodd" transform="translate(-12 -141)">
        <mask id="b" fill="#fff">
            <use xlink:href="#a"/>
        </mask>
        <g mask="url(#b)">
            <path fill="url(#c)" d="M221.122 630.338c601.37-678.03 1109.704-809.062 1525-393.095 31.191 31.033 119.593 124.792 265.205 281.276 145.612 156.484 227.17 261.739 244.673 315.763L221.122 948V630.338z" opacity=".41" transform="matrix(-1 0 0 1 2125.122 141)"/>
            <path fill="url(#c)" d="M1401 322c189.356 0 358.4 112.48 507.134 337.439C1944.356 714.224 1995.978 811.41 2063 951H739c182.806-419.333 403.473-629 662-629z" opacity=".2" transform="translate(-352 141)"/>
            <path fill="url(#c)" d="M2211 73v948H1209c276.695-632 610.695-948 1002-948z" opacity=".41" transform="translate(-352 141)"/>
            <path fill="url(#c)" d="M3213 73v948H2211c276.695-632 610.695-948 1002-948z" opacity=".41" transform="matrix(-1 0 0 1 5072 141)"/>
            <path fill="url(#c)" d="M735.963 252c210.533 0 398.483 123.567 563.851 370.7 40.273 60.185 97.668 166.952 172.186 320.3H734l1.963-691z" opacity=".41" transform="translate(-352 141)"/>
            <path fill="url(#c)" d="M0 252c210.533 0 398.483 123.567 563.851 370.7 40.273 60.185 97.668 166.952 172.186 320.3h-734L0 252z" opacity=".41" transform="matrix(-1 0 0 1 384.037 141)"/>
            <path fill="url(#d)" d="M734 490.014C1472.5 951 1472.5 183.96 2211 355.504c199.15 48.35 290.975 119.884 275.475 214.605-14.685 89.744 148.29 216.708 488.926 380.891H734V490.014z" opacity=".41" transform="translate(-352 141)"/>
        </g>
    </g>
</svg>
