<svg width="193" height="162" viewBox="0 0 193 162" fill="none" xmlns="http://www.w3.org/2000/svg">
<path d="M159.807 161.346L154.165 155.082L148.953 161.708L148.422 145.767L159.275 145.405L159.807 161.346Z" fill="#FB446C"/>
<path d="M133.705 161.138L128.876 154.228L122.889 160.162L124.325 144.276L135.138 145.252L133.705 161.138Z" fill="#6EA00E"/>
<path d="M106.433 155.601L102.959 147.922L95.9819 152.653L100.312 137.301L110.764 140.249L106.433 155.601Z" fill="#703CD5"/>
<path d="M82.6322 146.915L80.3459 138.802L72.7395 142.436L79.3181 127.906L89.2108 132.385L82.6322 146.915Z" fill="#0386E9"/>
<path d="M59.941 134.7L59.2393 126.299L51.0819 128.419L60.3052 115.407L69.1643 121.686L59.941 134.7Z" fill="#FECB17"/>
<path d="M40.3559 118.126L40.846 109.711L32.4694 110.661L43.4355 99.0787L51.3221 106.544L40.3559 118.126Z" fill="#FB446C"/>
<path d="M24.2225 100.032L26.36 91.8785L17.9623 91.1596L30.9936 81.963L37.2537 90.8374L24.2225 100.032Z" fill="#6EA00E"/>
<path d="M12.2916 79.9915L15.5142 72.2021L7.29195 70.3525L21.4482 63.0074L26.4498 72.6464L12.2916 79.9915Z" fill="#703CD5"/>
<path d="M3.51044 60.0288L7.858 52.8077L0 49.753L15.0944 44.5988L18.603 54.8747L3.51044 60.0288Z" fill="#0386E9"/>
<path d="M192.488 134.658C192.515 134.744 191.666 135.095 190.019 135.69L188.634 136.18L186.943 136.706L184.966 137.309C184.256 137.514 183.495 137.707 182.691 137.923L181.451 138.251L180.805 138.42L180.137 138.575L177.304 139.221C176.81 139.339 176.301 139.433 175.778 139.534L174.19 139.841C173.65 139.942 173.101 140.056 172.539 140.154L170.823 140.43C165.524 141.282 160.179 141.811 154.817 142.015C148.308 142.267 141.789 142.066 135.308 141.414C127.865 140.653 120.494 139.304 113.263 137.379C111.347 136.899 109.438 136.296 107.495 135.73C105.575 135.091 103.617 134.486 101.679 133.758C99.723 133.079 97.7895 132.284 95.8236 131.51C93.8843 130.673 91.9146 129.855 89.9754 128.92C81.9151 125.155 74.2499 120.596 67.0935 115.311C59.9668 109.992 53.3875 103.976 47.4533 97.353C45.9964 95.7665 44.6445 94.1114 43.2811 92.5039C41.973 90.8469 40.6497 89.2242 39.4351 87.5462C38.1766 85.9025 37.0325 84.2035 35.8655 82.5503C34.7614 80.8532 33.6307 79.2019 32.6239 77.5049C28.6897 71.1407 25.2652 64.4752 22.3824 57.5709C19.8811 51.5572 17.8008 45.3769 16.1566 39.0747C14.7992 33.8825 13.7594 28.6125 13.0427 23.2939C12.9626 22.7066 12.8845 22.1301 12.8082 21.5644C12.7395 20.9923 12.6881 20.4394 12.629 19.8921C12.5698 19.3449 12.5184 18.809 12.4631 18.2828C12.4078 17.7565 12.3525 17.2435 12.3239 16.7363C12.254 15.7193 12.1866 14.7532 12.1218 13.8379C12.1065 13.6072 12.0912 13.3784 12.076 13.1534C12.0607 12.9284 12.0588 12.7072 12.0512 12.486C12.0359 12.0474 12.0207 11.6203 12.0054 11.2046C11.9806 10.3733 11.9444 9.58764 11.9368 8.8497C11.9292 8.11176 11.9368 7.4234 11.9368 6.7827C11.9368 6.14201 11.9368 5.5528 11.9501 5.01127C11.9635 4.46973 11.9997 3.98349 12.0188 3.54492C12.1122 1.79636 12.2094 0.875366 12.2914 0.875366C12.3734 0.875366 12.4631 1.79636 12.5393 3.54492C12.5571 3.98095 12.5762 4.46782 12.5966 5.00554C12.629 5.54136 12.6652 6.12866 12.7033 6.76364C12.7415 7.39861 12.7777 8.08316 12.8177 8.81538C12.8578 9.5476 12.9417 10.3218 13.0084 11.1455C13.0427 11.5574 13.0752 11.9807 13.1114 12.4155C13.1285 12.6328 13.1457 12.8521 13.1629 13.0752C13.18 13.2983 13.2124 13.5214 13.2353 13.7502C13.3345 14.6592 13.4381 15.6126 13.5461 16.6105C13.5938 17.1101 13.6682 17.6173 13.7368 18.1359C13.8055 18.6546 13.8798 19.1847 13.9523 19.7243C14.0247 20.2639 14.0972 20.815 14.183 21.3718C14.2688 21.9286 14.3737 22.4987 14.4652 23.0765C15.3234 28.3096 16.475 33.4904 17.9147 38.5942C19.6554 44.7746 21.8047 50.8326 24.3483 56.7281C27.2769 63.4859 30.7193 70.0091 34.6451 76.2406C35.6557 77.8996 36.7807 79.5146 37.8867 81.1755C39.0441 82.7925 40.1749 84.4533 41.4258 86.0608C42.6309 87.7006 43.939 89.2871 45.2394 90.9079C46.5856 92.4868 47.9223 94.0999 49.3582 95.6502C55.1974 102.124 61.6546 108.012 68.638 113.231C75.6546 118.415 83.1613 122.901 91.0508 126.625C92.9576 127.551 94.8816 128.362 96.7827 129.195C98.7086 129.958 100.596 130.757 102.522 131.436C104.429 132.162 106.336 132.77 108.226 133.409C110.132 133.981 112.003 134.589 113.885 135.078C120.985 137.027 128.224 138.43 135.539 139.273C141.918 140.002 148.34 140.307 154.76 140.186C160.061 140.085 165.354 139.688 170.611 138.996L172.327 138.773C172.888 138.695 173.433 138.599 173.971 138.516L175.553 138.264C176.07 138.182 176.579 138.108 177.079 138.008L179.911 137.476L180.578 137.351L181.224 137.209L182.468 136.941C183.274 136.763 184.041 136.611 184.756 136.445L186.752 135.96L188.468 135.554L189.883 135.186C191.557 134.761 192.459 134.574 192.488 134.658Z" fill="#511623"/>
</svg>
