<svg viewBox="0 0 512 512.001" xmlns="http://www.w3.org/2000/svg"><path d="m511.90625 85.675781v-75.679687c0-5.519532-4.476562-9.996094-9.996094-9.996094h-75.679687c-5.523438 0-10 4.476562-10 9.996094v27.75h-.53125c-.167969 0-.335938.003906-.503907.011718-.164062-.007812-.332031-.011718-.5-.011718h-1.003906c-.167968 0-.335937.003906-.5.011718-.167968-.007812-.335937-.011718-.503906-.011718h-1.003906c-.167969 0-.335938.003906-.5.011718-.167969-.007812-.332032-.011718-.5-.011718h-1.003906c-.167969 0-.335938.003906-.503907.011718-.164062-.007812-.332031-.011718-.5-.011718h-1.003906c-.167969 0-.335937.003906-.5.011718-.167969-.007812-.335937-.011718-.503906-.011718h-1.003907c-.167968 0-.332031.003906-.5.011718-.167968-.007812-.332031-.011718-.5-.011718h-1.003906c-.167968 0-.335937.003906-.5.011718-.167968-.007812-.335937-.011718-.503906-.011718h-1.003906c-.167969 0-.332032.003906-.5.011718-.167969-.007812-.332032-.011718-.5-.011718h-1.003906c-.167969 0-.335938.003906-.503907.011718-.164062-.007812-.332031-.011718-.5-.011718h-1.003906c-.167969 0-.332031.003906-.5.011718-.167969-.007812-.332031-.011718-.5-.011718h-1.003906c-.167969 0-.335938.003906-.503907.011718-.164062-.007812-.332031-.011718-.5-.011718h-1.003906c-.167968 0-.335937.003906-.5.011718-.167968-.007812-.335937-.011718-.503906-.011718h-1.003906c-.167969 0-.332032.003906-.5.011718-.164063-.007812-.332032-.011718-.5-.011718h-1.003906c-.167969 0-.335938.003906-.503907.011718-.164062-.007812-.332031-.011718-.5-.011718h-1.003906c-.167969 0-.335937.003906-.5.011718-.167969-.007812-.335937-.011718-.503906-.011718h-1c-.167969 0-.335938.003906-.503907.011718-.164062-.007812-.332031-.011718-.5-.011718h-1.003906c-.167968 0-.335937.003906-.5.011718-.167968-.007812-.335937-.011718-.503906-.011718h-1c-.167969 0-.335938.003906-.503906.011718-.164063-.007812-.332032-.011718-.5-.011718h-1.003906c-.167969 0-.335938.003906-.5.011718-.167969-.007812-.335938-.011718-.503907-.011718h-1c-.167969 0-.335937.003906-.503906.011718-.164063-.007812-.332031-.011718-.5-.011718h-1.003906c-.167969 0-.335938.003906-.5.011718-.167969-.007812-.335938-.011718-.503907-.011718h-1.003906c-.167968 0-.335937.003906-.5.011718-.167968-.007812-.335937-.011718-.503906-.011718h-1c-.167969 0-.335938.003906-.503906.011718-.164063-.007812-.332032-.011718-.5-.011718h-1.003906c-.167969 0-.335938.003906-.5.011718-.167969-.007812-.335938-.011718-.503907-.011718h-1.003906c-.167969 0-.332031.003906-.5.011718-.167969-.007812-.332031-.011718-.5-.011718h-1.003906c-.167969 0-.335938.003906-.5.011718-.167969-.007812-.335938-.011718-.503907-.011718h-1.003906c-.167968 0-.332031.003906-.5.011718-.167968-.007812-.332031-.011718-.5-.011718h-1.003906c-.167969 0-.335938.003906-.503906.011718-.164063-.007812-.332032-.011718-.5-.011718h-1.003906c-.167969 0-.335938.003906-.5.011718-.167969-.007812-.332032-.011718-.5-.011718h-1.003907c-.167969 0-.335937.003906-.503906.011718-.164063-.007812-.332031-.011718-.5-.011718h-1.003906c-.167969 0-.335938.003906-.5.011718-.167969-.007812-.335938-.011718-.503907-.011718h-1.003906c-.167968 0-.332031.003906-.5.011718-.167968-.007812-.332031-.011718-.5-.011718h-1.003906c-.167969 0-.335938.003906-.503906.011718-.164063-.007812-.332032-.011718-.5-.011718h-1.003906c-.167969 0-.335938.003906-.5.011718-.167969-.007812-.335938-.011718-.503907-.011718h-1c-.167969 0-.335937.003906-.503906.011718-.164063-.007812-.332031-.011718-.5-.011718h-1.003906c-.167969 0-.335938.003906-.5.011718-.167969-.007812-.335938-.011718-.503907-.011718h-1c-.167968 0-.335937.003906-.503906.011718-.164062-.007812-.332031-.011718-.5-.011718h-1.003906c-.167969 0-.335938.003906-.5.011718-.167969-.007812-.335938-.011718-.503906-.011718h-1c-.167969 0-.335938.003906-.503906.011718-.164063-.007812-.332032-.011718-.5-.011718h-1.003907c-.167969 0-.335937.003906-.503906.011718-.164063-.007812-.332031-.011718-.5-.011718h-1.003906c-.167969 0-.335938.003906-.5.011718-.167969-.007812-.335938-.011718-.503907-.011718h-1c-.167968 0-.335937.003906-.5.011718-.167968-.007812-.335937-.011718-.503906-.011718h-1.003906c-.167969 0-.335938.003906-.5.011718-.167969-.007812-.335938-.011718-.503906-.011718h-1c-.167969 0-.335938.003906-.503906.011718-.164063-.007812-.332032-.011718-.5-.011718h-1.003907c-.167969 0-.335937.003906-.503906.011718-.164063-.007812-.332031-.011718-.5-.011718h-1.003906c-.167969 0-.332031.003906-.5.011718-.167969-.007812-.332031-.011718-.5-.011718h-1.003907c-.167968 0-.335937.003906-.503906.011718-.164062-.007812-.332031-.011718-.5-.011718h-1.003906c-.167969 0-.335938.003906-.5.011718-.167969-.007812-.332031-.011718-.503906-.011718h-1c-.167969 0-.335938.003906-.503906.011718-.164063-.007812-.332032-.011718-.5-.011718h-1.003907c-.167969 0-.335937.003906-.5.011718-.167969-.007812-.335937-.011718-.503906-.011718h-1.003906c-.167969 0-.332031.003906-.5.011718-.167969-.007812-.332031-.011718-.5-.011718h-1.003907c-.167968 0-.335937.003906-.5.011718-.167968-.007812-.335937-.011718-.503906-.011718h-1.003906c-.167969 0-.332031.003906-.5.011718-.167969-.007812-.332031-.011718-.5-.011718h-1.003906c-.167969 0-.335938.003906-.503906.011718-.164063-.007812-.332032-.011718-.5-.011718h-1.003907c-.167969 0-.335937.003906-.5.011718-.167969-.007812-.332031-.011718-.503906-.011718h-1c-.167969 0-.335937.003906-.503906.011718-.164063-.007812-.332031-.011718-.5-.011718h-.535157v-27.75c0-5.519532-4.476562-9.996094-10-9.996094h-75.675781c-5.523437 0-10 4.476562-10 9.996094v27.75h-.535156c-.167969 0-.335937.003906-.5.011718-.167969-.007812-.335937-.011718-.503906-.011718h-1c-.167969 0-.335938.003906-.503907.011718-.164062-.007812-.332031-.011718-.5-.011718h-1.003906c-.167968 0-.335937.003906-.503906.011718-.164062-.007812-.332031-.011718-.5-.011718h-1.003906c-.167969 0-.335938.003906-.5.011718-.167969-.007812-.335938-.011718-.503906-.011718h-1c-.167969 0-.335938.003906-.503907.011718-.164062-.007812-.332031-.011718-.5-.011718h-1.003906c-.167969 0-.335937.003906-.5.011718-.167969-.007812-.335937-.011718-.503906-.011718h-1c-.167969 0-.335938.003906-.503907.011718-.164062-.007812-.332031-.011718-.5-.011718h-1.003906c-.167968 0-.335937.003906-.5.011718-.167968-.007812-.332031-.011718-.503906-.011718h-1.003906c-.167969 0-.332032.003906-.5.011718-.167969-.007812-.332032-.011718-.5-.011718h-1.003906c-.167969 0-.335938.003906-.5.011718-.167969-.007812-.335938-.011718-.503907-.011718h-1.003906c-.167969 0-.335937.003906-.5.011718-.167969-.007812-.335937-.011718-.503906-.011718h-1c-.167969 0-.335938.003906-.503907.011718-.164062-.007812-.332031-.011718-.5-.011718h-1.003906c-.167968 0-.335937.003906-.5.011718-.167968-.007812-.335937-.011718-.503906-.011718h-1.003906c-.167969 0-.332032.003906-.5.011718-.167969-.007812-.332032-.011718-.5-.011718h-1.003906c-.167969 0-.335938.003906-.5.011718-.167969-.007812-.335938-.011718-.503907-.011718h-1.003906c-.167969 0-.332031.003906-.5.011718-.167969-.007812-.332031-.011718-.5-.011718h-1.003906c-.167969 0-.335938.003906-.503907.011718-.164062-.007812-.332031-.011718-.5-.011718h-1.003906c-.167968 0-.335937.003906-.5.011718-.167968-.007812-.335937-.011718-.503906-.011718h-1c-.167969 0-.335938.003906-.503906.011718-.164063-.007812-.332032-.011718-.5-.011718h-1.003906c-.167969 0-.335938.003906-.5.011718-.167969-.007812-.335938-.011718-.503907-.011718h-1.003906c-.167969 0-.332031.003906-.5.011718-.164063-.007812-.332031-.011718-.5-.011718h-1.003906c-.167969 0-.335938.003906-.5.011718-.167969-.007812-.335938-.011718-.503907-.011718h-1.003906c-.167968 0-.335937.003906-.5.011718-.167968-.007812-.332031-.011718-.503906-.011718h-1c-.167969 0-.335938.003906-.503906.011718-.164063-.007812-.332032-.011718-.5-.011718h-1.003906c-.167969 0-.335938.003906-.5.011718-.167969-.007812-.332032-.011718-.503907-.011718h-1c-.167969 0-.335937.003906-.503906.011718-.164063-.007812-.332031-.011718-.5-.011718h-1.003906c-.167969 0-.335938.003906-.5.011718-.167969-.007812-.335938-.011718-.503907-.011718h-1.003906c-.167968 0-.332031.003906-.5.011718-.167968-.007812-.332031-.011718-.5-.011718h-1.003906c-.167969 0-.335938.003906-.503906.011718-.164063-.007812-.332032-.011718-.5-.011718h-1.003906c-.167969 0-.335938.003906-.5.011718-.167969-.007812-.335938-.011718-.503907-.011718h-1c-.167969 0-.335937.003906-.503906.011718-.164063-.007812-.332031-.011718-.5-.011718h-1.003906c-.167969 0-.335938.003906-.5.011718-.167969-.007812-.335938-.011718-.503907-.011718h-1.003906c-.167968 0-.332031.003906-.5.011718-.167968-.007812-.332031-.011718-.5-.011718h-1.003906c-.167969 0-.335938.003906-.5.011718-.167969-.007812-.335938-.011718-.503906-.011718h-1.003906c-.167969 0-.332032.003906-.5.011718-.167969-.007812-.332032-.011718-.5-.011718h-1.003907c-.167969 0-.335937.003906-.503906.011718-.164063-.007812-.332031-.011718-.5-.011718h-1.003906c-.167969 0-.335938.003906-.5.011718-.167969-.007812-.332031-.011718-.5-.011718h-1.003907c-.167968 0-.335937.003906-.503906.011718-.164062-.007812-.332031-.011718-.5-.011718h-1.003906c-.167969 0-.335938.003906-.5.011718-.167969-.007812-.335938-.011718-.503906-.011718h-1.003906c-.167969 0-.332032.003906-.5.011718-.167969-.007812-.332032-.011718-.5-.011718h-1.003907c-.167969 0-.335937.003906-.5.011718-.167969-.007812-.335937-.011718-.503906-.011718h-1.003906c-.167969 0-.332031.003906-.5.011718-.167969-.007812-.332031-.011718-.5-.011718h-1.003907c-.167968 0-.335937.003906-.503906.011718-.164062-.007812-.332031-.011718-.5-.011718h-1.003906c-.167969 0-.335938.003906-.5.011718-.167969-.007812-.335938-.011718-.503906-.011718h-1c-.167969 0-.335938.003906-.503906.011718-.164063-.007812-.332032-.011718-.5-.011718h-1.003907c-.167969 0-.335937.003906-.503906.011718-.164063-.007812-.332031-.011718-.5-.011718h-1.003906c-.167969 0-.335938.003906-.5.011718-.164063-.007812-.332031-.011718-.5-.011718h-1.003907c-.167968 0-.335937.003906-.503906.011718-.164062-.007812-.332031-.011718-.5-.011718h-1.003906c-.167969 0-.335938.003906-.5.011718-.167969-.007812-.335938-.011718-.503906-.011718h-1c-.167969 0-.335938.003906-.503906.011718-.164063-.007812-.332032-.011718-.5-.011718h-1.003907c-.167969 0-.335937.003906-.5.011718-.167969-.007812-.335937-.011718-.503906-.011718h-1c-.167969 0-.335937.003906-.503906.011718-.164063-.007812-.332031-.011718-.5-.011718h-1.003907c-.167968 0-.335937.003906-.5.011718-.167968-.007812-.332031-.011718-.503906-.011718h-1.003906c-.167969 0-.332031.003906-.5.011718-.167969-.007812-.332031-.011718-.5-.011718h-1.058594c-.167968 0-.335937.003906-.503906.011718-.164062-.007812-.332031-.011718-.5-.011718h-1.003906c-.167969 0-.335938.003906-.503906.011718-.164063-.007812-.332032-.011718-.5-.011718h-.535157v-27.75c0-5.519532-4.476562-9.996094-9.996093-9.996094h-75.679688c-5.523438 0-10 4.476562-10 9.996094v75.679687c0 5.519531 4.476562 9.996094 10 9.996094h27.746094v.542969c0 .167968.003906.335937.011718.503906-.007812.164062-.011718.332031-.011718.5v1.003906c0 .167969.003906.335938.011718.503906-.007812.164063-.011718.332032-.011718.5v1.003907c0 .167969.003906.335937.011718.503906-.007812.164063-.011718.332031-.011718.5v1.007813c0 .167968.003906.335937.011718.5-.007812.167968-.011718.335937-.011718.503906v1.003906c0 .167969.003906.335938.011718.5-.007812.167969-.011718.335938-.011718.503906v1.003906c0 .167969.003906.335938.011718.5-.007812.167969-.011718.335938-.011718.503907v1.003906c0 .167969.003906.335937.011718.503906-.007812.164063-.011718.332031-.011718.5v1.003907c0 .167968.003906.335937.011718.503906-.007812.164062-.011718.332031-.011718.5v1.003906c0 .167969.003906.335938.011718.503906-.007812.164063-.011718.332032-.011718.5v1.003906c0 .167969.003906.335938.011718.503907-.007812.164062-.011718.332031-.011718.5v1.003906c0 .171875.003906.335937.011718.503906-.007812.167969-.011718.332031-.011718.503907v1.003906c0 .167968.003906.335937.011718.5-.007812.167968-.011718.335937-.011718.503906v1.003906c0 .167969.003906.335938.011718.5-.007812.167969-.011718.335938-.011718.503906v1.003907c0 .167969.003906.335937.011718.5-.007812.167969-.011718.335937-.011718.503906v1.003906c0 .167969.003906.335938.011718.503907-.007812.164062-.011718.332031-.011718.5v1.003906c0 .167968.003906.335937.011718.503906-.007812.164062-.011718.332031-.011718.5v1.003906c0 .171875.003906.335938.011718.503906-.007812.164063-.011718.332032-.011718.5v1.003907c0 .167969.003906.335937.011718.503906-.007812.164063-.011718.332031-.011718.5v1.007813c0 .167968.003906.335937.011718.5-.007812.167968-.011718.335937-.011718.503906v1.003906c0 .167969.003906.335938.011718.5-.007812.167969-.011718.335938-.011718.503906v1.003906c0 .167969.003906.335938.011718.5-.007812.167969-.011718.335938-.011718.503907v1.003906c0 .167969.003906.335937.011718.503906-.007812.164063-.011718.332031-.011718.5v1.003907c0 .167968.003906.335937.011718.503906-.007812.164062-.011718.332031-.011718.5v1.003906c0 .167969.003906.335938.011718.503906-.007812.164063-.011718.332032-.011718.5v1.003906c0 .167969.003906.335938.011718.503907-.007812.164062-.011718.332031-.011718.5v1.003906c0 .171875.003906.335937.011718.503906-.007812.167969-.011718.332031-.011718.503907v1.003906c0 .167968.003906.335937.011718.5-.007812.167968-.011718.335937-.011718.503906v1.003906c0 .167969.003906.335938.011718.5-.007812.167969-.011718.335938-.011718.503906v1.003907c0 .167969.003906.335937.011718.5-.007812.167969-.011718.335937-.011718.503906v1.003906c0 .167969.003906.335938.011718.503907-.007812.164062-.011718.332031-.011718.5v1.003906c0 .167968.003906.335937.011718.503906-.007812.164062-.011718.332031-.011718.5v1.003906c0 .167969.003906.335938.011718.503906-.007812.164063-.011718.332032-.011718.5v1.003907c0 .167969.003906.335937.011718.503906-.007812.164063-.011718.332031-.011718.5v1.007813c0 .167968.003906.335937.011718.5-.007812.167968-.011718.335937-.011718.503906v1.003906c0 .167969.003906.335938.011718.5-.007812.167969-.011718.335938-.011718.503906v1.003906c0 .167969.003906.335938.011718.503907-.007812.164062-.011718.332031-.011718.5v1.003906c0 .167969.003906.335937.011718.5-.007812.167969-.011718.335937-.011718.503906v1.003907c0 .167968.003906.335937.011718.503906-.007812.164062-.011718.332031-.011718.5v1.003906c0 .167969.003906.335938.011718.503906-.007812.164063-.011718.332032-.011718.5v1.003906c0 .171876.003906.335938.011718.503907-.007812.164062-.011718.332031-.011718.5v1.003906c0 .171875.003906.335937.011718.503906-.007812.167969-.011718.332031-.011718.503907v1.003906c0 .167968.003906.335937.011718.5-.007812.167968-.011718.335937-.011718.503906v1.003906c0 .167969.003906.335938.011718.5-.007812.167969-.011718.335938-.011718.503906v1.003907c0 .167969.003906.335937.011718.5-.007812.167969-.011718.335937-.011718.503906v1.003906c0 .167969.003906.335938.011718.503907-.007812.164062-.011718.332031-.011718.5v1.003906c0 .167968.003906.335937.011718.503906-.007812.164062-.011718.332031-.011718.5v1.003906c0 .167969.003906.335938.011718.503906-.007812.164063-.011718.332032-.011718.5v1.007813c0 .167969.003906.335937.011718.5-.007812.164063-.011718.332031-.011718.5v1.007813c0 .167968.003906.335937.011718.5-.007812.167968-.011718.335937-.011718.503906v1.003906c0 .167969.003906.335938.011718.5-.007812.167969-.011718.335938-.011718.503906v1.003906c0 .167969.003906.335938.011718.5-.007812.167969-.011718.335938-.011718.503907v1.003906c0 .167969.003906.335937.011718.5-.007812.167969-.011718.335937-.011718.503906v1.003907c0 .167968.003906.335937.011718.503906-.007812.164062-.011718.332031-.011718.5v1.003906c0 .167969.003906.335938.011718.503906-.007812.164063-.011718.332032-.011718.5v1.003906c0 .171876.003906.335938.011718.503907-.007812.167969-.011718.332031-.011718.503906v1c0 .167969.003906.335937.011718.503906-.007812.164063-.011718.332031-.011718.5v.546875h-27.746094c-5.523438 0-10 4.476563-10 9.996094v75.679688c0 5.519531 4.476562 9.996093 10 9.996093h27.746094v.542969c0 .167969.003906.335938.011718.503906-.007812.164063-.011718.332032-.011718.5v1.007813c0 .167969.003906.335937.011718.5-.007812.167969-.011718.335937-.011718.503906v1.003906c0 .167969.003906.335938.011718.5-.007812.167969-.011718.335938-.011718.503907v1.003906c0 .167968.003906.335937.011718.503906-.007812.164062-.011718.332031-.011718.5v1.003906c0 .167969.003906.335938.011718.503906-.007812.164063-.011718.332032-.011718.5v1.003907c0 .171875.003906.335937.011718.503906-.007812.167969-.011718.332031-.011718.503906v1.003907c0 .167968.003906.335937.011718.5-.007812.167968-.011718.335937-.011718.503906v1.003906c0 .167969.003906.335938.011718.5-.007812.167969-.011718.335938-.011718.503906v1.003906c0 .167969.003906.335938.011718.503907-.007812.164062-.011718.332031-.011718.5v1.003906c0 .167969.003906.335937.011718.503906-.007812.164063-.011718.332031-.011718.5v1.007813c0 .167968.003906.335937.011718.5-.007812.167968-.011718.335937-.011718.503906v1.003906c0 .167969.003906.335938.011718.5-.007812.167969-.011718.335938-.011718.503906v1.003907c0 .167969.003906.335937.011718.5-.007812.167969-.011718.335937-.011718.503906v1.003906c0 .167969.003906.335938.011718.503907-.007812.164062-.011718.332031-.011718.5v1.003906c0 .171875.003906.335937.011718.503906-.007812.167969-.011718.332031-.011718.503906v1.003906c0 .167969.003906.335938.011718.5-.007812.167969-.011718.335938-.011718.503907v1.003906c0 .167969.003906.335937.011718.5-.007812.167969-.011718.335937-.011718.503906v1.003907c0 .167968.003906.335937.011718.5-.007812.167968-.011718.335937-.011718.503906v1.003906c0 .167969.003906.335938.011718.503906-.007812.164063-.011718.332032-.011718.5v1.003906c0 .171876.003906.335938.011718.503907-.007812.167969-.011718.332031-.011718.503906v1.003906c0 .167969.003906.335938.011718.5-.007812.167969-.011718.335938-.011718.503907v1.003906c0 .167968.003906.335937.011718.5-.007812.167968-.011718.335937-.011718.503906v1.003906c0 .167969.003906.335938.011718.503906-.007812.164063-.011718.332032-.011718.5v1.003907c0 .167969.003906.335937.011718.503906-.007812.164063-.011718.332031-.011718.5v1.003906c0 .167969.003906.335938.011718.503907-.007812.164062-.011718.332031-.011718.5v1.007812c0 .167969.003906.335938.011718.5-.007812.167969-.011718.335938-.011718.503906v1.003906c0 .167969.003906.335938.011718.5-.007812.167969-.011718.335938-.011718.503907v1.003906c0 .167969.003906.335937.011718.503906-.007812.164063-.011718.332031-.011718.5v1.003907c0 .167968.003906.335937.011718.503906-.007812.164062-.011718.332031-.011718.5v1.003906c0 .171875.003906.335938.011718.503906-.007812.167969-.011718.332032-.011718.503906v1.003907c0 .167969.003906.335937.011718.5-.007812.167969-.011718.335937-.011718.503906v1.003906c0 .167969.003906.335938.011718.503907-.007812.164062-.011718.332031-.011718.5v1.003906c0 .167968.003906.335937.011718.503906-.007812.164062-.011718.332031-.011718.5v1.003906c0 .167969.003906.335938.011718.503906-.007812.164063-.011718.332032-.011718.5v1.007813c0 .167969.003906.335937.011718.5-.007812.167969-.011718.335937-.011718.503906v1.003907c0 .167968.003906.335937.011718.5-.007812.167968-.011718.335937-.011718.503906v1.003906c0 .167969.003906.335938.011718.5-.007812.167969-.011718.335938-.011718.503906v1.003906c0 .167969.003906.335938.011718.503907-.007812.164062-.011718.332031-.011718.5v1.003906c0 .171875.003906.335937.011718.503906-.007812.167969-.011718.332031-.011718.503907v1.003906c0 .167968.003906.335937.011718.5-.007812.167968-.011718.335937-.011718.503906v1.003906c0 .167969.003906.335938.011718.5-.007812.167969-.011718.335938-.011718.503906v1.003907c0 .167969.003906.335937.011718.503906-.007812.164063-.011718.332031-.011718.5v1.003906c0 .167969.003906.335938.011718.503907-.007812.164062-.011718.332031-.011718.5v1.007812c0 .167969.003906.335938.011718.5-.007812.167969-.011718.335938-.011718.503906v1.003906c0 .167969.003906.335938.011718.5-.007812.167969-.011718.335938-.011718.503907v1.003906c0 .167969.003906.335937.011718.5-.007812.167969-.011718.335937-.011718.503906v1.003907c0 .167968.003906.335937.011718.503906-.007812.164062-.011718.332031-.011718.5v1.003906c0 .167969.003906.335938.011718.503906-.007812.164063-.011718.332032-.011718.5v1.003906c0 .171876.003906.335938.011718.503907-.007812.167969-.011718.332031-.011718.503906v1.003906c0 .167969.003906.335938.011718.5-.007812.167969-.011718.335938-.011718.503907v1.003906c0 .167968.003906.335937.011718.503906-.007812.164062-.011718.332031-.011718.5v1.003906c0 .167969.003906.335938.011718.503906-.007812.164063-.011718.332032-.011718.5v1.003907c0 .167969.003906.335937.011718.503906-.007812.164063-.011718.332031-.011718.5v1.003906c0 .171875.003906.335938.011718.503907-.007812.167968-.011718.332031-.011718.503906v1.003906c0 .167969.003906.335938.011718.5-.007812.167969-.011718.335938-.011718.503906v1.003906c0 .167969.003906.335938.011718.503907-.007812.164062-.011718.332031-.011718.5v.542969h-27.746094c-5.523438 0-10 4.480468-10 10v75.46875c0 5.519531 4.476562 10 10 10h75.46875c5.523438 0 9.996094-4.480469 9.996094-10v-27.769532h.554687c.167969 0 .335938-.003906.5-.011718.167969.007812.335938.011718.503907.011718h1.003906c.167968 0 .335937-.003906.503906-.011718.164062.007812.332031.011718.5.011718h1.003906c.167969 0 .335938-.003906.503906-.011718.167969.007812.332032.011718.5.011718h1.007813c.167969 0 .335937-.003906.5-.011718.167969.007812.335937.011718.503906.011718h1.003907c.167968 0 .335937-.003906.5-.011718.167968.007812.335937.011718.503906.011718h1.003906c.167969 0 .335938-.003906.5-.011718.167969.007812.335938.011718.503906.011718h1.003906c.167969 0 .335938-.003906.503907-.011718.167969.007812.335937.011718.503906.011718h1.003906c.167969 0 .335938-.003906.5-.011718.167969.007812.335938.011718.503907.011718h1.003906c.167968 0 .335937-.003906.503906-.011718.164062.007812.332031.011718.5.011718h1.007812c.167969 0 .335938-.003906.5-.011718.167969.007812.335938.011718.503907.011718h1.003906c.167969 0 .335937-.003906.5-.011718.167969.007812.335937.011718.503906.011718h1.003907c.167968 0 .335937-.003906.503906-.011718.164062.007812.332031.011718.5.011718h1.003906c.167969 0 .335938-.003906.503906-.011718.164063.007812.332032.011718.5.011718h1.003906c.167969 0 .335938-.003906.503907-.011718.167969.007812.335937.011718.503906.011718h1.003906c.167969 0 .335938-.003906.503907-.011718.164062.007812.332031.011718.5.011718h1.003906c.167968 0 .335937-.003906.503906-.011718.167969.007812.332031.011718.503906.011718h1.003906c.167969 0 .335938-.003906.503907-.011718.164062.007812.332031.011718.5.011718h1.003906c.167969 0 .335937-.003906.503906-.011718.167969.007812.332031.011718.5.011718h1.007813c.167968 0 .335937-.003906.5-.011718.167968.007812.335937.011718.503906.011718h1.003906c.167969 0 .335938-.003906.5-.011718.167969.007812.335938.011718.503906.011718h1.003907c.167969 0 .335937-.003906.503906-.011718.164063.007812.332031.011718.5.011718h1.003906c.167969 0 .335938-.003906.503907-.011718.164062.007812.332031.011718.5.011718h1.003906c.167968 0 .335937-.003906.503906-.011718.167969.007812.332031.011718.503906.011718h1.003906c.167969 0 .335938-.003906.5-.011718.167969.007812.335938.011718.503907.011718h1.003906c.167969 0 .335937-.003906.503906-.011718.167969.007812.335938.011718.503907.011718h1.003906c.167968 0 .335937-.003906.5-.011718.167968.007812.335937.011718.503906.011718h1.003906c.167969 0 .335938-.003906.503906-.011718.164063.007812.332032.011718.5.011718h1.007813c.167969 0 .335937-.003906.5-.011718.167969.007812.335937.011718.503906.011718h1.003907c.167968 0 .335937-.003906.5-.011718.167968.007812.335937.011718.503906.011718h1.003906c.167969 0 .335938-.003906.5-.011718.167969.007812.335938.011718.503906.011718h1.003906c.167969 0 .335938-.003906.503907-.011718.164062.007812.332031.011718.5.011718h1.007812c.167969 0 .335938-.003906.5-.011718.167969.007812.335938.011718.503907.011718h1.003906c.167968 0 .335937-.003906.503906-.011718.164062.007812.332031.011718.5.011718h1.007812c.167969 0 .335938-.003906.5-.011718.167969.007812.332032.011718.503907.011718h1.003906c.167969 0 .335937-.003906.5-.011718.167969.007812.335937.011718.503906.011718h1.003907c.167968 0 .335937-.003906.503906-.011718.164062.007812.332031.011718.5.011718h1.003906c.167969 0 .335938-.003906.503906-.011718.167969.007812.332032.011718.5.011718h1.007813c.167969 0 .335937-.003906.5-.011718.167969.007812.332031.011718.503906.011718h1.003906c.167969 0 .335938-.003906.503907-.011718.164062.007812.332031.011718.5.011718h1.003906c.167968 0 .335937-.003906.503906-.011718.167969.007812.332031.011718.503906.011718h1.003906c.167969 0 .335938-.003906.5-.011718.167969.007812.335938.011718.503907.011718h1.003906c.167969 0 .335937-.003906.503906-.011718.167969.007812.335938.011718.503907.011718h1.003906c.167968 0 .335937-.003906.5-.011718.167968.007812.335937.011718.503906.011718h1.003906c.167969 0 .335938-.003906.5-.011718.167969.007812.335938.011718.503906.011718h1.003907c.167969 0 .335937-.003906.503906-.011718.164063.007812.332031.011718.5.011718h1.003906c.167969 0 .335938-.003906.503907-.011718.167968.007812.335937.011718.503906.011718h1.003906c.167969 0 .335938-.003906.5-.011718.167969.007812.335938.011718.503906.011718h1.003906c.167969 0 .335938-.003906.503907-.011718.164062.007812.332031.011718.5.011718h1.007812c.167969 0 .335938-.003906.5-.011718.167969.007812.335938.011718.503907.011718h1.003906c.167968 0 .335937-.003906.503906-.011718.164062.007812.332031.011718.5.011718h1.003906c.167969 0 .335938-.003906.503906-.011718.164063.007812.332032.011718.5.011718h1.003907c.167969 0 .335937-.003906.503906-.011718.167969.007812.332031.011718.5.011718h1.007813c.167968 0 .335937-.003906.5-.011718.167968.007812.335937.011718.503906.011718h1.003906c.167969 0 .335938-.003906.503906-.011718.167969.007812.332032.011718.5.011718h1.007813c.164062 0 .332031-.003906.5-.011718.167969.007812.332031.011718.503906.011718h1.003906c.167969 0 .335938-.003906.5-.011718.167969.007812.335938.011718.503907.011718h.550781v27.84375c0 5.519532 4.476562 9.996094 10 9.996094h75.675781c5.523438 0 10-4.476562 10-9.996094v-27.84375h.550781c.167969 0 .335938-.003906.503907-.011718.164062.007812.332031.011718.5.011718h1.003906c.167968 0 .335937-.003906.503906-.011718.167969.007812.335938.011718.503906.011718h1.003906c.167969 0 .335938-.003906.5-.011718.167969.007812.335938.011718.503907.011718h1.003906c.167969 0 .335937-.003906.503906-.011718.167969.007812.335938.011718.503907.011718h1.003906c.167968 0 .335937-.003906.5-.011718.167968.007812.335937.011718.503906.011718h1.003906c.167969 0 .335938-.003906.5-.011718.167969.007812.335938.011718.503906.011718h1.003907c.167969 0 .335937-.003906.503906-.011718.164063.007812.332031.011718.5.011718h1.003906c.167969 0 .335938-.003906.503907-.011718.167968.007812.332031.011718.5.011718h1.007812c.167969 0 .335938-.003906.5-.011718.167969.007812.335938.011718.503906.011718h1.003906c.167969 0 .335938-.003906.5-.011718.167969.007812.335938.011718.503907.011718h1.003906c.167969 0 .335937-.003906.503906-.011718.167969.007812.332031.011718.503907.011718h1.003906c.167968 0 .335937-.003906.503906-.011718.164062.007812.332031.011718.5.011718h1.003906c.167969 0 .335938-.003906.503906-.011718.167969.007812.332032.011718.5.011718h1.007813c.167969 0 .335937-.003906.5-.011718.167969.007812.332031.011718.5.011718h1.007813c.167968 0 .335937-.003906.5-.011718.167968.007812.335937.011718.503906.011718h1.003906c.167969 0 .335938-.003906.503906-.011718.164063.007812.332032.011718.5.011718h1.003906c.167969 0 .335938-.003906.503907-.011718.167969.007812.335937.011718.503906.011718h1.003906c.167969 0 .335938-.003906.5-.011718.167969.007812.335938.011718.503907.011718h1.003906c.167968 0 .335937-.003906.503906-.011718.167969.007812.332031.011718.5.011718h1.007812c.167969 0 .335938-.003906.5-.011718.167969.007812.335938.011718.503907.011718h1.003906c.167969 0 .335937-.003906.5-.011718.167969.007812.335937.011718.503906.011718h1.003907c.167968 0 .335937-.003906.503906-.011718.164062.007812.332031.011718.5.011718h1.003906c.167969 0 .335938-.003906.503906-.011718.164063.007812.332032.011718.5.011718h1.007813c.167969 0 .335937-.003906.5-.011718.167969.007812.335937.011718.503906.011718h1.003906c.167969 0 .335938-.003906.503907-.011718.164062.007812.332031.011718.5.011718h1.007812c.167969 0 .335938-.003906.5-.011718.167969.007812.335938.011718.503906.011718h1.003906c.167969 0 .335938-.003906.5-.011718.167969.007812.335938.011718.503907.011718h1.003906c.167969 0 .335937-.003906.503906-.011718.167969.007812.332031.011718.5.011718h1.007813c.167968 0 .335937-.003906.5-.011718.167968.007812.335937.011718.503906.011718h1.003906c.167969 0 .335938-.003906.5-.011718.167969.007812.335938.011718.503906.011718h1.003907c.167969 0 .335937-.003906.503906-.011718.164063.007812.332031.011718.5.011718h1.003906c.167969 0 .335938-.003906.503907-.011718.167968.007812.332031.011718.503906.011718h1.003906c.167969 0 .335938-.003906.503906-.011718.164063.007812.332032.011718.5.011718h1.003906c.167969 0 .335938-.003906.503907-.011718.167969.007812.335937.011718.503906.011718h1.003906c.167969 0 .335938-.003906.5-.011718.167969.007812.335938.011718.503907.011718h1.003906c.167968 0 .335937-.003906.5-.011718.167968.007812.335937.011718.503906.011718h1.003906c.167969 0 .335938-.003906.503906-.011718.164063.007812.332032.011718.5.011718h1.003907c.167969 0 .335937-.003906.503906-.011718.167969.007812.335937.011718.503906.011718h1.003907c.167968 0 .335937-.003906.5-.011718.167968.007812.335937.011718.503906.011718h1.003906c.167969 0 .335938-.003906.503906-.011718.164063.007812.332032.011718.5.011718h1.007813c.167969 0 .335937-.003906.5-.011718.167969.007812.335937.011718.503906.011718h1.003906c.167969 0 .335938-.003906.503907-.011718.164062.007812.332031.011718.5.011718h1.007812c.167969 0 .335938-.003906.5-.011718.167969.007812.335938.011718.5.011718h1.007812c.167969 0 .335938-.003906.5-.011718.167969.007812.335938.011718.503907.011718h1.003906c.167969 0 .335937-.003906.5-.011718.167969.007812.335937.011718.503906.011718h1.003907c.167968 0 .335937-.003906.503906-.011718.164062.007812.332031.011718.5.011718h1.007812c.167969 0 .335938-.003906.5-.011718.167969.007812.335938.011718.503906.011718h1.003907c.167969 0 .335937-.003906.503906-.011718.164063.007812.332031.011718.5.011718h1.003906c.167969 0 .335938-.003906.503907-.011718.167968.007812.335937.011718.503906.011718h1.003906c.167969 0 .335938-.003906.5-.011718.167969.007812.335938.011718.503906.011718h1.003906c.167969 0 .335938-.003906.503907-.011718.164062.007812.332031.011718.5.011718h1.003906c.167969 0 .335937-.003906.503906-.011718.164063.007812.332031.011718.5.011718h1.003907c.167968 0 .335937-.003906.503906-.011718.167968.007812.335937.011718.503906.011718h1.003906c.167969 0 .335938-.003906.5-.011718.167969.007812.335938.011718.503906.011718h1.003907c.167969 0 .335937-.003906.503906-.011718.167969.007812.335937.011718.503906.011718h1.003907c.167968 0 .335937-.003906.5-.011718.167968.007812.335937.011718.503906.011718h.550781v27.75c0 5.519532 4.476563 9.996094 9.996094 9.996094h75.472656c5.519531 0 9.996094-4.476562 9.996094-9.996094v-75.472656c0-5.519531-4.476563-9.996094-9.996094-9.996094h-27.746094v-.546875c0-.167969-.003906-.335937-.011719-.5.007813-.167969.011719-.335937.011719-.503906v-1.003906c0-.167969-.003906-.335938-.011719-.5.007813-.167969.011719-.335938.011719-.503907v-1.003906c0-.167968-.003906-.335937-.011719-.5.007813-.167968.011719-.335937.011719-.503906v-1.003906c0-.167969-.003906-.335938-.011719-.503906.007813-.164063.011719-.332032.011719-.5v-1.003907c0-.171875-.003906-.335937-.011719-.503906.007813-.167969.011719-.332031.011719-.503906v-1.003907c0-.167968-.003906-.335937-.011719-.5.007813-.167968.011719-.335937.011719-.503906v-1.003906c0-.167969-.003906-.335938-.011719-.5.007813-.167969.011719-.335938.011719-.503906v-1.003906c0-.167969-.003906-.335938-.011719-.5.007813-.167969.011719-.335938.011719-.503907v-1.003906c0-.167969-.003906-.335937-.011719-.503906.007813-.164063.011719-.332031.011719-.5v-1.007813c0-.167968-.003906-.335937-.011719-.5.007813-.167968.011719-.335937.011719-.503906v-1.003906c0-.167969-.003906-.335938-.011719-.5.007813-.167969.011719-.335938.011719-.503906v-1.003907c0-.167969-.003906-.335937-.011719-.5.007813-.167969.011719-.335937.011719-.503906v-1.003906c0-.167969-.003906-.335938-.011719-.503907.007813-.164062.011719-.332031.011719-.5v-1.003906c0-.171875-.003906-.335937-.011719-.503906.007813-.167969.011719-.332031.011719-.503906v-1.003906c0-.167969-.003906-.332032-.011719-.5.007813-.167969.011719-.332032.011719-.503907v-1.003906c0-.167969-.003906-.335937-.011719-.5.007813-.167969.011719-.335937.011719-.503906v-1.003907c0-.167968-.003906-.335937-.011719-.5.007813-.167968.011719-.335937.011719-.503906v-1.003906c0-.167969-.003906-.335938-.011719-.503906.007813-.164063.011719-.332032.011719-.5v-1.003906c0-.171876-.003906-.335938-.011719-.503907.007813-.164062.011719-.332031.011719-.5v-1.003906c0-.171875-.003906-.335937-.011719-.503906.007813-.167969.011719-.332031.011719-.503907v-1.003906c0-.167968-.003906-.335937-.011719-.5.007813-.167968.011719-.335937.011719-.503906v-1.003906c0-.167969-.003906-.335938-.011719-.503906.007813-.164063.011719-.332032.011719-.5v-1.003907c0-.167969-.003906-.335937-.011719-.503906.007813-.164063.011719-.332031.011719-.5v-1.003906c0-.167969-.003906-.335938-.011719-.503907.007813-.164062.011719-.332031.011719-.5v-1.007812c0-.167969-.003906-.335938-.011719-.5.007813-.167969.011719-.335938.011719-.503906v-1.003906c0-.167969-.003906-.335938-.011719-.5.007813-.167969.011719-.335938.011719-.503907v-1.003906c0-.167969-.003906-.335937-.011719-.5.007813-.167969.011719-.335937.011719-.503906v-1.003907c0-.167968-.003906-.335937-.011719-.503906.007813-.164062.011719-.332031.011719-.5v-1.003906c0-.171875-.003906-.335938-.011719-.503906.007813-.167969.011719-.332032.011719-.503906v-1.003907c0-.167969-.003906-.335937-.011719-.5.007813-.167969.011719-.335937.011719-.503906v-1.003906c0-.167969-.003906-.335938-.011719-.5.007813-.167969.011719-.335938.011719-.503907v-1.003906c0-.167968-.003906-.335937-.011719-.503906.007813-.164062.011719-.332031.011719-.5v-1.003906c0-.167969-.003906-.335938-.011719-.503906.007813-.164063.011719-.332032.011719-.5v-1.007813c0-.167969-.003906-.335937-.011719-.5.007813-.167969.011719-.335937.011719-.503906v-1.003907c0-.167968-.003906-.335937-.011719-.5.007813-.167968.011719-.335937.011719-.503906v-1.003906c0-.167969-.003906-.335938-.011719-.5.007813-.167969.011719-.335938.011719-.503906v-1.003906c0-.167969-.003906-.335938-.011719-.503907.007813-.164062.011719-.332031.011719-.5v-1.003906c0-.171875-.003906-.335937-.011719-.503906.007813-.167969.011719-.332031.011719-.503907v-1c0-.171874-.003906-.335937-.011719-.503906.007813-.167968.011719-.332031.011719-.503906v-1.003906c0-.167969-.003906-.335938-.011719-.5.007813-.167969.011719-.335938.011719-.503906v-1.003907c0-.167969-.003906-.335937-.011719-.503906.007813-.164063.011719-.332031.011719-.5v-1.003906c0-.167969-.003906-.335938-.011719-.503907.007813-.164062.011719-.332031.011719-.5v-1.003906c0-.167968-.003906-.335937-.011719-.503906.007813-.164062.011719-.332031.011719-.5v-1.007812c0-.167969-.003906-.335938-.011719-.5.007813-.167969.011719-.335938.011719-.503907v-.996093c0-.167969-.003906-.335938-.011719-.5.007813-.167969.011719-.335938.011719-.503907v-1.003906c0-.167969-.003906-.335937-.011719-.5.007813-.167969.011719-.335937.011719-.503906v-1.003907c0-.167968-.003906-.335937-.011719-.5.007813-.167968.011719-.335937.011719-.503906v-1.003906c0-.167969-.003906-.335938-.011719-.503906.007813-.164063.011719-.332032.011719-.5v-1.003906c0-.171876-.003906-.335938-.011719-.503907.007813-.167969.011719-.332031.011719-.503906v-1c0-.171875-.003906-.335937-.011719-.503906.007813-.167969.011719-.332031.011719-.503907v-1.003906c0-.167968-.003906-.335937-.011719-.5.007813-.167968.011719-.335937.011719-.503906v-1.003906c0-.167969-.003906-.335938-.011719-.503906.007813-.164063.011719-.332032.011719-.5v-1.003907c0-.167969-.003906-.335937-.011719-.503906.007813-.164063.011719-.332031.011719-.5v-1.003906c0-.167969-.003906-.335938-.011719-.503907.007813-.164062.011719-.332031.011719-.5v-1.003906c0-.171875-.003906-.335937-.011719-.503906.007813-.167969.011719-.332031.011719-.503906v-1.003906c0-.167969-.003906-.335938-.011719-.5.007813-.167969.011719-.335938.011719-.503907v-.542969h27.746094c5.519531 0 9.996094-4.476562 9.996094-9.996093v-75.679688c0-5.523437-4.476563-10-9.996094-10h-27.746094v-.242187c0-.160156-.003906-.324219-.011719-.484375.007813-.160157.011719-.324219.011719-.488281v-.972657c0-.164062-.003906-.324219-.011719-.488281.007813-.160156.011719-.320312.011719-.484375v-.976563c0-.160156-.003906-.324218-.011719-.484374.007813-.164063.011719-.324219.011719-.488282v-.972656c0-.164062-.003906-.328125-.011719-.488281.007813-.160157.011719-.324219.011719-.488281v-.972657c0-.164062-.003906-.324219-.011719-.488281.007813-.160156.011719-.320312.011719-.484375v-.976563c0-.160156-.003906-.324218-.011719-.484374.007813-.164063.011719-.324219.011719-.488282v-.972656c0-.164062-.003906-.324219-.011719-.488281.007813-.160157.011719-.324219.011719-.484375v-.976563c0-.164062-.019531-.324219-.027343-.484375.007812-.164062.027343-.324218.027343-.488281v-.5c0-5.519531-4.476562-10-10-10-5.519531 0-9.996093 4.480469-9.996093 10v.5c0 .164063.015624.324219.023437.488281-.007813.160156-.023437.320313-.023437.484375v.976563c0 .160156.003906.324218.011718.484375-.007812.164062-.011718.324219-.011718.488281v.972656c0 .164063.003906.324219.011718.488282-.007812.160156-.011718.324218-.011718.484374v.976563c0 .164063.003906.324219.011718.484375-.007812.164062-.011718.324219-.011718.488281v.972657c0 .164062.003906.328124.011718.488281-.007812.160156-.011718.324219-.011718.488281v.972656c0 .164063.003906.324219.011718.488282-.007812.160156-.011718.324218-.011718.484374v.976563c0 .164063.003906.324219.011718.484375-.007812.164062-.011718.324219-.011718.488281v.972657c0 .164062.003906.328124.011718.488281-.007812.160156-.011718.324219-.011718.484375v.242187h-27.9375c-5.519532 0-9.996094 4.476563-9.996094 10v75.679688c0 5.519531 4.476562 9.996093 9.996094 9.996093h27.9375v.542969c0 .167969.003906.335938.011718.503907-.007812.164062-.011718.332031-.011718.5v1.003906c0 .171875.003906.335937.011718.503906-.007812.167969-.011718.332031-.011718.503906v1.003906c0 .167969.003906.335938.011718.5-.007812.167969-.011718.335938-.011718.503907v1.003906c0 .167969.003906.335937.011718.5-.007812.167969-.011718.335937-.011718.503906v1.003907c0 .167968.003906.335937.011718.5-.007812.167968-.011718.335937-.011718.503906v1.003906c0 .167969.003906.335938.011718.503906-.007812.164063-.011718.332032-.011718.5v1.003906c0 .171876.003906.335938.011718.503907-.007812.167969-.011718.332031-.011718.503906v1c0 .171875.003906.335937.011718.503906-.007812.167969-.011718.332031-.011718.503907v1.003906c0 .167968.003906.335937.011718.5-.007812.167968-.011718.335937-.011718.503906v1.003906c0 .167969.003906.335938.011718.503906-.007812.164063-.011718.332032-.011718.5v1.003907c0 .167969.003906.335937.011718.503906-.007812.164063-.011718.332031-.011718.5v1.003906c0 .167969.003906.335938.011718.503907-.007812.164062-.011718.332031-.011718.5v1.007812c0 .167969.003906.335938.011718.5-.007812.167969-.011718.335938-.011718.503906v1.003906c0 .167969.003906.335938.011718.5-.007812.167969-.011718.335938-.011718.503907v1.003906c0 .167969.003906.335937.011718.503906-.007812.164063-.011718.332031-.011718.5v1.003907c0 .167968.003906.335937.011718.503906-.007812.164062-.011718.332031-.011718.5v1.003906c0 .171875.003906.335938.011718.503906-.007812.167969-.011718.332032-.011718.503906v1.003907c0 .167969.003906.335937.011718.5-.007812.167969-.011718.335937-.011718.503906v1.003906c0 .167969.003906.335938.011718.5-.007812.167969-.011718.335938-.011718.503907v1.003906c0 .167968.003906.335937.011718.503906-.007812.164062-.011718.332031-.011718.5v1.003906c0 .167969.003906.335938.011718.503906-.007812.164063-.011718.332032-.011718.5v1.007813c0 .167969.003906.335937.011718.5-.007812.167969-.011718.335937-.011718.503906v1.003907c0 .167968.003906.335937.011718.5-.007812.167968-.011718.335937-.011718.503906v1.003906c0 .167969.003906.335938.011718.5-.007812.167969-.011718.335938-.011718.503906v1.003906c0 .167969.003906.335938.011718.503907-.007812.164062-.011718.332031-.011718.5v1.003906c0 .171875.003906.335937.011718.503906-.007812.167969-.011718.332031-.011718.503907v1.003906c0 .167968.003906.335937.011718.5-.007812.167968-.011718.332031-.011718.503906v1.003906c0 .167969.003906.335938.011718.5-.007812.167969-.011718.335938-.011718.503906v1.003907c0 .167969.003906.335937.011718.503906-.007812.164063-.011718.332031-.011718.5v1.003906c0 .167969.003906.335938.011718.503907-.007812.164062-.011718.332031-.011718.5v1.003906c0 .171875.003906.335937.011718.503906-.007812.164062-.011718.332031-.011718.5v1.007812c0 .167969.003906.335938.011718.5-.007812.167969-.011718.335938-.011718.503907v1.003906c0 .167969.003906.335937.011718.5-.007812.167969-.011718.335937-.011718.503906v1.003907c0 .167968.003906.335937.011718.503906-.007812.164062-.011718.332031-.011718.5v1.003906c0 .167969.003906.335938.011718.503906-.007812.164063-.011718.332032-.011718.5v1.003906c0 .167969.003906.335938.011718.503907-.007812.164062-.011718.332031-.011718.5v1.007812c0 .167969.003906.335938.011718.5-.007812.167969-.011718.335938-.011718.503907v1.003906c0 .167968.003906.335937.011718.503906-.007812.164062-.011718.332031-.011718.5v1.003906c0 .167969.003906.335938.011718.503906-.007812.164063-.011718.332032-.011718.5v1.003907c0 .167969.003906.335937.011718.503906-.007812.164063-.011718.332031-.011718.5v1.003906c0 .171875.003906.335938.011718.503907-.007812.167968-.011718.332031-.011718.503906v1.003906c0 .167969.003906.335938.011718.5-.007812.167969-.011718.335938-.011718.503906v1.003906c0 .167969.003906.335938.011718.503907-.007812.164062-.011718.332031-.011718.5v1.003906c0 .167969.003906.335937.011718.503906-.007812.164063-.011718.332031-.011718.5v1.003907c0 .167968.003906.335937.011718.503906-.007812.164062-.011718.332031-.011718.5v1.007812c0 .167969.003906.335938.011718.5-.007812.167969-.011718.335938-.011718.503906v1.003907c0 .167969.003906.335937.011718.5-.007812.167969-.011718.335937-.011718.503906v1.003906c0 .167969.003906.335938.011718.5-.007812.167969-.011718.335938-.011718.503907v1.003906c0 .167968.003906.335937.011718.503906-.007812.164062-.011718.332031-.011718.5v1.003906c0 .171875.003906.335938.011718.503906-.007812.167969-.011718.332032-.011718.503907v1.003906c0 .167969.003906.335937.011718.5-.007812.167969-.011718.332031-.011718.503906v1.003907c0 .167968.003906.335937.011718.5-.007812.167968-.011718.335937-.011718.503906v1.003906c0 .167969.003906.335938.011718.503906-.007812.164063-.011718.332032-.011718.5v1.003906c0 .167969.003906.335938.011718.503907-.007812.164062-.011718.332031-.011718.5v1.003906c0 .171875.003906.335937.011718.503906-.007812.164063-.011718.332031-.011718.5v1.007813c0 .167968.003906.335937.011718.5-.007812.167968-.011718.335937-.011718.503906v.542969h-27.726563c-5.523437 0-10 4.476562-10 10v27.726562h-.550781c-.167969 0-.335938.003907-.5.011719-.167969-.007812-.335938-.011719-.503906-.011719h-1.003907c-.167969 0-.335937.003907-.503906.011719-.164063-.007812-.332031-.011719-.5-.011719h-1.007813c-.167968 0-.335937.003907-.5.011719-.167968-.007812-.335937-.011719-.503906-.011719h-.925781c-.167969 0-.335937.003907-.5.011719-.167969-.007812-.335937-.011719-.503906-.011719h-1.003907c-.167968 0-.335937.003907-.503906.011719-.167968-.007812-.332031-.011719-.5-.011719h-1.007812c-.167969 0-.335938.003907-.5.011719-.167969-.007812-.332032-.011719-.5-.011719h-1.007813c-.167969 0-.335937.003907-.5.011719-.167969-.007812-.335937-.011719-.503906-.011719h-1.003906c-.167969 0-.335938.003907-.5.011719-.167969-.007812-.335938-.011719-.503907-.011719h-1.003906c-.167968 0-.335937.003907-.503906.011719-.167969-.007812-.332031-.011719-.503906-.011719h-1.003906c-.167969 0-.335938.003907-.503907.011719-.164062-.007812-.332031-.011719-.5-.011719h-1.003906c-.167969 0-.335937.003907-.503906.011719-.164063-.007812-.332031-.011719-.5-.011719h-1.007813c-.167968 0-.335937.003907-.5.011719-.167968-.007812-.335937-.011719-.503906-.011719h-1.003906c-.167969 0-.335938.003907-.5.011719-.167969-.007812-.335938-.011719-.503906-.011719h-1.003907c-.167969 0-.335937.003907-.503906.011719-.164063-.007812-.332031-.011719-.5-.011719h-1.003906c-.167969 0-.335938.003907-.503907.011719-.167968-.007812-.332031-.011719-.5-.011719h-1.007812c-.167969 0-.335938.003907-.5.011719-.167969-.007812-.335938-.011719-.503906-.011719h-1.003906c-.167969 0-.335938.003907-.503907.011719-.164062-.007812-.332031-.011719-.5-.011719h-1.007812c-.167969 0-.335938.003907-.5.011719-.167969-.007812-.335938-.011719-.503907-.011719h-1.003906c-.167968 0-.335937.003907-.5.011719-.167968-.007812-.335937-.011719-.503906-.011719h-1.003906c-.167969 0-.335938.003907-.503906.011719-.167969-.007812-.332032-.011719-.5-.011719h-1.007813c-.167969 0-.335937.003907-.5.011719-.167969-.007812-.335937-.011719-.503906-.011719h-1.003907c-.167968 0-.335937.003907-.5.011719-.167968-.007812-.335937-.011719-.503906-.011719h-1.003906c-.167969 0-.335938.003907-.5.011719-.167969-.007812-.335938-.011719-.503906-.011719h-1.003906c-.167969 0-.335938.003907-.503907.011719-.167969-.007812-.332031-.011719-.503906-.011719h-1.003906c-.167969 0-.335938.003907-.503907.011719-.164062-.007812-.332031-.011719-.5-.011719h-1.003906c-.167968 0-.335937.003907-.503906.011719-.167969-.007812-.332031-.011719-.503906-.011719h-1.003906c-.167969 0-.335938.003907-.5.011719-.167969-.007812-.335938-.011719-.503907-.011719h-1.003906c-.167969 0-.335937.003907-.5.011719-.167969-.007812-.335937-.011719-.503906-.011719h-1.003907c-.167968 0-.335937.003907-.503906.011719-.164062-.007812-.332031-.011719-.5-.011719h-1.003906c-.167969 0-.335938.003907-.503906.011719-.167969-.007812-.335938-.011719-.503906-.011719h-1.003907c-.167969 0-.335937.003907-.5.011719-.167969-.007812-.335937-.011719-.503906-.011719h-1.003906c-.167969 0-.335938.003907-.503907.011719-.167968-.007812-.332031-.011719-.5-.011719h-1.007812c-.167969 0-.335938.003907-.5.011719-.167969-.007812-.335938-.011719-.503906-.011719h-1.003906c-.167969 0-.335938.003907-.503907.011719-.164062-.007812-.332031-.011719-.5-.011719h-1.007812c-.167969 0-.335938.003907-.5.011719-.167969-.007812-.332031-.011719-.5-.011719h-1.007813c-.167968 0-.335937.003907-.5.011719-.167968-.007812-.335937-.011719-.503906-.011719h-1.003906c-.167969 0-.335938.003907-.5.011719-.167969-.007812-.335938-.011719-.503906-.011719h-1.003907c-.167969 0-.335937.003907-.503906.011719-.164063-.007812-.332031-.011719-.5-.011719h-1.007813c-.167968 0-.335937.003907-.5.011719-.167968-.007812-.335937-.011719-.503906-.011719h-1.003906c-.167969 0-.335938.003907-.5.011719-.167969-.007812-.335938-.011719-.503906-.011719h-1.003906c-.167969 0-.335938.003907-.503907.011719-.167969-.007812-.332031-.011719-.503906-.011719h-1.003906c-.167969 0-.335938.003907-.5.011719-.167969-.007812-.335938-.011719-.503907-.011719h-1.003906c-.167968 0-.335937.003907-.503906.011719-.164062-.007812-.332031-.011719-.5-.011719h-1.003906c-.167969 0-.335938.003907-.503906.011719-.164063-.007812-.332032-.011719-.5-.011719h-1.003907c-.167969 0-.335937.003907-.503906.011719-.167969-.007812-.332031-.011719-.503906-.011719h-1.003907c-.167968 0-.335937.003907-.503906.011719-.164062-.007812-.332031-.011719-.5-.011719h-1.003906c-.167969 0-.335938.003907-.503906.011719-.167969-.007812-.335938-.011719-.503906-.011719h-1.003907c-.167969 0-.335937.003907-.5.011719-.167969-.007812-.335937-.011719-.503906-.011719h-1.003906c-.167969 0-.335938.003907-.503907.011719-.164062-.007812-.332031-.011719-.5-.011719h-1.003906c-.167968 0-.335937.003907-.503906.011719-.167969-.007812-.332031-.011719-.5-.011719h-1.007812c-.167969 0-.335938.003907-.5.011719-.167969-.007812-.335938-.011719-.503907-.011719h-1.003906c-.167969 0-.335937.003907-.5.011719-.167969-.007812-.335937-.011719-.503906-.011719h-1.003907c-.167968 0-.335937.003907-.5.011719-.167968-.007812-.335937-.011719-.503906-.011719h-1.003906c-.167969 0-.335938.003907-.503906.011719-.167969-.007812-.335938-.011719-.503906-.011719h-1.003907c-.167969 0-.335937.003907-.5.011719-.167969-.007812-.335937-.011719-.503906-.011719h-1.003906c-.167969 0-.335938.003907-.503907.011719-.164062-.007812-.332031-.011719-.5-.011719h-.554687v-27.84375c0-5.519531-4.476563-9.996093-9.996094-9.996093h-75.679687c-5.519532 0-9.996094 4.476562-9.996094 9.996093v27.84375h-.550781c-.167969 0-.335938.003907-.503907.011719-.167968-.007812-.335937-.011719-.503906-.011719h-1.003906c-.167969 0-.335938.003907-.503906.011719-.164063-.007812-.332032-.011719-.5-.011719h-1.003906c-.167969 0-.335938.003907-.503907.011719-.164062-.007812-.332031-.011719-.5-.011719h-1.007812c-.167969 0-.335938.003907-.5.011719-.167969-.007812-.335938-.011719-.503907-.011719h-1.003906c-.167968 0-.335937.003907-.503906.011719-.164062-.007812-.332031-.011719-.5-.011719h-1.003906c-.167969 0-.335938.003907-.503906.011719-.167969-.007812-.332032-.011719-.5-.011719h-1.007813c-.167969 0-.332031.003907-.5.011719-.167969-.007812-.332031-.011719-.5-.011719h-1.007813c-.167968 0-.335937.003907-.5.011719-.167968-.007812-.335937-.011719-.503906-.011719h-1.003906c-.167969 0-.335938.003907-.503906.011719-.167969-.007812-.332032-.011719-.5-.011719h-1.007813c-.167969 0-.335937.003907-.5.011719-.167969-.007812-.335937-.011719-.503906-.011719h-1.003906c-.167969 0-.335938.003907-.503907.011719-.164062-.007812-.332031-.011719-.5-.011719h-1.003906c-.167968 0-.335937.003907-.503906.011719-.167969-.007812-.332031-.011719-.5-.011719h-1.007812c-.167969 0-.335938.003907-.5.011719-.167969-.007812-.335938-.011719-.503907-.011719h-1.003906c-.167969 0-.335937.003907-.5.011719-.167969-.007812-.335937-.011719-.503906-.011719h-1.003907c-.167968 0-.335937.003907-.503906.011719-.164062-.007812-.332031-.011719-.5-.011719h-1.003906c-.167969 0-.335938.003907-.503906.011719-.167969-.007812-.335938-.011719-.503906-.011719h-1.003907c-.167969 0-.335937.003907-.503906.011719-.164063-.007812-.332031-.011719-.5-.011719h-1.003906c-.167969 0-.335938.003907-.503907.011719-.167968-.007812-.332031-.011719-.503906-.011719h-1.003906c-.167969 0-.335938.003907-.503906.011719-.164063-.007812-.332032-.011719-.5-.011719h-1.003906c-.167969 0-.335938.003907-.503907.011719-.164062-.007812-.332031-.011719-.5-.011719h-1.003906c-.167969 0-.335937.003907-.503906.011719-.167969-.007812-.332031-.011719-.5-.011719h-1.007813c-.167968 0-.335937.003907-.5.011719-.167968-.007812-.335937-.011719-.503906-.011719h-1.003906c-.167969 0-.335938.003907-.503906.011719-.164063-.007812-.332032-.011719-.5-.011719h-1.003907c-.167969 0-.335937.003907-.503906.011719-.167969-.007812-.332031-.011719-.5-.011719h-1.007813c-.167968 0-.335937.003907-.5.011719-.167968-.007812-.335937-.011719-.503906-.011719h-1.003906c-.167969 0-.335938.003907-.503906.011719-.164063-.007812-.332032-.011719-.5-.011719h-1.007813c-.167969 0-.335937.003907-.5.011719-.167969-.007812-.335937-.011719-.503906-.011719h-1.003906c-.167969 0-.335938.003907-.5.011719-.167969-.007812-.335938-.011719-.503907-.011719h-1.003906c-.167968 0-.335937.003907-.5.011719-.167968-.007812-.335937-.011719-.503906-.011719h-1.003906c-.167969 0-.335938.003907-.503906.011719-.164063-.007812-.332032-.011719-.5-.011719h-1.007813c-.167969 0-.335937.003907-.5.011719-.167969-.007812-.335937-.011719-.503906-.011719h-1.003907c-.167968 0-.335937.003907-.5.011719-.167968-.007812-.335937-.011719-.503906-.011719h-1.003906c-.167969 0-.335938.003907-.503906.011719-.167969-.007812-.335938-.011719-.503906-.011719h-1.003907c-.167969 0-.335937.003907-.503906.011719-.164063-.007812-.332031-.011719-.5-.011719h-1.003906c-.167969 0-.335938.003907-.503907.011719-.167968-.007812-.332031-.011719-.5-.011719h-1.007812c-.167969 0-.335938.003907-.5.011719-.167969-.007812-.332031-.011719-.5-.011719h-1.007812c-.167969 0-.335938.003907-.5.011719-.167969-.007812-.335938-.011719-.503907-.011719h-1.003906c-.167969 0-.335937.003907-.5.011719-.167969-.007812-.335937-.011719-.503906-.011719h-1.003907c-.167968 0-.335937.003907-.503906.011719-.164062-.007812-.332031-.011719-.5-.011719h-1.007812c-.167969 0-.335938.003907-.5.011719-.167969-.007812-.332032-.011719-.503906-.011719h-1.003907c-.167969 0-.335937.003907-.503906.011719-.164063-.007812-.332031-.011719-.5-.011719h-1.003906c-.167969 0-.335938.003907-.503907.011719-.167968-.007812-.332031-.011719-.503906-.011719h-1.003906c-.167969 0-.335938.003907-.5.011719-.167969-.007812-.335938-.011719-.503906-.011719h-1.003906c-.167969 0-.335938.003907-.503907.011719-.167969-.007812-.332031-.011719-.5-.011719h-1.003906c-.167969 0-.335937.003907-.503906.011719-.167969-.007812-.332031-.011719-.5-.011719h-1.007813c-.167968 0-.335937.003907-.5.011719-.167968-.007812-.335937-.011719-.503906-.011719h-1.003906c-.167969 0-.335938.003907-.5.011719-.167969-.007812-.335938-.011719-.503906-.011719h-1.003907c-.167969 0-.335937.003907-.503906.011719-.164063-.007812-.332031-.011719-.5-.011719h-1.003906c-.167969 0-.335938.003907-.503907.011719-.167968-.007812-.335937-.011719-.503906-.011719h-1.003906c-.167969 0-.335938.003907-.5.011719-.167969-.007812-.335938-.011719-.503906-.011719h-1.003906c-.167969 0-.335938.003907-.503907.011719-.167969-.007812-.335937-.011719-.503906-.011719h-1.003906c-.167969 0-.335938.003907-.5.011719-.167969-.007812-.335938-.011719-.503907-.011719h-1.003906c-.167968 0-.335937.003907-.5.011719-.167968-.007812-.335937-.011719-.503906-.011719h-1.003906c-.167969 0-.335938.003907-.503906.011719-.164063-.007812-.332032-.011719-.5-.011719h-1.003907c-.167969 0-.335937.003907-.503906.011719-.167969-.007812-.332031-.011719-.5-.011719h-1.007813c-.167968 0-.335937.003907-.5.011719-.167968-.007812-.335937-.011719-.503906-.011719h-.550781v-27.726562c0-5.523438-4.476563-10-9.996094-10h-27.808593v-.542969c0-.167969-.003907-.335938-.011719-.503906.007812-.164063.011719-.332032.011719-.5v-1.007813c0-.167969-.003907-.335937-.011719-.5.007812-.167969.011719-.332031.011719-.503906v-1.003906c0-.167969-.003907-.335938-.011719-.5.007812-.167969.011719-.335938.011719-.503907v-1.003906c0-.167968-.003907-.335937-.011719-.5.007812-.167968.011719-.335937.011719-.503906v-1.003906c0-.167969-.003907-.335938-.011719-.503906.007812-.164063.011719-.332032.011719-.5v-1.003907c0-.171875-.003907-.335937-.011719-.503906.007812-.164063.011719-.332031.011719-.5v-1.003906c0-.171875-.003907-.335938-.011719-.503907.007812-.167968.011719-.332031.011719-.503906v-1.003906c0-.167969-.003907-.335938-.011719-.5.007812-.167969.011719-.335938.011719-.503906v-1.003906c0-.167969-.003907-.335938-.011719-.503907.007812-.164062.011719-.332031.011719-.5v-1.003906c0-.167969-.003907-.335937-.011719-.503906.007812-.164063.011719-.332031.011719-.5v-1.003907c0-.167968-.003907-.335937-.011719-.503906.007812-.164062.011719-.332031.011719-.5v-1.007812c0-.167969-.003907-.335938-.011719-.5.007812-.167969.011719-.335938.011719-.503906v-1.003907c0-.167969-.003907-.335937-.011719-.5.007812-.167969.011719-.335937.011719-.503906v-1.003906c0-.167969-.003907-.335938-.011719-.5.007812-.167969.011719-.335938.011719-.503907v-1.003906c0-.167968-.003907-.335937-.011719-.503906.007812-.164062.011719-.332031.011719-.5v-1.003906c0-.171875-.003907-.335938-.011719-.503906.007812-.167969.011719-.332032.011719-.503907v-1.003906c0-.167969-.003907-.335937-.011719-.5.007812-.167969.011719-.335937.011719-.503906v-1.003907c0-.167968-.003907-.335937-.011719-.5.007812-.167968.011719-.335937.011719-.503906v-1.003906c0-.167969-.003907-.335938-.011719-.5.007812-.167969.011719-.335938.011719-.503906v-1.003906c0-.167969-.003907-.335938-.011719-.503907.007812-.164062.011719-.332031.011719-.5v-1.007812c0-.167969-.003907-.335938-.011719-.5.007812-.167969.011719-.335938.011719-.503907v-1.003906c0-.167968-.003907-.335937-.011719-.5.007812-.167968.011719-.335937.011719-.503906v-1.003906c0-.167969-.003907-.335938-.011719-.5.007812-.167969.011719-.335938.011719-.503906v-1.003907c0-.167969-.003907-.335937-.011719-.503906.007812-.164063.011719-.332031.011719-.5v-1.003906c0-.167969-.003907-.335938-.011719-.503907.007812-.164062.011719-.332031.011719-.5v-1.007812c0-.167969-.003907-.335938-.011719-.5.007812-.167969.011719-.332031.011719-.503906v-1.003906c0-.167969-.003907-.335938-.011719-.5.007812-.167969.011719-.335938.011719-.503907v-1.003906c0-.167969-.003907-.335937-.011719-.5.007812-.167969.011719-.335937.011719-.503906v-1.003907c0-.167968-.003907-.335937-.011719-.503906.007812-.164062.011719-.332031.011719-.5v-1.003906c0-.171875-.003907-.335938-.011719-.503906.007812-.164063.011719-.332032.011719-.5v-1.003906c0-.171876-.003907-.335938-.011719-.503907.007812-.167969.011719-.332031.011719-.503906v-1.003906c0-.167969-.003907-.335938-.011719-.5.007812-.167969.011719-.335938.011719-.503907v-1.003906c0-.167968-.003907-.335937-.011719-.503906.007812-.164062.011719-.332031.011719-.5v-1.003906c0-.167969-.003907-.335938-.011719-.503906.007812-.164063.011719-.332032.011719-.5v-1.003907c0-.167969-.003907-.335937-.011719-.503906.007812-.164063.011719-.332031.011719-.5v-1.007813c0-.167968-.003907-.335937-.011719-.5.007812-.167968.011719-.335937.011719-.503906v-1.003906c0-.167969-.003907-.335938-.011719-.503906.007812-.164063.011719-.332032.011719-.5v-1.003906c0-.167969-.003907-.335938-.011719-.503907.007812-.164062.011719-.332031.011719-.5v-1.003906c0-.167969-.003907-.335937-.011719-.503906.007812-.164063.011719-.332031.011719-.5v-1.003907c0-.171874-.003907-.335937-.011719-.503906.007812-.167968.011719-.332031.011719-.503906v-1.003906c0-.167969-.003907-.335938-.011719-.5.007812-.167969.011719-.335938.011719-.503906v-1.003907c0-.167969-.003907-.335937-.011719-.5.007812-.167969.011719-.335937.011719-.503906v-1.003906c0-.167969-.003907-.335938-.011719-.503907.007812-.164062.011719-.332031.011719-.5v-1.003906c0-.167968-.003907-.335937-.011719-.503906.007812-.164062.011719-.332031.011719-.5v-1.007812c0-.167969-.003907-.335938-.011719-.5.007812-.167969.011719-.335938.011719-.503907v-1.003906c0-.167969-.003907-.335937-.011719-.5.007812-.167969.011719-.335937.011719-.503906v-1.003907c0-.167968-.003907-.335937-.011719-.5.007812-.167968.011719-.335937.011719-.503906v-1.003906c0-.167969-.003907-.335938-.011719-.503906.007812-.164063.011719-.332032.011719-.5v-1.003906c0-.171876-.003907-.335938-.011719-.503907.007812-.167969.011719-.332031.011719-.503906v-1c0-.171875-.003907-.335937-.011719-.503906.007812-.167969.011719-.332031.011719-.503907v-1.003906c0-.167968-.003907-.335937-.011719-.5.007812-.167968.011719-.335937.011719-.503906v-1.003906c0-.167969-.003907-.335938-.011719-.503906.007812-.164063.011719-.332032.011719-.5v-1.003907c0-.167969-.003907-.335937-.011719-.503906.007812-.164063.011719-.332031.011719-.5v-1.003906c0-.167969-.003907-.335938-.011719-.503907.007812-.164062.011719-.332031.011719-.5v-1.003906c0-.171875-.003907-.335937-.011719-.503906.007812-.167969.011719-.332031.011719-.503906v-1.003906c0-.167969-.003907-.335938-.011719-.5.007812-.167969.011719-.335938.011719-.503907v-.542969h27.933593c5.523438 0 10-4.476562 10-9.996093v-75.679688c0-5.523437-4.476562-10-10-10h-27.933593v-.542969c0-.167968-.003907-.335937-.011719-.5.007812-.167968.011719-.335937.011719-.503906v-1.003906c0-.167969-.003907-.335938-.011719-.503906.007812-.164063.011719-.332032.011719-.5v-1.003906c0-.167969-.003907-.335938-.011719-.503907.007812-.164062.011719-.332031.011719-.5v-1.003906c0-.167969-.003907-.335937-.011719-.503906.007812-.164063.011719-.332031.011719-.5v-1.003907c0-.167968-.003907-.335937-.011719-.503906.007812-.164062.011719-.332031.011719-.5v-1.007812c0-.167969-.003907-.335938-.011719-.5.007812-.167969.011719-.335938.011719-.503906v-1c0-.171876-.003907-.335938-.011719-.503907.007812-.167969.011719-.332031.011719-.503906v-1.003906c0-.167969-.003907-.335938-.011719-.5.007812-.167969.011719-.335938.011719-.503907v-1.003906c0-.167968-.003907-.335937-.011719-.5.007812-.167968.011719-.335937.011719-.503906v-1.003906c0-.167969-.003907-.335938-.011719-.503906.007812-.164063.011719-.332032.011719-.5v-1.003907c0-.167969-.003907-.335937-.011719-.5.007812-.167969.011719-.335937.011719-.503906v-1.003906c0-.167969-.003907-.335938-.011719-.503907.007812-.164062.011719-.332031.011719-.5v-1.003906c0-.167968-.003907-.335937-.011719-.503906.007812-.164062.011719-.332031.011719-.5v-1.007812c0-.167969-.003907-.335938-.011719-.5.007812-.167969.011719-.335938.011719-.5v-1.007813c0-.167969-.003907-.335937-.011719-.5.007812-.167969.011719-.335937.011719-.503906v-1.003907c0-.167968-.003907-.335937-.011719-.5.007812-.167968.011719-.335937.011719-.503906v-1.003906c0-.167969-.003907-.335938-.011719-.503906.007812-.164063.011719-.332032.011719-.5v-1.003906c0-.167969-.003907-.335938-.011719-.503907.007812-.164062.011719-.332031.011719-.5v-1.003906c0-.167969-.003907-.335937-.011719-.503906.007812-.164063.011719-.332031.011719-.5v-1.003907c0-.167968-.003907-.335937-.011719-.503906.007812-.164062.011719-.332031.011719-.5v-1.003906c0-.171875-.003907-.335938-.011719-.503906.007812-.167969.011719-.332032.011719-.503906v-1.003907c0-.167969-.003907-.335937-.011719-.5.007812-.167969.011719-.332031.011719-.503906v-1.003906c0-.167969-.003907-.335938-.011719-.5.007812-.167969.011719-.335938.011719-.503907v-1.003906c0-.167968-.003907-.335937-.011719-.5.007812-.167968.011719-.335937.011719-.503906v-1.003906c0-.167969-.003907-.335938-.011719-.503906.007812-.164063.011719-.332032.011719-.5v-.996094c0-.167969-.003907-.335938-.011719-.503906.007812-.164063.011719-.332032.011719-.5v-1.003907c0-.171875-.003907-.335937-.011719-.503906.007812-.167969.011719-.332031.011719-.503906v-1.003907c0-.167968-.003907-.335937-.011719-.5.007812-.167968.011719-.335937.011719-.503906v-1.003906c0-.167969-.003907-.335938-.011719-.5.007812-.167969.011719-.335938.011719-.503906v-1.003906c0-.167969-.003907-.335938-.011719-.5.007812-.167969.011719-.335938.011719-.503907v-1.003906c0-.167969-.003907-.335937-.011719-.503906.007812-.164063.011719-.332031.011719-.5v-1.003907c0-.167968-.003907-.335937-.011719-.503906.007812-.164062.011719-.332031.011719-.5v-1.003906c0-.167969-.003907-.335938-.011719-.503906.007812-.164063.011719-.332032.011719-.5v-1.003906c0-.167969-.003907-.335938-.011719-.503907.007812-.164062.011719-.332031.011719-.5v-1.003906c0-.171875-.003907-.335937-.011719-.503906.007812-.167969.011719-.332031.011719-.503907v-1.003906c0-.167968-.003907-.335937-.011719-.5.007812-.167968.011719-.335937.011719-.503906v-1.003906c0-.167969-.003907-.335938-.011719-.5.007812-.167969.011719-.335938.011719-.503906v-1.003907c0-.167969-.003907-.335937-.011719-.5.007812-.167969.011719-.335937.011719-.503906v-1.003906c0-.167969-.003907-.335938-.011719-.503907.007812-.164062.011719-.332031.011719-.5v-1.003906c0-.167968-.003907-.335937-.011719-.503906.007812-.164062.011719-.332031.011719-.5v-1.003906c0-.167969-.003907-.335938-.011719-.503906.007812-.164063.011719-.332032.011719-.5v-1.003907c0-.167969-.003907-.335937-.011719-.503906.007812-.164063.011719-.332031.011719-.5v-1.007813c0-.167968-.003907-.335937-.011719-.5.007812-.167968.011719-.335937.011719-.503906v-1.003906c0-.167969-.003907-.335938-.011719-.5.007812-.167969.011719-.335938.011719-.503906v-1.003906c0-.167969-.003907-.335938-.011719-.5.007812-.167969.011719-.335938.011719-.503907v-1.003906c0-.167969-.003907-.335937-.011719-.503906.007812-.164063.011719-.332031.011719-.5v-1.003907c0-.167968-.003907-.335937-.011719-.503906.007812-.164062.011719-.332031.011719-.5v-1.003906c0-.167969-.003907-.335938-.011719-.503906.007812-.164063.011719-.332032.011719-.5v-1.003906c0-.167969-.003907-.335938-.011719-.503907.007812-.164062.011719-.332031.011719-.5v-1.003906c0-.171875-.003907-.335937-.011719-.503906.007812-.167969.011719-.332031.011719-.503907v-1.003906c0-.167968-.003907-.335937-.011719-.5.007812-.167968.011719-.335937.011719-.503906v-1.003906c0-.167969-.003907-.335938-.011719-.5.007812-.167969.011719-.335938.011719-.503906v-1.003907c0-.167969-.003907-.335937-.011719-.5.007812-.167969.011719-.335937.011719-.503906v-1.003906c0-.167969-.003907-.335938-.011719-.503907.007812-.164062.011719-.332031.011719-.5v-1.003906c0-.167968-.003907-.335937-.011719-.503906.007812-.164062.011719-.332031.011719-.5v-1.003906c0-.167969-.003907-.335938-.011719-.503906.007812-.164063.011719-.332032.011719-.5v-.542969h27.933593c5.523438 0 10-4.476563 10-10v-27.929688h.535157c.167968 0 .335937-.003906.5-.011719.167968.007813.335937.011719.503906.011719h1c.167968 0 .335937-.003906.503906-.011719.164062.007813.332031.011719.5.011719h1.003906c.167969 0 .335938-.003906.5-.011719.167969.007813.332032.011719.503906.011719h1.003907c.167969 0 .332031-.003906.5-.011719.167969.007813.332031.011719.5.011719h1.003906c.167969 0 .335937-.003906.503906-.011719.164063.007813.332031.011719.5.011719h1.003907c.167968 0 .332031-.003906.5-.011719.167968.007813.332031.011719.5.011719h1.003906c.167968 0 .335937-.003906.503906-.011719.164062.007813.332031.011719.5.011719h1.003906c.167969 0 .335938-.003906.5-.011719.167969.007813.335938.011719.503906.011719h1.003907c.167969 0 .332031-.003906.5-.011719.164062.007813.332031.011719.5.011719h1.003906c.167969 0 .335937-.003906.5-.011719.167969.007813.335937.011719.503906.011719h1.003907c.167968 0 .332031-.003906.5-.011719.167968.007813.332031.011719.5.011719h1.003906c.167968 0 .335937-.003906.503906-.011719.164062.007813.332031.011719.5.011719h1.003906c.167969 0 .335938-.003906.5-.011719.167969.007813.335938.011719.503906.011719h1c.167969 0 .335938-.003906.503907-.011719.164062.007813.332031.011719.5.011719h1.003906c.167969 0 .335937-.003906.503906-.011719.164063.007813.332031.011719.5.011719h1c.167969 0 .335938-.003906.503907-.011719.164062.007813.332031.011719.5.011719h1.003906c.167968 0 .335937-.003906.5-.011719.167968.007813.335937.011719.503906.011719h1.003906c.167969 0 .335938-.003906.5-.011719.167969.007813.332032.011719.503906.011719h1c.167969 0 .335938-.003906.5-.011719.167969.007813.335938.011719.503907.011719h1.003906c.167969 0 .335937-.003906.5-.011719.167969.007813.335937.011719.503906.011719h1c.167969 0 .335938-.003906.503907-.011719.164062.007813.332031.011719.5.011719h1.003906c.167968 0 .335937-.003906.5-.011719.167968.007813.335937.011719.503906.011719h1c.167969 0 .335938-.003906.503906-.011719.164063.007813.332032.011719.5.011719h1.003906c.167969 0 .335938-.003906.503907-.011719.164062.007813.332031.011719.5.011719h1.003906c.167969 0 .335937-.003906.5-.011719.167969.007813.332031.011719.5.011719h1.003906c.167969 0 .335938-.003906.503907-.011719.164062.007813.332031.011719.5.011719h1.003906c.167968 0 .335937-.003906.5-.011719.167968.007813.335937.011719.503906.011719h1.003906c.167969 0 .332032-.003906.5-.011719.167969.007813.332032.011719.5.011719h1.003906c.167969 0 .335938-.003906.5-.011719.167969.007813.335938.011719.503907.011719h1.003906c.167969 0 .332031-.003906.5-.011719.167969.007813.332031.011719.5.011719h1.003906c.167969 0 .335938-.003906.503907-.011719.164062.007813.332031.011719.5.011719h1.003906c.167968 0 .332031-.003906.5-.011719.167968.007813.332031.011719.5.011719h1.003906c.167969 0 .335938-.003906.503906-.011719.164063.007813.332032.011719.5.011719h1.003906c.167969 0 .335938-.003906.5-.011719.167969.007813.335938.011719.503907.011719h1.003906c.164063 0 .332031-.003906.5-.011719.164063.007813.332031.011719.5.011719h1.003906c.167969 0 .335938-.003906.5-.011719.167969.007813.335938.011719.503907.011719h1.003906c.167968 0 .335937-.003906.5-.011719.167968.007813.335937.011719.503906.011719h1c.167969 0 .335938-.003906.5-.011719.167969.007813.335938.011719.503906.011719h1.003906c.167969 0 .335938-.003906.5-.011719.167969.007813.335938.011719.503907.011719h1c.167969 0 .335937-.003906.503906-.011719.164063.007813.332031.011719.5.011719h1.003906c.167969 0 .335938-.003906.503907-.011719.164062.007813.332031.011719.5.011719h1c.167968 0 .335937-.003906.503906-.011719.164062.007813.332031.011719.5.011719h1.003906c.167969 0 .335938-.003906.503906-.011719.164063.007813.332032.011719.5.011719h1.003906c.167969 0 .335938-.003906.5-.011719.167969.007813.335938.011719.503907.011719h1c.167969 0 .335937-.003906.503906-.011719.164063.007813.332031.011719.5.011719h1.003906c.167969 0 .335938-.003906.5-.011719.167969.007813.335938.011719.503907.011719h1.003906c.167968 0 .332031-.003906.5-.011719.167968.007813.332031.011719.5.011719h1.003906c.167969 0 .335938-.003906.5-.011719.167969.007813.332031.011719.503906.011719h1.003906c.167969 0 .332032-.003906.5-.011719.167969.007813.332032.011719.5.011719h1.003907c.167969 0 .335937-.003906.503906-.011719.164063.007813.332031.011719.5.011719h1.003906c.167969 0 .335938-.003906.5-.011719.167969.007813.332031.011719.5.011719h1.003907c.167968 0 .335937-.003906.503906-.011719.164062.007813.332031.011719.5.011719h1.003906c.167969 0 .335938-.003906.5-.011719.167969.007813.335938.011719.503906.011719h1.003906c.167969 0 .332032-.003906.5-.011719.164063.007813.332032.011719.5.011719h1.003907c.167969 0 .335937-.003906.5-.011719.167969.007813.335937.011719.503906.011719h1.003906c.167969 0 .335938-.003906.5-.011719.167969.007813.335938.011719.503907.011719h.535156v27.9375c0 5.519531 4.472656 9.996094 9.996094 9.996094h75.679687c5.519531 0 9.996094-4.476563 9.996094-9.996094v-27.9375h.535156c.167969 0 .335937-.003906.503906-.011719.164063.007813.332031.011719.5.011719h1.003907c.167968 0 .335937-.003906.5-.011719.167968.007813.335937.011719.503906.011719h1c.167968 0 .335937-.003906.503906-.011719.164062.007813.332031.011719.5.011719h1.003906c.167969 0 .335938-.003906.5-.011719.167969.007813.335938.011719.503906.011719h1c.167969 0 .335938-.003906.503907-.011719.164062.007813.332031.011719.5.011719h1.003906c.167969 0 .335937-.003906.5-.011719.167969.007813.335937.011719.503906.011719h1.003907c.167968 0 .335937-.003906.5-.011719.167968.007813.332031.011719.503906.011719h1c.167968 0 .335937-.003906.5-.011719.167968.007813.335937.011719.503906.011719h1.003906c.167969 0 .335938-.003906.5-.011719.167969.007813.335938.011719.503906.011719h1c.167969 0 .335938-.003906.503907-.011719.164062.007813.332031.011719.5.011719h1.003906c.167969 0 .335937-.003906.5-.011719.167969.007813.335937.011719.503906.011719h1.003907c.167968 0 .332031-.003906.5-.011719.167968.007813.332031.011719.5.011719h1.003906c.167968 0 .335937-.003906.503906-.011719.164062.007813.332031.011719.5.011719h1.003906c.167969 0 .335938-.003906.5-.011719.167969.007813.332032.011719.5.011719h1.003906c.167969 0 .335938-.003906.503907-.011719.164062.007813.332031.011719.5.011719h1.003906c.167969 0 .335937-.003906.5-.011719.167969.007813.335937.011719.503906.011719h1.003907c.167968 0 .332031-.003906.5-.011719.167968.007813.332031.011719.5.011719h1.003906c.167968 0 .335937-.003906.5-.011719.167968.007813.335937.011719.503906.011719h1.003906c.167969 0 .332032-.003906.5-.011719.167969.007813.332032.011719.5.011719h1.003906c.167969 0 .335938-.003906.503907-.011719.164062.007813.332031.011719.5.011719h1.003906c.167969 0 .335937-.003906.5-.011719.167969.007813.335937.011719.503906.011719h1c.167969 0 .335938-.003906.503907-.011719.164062.007813.332031.011719.5.011719h1.003906c.167968 0 .335937-.003906.5-.011719.167968.007813.335937.011719.503906.011719h1c.167969 0 .335938-.003906.503906-.011719.164063.007813.332032.011719.5.011719h1.003906c.167969 0 .335938-.003906.5-.011719.167969.007813.335938.011719.503907.011719h1.003906c.167969 0 .335937-.003906.5-.011719.167969.007813.335937.011719.503906.011719h1c.167969 0 .335938-.003906.5-.011719.167969.007813.335938.011719.503907.011719h1.003906c.167968 0 .335937-.003906.5-.011719.167968.007813.335937.011719.503906.011719h1c.167969 0 .335938-.003906.503906-.011719.164063.007813.332032.011719.5.011719h1.003906c.167969 0 .335938-.003906.503907-.011719.164062.007813.332031.011719.5.011719h1c.167969 0 .335937-.003906.503906-.011719.164063.007813.332031.011719.5.011719h1.003906c.167969 0 .335938-.003906.5-.011719.167969.007813.335938.011719.503907.011719h1.003906c.167968 0 .335937-.003906.5-.011719.167968.007813.332031.011719.503906.011719h1c.167969 0 .335938-.003906.503906-.011719.164063.007813.332032.011719.5.011719h1.003906c.167969 0 .335938-.003906.5-.011719.167969.007813.332032.011719.503907.011719h1.003906c.167969 0 .332031-.003906.5-.011719.167969.007813.332031.011719.5.011719h1.003906c.167969 0 .335938-.003906.5-.011719.167969.007813.335938.011719.503907.011719h1.003906c.167968 0 .332031-.003906.5-.011719.167968.007813.332031.011719.5.011719h1.003906c.167969 0 .335938-.003906.503906-.011719.164063.007813.332032.011719.5.011719h1.003906c.167969 0 .332032-.003906.5-.011719.167969.007813.332032.011719.5.011719h1.003907c.167969 0 .335937-.003906.503906-.011719.164063.007813.332031.011719.5.011719h1.003906c.167969 0 .335938-.003906.5-.011719.167969.007813.335938.011719.503907.011719h1.003906c.167968 0 .332031-.003906.5-.011719.164062.007813.332031.011719.5.011719h1.003906c.167969 0 .335938-.003906.503906-.011719.164063.007813.332032.011719.5.011719h1.003906c.167969 0 .335938-.003906.5-.011719.167969.007813.335938.011719.503907.011719h1c.167969 0 .335937-.003906.503906-.011719.164063.007813.332031.011719.5.011719h1.003906c.167969 0 .335938-.003906.5-.011719.167969.007813.335938.011719.503907.011719h1c.167968 0 .335937-.003906.503906-.011719.164062.007813.332031.011719.5.011719h1.003906c.167969 0 .335938-.003906.5-.011719.167969.007813.335938.011719.503906.011719h1c.167969 0 .335938-.003906.503906-.011719.164063.007813.332032.011719.5.011719h1.003907c.167969 0 .335937-.003906.5-.011719.167969.007813.335937.011719.503906.011719h1.003906c.167969 0 .335938-.003906.5-.011719.167969.007813.332031.011719.503907.011719h1c.167968 0 .335937-.003906.503906-.011719.164062.007813.332031.011719.5.011719h1.003906c.167969 0 .335938-.003906.5-.011719.167969.007813.335938.011719.503906.011719h1.003906c.167969 0 .332032-.003906.5-.011719.167969.007813.332032.011719.5.011719h1.003907c.167969 0 .335937-.003906.5-.011719.167969.007813.335937.011719.503906.011719h.535156v27.9375c0 5.519531 4.476563 9.996094 9.996094 9.996094h27.9375v.207031c0 .164063.003906.324219.011719.484375-.007813.160157-.011719.324219-.011719.484375v.972656c0 .164063.003906.324219.011719.484376-.007813.160156-.011719.320312-.011719.484374v.972657c0 .160156.003906.324219.011719.484375-.007813.160156-.011719.320312-.011719.484375v.96875c0 .164062.003906.324219.011719.488281-.007813.160156-.011719.320312-.011719.484375v.96875c0 .164063.003906.324219.011719.484375-.007813.164062-.011719.324219-.011719.484375v.972656c0 .160157.003906.324219.011719.484375-.007813.160156-.011719.324219-.011719.484375v.96875c0 .164063.003906.324219.011719.488281-.007813.160157-.011719.320313-.011719.484376v.96875c0 .164062.003906.324218.011719.484374-.007813.164063-.011719.324219-.011719.488282v.96875c0 .164062.015625.324218.023437.484375-.007812.164062-.023437.324219-.023437.484375v.5c0 5.523437 4.476563 10 9.996094 10 5.523437 0 10-4.476563 10-10v-.5c0-.164063-.019531-.320313-.027344-.484375.007813-.160157.027344-.320313.027344-.484375v-.96875c0-.164063-.003907-.324219-.011719-.488282.007812-.160156.011719-.320312.011719-.484374v-.96875c0-.164063-.003907-.324219-.011719-.484376.007812-.164062.011719-.324218.011719-.488281v-.96875c0-.160156-.003907-.324219-.011719-.484375.007812-.160156.011719-.324218.011719-.484375v-.972656c0-.160156-.003907-.320313-.011719-.484375.007812-.160156.011719-.320312.011719-.484375v-.96875c0-.164063-.003907-.324219-.011719-.484375.007812-.164062.011719-.324219.011719-.488281v-.96875c0-.164063-.003907-.324219-.011719-.484375.007812-.160156.011719-.324219.011719-.484375v-.972657c0-.164062-.003907-.324218-.011719-.484374.007812-.160157.011719-.320313.011719-.484376v-.972656c0-.160156-.003907-.324218-.011719-.484375.007812-.160156.011719-.320312.011719-.484375v-.207031h27.746093c5.578126 0 10.054688-4.476563 10.054688-9.996094zm-75.679688 142.53125h55.683594v55.683594h-55.683594zm.210938 208.226563h55.472656v55.476562h-55.472656zm-208.324219-.113282h55.683594v55.683594h-55.683594zm-152.640625 55.589844h-55.476562v-55.476562h55.476562zm.207032-208.019531h-55.683594v-55.683594h55.683594zm0-208.214844h-55.683594v-55.679687h55.683594zm208.113281 0h-55.679688v-55.679687h55.679688zm208.117187 0h-55.683594v-55.679687h55.683594zm0 0"/><path d="m255.253906 328.992188c5.523438 0 9.996094-4.476563 9.996094-10v-53.71875h53.722656c5.523438 0 10-4.476563 10-10 0-5.519532-4.476562-9.996094-10-9.996094h-53.722656v-53.722656c0-5.519532-4.472656-9.996094-9.996094-9.996094-5.519531 0-9.996094 4.476562-9.996094 9.996094v53.722656h-53.722656c-5.523437 0-10 4.476562-10 9.996094 0 5.523437 4.476563 10 10 10h53.722656v53.71875c0 5.523437 4.476563 10 9.996094 10zm0 0"/><path d="m473.394531 148.710938c-.25-.601563-.558593-1.183594-.921875-1.722657-.359375-.550781-.777344-1.058593-1.238281-1.519531s-.96875-.878906-1.519531-1.25c-.539063-.359375-1.121094-.667969-1.730469-.917969-.597656-.25-1.230469-.441406-1.867187-.570312-1.289063-.261719-2.621094-.261719-3.910157 0-.628906.128906-1.261719.320312-1.871093.570312-.597657.25-1.179688.558594-1.71875.917969-.550782.371094-1.058594.789062-1.519532 1.25-.460937.460938-.878906.96875-1.25 1.519531-.359375.539063-.667968 1.121094-.917968 1.722657-.25.605468-.441407 1.238281-.570313 1.867187-.128906.648437-.191406 1.300781-.191406 1.960937 0 .648438.0625 1.308594.191406 1.949219s.320313 1.269531.570313 1.867188c.25.601562.558593 1.191406.917968 1.730469.371094.550781.789063 1.058593 1.25 1.519531.460938.460937.96875.878906 1.519532 1.238281.539062.363281 1.121093.671875 1.71875.921875.609374.25 1.242187.4375 1.871093.570313.648438.128906 1.308594.1875 1.960938.1875.648437 0 1.308593-.058594 1.949219-.1875.636718-.132813 1.269531-.320313 1.867187-.570313.609375-.25 1.191406-.558594 1.730469-.921875.550781-.359375 1.058594-.777344 1.519531-1.238281.460937-.460938.878906-.96875 1.238281-1.519531.363282-.539063.671875-1.128907.921875-1.730469.25-.597657.441407-1.226563.570313-1.867188s.199218-1.300781.199218-1.949219c0-.660156-.070312-1.3125-.199218-1.960937-.128906-.628906-.320313-1.257813-.570313-1.867187zm0 0"/></svg>